<svg width="460" height="390" viewBox="0 0 460 390" fill="none" xmlns="http://www.w3.org/2000/svg">
<path d="M-254.021 379.695C-221.664 362.137 -189.753 347.5 -157.976 334.344C-155.779 332.927 -154.352 331.725 -150.917 330.616C-148.195 329.969 -145.548 329.177 -142.997 328.315C-138.323 326.439 -133.681 324.54 -128.993 322.788C-127.392 322.102 -125.794 321.391 -124.138 320.678C-124.138 320.678 -124.056 320.623 -123.997 320.62C-121.492 319.336 -122.464 319.313 -124.281 319.636C-126.227 320.116 -128.067 320.49 -129.652 320.775C-128.643 320.596 -126.039 319.956 -124.281 319.636C-121.904 319.058 -119.313 318.294 -116.364 317.31C-112.152 315.509 -107.738 313.672 -102.973 312.091C-108.029 314.238 -112.451 316 -116.364 317.31C-119.029 318.478 -121.553 319.589 -124.106 320.701C-124.831 321.065 -125.526 321.427 -126.28 321.792C-115.529 317.69 -104.803 313.639 -93.9614 309.831C-91.5114 308.85 -89.2048 307.901 -87.2884 307.148C-79.676 303.915 -71.9462 300.95 -66.5528 300.284C-64.6255 299.63 -62.6717 298.95 -60.686 298.294C-61.0896 298.365 -61.4933 298.437 -61.8996 298.484C-61.0155 298.236 -60.2401 298.07 -59.611 297.911C-51.3976 295.07 -43.0378 292.495 -34.6941 289.772C-29.5609 287.521 -24.2605 285.187 -18.8136 283.119C-18.8136 283.119 -14.6894 282.672 -12.6844 282.464C-10.6785 281.182 -7.597 279.791 -3.89935 278.393C-8.72423 279.153 -13.159 279.717 -17.2189 280.485C-23.3746 281.167 -28.7124 286.676 -36.2767 286.834C-28.7124 286.676 -23.3773 281.142 -17.2189 280.485C-13.159 279.717 -8.72423 279.153 -3.89935 278.393C3.83845 275.502 14.3736 272.935 23.1258 271.539C13.2517 275.594 4.16248 277.133 -3.89935 278.393C-7.597 279.791 -10.6785 281.182 -12.6844 282.464C-14.7187 282.674 -18.8136 283.119 -18.8136 283.119C-24.2605 285.187 -29.5609 287.521 -34.6941 289.772C-26.5815 287.086 -18.2932 284.665 -9.9891 282.119C-1.71959 279.524 6.74955 277.144 15.2743 274.735C28.944 270.725 42.7076 267.31 56.3036 263.703C70.0249 260.44 83.5468 256.962 97.2263 254.126C110.815 250.995 124.53 248.481 138.199 245.82C145.055 244.551 151.964 243.504 158.831 242.334L169.166 240.627L179.562 239.217C207.24 235.126 235.414 232.631 264.095 231.284C292.789 229.786 322.153 230.4 352.154 232.553C360.257 233.29 368.42 233.774 376.339 234.721C384.258 235.667 391.939 236.852 399.143 238.786C406.315 240.698 413.044 243.407 418.604 246.979C424.007 250.46 428.434 255.242 431.075 260.346C433.744 265.448 434.601 270.898 433.009 275.455C432.256 277.719 430.817 279.895 429.171 281.782C427.373 283.628 425.136 285.223 422.613 286.608C417.347 289.265 410.861 290.964 403.938 291.887C397.053 292.883 389.73 293.103 382.381 293.075C351.84 292.724 322.016 291.66 292.943 288.308C278.382 286.82 264.075 284.419 249.922 281.811L239.419 279.529L234.182 278.388L229.011 277.043L218.695 274.327L208.568 271.176L203.519 269.6L198.562 267.794L188.676 264.156L179.062 260.053C177.459 259.365 175.833 258.728 174.28 257.963L169.65 255.64C157.079 249.748 145.606 242.323 134.648 234.495C113.179 218.367 95.64 198.104 83.2682 175.365C82.6502 174.274 81.9472 173.213 81.3795 172.044C80.8119 170.876 80.2416 169.682 79.6366 168.441C78.4321 166.008 77.1584 163.479 75.8446 160.851C74.4195 158.28 73.3791 155.464 72.158 152.607C70.9395 149.775 69.681 146.845 68.4172 143.865C64.0761 131.759 59.6483 118.583 57.2704 105.072C54.3428 91.64 53.4548 78.0483 52.8635 65.5647C53.0685 59.3334 52.9472 53.3446 53.3446 47.8023C53.92 42.2755 54.2409 37.112 54.8603 32.532C55.424 26.3563 55.5193 21.2801 55.5711 17.1554C55.8327 13.0694 55.7532 9.90107 55.4597 7.46876C54.8463 2.63057 53.2948 0.790685 51.4246 0.616801C47.7135 0.267429 42.7758 6.75417 42.1056 7.88948C37.3126 15.1678 34.7722 22.6242 32.2669 30.4035C31.2533 34.3303 30.548 38.3903 29.8059 42.6521C29.4774 44.7683 29.0373 46.9404 28.8683 49.1728C28.7285 51.4036 28.5676 53.7106 28.412 56.0672C28.1036 60.8052 27.7638 65.7948 27.9983 71.203C28.1425 76.5911 28.0032 82.3443 28.7065 88.5516C28.9559 91.6608 29.1896 94.8957 29.4368 98.2548C29.7131 101.612 30.3535 105.075 30.8057 108.698C31.5373 115.978 33.2577 123.704 34.8253 132.188C32.5143 120.647 32.3809 116.982 33.4938 118.57C34.0502 119.365 34.9247 121.466 36.0241 124.554C36.5445 126.1 37.1504 127.891 37.8097 129.904C38.1247 130.911 38.4452 131.968 38.8003 133.073C39.2137 134.175 39.6299 135.301 40.0807 136.476C40.953 138.827 41.8762 141.375 42.8686 144.02C43.861 146.664 44.6996 149.517 46.0029 152.319C47.1948 155.178 48.4533 158.107 49.7171 161.087C50.3198 162.578 50.9544 164.093 51.5917 165.632C52.3113 167.117 53.0628 168.626 53.785 170.135C56.759 176.145 59.4623 182.37 62.8448 188.083C64.4246 190.995 65.9406 193.861 67.3901 196.656C68.9245 199.421 70.6153 202.003 72.0378 204.549C87.9166 234.419 124.253 264.609 168.809 282.54C190.991 291.71 214.803 298.294 238.591 303.031C262.379 307.768 286.15 310.732 308.97 313.049C331.818 315.363 356.119 315.626 383.225 315.463C392.486 315.512 402.082 315.12 412.011 313.46C417 312.591 422.05 311.469 427.179 309.719C432.302 307.918 437.483 305.566 442.325 302.257C452.059 295.561 459.176 284.785 459.606 273.321C460.138 261.976 455.457 251.886 448.899 243.721C445.573 239.604 441.673 235.892 437.205 232.636C432.61 229.287 427.897 226.743 423.11 224.603C413.448 220.328 403.576 217.913 394.235 216.318C384.841 214.777 375.928 213.884 367.38 213.371C358.739 212.813 350.087 212.155 341.43 211.723C272.006 208.874 202.273 215.634 130.655 228.84C92.7136 236.108 60.8252 246.347 30.5644 256.149C24.9813 257.774 19.2841 259.43 13.6133 261.06C7.90796 262.642 2.2345 264.247 -3.32749 265.796C-14.385 268.966 -24.922 272.058 -33.8976 274.915C-62.0024 284.275 -85.5335 293.539 -107.686 303.053C-95.0881 298.101 -84.2423 293.794 -72.8891 289.559C-61.6105 285.178 -49.7817 280.993 -35.4576 275.973C-25.8424 272.782 -28.8834 274.545 -35.8185 277.792C-42.7482 281.088 -53.5827 285.77 -59.7488 288.251C-64.8659 290.65 -74.5915 291.2 -79.7378 293.601C-91.4524 297.755 -101.572 302.798 -113.696 308.048C-118.739 310.594 -119.354 308.179 -121.859 309.463C-138.554 316.459 -149.715 324.63 -160.737 328.398C-168.979 331.515 -176.401 334.339 -183.656 337.079C-188.221 338.874 -192.654 340.812 -197.232 343.032C-200.008 344.531 -202.863 346.109 -205.75 347.663C-208.333 349.052 -210.97 350.468 -213.635 351.911C-216.265 353.402 -218.95 354.921 -221.636 356.439C-227.036 359.479 -232.574 362.6 -238.141 365.724C-249.034 372.307 -260.365 378.639 -270.742 385.369C-270.625 385.363 -270.447 385.378 -270.301 385.37C-267.181 383.528 -264.028 381.709 -260.873 379.915C-257.649 378.217 -254.39 376.568 -251.099 374.941C-244.48 371.761 -237.81 368.504 -230.46 365.834C-236.716 368.295 -236.404 367.379 -229.727 363.921C-227.754 363.415 -225.782 362.908 -223.809 362.402C-235.239 368.64 -246.166 375.449 -258.22 379.722C-258.22 379.722 -259.403 380.46 -260.764 381.458C-262.154 382.457 -263.818 383.646 -264.937 384.431C-268.743 386.185 -269.058 385.453 -270.245 385.342C-272.673 386.797 -275.128 388.278 -277.614 389.737C-274.58 388.723 -268.627 386.179 -263.467 383.902C-260.887 382.764 -258.509 381.661 -256.707 380.939C-254.936 380.194 -253.813 379.709 -253.813 379.709L-254.021 379.695Z" fill="#4A74EB"/>
</svg>
