<svg width="668" height="431" viewBox="0 0 668 431" fill="none" xmlns="http://www.w3.org/2000/svg">
<path opacity="0.85" d="M33.0535 389.367C57.2924 386.47 80.6045 382.697 102.99 378.047C125.441 373.418 147.064 367.966 167.868 361.354C171.431 361.148 174.846 360.373 177.982 359.061C180.935 357.573 184.055 356.195 187.231 354.854L204.973 348.247L211.254 346L211.329 345.878C214.867 344.777 214.041 345.676 212.222 346.916C210.402 348.155 208.216 349.29 206.615 350.365C207.619 349.687 210.475 348.1 212.222 346.916C214.803 345.457 217.728 343.95 221.253 342.359C226.672 340.368 232.189 337.96 237.783 335.363C231.18 337.878 225.893 340.231 221.253 342.359L211.168 346.012C210.204 346.304 209.226 346.621 208.191 346.9C221.536 341.514 234.607 335.809 247.421 329.625L255.878 326.133C265.238 322.001 274.759 317.733 279.413 313.344L286.051 309.683L284.925 310.624L287.283 309.018C291.978 306.479 296.551 303.757 301.181 301.004C305.811 298.251 310.438 295.633 314.939 292.898C321.218 289.824 327.919 286.892 334.086 283.297C334.086 283.297 337.469 279.892 339.048 278.149C342.772 276.57 346.288 274.647 349.556 272.401L343.856 278.369C342.162 280.257 340.332 282.023 338.376 283.657C335.385 286.204 331.901 288.19 328.064 289.534C323.87 290.953 320.194 293.302 317.293 296.415C320.194 293.302 323.87 290.953 328.064 289.534C331.901 288.19 335.385 286.204 338.376 283.657C340.332 282.023 342.162 280.257 343.856 278.369L349.556 272.401C358.659 265.925 366.452 257.965 372.662 248.8C364.489 256.22 356.777 264.097 349.556 272.401C346.288 274.647 342.772 276.57 339.048 278.149C337.469 279.892 334.086 283.297 334.086 283.297C327.947 286.911 321.218 289.824 314.939 292.898C319.37 290.151 323.913 287.477 328.363 284.571L334.922 280.272C337.117 278.868 339.271 277.402 341.288 275.777L347.519 271.054C349.619 269.484 351.499 267.699 353.503 266.031C357.567 262.731 361.259 259.014 365.02 255.376C376.73 243.459 386.646 229.957 394.546 215.171C402.456 200.725 408.221 185.05 411.697 168.539C415.233 152.236 416.44 135.22 415.286 117.928C414.315 100.868 410.279 83.6479 403.359 67.0351C402.439 65.0167 401.535 62.9739 400.47 61.0655L398.881 58.1569L397.131 55.3828C395.979 53.5724 394.726 51.8137 393.38 50.1159C392.085 48.5643 390.673 47.1015 389.159 45.7427C382.161 40.0127 374.272 35.4984 365.934 32.4509C348.415 26.315 330.331 23.4562 312.728 24.0401C294.475 24.3447 276.605 26.5541 259.421 30.6311C250.761 32.6498 242.366 35.3091 234.301 38.5877C226.275 41.9504 218.735 46.126 211.788 51.0546C196.824 61.6747 185.074 75.8256 177.41 92.4558C169.903 108.662 166.746 126.949 168.192 145.848C169.731 164.547 174.827 183.337 183.225 201.271C191.471 219.158 202.034 236.245 214.627 252.068C238.954 282.938 269.727 308.827 304.402 327.596L310.805 330.969L317.288 334.086C321.523 336.198 326.303 338.188 330.768 340.246L344.35 346.302L358.027 352.076C376.186 359.816 394.544 366.655 412.928 373.133C449.727 385.526 487.195 395.229 524.614 398.811C562.347 402.748 599.345 399.257 633.359 388.551C648.913 383.657 663.995 377.796 678.523 371.002C695.822 362.823 712.357 353.447 728.021 342.934C744.158 332.101 759.559 320.23 773.351 308.809C787.142 297.388 799.314 286.306 808.956 277.302C818 269.387 827.767 262.25 838.172 255.952C844.301 252.676 847.359 252.805 848.63 254.506C851.172 257.907 846.634 267.671 845.718 269.164C834.153 289.041 820.811 303.822 801.866 321.47C797.03 325.772 792.096 330.492 786.361 335.301L777.652 342.72L768.092 350.505C754.78 361.143 739.287 373.228 719.564 386.198C732.863 377.307 736.59 373.853 734.133 374.534C731.676 375.214 723.151 379.968 710.862 386.19C698.573 392.412 682.63 400.243 665.502 406.809C648.373 413.375 630.137 418.933 614.691 423.205C590.039 429.781 563.807 432.195 537.038 430.351C507.201 428.339 477.175 422.867 447.603 414.054C417.117 405.007 386.98 394.092 357.389 381.38C350.064 378.188 342.729 375.013 335.384 371.854C328.038 368.695 320.871 365.458 313.883 362.145C298.983 355.416 284.487 347.615 270.534 338.817C256.228 329.777 242.749 319.399 230.331 307.866C216.69 295.277 204.186 281.582 193.005 266.982C177.228 247.176 164.392 225.561 154.957 202.914C145.143 179.96 140.154 155.987 140.31 132.539C140.469 120.659 142.164 109.069 145.357 98.0305C148.555 87.0597 153.19 76.712 159.161 67.2134C171.07 48.1994 187.819 32.7969 208.111 22.2003C228.015 12.2946 249.985 5.89967 273.145 3.27011C284.507 1.69836 296.081 0.880088 307.791 0.820747C319.94 0.719027 332.253 1.7846 344.553 4.00215C357.782 6.25641 370.862 10.6128 383.246 16.8891C386.525 18.5609 389.72 20.421 392.813 22.4578C394.428 23.4236 396.003 24.4644 397.529 25.5759L399.811 27.2911C400.673 27.8795 401.496 28.5269 402.271 29.2273C405.682 32.1823 408.795 35.452 411.55 38.9747L415.058 43.8059L418.013 48.5806C424.764 60.5719 429.758 73.2085 432.827 86.0715C442.007 123.272 440.118 160.624 427.387 193.603C419.879 213.342 409.277 231.487 395.906 247.482C386.776 258.991 376.625 269.66 365.545 279.394C360.22 284.303 354.478 288.42 349.091 292.599C343.703 296.778 338.086 300.117 333.155 302.912C305.203 319.788 275.652 334.406 244.749 346.643C252.574 343.285 259.799 340.011 266.808 336.835C273.816 333.658 280.556 330.408 287.259 326.961C293.962 323.515 300.863 320.13 307.966 316.224L318.98 310.226L330.657 303.531C352.105 290.945 313.513 309.227 298.503 316.367C291.866 319.067 284.081 327.475 277.338 329.898C270.448 333.393 263.657 336.472 256.505 339.243L245.66 343.495L234.175 347.703C227.237 349.997 229.556 352.355 226.062 353.383C204.524 361.575 185.793 363.4 172.223 368.705L157.075 373.897C152.153 375.528 147.365 376.938 142.702 378.466C136.734 380.265 130.704 381.783 124.137 383.153C119.845 383.756 115.832 384.543 111.512 385.127C113.507 384.284 115.075 382.803 115.99 380.897C110.076 382.354 101.868 384.737 95.773 386.04C101.756 384.663 110.076 382.354 115.99 380.897C115.075 382.803 113.507 384.284 111.512 385.127C96.1576 387.395 79.5924 389.654 62.6321 391.342L49.9962 392.759L37.1992 393.862C28.8253 394.725 20.1466 395.317 11.663 395.592L12.0707 395.311C16.9488 395.095 21.8374 394.543 26.6682 394.021C31.499 393.5 36.1665 392.732 40.9329 391.996C50.4633 390.591 59.8734 388.486 69.5045 386.15C61.1545 388.06 62.4575 388.75 72.2713 387.394L79.2088 384.653C62.1607 386.868 44.8526 388.292 29.2537 392.428L25.1719 392.688L18.0918 392.72C12.7483 393.695 13.0941 394.474 12.2102 395.403C8.24848 395.467 4.4649 395.752 0.505306 395.749C4.4346 394.907 12.8792 393.609 19.9738 392.21C23.5834 391.569 26.9096 390.878 29.3196 390.338L33.0535 389.367Z" fill="#4A74EB"/>
</svg>
