<svg width="30" height="30" viewBox="0 0 30 30" fill="none" xmlns="http://www.w3.org/2000/svg">
<path d="M30.0016 15V10.0238C28.7515 10.1396 24.5251 10.1974 20.4773 10.1974C20.4773 6.37851 20.5368 2.67532 20.6559 0.881592C18.751 0.997318 16.9652 0.99732 14.9413 0.99732C12.9174 0.99732 11.0125 0.997318 9.22668 0.881592C9.34574 2.67532 9.40526 6.37851 9.46479 10.1974C5.41696 10.1974 1.30959 10.1396 0 10.0238C0.0595269 11.5861 0.0595269 13.1484 0.0595269 15C0.0595269 16.7359 0.0595269 18.2981 0 19.9761C1.30959 19.9183 5.41696 19.8604 9.46479 19.8604C9.40526 23.6793 9.34574 27.3247 9.22668 29.1184C11.0125 29.0605 12.9174 29.0605 14.9413 29.0605C16.9652 29.0605 18.751 29.0605 20.6559 29.1184C20.5368 27.3247 20.4773 23.6793 20.4773 19.8604C24.5251 19.8604 28.7515 19.9183 30.0016 19.9761V15Z" fill="#4A74EB"/>
</svg>
