<svg width="244" height="46" viewBox="0 0 244 46" fill="none" xmlns="http://www.w3.org/2000/svg">
<g clip-path="url(#clip0_503_1388)">
<path d="M134.399 38.8015C134.901 37.8901 136.012 37.386 137.612 37.386C139.876 37.386 141.027 38.4476 141.027 40.6977C141.027 42.9378 139.746 44.0728 137.588 44.0728C136.019 44.0728 134.994 43.5587 134.449 42.9912L134.353 43.0112C134.363 43.1514 134.363 43.2783 134.363 43.4085V43.946H132.58C132.6 42.8744 132.613 41.6725 132.613 40.0233C132.613 38.1271 132.603 36.6248 132.593 35.65H134.386C134.366 36.2509 134.366 36.755 134.366 37.5028C134.366 37.9635 134.356 38.3274 134.333 38.7781L134.399 38.8015ZM134.336 42.1432C134.978 42.5505 135.842 42.7642 136.887 42.7642C138.543 42.7642 139.321 42.0798 139.321 40.7077C139.321 39.3456 138.509 38.7247 136.95 38.7347C135.52 38.7347 134.333 39.3123 134.333 40.641V42.1432H134.336Z" fill="black"/>
<path d="M150.657 37.5028C149.845 38.9483 148.319 42.0264 147.507 43.3016C146.503 44.9942 145.821 45.6919 143.962 45.6919C143.035 45.6919 142.35 45.4783 141.698 45.1979C141.794 44.9408 142.05 44.0628 142.104 43.729C142.722 44.0728 143.341 44.2531 144.099 44.2531C144.89 44.2531 145.379 44.0161 145.808 43.2682L145.818 43.2482C145.432 43.2382 145.103 43.2482 144.837 43.2582C144.195 42.1766 142.509 39.0251 141.611 37.5128H143.693C143.916 38.0703 144.804 39.6027 145.359 40.7377C145.712 41.4889 145.978 42.0898 146.161 42.5271H146.257C146.46 42.0764 146.739 41.4889 147.112 40.7043C147.657 39.5693 148.435 38.1204 148.701 37.5095L150.657 37.5028Z" fill="black"/>
<path d="M165.689 43.9459C165.742 42.5304 165.752 41.2017 165.762 39.5726C165.762 38.9616 165.796 38.2973 165.825 37.6763L165.762 37.6663C165.516 38.2572 165.227 38.8882 164.908 39.4257L162.261 43.9492H161.376L158.622 39.222C158.29 38.6645 158.004 38.0436 157.758 37.4861L157.685 37.5061C157.718 38.1804 157.758 38.8982 157.758 39.5625C157.768 41.2551 157.791 42.4336 157.831 43.9459H156.092C156.135 42.7875 156.145 41.619 156.145 39.9164C156.145 38.1571 156.135 36.9586 156.102 35.907H158.642C159.165 36.765 160.096 38.4909 161.14 40.2903C161.396 40.7176 161.685 41.2451 161.951 41.7692H161.994C162.261 41.2551 162.54 40.741 162.796 40.3003C163.82 38.531 164.791 36.765 165.303 35.907H167.578C167.545 36.9586 167.535 38.1571 167.535 39.9164C167.535 41.619 167.545 42.7875 167.588 43.9459H165.689Z" fill="black"/>
<path d="M170.939 41.1283C171.069 42.4036 171.91 42.9411 173.596 42.9411C175.316 42.9411 175.785 42.447 175.808 41.7927C176.031 41.8127 176.287 41.8261 176.629 41.8261C176.939 41.8261 177.185 41.8161 177.388 41.7927C177.431 43.1982 176.716 44.1596 173.577 44.1596C170.863 44.1596 169.307 43.0546 169.307 40.7077C169.307 38.3708 170.91 37.3192 173.6 37.3192C176.377 37.3192 177.401 38.3575 177.401 40.0968C177.401 40.5241 177.381 40.8346 177.358 41.135C176.623 41.125 175.339 41.125 173.793 41.125H170.939V41.1283ZM170.959 40.257C172.443 40.2904 174.578 40.2904 175.795 40.257C175.805 40.1702 175.805 40.0734 175.805 39.9666C175.805 39.0218 175.163 38.4977 173.573 38.4977C171.887 38.501 171.109 38.9817 170.959 40.257Z" fill="black"/>
<path d="M189.729 43.946C189.762 43.068 189.762 41.7159 189.762 40.2069C189.762 39.2622 189.27 38.7814 188.139 38.7814C187.019 38.7814 186.091 39.3189 186.091 40.6142C186.091 42.2434 186.081 43.1447 186.124 43.946H184.458C184.491 43.0546 184.501 41.9429 184.501 40.217C184.501 39.2755 184.023 38.7814 182.869 38.7814C181.748 38.7814 180.83 39.3189 180.83 40.6142C180.83 42.19 180.83 43.335 180.85 43.946H179.164C179.197 43.0546 179.184 42.1466 179.184 40.8279C179.184 39.4124 179.184 38.4476 179.164 37.5162H180.893C180.873 37.9669 180.873 38.3107 180.84 38.7581L180.913 38.7781C181.382 37.8567 182.227 37.396 183.55 37.396C184.927 37.396 185.782 37.8667 186.005 38.8115L186.078 38.8215C186.547 37.8033 187.518 37.396 188.821 37.396C190.55 37.396 191.395 38.1772 191.395 39.6795C191.395 40.5141 191.375 41.2018 191.375 41.9195C191.375 42.5839 191.385 43.335 191.408 43.946H189.729Z" fill="black"/>
<path d="M195.202 38.8015C195.704 37.8901 196.815 37.386 198.414 37.386C200.679 37.386 201.829 38.4476 201.829 40.6977C201.829 42.9378 200.549 44.0728 198.391 44.0728C196.821 44.0728 195.797 43.5587 195.252 42.9912L195.155 43.0112C195.165 43.1514 195.165 43.2783 195.165 43.4085V43.946H193.383C193.403 42.8744 193.416 41.6725 193.416 40.0233C193.416 38.1271 193.406 36.6248 193.396 35.65H195.189C195.169 36.2509 195.169 36.755 195.169 37.5028C195.169 37.9635 195.159 38.3274 195.135 38.7781L195.202 38.8015ZM195.139 42.1432C195.78 42.5505 196.645 42.7642 197.689 42.7642C199.345 42.7642 200.124 42.0798 200.124 40.7077C200.124 39.3457 199.312 38.7247 197.752 38.7347C196.323 38.7347 195.135 39.3123 195.135 40.641V42.1432H195.139Z" fill="black"/>
<path d="M211.459 37.5028C210.648 38.9483 209.122 42.0264 208.31 43.3016C207.306 44.9942 206.624 45.6919 204.765 45.6919C203.837 45.6919 203.152 45.4783 202.501 45.1979C202.597 44.9408 202.853 44.0628 202.906 43.729C203.525 44.0728 204.143 44.2531 204.902 44.2531C205.693 44.2531 206.182 44.0161 206.611 43.2682L206.621 43.2482C206.235 43.2382 205.906 43.2482 205.64 43.2582C204.998 42.1766 203.312 39.0251 202.414 37.5128H204.496C204.719 38.0703 205.607 39.6027 206.162 40.7377C206.514 41.4889 206.78 42.0898 206.963 42.5271H207.06C207.263 42.0764 207.542 41.4889 207.914 40.7043C208.46 39.5693 209.238 38.1204 209.504 37.5095L211.459 37.5028Z" fill="black"/>
<path d="M89.0458 5.83555C92.0633 5.83555 94.5095 4.52922 94.5095 2.91778C94.5095 1.30633 92.0633 0 89.0458 0C86.0282 0 83.582 1.30633 83.582 2.91778C83.582 4.52922 86.0282 5.83555 89.0458 5.83555Z" fill="black"/>
<path d="M40.411 5.83555C43.4286 5.83555 45.8748 4.52922 45.8748 2.91778C45.8748 1.30633 43.4286 0 40.411 0C37.3935 0 34.9473 1.30633 34.9473 2.91778C34.9473 4.52922 37.3935 5.83555 40.411 5.83555Z" fill="black"/>
<path d="M21.7335 23.5516C20.9882 24.7181 19.8204 25.636 18.2233 26.3054C16.593 26.9748 14.6066 27.3294 12.3041 27.3294C10.4243 27.3294 8.72403 27.1173 7.20015 26.6932C5.67628 26.3054 4.39861 25.6692 3.33722 24.8208C2.27251 23.9725 1.45733 22.8789 0.891701 21.5732C0.282816 20.2676 0 18.7498 0 16.9471C0 15.1477 0.356015 13.5935 1.02812 12.2878C1.70022 10.9821 2.62187 9.9217 3.79306 9.07335C4.96425 8.225 6.31178 7.58874 7.90553 7.16788C9.466 6.78016 11.133 6.56807 12.9396 6.56807C14.2173 6.56807 15.3153 6.63766 16.2735 6.81661C17.2318 6.99556 18.0104 7.24079 18.6858 7.52247C19.3612 7.80414 19.8903 8.12227 20.3161 8.47686C20.7054 8.83144 21.0248 9.18271 21.2378 9.53729H21.4873V0H32.3341V26.8357H21.9798V23.5516H21.7335ZM19.9967 13.4874C19.0385 12.7451 17.7275 12.3938 16.0972 12.3938C15.3519 12.3938 14.6798 12.4634 14.0776 12.6424C13.4753 12.818 12.943 13.0666 12.5171 13.4178C12.0546 13.8055 11.7385 14.2662 11.489 14.8295C11.2394 15.4293 11.133 16.1352 11.133 16.9471C11.133 18.6073 11.5954 19.8069 12.5171 20.4797C13.4021 21.1491 14.6432 21.5036 16.1704 21.5036C17.8007 21.5036 19.0784 21.1491 20.0333 20.4432C20.955 19.7374 21.4175 18.5709 21.4175 16.9471C21.4141 15.3597 20.9516 14.2297 19.9967 13.4874Z" fill="black"/>
<path d="M45.733 7.06177V26.8356H34.6699V7.06177H45.733Z" fill="black"/>
<path d="M94.3898 7.06177V26.8356H83.3301V7.06177H94.3898Z" fill="black"/>
<path d="M108.934 15.1112L118.859 7.06184H128.076L117.758 15.4293L129.989 26.8356H116.906L110.701 21.1491L108.751 22.7364V26.8323H97.6914V0H108.751V15.1112H108.934Z" fill="black"/>
<path d="M143.743 0V26.8356H132.684V0H143.743Z" fill="black"/>
<path d="M204.718 12.7286C203.94 12.4801 203.088 12.2349 202.166 12.0592C201.245 11.8836 200.287 11.7411 199.295 11.6351C198.267 11.529 197.239 11.4926 196.211 11.4926C195.432 11.4926 194.793 11.529 194.261 11.5622C193.729 11.5986 193.339 11.6682 193.02 11.7378C192.7 11.8438 192.487 11.9499 192.381 12.0559C192.275 12.162 192.205 12.3045 192.205 12.4436C192.205 12.7253 192.348 12.9374 192.594 13.0799C192.843 13.2224 193.339 13.3284 194.085 13.398C194.9 13.5041 195.785 13.5737 196.78 13.6466C197.774 13.7195 198.766 13.7891 199.794 13.8587C200.786 13.9282 201.744 14.0012 202.702 14.1072C203.624 14.2132 204.439 14.3193 205.148 14.4618C206.176 14.6374 207.061 14.886 207.876 15.2041C208.691 15.5222 209.367 15.9464 209.896 16.4037C210.428 16.8643 210.817 17.4641 211.1 18.1335C211.383 18.8029 211.526 19.6148 211.526 20.5361C211.526 22.8326 210.321 24.5624 207.873 25.7256C205.427 26.8921 201.634 27.4554 196.493 27.4554C194.863 27.4554 193.266 27.3858 191.742 27.2433C190.182 27.1373 188.728 26.9252 187.417 26.6435C186.069 26.395 184.865 26.0437 183.8 25.5831C182.735 25.1225 181.887 24.5956 181.248 23.9593L184.475 19.7938C185.86 20.7813 187.49 21.4872 189.367 21.9478C191.246 22.4084 193.409 22.6536 195.855 22.6536C196.883 22.6536 197.735 22.6172 198.407 22.5841C199.079 22.5476 199.611 22.478 200 22.372C200.39 22.3024 200.639 22.1963 200.816 22.0903C200.959 21.9842 201.028 21.8417 201.028 21.6661C201.028 21.4905 200.992 21.348 200.885 21.2419C200.779 21.1359 200.566 21.0663 200.247 20.9934C199.927 20.9238 199.501 20.8509 198.969 20.7813C198.437 20.7449 197.728 20.6753 196.876 20.6388C196.274 20.6024 195.565 20.5328 194.713 20.4632C193.828 20.4267 192.94 20.3571 192.018 20.2511C191.06 20.1815 190.175 20.0755 189.29 19.933C188.405 19.7905 187.66 19.6148 187.057 19.4392C186.419 19.2636 185.816 19.015 185.251 18.7333C184.682 18.4848 184.186 18.1335 183.727 17.6729C183.264 17.2156 182.912 16.6489 182.662 15.9795C182.413 15.3101 182.273 14.4949 182.273 13.5074C182.273 12.5894 182.486 11.708 182.945 10.8596C183.371 10.0477 184.116 9.30541 185.144 8.70561C186.172 8.1058 187.52 7.61203 189.257 7.22431C190.994 6.86973 193.12 6.69409 195.708 6.69409C199.149 6.69409 202.02 6.90618 204.289 7.36349C206.558 7.82412 208.295 8.45707 209.5 9.30541L206.771 13.5438C206.172 13.2588 205.497 12.9772 204.718 12.7286Z" fill="black"/>
<path d="M232.159 21.9113C232.831 21.7688 233.4 21.5568 233.826 21.2751C234.252 20.9934 234.571 20.6753 234.784 20.2875C234.997 19.8998 235.14 19.5121 235.174 19.0515L243.788 20.5361C242.83 25.1622 237.832 27.4554 228.755 27.4554C223.402 27.4554 219.396 26.5739 216.774 24.7712C214.152 23.0049 212.838 20.4267 212.838 17.0731C212.838 13.7195 214.185 11.1413 216.88 9.34187C219.576 7.57558 223.545 6.69409 228.829 6.69409C231.487 6.69409 233.756 6.94263 235.669 7.4364C237.583 7.96661 239.18 8.70561 240.421 9.66C241.662 10.6144 242.547 11.814 243.149 13.2257C243.718 14.6374 244.001 16.2281 244.001 18.0275H224.004C224.147 19.4757 224.643 20.5361 225.528 21.169C226.413 21.8384 227.761 22.1566 229.604 22.1566C230.599 22.1566 231.45 22.087 232.159 21.9113ZM224.324 14.9191H234.109C234.072 14.0376 233.65 13.3318 232.831 12.7651C231.98 12.2349 230.738 11.9532 229.108 11.9532C226.593 11.9532 224.996 12.9407 224.324 14.9191Z" fill="black"/>
<path d="M228.754 5.91531C231.711 5.91531 234.107 4.61859 234.107 3.019C234.107 1.4194 231.711 0.122681 228.754 0.122681C225.797 0.122681 223.4 1.4194 223.4 3.019C223.4 4.61859 225.797 5.91531 228.754 5.91531Z" fill="black"/>
<path d="M146.825 13.2589C146.788 12.9772 146.788 12.7651 146.788 12.5895C146.788 11.4959 147.178 10.5415 147.923 9.79918C148.668 9.05687 149.696 8.42061 151.044 7.9633C152.355 7.50599 153.952 7.18786 155.795 6.97577C157.639 6.80013 159.658 6.69409 161.821 6.69409C164.127 6.69409 166.146 6.80014 167.883 7.01222C169.62 7.22431 171.074 7.57889 172.245 8.07266C173.416 8.60288 174.265 9.27228 174.867 10.1206C175.469 10.969 175.752 12.0261 175.752 13.2622V19.7606C175.752 20.5725 175.965 21.1392 176.354 21.4209C176.744 21.739 177.313 21.8815 178.091 21.8815C178.554 21.8815 178.976 21.8451 179.369 21.739C179.758 21.633 180.008 21.5634 180.147 21.4573V25.7289C179.688 26.1862 178.8 26.5773 177.559 26.8954C176.318 27.25 174.864 27.4256 173.27 27.4256C169.973 27.4256 167.703 26.6137 166.392 24.9899C166.216 24.7414 166.036 24.4597 165.897 24.178C165.754 23.8963 165.647 23.5782 165.577 23.2601H165.328C164.762 24.5326 163.591 25.5566 161.818 26.2956C160.044 27.071 157.848 27.4621 155.186 27.4621C153.769 27.4621 152.491 27.3925 151.323 27.2135C150.152 27.0379 149.124 26.7562 148.276 26.3652C147.424 25.9774 146.785 25.4108 146.326 24.7414C145.867 24.072 145.617 23.1872 145.617 22.1301C145.617 21.1425 145.83 20.3306 146.256 19.6579C146.645 18.9885 147.321 18.4583 148.206 18.0341C149.091 17.61 150.262 17.2587 151.646 16.9737C153.03 16.7252 154.731 16.4435 156.68 16.1982C159.056 15.8801 160.969 15.5984 162.386 15.3168C163.771 15.0682 164.549 14.717 164.726 14.3292V13.8686C164.726 13.5869 164.689 13.3384 164.582 13.1263C164.476 12.9142 164.263 12.7386 163.944 12.5961C163.624 12.4536 163.165 12.3475 162.596 12.2415C161.994 12.1719 161.249 12.1355 160.29 12.1355C159.405 12.1355 158.66 12.1719 158.091 12.2415C157.489 12.3475 157.026 12.4536 156.707 12.5961C156.387 12.7386 156.141 12.9142 156.035 13.1263C155.892 13.3384 155.822 13.5505 155.822 13.7957C155.822 13.9382 155.822 14.0774 155.858 14.2563C155.858 14.432 155.895 14.5745 155.928 14.644L146.925 13.9017C146.895 13.7526 146.862 13.5405 146.825 13.2589ZM161.395 22.6868C162.067 22.5112 162.636 22.2991 163.095 22.0505C163.554 21.802 163.947 21.4839 164.23 21.169C164.479 20.8509 164.656 20.4996 164.726 20.1451V17.6365C164.406 17.885 163.804 18.0938 162.989 18.2727C162.174 18.4484 161.252 18.6273 160.26 18.7665C158.876 19.015 157.885 19.2967 157.319 19.6148C156.717 19.9694 156.434 20.4963 156.434 21.2022C156.434 21.8716 156.684 22.2957 157.143 22.5443C157.605 22.7928 158.277 22.932 159.162 22.932C159.978 22.9353 160.723 22.8624 161.395 22.6868Z" fill="black"/>
<path d="M75.8414 24.5492C75.8481 24.4796 75.8514 24.4067 75.8581 24.337C75.8514 24.3669 75.8414 24.4531 75.8281 24.6288C75.8315 24.6056 75.8381 24.5824 75.8414 24.5625C75.8414 24.5592 75.8414 24.5526 75.8414 24.5492Z" fill="#4A74EB"/>
<path d="M78.3797 16.7615C79.1383 14.422 79.3047 11.9332 78.8522 9.47105C78.3165 6.53497 76.7394 3.74801 74.5734 1.70004C73.8147 0.984247 72.4938 0.894773 71.7485 1.70004C71.0332 2.47549 70.94 3.74801 71.7485 4.51351C71.9781 4.72891 72.1977 4.95094 72.4106 5.18291C72.6103 5.39831 72.8798 5.64022 73.0195 5.8987C72.76 5.41819 73.0295 5.9219 73.1094 6.03457C73.1859 6.14393 73.2624 6.2566 73.3356 6.36927C73.5086 6.63107 73.6717 6.89949 73.8214 7.17454C73.9744 7.44959 74.1175 7.72796 74.2473 8.01295C74.2706 8.06597 74.2939 8.11899 74.3172 8.1687C74.3637 8.288 74.4103 8.4073 74.4536 8.52991C74.6765 9.13966 74.8495 9.76598 74.9726 10.4022C75.0026 10.5547 75.0259 10.7104 75.0525 10.8662C75.0558 10.896 75.0591 10.9325 75.0625 10.9888C75.0791 11.1677 75.0924 11.35 75.1024 11.529C73.1859 9.90185 70.5773 8.87124 68.2882 8.38741C65.4035 7.77766 62.4589 7.74784 59.5508 8.21841C57.1952 8.5995 54.7596 9.40477 52.7999 10.7933C50.8734 12.1586 49.3861 13.9845 49.11 16.3838C48.8671 18.4814 49.8885 20.5195 51.3692 21.9577C53.0993 23.6312 55.4018 24.6817 57.7076 25.298C60.376 26.0072 63.2374 26.206 65.9824 25.8813C68.6109 25.5731 71.2395 24.9037 73.5186 23.5152C74.3105 23.0314 75.0724 22.4514 75.7312 21.7754C75.7412 21.8384 75.7578 21.9013 75.7678 21.9643C75.7778 22.024 75.7878 22.0869 75.7978 22.1466C75.8177 22.3156 75.8344 22.4846 75.8477 22.6569C75.8909 23.2169 75.8909 23.7803 75.8444 24.3437C75.8543 24.284 75.851 24.4331 75.831 24.5359C75.8277 24.5458 75.8277 24.5557 75.8244 24.569C75.8177 24.6386 75.8044 24.7082 75.8011 24.7778C75.8044 24.7248 75.8078 24.6784 75.8111 24.6386C75.7911 24.7446 75.7745 24.854 75.7512 24.96C75.6913 25.2517 75.6114 25.54 75.5216 25.825C75.4883 25.931 75.4517 26.037 75.4118 26.1398C75.4052 26.1563 75.3985 26.1696 75.3952 26.1862C75.292 26.4082 75.1856 26.6269 75.0625 26.839C74.936 27.0577 74.7996 27.2698 74.6532 27.4753C74.6432 27.4918 74.6299 27.5051 74.6199 27.5183C74.5667 27.5813 74.5168 27.6443 74.4636 27.7072C74.1242 28.0949 73.7515 28.4528 73.3523 28.7776C73.3456 28.7809 73.3423 28.7875 73.3356 28.7909C73.2624 28.8439 73.1892 28.9002 73.1127 28.9499C72.9097 29.0924 72.7001 29.225 72.4872 29.3542C72.0446 29.6226 71.5855 29.8612 71.113 30.0766C71.0398 30.1098 70.9666 30.1429 70.8901 30.1761C70.6472 30.2722 70.401 30.3649 70.1548 30.4511C69.6956 30.6102 69.2298 30.7527 68.7607 30.8786C67.869 31.1172 66.9606 31.3028 66.049 31.4386C65.9924 31.4486 65.9325 31.4552 65.8726 31.4651C65.683 31.4883 65.4966 31.5115 65.307 31.5314C64.9709 31.5679 64.6315 31.5944 64.2955 31.6176C63.67 31.6607 63.0411 31.6805 62.4123 31.664C62.0895 31.654 61.7635 31.6375 61.4407 31.611C61.301 31.601 61.1646 31.5878 61.0248 31.5712C60.9317 31.5612 60.8418 31.5513 60.7487 31.5414C60.5257 31.5115 60.5657 31.5182 60.8651 31.5579C60.7653 31.5811 60.5557 31.5115 60.4525 31.4917C60.2695 31.4618 60.0865 31.4287 59.9069 31.3922C59.5874 31.3293 59.2714 31.2564 58.9586 31.1768C58.3763 31.0277 57.7974 30.8488 57.2318 30.6433C57.102 30.5969 56.9722 30.5472 56.8425 30.4975C56.756 30.4644 56.6695 30.4312 56.5829 30.3948C56.38 30.3119 56.4099 30.3252 56.6761 30.4345C56.3833 30.3749 56.0606 30.1562 55.7944 30.0236C55.2155 29.7353 54.6498 29.4139 54.1042 29.0659C53.8313 28.8903 53.5618 28.708 53.299 28.5191C53.1892 28.4396 53.0594 28.3634 52.9629 28.2706C53.3622 28.6517 52.913 28.2275 52.8232 28.1513C52.4006 27.8066 51.978 27.568 51.4124 27.568C50.9233 27.568 50.3377 27.7834 50.0017 28.1513C49.3296 28.8803 49.1399 30.2589 50.0017 30.9648C53.8646 34.1162 58.7823 35.8726 63.7964 35.6274C65.5865 35.5412 67.3898 35.3026 69.1366 34.8917C71.2894 34.3847 73.4787 33.5794 75.2787 32.277C77.4248 30.7262 79.0818 28.5821 79.6174 25.9476C80.2663 22.806 79.5542 19.6777 78.3797 16.7615ZM73.8979 16.7019C73.8946 16.735 73.8913 16.7682 73.8879 16.8046C73.878 16.7549 73.8713 16.6456 73.8646 16.5627C73.878 16.6091 73.8913 16.6588 73.8979 16.7019ZM53.259 17.8584C53.2457 17.8154 53.2324 17.7723 53.2158 17.7292C53.289 17.8419 53.3589 18.1534 53.259 17.8584ZM53.1825 17.6894C53.1892 17.6927 53.1958 17.6994 53.2025 17.706C53.1958 17.6994 53.1892 17.6927 53.1825 17.6894ZM73.502 18.213C73.4221 18.3522 73.329 18.4814 73.2391 18.614C73.1859 18.677 73.1293 18.7432 73.0728 18.8062C72.7966 19.1078 72.4905 19.3696 72.1811 19.6347C72.0912 19.6976 72.0014 19.7606 71.9116 19.8236C71.7053 19.9627 71.4957 20.092 71.2827 20.2146C70.8735 20.4499 70.4476 20.6586 70.015 20.8508C70.0017 20.8575 69.9884 20.8608 69.9718 20.8674C69.862 20.9105 69.7488 20.9536 69.639 20.9933C69.3729 21.0928 69.1034 21.1822 68.8305 21.2651C68.2849 21.4341 67.7292 21.5766 67.1702 21.6926C66.8907 21.7522 66.6079 21.8019 66.3284 21.8483C66.1954 21.8682 66.0623 21.8881 65.9292 21.908C65.7029 21.9411 66.1288 21.8781 66.1255 21.8815C66.0889 21.9245 65.8393 21.9146 65.7861 21.9212C65.1839 21.9875 64.5783 22.024 63.9761 22.0372C63.3372 22.0505 62.6984 22.0372 62.0596 21.9974C61.7601 21.9776 61.4607 21.9511 61.1646 21.9212C61.108 21.9146 60.8418 21.8815 60.8451 21.8815C60.7719 21.8715 60.6954 21.8583 60.6222 21.8483C59.5142 21.6694 58.4229 21.3976 57.3682 21.0165C57.2384 20.9701 57.1087 20.9204 56.9789 20.8674C56.9722 20.8641 56.9623 20.8608 56.9556 20.8575C56.736 20.7581 56.5164 20.6586 56.3001 20.5526C55.8676 20.3339 55.445 20.092 55.0391 19.8202C54.9526 19.7639 54.8694 19.7043 54.7862 19.6446C54.7796 19.6413 54.7729 19.6347 54.7663 19.6313C54.6232 19.512 54.4801 19.3961 54.3437 19.2701C54.194 19.131 54.0476 18.9885 53.9112 18.8393C53.848 18.7697 53.7881 18.7002 53.7282 18.6306C53.6383 18.4914 53.5385 18.3588 53.452 18.213C53.4054 18.1368 53.2923 17.8154 53.2124 17.7159C53.1991 17.6729 53.1825 17.6298 53.1692 17.5834C53.1459 17.5038 53.1259 17.4276 53.1093 17.3481C53.1027 17.3183 53.0927 17.2686 53.086 17.2189C53.0794 17.1294 53.076 17.0399 53.076 16.9504C53.076 16.8676 53.0794 16.7881 53.0827 16.7052C53.0827 16.6953 53.0827 16.6853 53.086 16.6721C53.0927 16.6389 53.096 16.6091 53.1027 16.5892C53.1193 16.5097 53.1393 16.4302 53.1625 16.3539C53.1792 16.2943 53.1991 16.238 53.2191 16.1783C53.2923 16.0822 53.3921 15.7939 53.4354 15.7243C53.5252 15.5686 53.6284 15.4261 53.7282 15.2802C53.7814 15.2206 53.8313 15.1576 53.8879 15.098C54.0343 14.9356 54.1907 14.7799 54.3504 14.6307C54.4801 14.5114 54.6199 14.3954 54.7563 14.2828C54.8528 14.2165 54.9493 14.1469 55.0458 14.0806C55.4484 13.8089 55.8709 13.567 56.3068 13.3483C56.5164 13.2422 56.726 13.1461 56.939 13.0533C57.0854 12.997 57.2284 12.9407 57.3748 12.8876C57.8972 12.6987 58.4329 12.5364 58.9719 12.3972C59.5209 12.258 60.0732 12.1453 60.6322 12.0525C60.7353 12.036 61.0115 11.9366 61.098 11.983C61.1047 11.9863 60.6721 12.0327 60.905 12.0095C60.9716 12.0028 61.0415 11.9929 61.108 11.9863C61.4274 11.9498 61.7502 11.9233 62.0729 11.9001C63.3372 11.8173 64.6083 11.8438 65.8693 11.9863C65.9258 11.9929 65.9791 11.9995 66.0356 12.0062C66.1155 12.0161 66.1987 12.0293 66.2785 12.0426C66.5813 12.0923 66.8874 12.1453 67.1869 12.2083C67.7458 12.3243 68.3015 12.4668 68.8472 12.6358C69.1 12.7153 69.3496 12.7982 69.5991 12.8876C69.7122 12.9274 69.822 12.9705 69.9352 13.0136C69.9684 13.0268 70.005 13.0401 70.0383 13.0533C70.4675 13.2455 70.8901 13.451 71.2993 13.6863C71.499 13.8023 71.6953 13.9216 71.8849 14.0508C71.9848 14.1171 72.0846 14.1867 72.1811 14.2563C72.1844 14.2596 72.1877 14.2629 72.191 14.2662C72.5005 14.5313 72.8099 14.7931 73.0861 15.098C73.1393 15.1543 73.1892 15.214 73.2391 15.2736C73.3389 15.4227 73.4454 15.5686 73.5352 15.7243C73.5619 15.7674 73.5818 15.8138 73.6084 15.8569C73.6218 15.89 73.6317 15.9198 73.6484 15.953C73.6783 16.0093 73.7049 16.0689 73.7349 16.1253C73.7548 16.1882 73.7781 16.2512 73.7948 16.3142C73.8048 16.3506 73.838 16.4467 73.8713 16.5461C73.8746 16.5859 73.878 16.6257 73.8813 16.6621C73.8879 16.7582 73.8913 16.851 73.8913 16.9471C73.8913 17.03 73.8879 17.1095 73.8846 17.1923C73.8846 17.2023 73.8813 17.2189 73.8813 17.2354C73.878 17.2487 73.878 17.2586 73.8746 17.2686C73.8713 17.2918 73.8646 17.3116 73.858 17.3348C73.8048 17.4641 73.7648 17.5999 73.7415 17.7391C73.6517 17.8584 73.5419 18.1501 73.502 18.213Z" fill="#4A74EB"/>
</g>
<defs>
<clipPath id="clip0_503_1388">
<rect width="244" height="46" fill="white"/>
</clipPath>
</defs>
</svg>
