<svg width="516" height="279" viewBox="0 0 516 279" fill="none" xmlns="http://www.w3.org/2000/svg">
<g clip-path="url(#clip0_1367_9789)">
<path d="M100.13 127.975C105.211 127.562 108.961 122.68 108.506 117.071C108.051 111.461 103.563 107.248 98.4815 107.66C93.4003 108.072 89.6503 112.954 90.1056 118.564C90.5609 124.174 95.0491 128.387 100.13 127.975Z" fill="#F4E140"/>
<path d="M162.404 118.546C162.86 112.936 159.11 108.054 154.029 107.642C148.948 107.23 144.459 111.443 144.004 117.053C143.549 122.662 147.299 127.544 152.38 127.957C157.461 128.369 161.949 124.156 162.404 118.546Z" fill="#F4E140"/>
<path d="M206.838 96.9621C204.946 105.032 199.298 112.055 191.759 115.495C195.314 120.325 197.607 125.986 198.439 131.949C199.112 136.793 198.797 141.652 197.55 146.253C196.016 152 193.049 157.332 188.792 161.733C185.166 165.473 180.766 168.44 175.936 170.361C170.991 172.325 165.071 173.572 159.969 171.579C159.754 171.622 159.553 171.551 159.41 171.35C159.309 171.307 159.209 171.264 159.109 171.221C158.636 170.992 158.664 170.519 158.922 170.203C158.206 168.397 157.561 166.548 156.959 164.699C156.228 162.478 155.568 160.228 155.167 157.934C154.493 154.021 154.694 150.166 156.357 146.525C158.12 142.684 160.37 139.087 162.205 135.288C165.874 127.635 168.669 119.364 168.368 110.765C168.339 110.062 169.17 109.905 169.586 110.277C172.539 109.475 175.276 107.869 177.541 105.806C181.798 101.921 184.306 96.0591 183.045 90.2973C182.443 87.574 180.967 84.6215 178.243 83.5322C176.939 83.0018 175.391 82.9158 174.13 83.5608C172.911 84.1915 172.066 85.3238 171.277 86.3987C171.163 87.23 169.83 87.2157 169.858 86.3271C169.858 86.2841 169.858 86.2554 169.873 86.2267C169.858 86.1551 169.858 86.0691 169.873 85.9831C169.916 85.0085 169.944 84.0195 169.987 83.0448C169.901 82.9302 169.844 82.8012 169.873 82.6149C170.217 78.9743 170.217 75.3194 169.858 71.6932C168.669 59.2092 163.337 47.1696 154.852 37.9248C150.036 34.6139 144.088 37.4662 140.863 41.5941C137.538 45.8653 136.276 51.2974 134.413 56.271C132.707 60.8432 130.529 65.444 126.874 68.7979C123.219 72.1375 118.274 73.6424 113.415 72.4385C109.66 71.4925 106.535 68.9556 104.658 65.6304C103.196 70.5895 100.702 75.2047 97.3764 79.1606C94.0511 83.1308 89.0776 87.832 83.5164 87.3447C83.244 87.7604 82.5991 87.9324 82.3267 87.359C80.8074 84.1055 76.9088 83.2168 73.8846 84.9798C72.6089 85.7251 71.6916 86.6854 71.0466 87.8034C68.825 91.6732 70.0863 97.2918 72.2506 101.004C74.8879 105.533 79.2881 108.916 84.319 110.349C84.7203 110.292 85.179 110.507 85.2077 111.023C85.2077 111.023 85.222 111.094 85.222 111.123C85.695 120.482 87.9023 129.756 91.7579 138.313C92.5892 140.161 93.5065 141.982 94.4811 143.773C95.4414 145.522 96.4448 147.256 97.0611 149.163C98.3367 153.075 97.7921 157.461 96.6741 161.346C94.5958 168.67 90.2242 175.363 85.0643 180.867C74.1999 192.491 59.1359 199.055 43.7136 201.979C43.5416 202.022 43.4126 201.979 43.2836 201.936C36.5614 203.828 29.9825 206.265 23.676 209.303C23.2604 209.49 22.8877 209.303 22.7014 208.988C19.8491 208.114 17.2262 206.652 15.0045 204.66C10.719 200.818 8.13903 195.272 8.22502 189.51C8.31102 184.049 10.633 178.717 14.5602 174.947C6.56239 172.052 0.84352 164.183 1.04418 155.584C1.14451 151.542 2.42015 147.514 4.72777 144.203C7.17871 140.706 10.6903 138.313 14.4169 136.349C18.2868 134.314 22.4004 132.651 25.9406 130.042C29.3806 127.52 32.2185 124.18 34.2251 120.411C36.3321 116.484 37.3927 112.198 37.622 107.755C37.8657 102.939 37.493 97.9654 39.0267 93.3072C41.2483 86.5277 47.1678 81.1816 54.0763 79.5333C50.4931 77.0537 47.7842 73.4561 46.2362 69.3569C44.6309 65.1 44.3872 60.3558 45.7345 55.9986C47.0962 51.5841 49.8911 47.7142 53.374 44.7186C61.3002 37.9105 71.964 36.2479 82.1261 36.5632C77.0952 27.6768 77.3818 15.2932 84.6057 7.66806C87.5583 4.55781 91.7005 2.45088 96.0578 3.02419C100.845 3.65484 104.557 7.10907 107.983 10.2193C115.608 17.1421 124.609 22.0583 134.7 24.2656C139.888 25.3979 145.177 25.7132 150.48 25.3835C155.927 25.0395 161.531 24.2656 166.892 25.6845C170.89 26.7452 174.316 29.3394 176.237 33.0373C177.799 36.0329 178.129 39.4871 176.495 42.3967C178.989 42.497 181.44 43.013 183.733 44.0307C188.205 45.9943 191.831 49.8642 192.763 54.7517C193.537 58.8366 192.533 63.2798 189.652 66.3183C193.766 67.766 197.478 70.2742 200.431 73.5135C206.164 79.8343 208.787 88.5773 206.838 96.9621Z" fill="#FF714B"/>
<path d="M121.475 81.5398C119.512 77.3259 115.756 73.757 111.686 71.5784C108.461 69.8584 105.136 69.6434 101.782 70.0591C101.61 69.9874 97.8975 70.5608 96.3925 71.1341C96.3495 71.1341 96.3209 71.1484 96.2779 71.1627C96.1489 71.1914 96.0485 71.2631 95.9482 71.3204C89.871 73.8143 85.3848 79.3468 83.8655 85.9543C81.9878 94.1241 84.2095 103.971 91.7486 108.557C107.945 118.418 129.373 98.4956 121.49 81.5398H121.475ZM115.742 101.033C110.998 106.751 103 109.962 95.7762 107.339C88.4807 104.687 85.5138 96.8043 86.1731 89.5519C86.7751 82.8441 90.8026 76.4659 96.9658 73.929C96.9945 73.929 97.0232 73.929 97.0518 73.929C101.065 72.9114 105.351 71.865 109.321 73.6137C112.517 75.0183 115.513 77.5409 117.519 80.3931C121.963 86.7426 120.544 95.2707 115.771 101.033H115.742Z" fill="black"/>
<path d="M168.889 80.8088C166.926 76.5949 163.17 73.026 159.1 70.8474C155.875 69.1275 152.55 68.9125 149.196 69.3281C149.024 69.2565 145.312 69.8298 143.807 70.4031C143.764 70.4031 143.735 70.4174 143.692 70.4318C143.563 70.4604 143.463 70.5321 143.362 70.5894C137.285 73.0834 132.799 78.6159 131.28 85.2233C129.402 93.3931 131.624 103.24 139.163 107.826C155.359 117.687 176.787 97.7646 168.904 80.8088H168.889ZM163.156 100.302C158.412 106.02 150.414 109.231 143.19 106.608C135.895 103.956 132.928 96.0734 133.587 88.8209C134.189 82.1131 138.217 75.735 144.38 73.198C144.409 73.198 144.437 73.198 144.466 73.198C148.479 72.1804 152.765 71.1341 156.735 72.8827C159.931 74.2873 162.927 76.8099 164.933 79.6622C169.377 86.0117 167.958 94.5397 163.185 100.302H163.156Z" fill="black"/>
<path d="M131.231 88.4627C129.525 88.1187 127.777 87.961 126.042 88.0327C125.139 88.0757 124.236 88.176 123.334 88.3194C122.459 88.4627 121.27 88.5487 120.84 89.466C120.51 90.1396 120.625 91.0426 121.356 91.4296C121.857 91.6876 122.545 91.6589 122.99 91.3006C123.033 91.3006 123.076 91.2863 123.104 91.272C123.29 91.229 123.491 91.2003 123.677 91.1573C123.835 91.1286 124.007 91.1 124.165 91.0713C124.236 91.0713 124.294 91.057 124.365 91.0426C124.365 91.0426 124.394 91.0426 124.437 91.0426C125.125 90.9566 125.827 90.9136 126.515 90.8993C127.92 90.8706 129.167 90.9853 130.443 91.2433C131.174 91.3866 132.019 91.0283 132.206 90.24C132.363 89.5233 131.991 88.6347 131.202 88.477L131.231 88.4627Z" fill="black"/>
<path d="M252.489 253.033C252.002 259.856 250.669 266.649 249.178 273.285C248.791 274.991 248.404 276.682 248.003 278.388C247.945 278.617 247.816 278.761 247.659 278.832C247.487 278.933 247.257 278.918 247.071 278.832C247.028 278.832 246.985 278.804 246.942 278.775C246.885 278.789 246.842 278.818 246.784 278.832H246.756C246.756 278.832 246.67 278.847 246.612 278.847H6.49142C6.49142 278.847 6.41976 278.847 6.39109 278.832H6.31943C6.31943 278.832 6.21909 278.832 6.1761 278.789C6.14743 278.804 6.10443 278.818 6.07576 278.832C5.8751 278.918 5.66011 278.933 5.47378 278.832C5.31611 278.761 5.18712 278.617 5.14412 278.388C4.74279 276.682 4.34147 274.991 3.96881 273.285C2.46384 266.649 1.13087 259.856 0.643551 253.033C0.385557 249.407 0.371224 245.766 0.715216 242.154C0.944544 239.689 1.33154 237.224 1.91919 234.773C3.23783 229.298 5.51678 223.995 8.94237 219.494C9.78802 218.39 10.7053 217.344 11.68 216.355C14.4749 213.517 17.7572 211.181 21.3118 209.332C30.0406 204.803 39.8013 202.968 49.2325 200.403C49.7055 200.288 50.1785 200.159 50.6371 200.016C51.2678 199.844 51.8841 199.672 52.5147 199.485C54.9514 198.769 57.388 197.937 59.7672 196.977C60.2116 196.819 60.6559 196.647 61.1002 196.447C65.3428 194.712 69.4564 192.605 73.3406 190.155C73.5986 189.997 73.8709 189.839 74.1289 189.653C77.9415 187.188 81.5104 184.364 84.7497 181.182C93.4498 172.64 99.4554 160.356 96.5601 147.987C96.5028 147.758 96.5458 147.571 96.6461 147.428C96.9614 146.984 97.7784 146.927 97.9361 147.6C97.9647 147.715 97.9934 147.844 98.0077 147.958C98.1224 148.403 98.2084 148.861 98.2801 149.32C98.4091 150.051 98.5237 150.796 98.5954 151.542C98.5954 151.699 98.6241 151.871 98.6384 152.029C99.4267 161.804 95.3848 170.991 89.2646 178.373C88.8633 178.86 88.4476 179.348 88.032 179.806C86.871 181.11 85.6527 182.343 84.377 183.518C81.4531 186.213 78.2998 188.621 74.9889 190.785C74.5732 191.058 74.1863 191.316 73.7706 191.574H73.7563C69.8434 194.01 65.7011 196.103 61.4299 197.851C60.9855 198.038 60.5556 198.21 60.1112 198.382C57.517 199.399 54.894 200.288 52.2281 201.062C51.8554 201.177 51.4828 201.277 51.1101 201.377C50.6514 201.506 50.1785 201.635 49.7198 201.764C40.002 204.401 29.8542 206.222 20.9821 211.138C18.3592 212.586 15.9225 214.32 13.7583 216.355C11.895 218.075 10.218 220.024 8.79904 222.174C5.63144 226.961 3.69648 232.465 2.69317 238.098C2.44951 239.445 2.26318 240.807 2.14852 242.154C1.77586 245.781 1.79019 249.407 2.06252 253.033C2.63584 261.26 4.5278 269.444 6.39109 277.442C6.41976 277.428 6.44842 277.413 6.49142 277.413H246.612C246.612 277.413 246.713 277.442 246.756 277.442C248.619 269.459 250.511 261.26 251.084 253.033C251.357 249.407 251.371 245.781 250.998 242.154C250.884 240.793 250.697 239.445 250.454 238.098C249.45 232.465 247.515 226.961 244.348 222.174C242.929 220.024 241.252 218.075 239.389 216.355C237.224 214.32 234.788 212.586 232.165 211.138C222.519 205.792 211.382 204.115 200.904 201.062C200.259 200.876 199.614 200.675 198.969 200.46C198.511 200.331 198.052 200.188 197.608 200.016C195.53 199.342 193.494 198.582 191.473 197.737C191.015 197.565 190.57 197.378 190.126 197.178C186.528 195.615 183.046 193.824 179.706 191.76C179.305 191.516 178.889 191.258 178.502 191C176.71 189.854 174.976 188.635 173.299 187.331C172.754 186.915 172.224 186.485 171.694 186.041C170.69 185.238 169.716 184.393 168.77 183.518C160.643 176.051 154.437 165.76 154.408 154.523C154.408 153.706 154.437 152.86 154.508 152.029C154.523 151.943 154.523 151.843 154.537 151.757C154.58 151.183 154.652 150.624 154.752 150.051C154.867 149.234 155.024 148.417 155.211 147.6C155.239 147.514 155.268 147.428 155.311 147.371C155.325 147.342 155.34 147.328 155.354 147.313C155.755 146.812 156.773 147.199 156.587 147.987C156.587 148.001 156.587 148.016 156.572 148.03C153.692 160.385 159.697 172.654 168.383 181.182C170.088 182.845 171.88 184.421 173.743 185.883C178.846 189.911 184.536 193.207 190.513 195.802C190.957 195.988 191.402 196.189 191.846 196.361C193.838 197.192 195.859 197.952 197.909 198.625C198.368 198.783 198.826 198.926 199.285 199.07C199.729 199.213 200.188 199.356 200.632 199.485C211.052 202.581 222.089 204.272 231.835 209.332C235.39 211.181 238.672 213.517 241.467 216.355C242.427 217.344 243.345 218.39 244.19 219.494C247.63 223.995 249.895 229.298 251.213 234.773C251.801 237.224 252.188 239.675 252.417 242.154C252.761 245.766 252.747 249.407 252.489 253.033Z" fill="black"/>
<path d="M84.7481 109.575C83.3148 109.575 81.9245 108.916 80.6775 108.257C79.4736 107.626 78.3413 106.852 77.3093 105.978C75.231 104.2 73.5684 101.979 72.5077 99.4562C71.3611 96.7759 70.8881 93.7803 71.2178 90.8851C71.5187 88.1332 72.7657 85.0946 75.532 83.991C78.7283 82.7153 82.0392 84.9226 82.5408 88.1905C82.6842 89.0935 84.0601 88.7065 83.9168 87.8035C83.4438 84.6789 80.7922 82.314 77.6246 82.1993C74.4427 82.0847 71.8627 84.3636 70.6874 87.1729C68.0502 93.4937 70.6014 101.362 75.274 106.021C76.521 107.268 77.9399 108.343 79.4736 109.217C81.0645 110.12 82.8992 111.008 84.7625 111.008C85.6798 111.008 85.6798 109.575 84.7625 109.575H84.7481Z" fill="black"/>
<path d="M82.4482 104.085C79.811 103.641 80.1693 100.101 80.3413 98.166C80.5706 95.7724 81.1869 93.1208 80.37 90.7845C79.7536 89.0216 78.1053 87.4306 76.1131 87.6886C74.4074 87.9179 73.0601 89.7095 73.6478 91.4008C73.9488 92.2608 75.3391 91.8882 75.0237 91.0138C74.7657 90.2542 75.2244 89.4802 75.9554 89.1936C76.7867 88.8639 77.704 89.3512 78.263 89.9675C79.682 91.5298 79.3236 94.0381 79.123 95.9444C78.8077 98.8969 77.7613 104.745 82.0326 105.461C82.9356 105.605 83.3226 104.229 82.4196 104.085H82.4482Z" fill="black"/>
<path d="M169.054 109.547C170.487 109.547 171.877 108.887 173.124 108.228C174.328 107.597 175.461 106.823 176.493 105.949C178.571 104.172 180.234 101.95 181.294 99.4275C182.441 96.7472 182.914 93.7516 182.584 90.8564C182.283 88.1045 181.036 85.0659 178.27 83.9623C175.074 82.6866 171.763 84.8939 171.261 88.1618C171.118 89.0648 169.742 88.6778 169.885 87.7748C170.358 84.6502 173.01 82.2853 176.177 82.1706C179.359 82.056 181.939 84.3349 183.115 87.1442C185.752 93.465 183.201 101.334 178.528 105.992C177.281 107.239 175.862 108.314 174.328 109.188C172.737 110.091 170.903 110.98 169.04 110.98C168.122 110.98 168.122 109.547 169.04 109.547H169.054Z" fill="black"/>
<path d="M171.36 104.057C173.998 103.612 173.639 100.072 173.467 98.1373C173.238 95.7437 172.622 93.0921 173.439 90.7558C174.055 88.9929 175.703 87.4019 177.695 87.6599C179.401 87.8892 180.748 89.6809 180.161 91.3721C179.86 92.2321 178.469 91.8595 178.785 90.9852C179.043 90.2255 178.584 89.4515 177.853 89.1649C177.022 88.8352 176.105 89.3225 175.546 89.9389C174.127 91.5011 174.485 94.0094 174.686 95.9157C175.001 98.8683 176.047 104.716 171.776 105.433C170.873 105.576 170.486 104.2 171.389 104.057H171.36Z" fill="black"/>
<path d="M103.893 97.8936C106.418 97.8936 108.465 95.5963 108.465 92.7624C108.465 89.9285 106.418 87.6312 103.893 87.6312C101.367 87.6312 99.3203 89.9285 99.3203 92.7624C99.3203 95.5963 101.367 97.8936 103.893 97.8936Z" fill="black"/>
<path d="M130.001 159.826C129.872 159.697 129.7 159.611 129.456 159.64C128.869 159.697 128.238 159.64 127.636 159.626C127.392 159.626 127.134 159.626 126.891 159.611H126.876C126.561 159.626 126.231 159.626 125.916 159.626C125.844 159.626 125.773 159.626 125.701 159.64C125.085 159.64 124.469 159.626 123.852 159.611C113.418 159.153 103.471 154.136 97.0925 145.694C93.2369 140.592 91.0296 134.5 89.1806 128.452C87.1884 122.002 85.7837 109.647 84.9811 102.953C84.3217 97.4351 84.0781 91.874 84.2358 86.3128C84.2214 86.3128 84.2071 86.3128 84.1927 86.3128C83.8774 86.2698 83.5621 86.2268 83.2468 86.1838C83.0891 86.1408 82.9601 86.0835 82.8168 86.0261C82.4298 99.1981 83.9491 115.638 87.3317 127.219C89.152 133.497 91.3163 139.961 95.1002 145.364C95.5875 146.067 96.1035 146.755 96.6625 147.414C96.8631 147.686 97.0781 147.944 97.3218 148.202C97.6228 148.575 97.9524 148.948 98.2964 149.306C98.8268 149.894 99.3857 150.453 99.9591 150.983C102.424 153.333 105.219 155.34 108.229 156.917C113.174 159.482 118.678 160.887 124.225 161.045C124.97 161.059 125.701 161.059 126.446 161.03C126.604 161.016 126.747 161.016 126.891 161.016C127.034 161.016 127.177 161.03 127.321 161.03C128.023 161.03 128.783 161.145 129.471 161.059C129.499 161.059 129.528 161.059 129.542 161.045C130.144 160.93 130.302 160.185 130.015 159.812L130.001 159.826Z" fill="black"/>
<path d="M166.426 127.233C164.592 133.511 162.427 139.975 158.643 145.379C157.998 146.296 157.325 147.17 156.565 148.03C156.006 148.733 155.39 149.406 154.745 150.051C152.064 152.803 148.94 155.154 145.514 156.931C140.584 159.497 135.065 160.901 129.519 161.059C128.773 161.073 128.028 161.073 127.297 161.045C127.154 161.045 127.01 161.03 126.867 161.03C126.724 161.03 126.58 161.03 126.423 161.045C125.72 161.059 124.961 161.159 124.273 161.073C124.244 161.073 124.23 161.073 124.201 161.059C123.599 160.944 123.441 160.213 123.742 159.841C123.843 159.697 124.015 159.611 124.273 159.64C124.731 159.683 125.219 159.654 125.692 159.64C125.763 159.626 125.835 159.626 125.907 159.626C126.222 159.626 126.552 159.626 126.867 159.611H126.881C127.125 159.626 127.383 159.626 127.627 159.626C128.386 159.64 129.146 159.626 129.891 159.597C139.609 159.181 148.911 154.796 155.304 147.371C155.318 147.342 155.332 147.328 155.347 147.314C155.791 146.783 156.235 146.253 156.651 145.694C160.507 140.592 162.7 134.5 164.563 128.452C166.541 122.002 167.96 109.647 168.748 102.953C169.651 95.4716 169.794 87.9182 169.192 80.4077C169.121 79.4904 170.554 79.4904 170.626 80.4077C171.715 94.2103 170.296 113.932 166.426 127.233Z" fill="black"/>
<path d="M111.246 81.2676C110.673 82.0129 109.727 82.3569 108.853 82.6579C107.706 83.0449 106.545 83.2742 105.37 83.4892C103.12 83.9048 100.898 84.2918 98.791 85.1661C97.673 85.6248 96.641 86.2411 95.5517 86.7571C94.8208 87.1011 93.8604 87.5597 93.1008 87.0724C91.5815 86.0834 92.8858 83.6468 93.6598 82.6435C94.3908 81.6976 95.2937 80.8806 96.2684 80.1783C98.4327 78.3723 101.084 77.1827 103.865 76.681C105.786 76.3514 107.878 76.2081 109.67 77.111C111.16 77.8563 112.45 79.691 111.218 81.2676H111.246Z" fill="black"/>
<path d="M148.65 98.6245C151.176 98.6245 153.223 96.3272 153.223 93.4934C153.223 90.6595 151.176 88.3622 148.65 88.3622C146.125 88.3622 144.078 90.6595 144.078 93.4934C144.078 96.3272 146.125 98.6245 148.65 98.6245Z" fill="black"/>
<path d="M141.293 81.9842C141.866 82.7296 142.812 83.0735 143.686 83.3745C144.833 83.7615 145.994 83.9909 147.169 84.2058C149.419 84.6215 151.641 85.0085 153.748 85.8828C154.866 86.3415 155.898 86.9578 156.987 87.4738C157.718 87.8177 158.678 88.2764 159.438 87.7891C160.957 86.8001 159.653 84.3635 158.879 83.3602C158.148 82.4142 157.245 81.5973 156.271 80.8949C154.106 79.089 151.455 77.8994 148.674 77.3977C146.753 77.0681 144.661 76.9247 142.869 77.8277C141.379 78.573 140.089 80.4076 141.321 81.9842H141.293Z" fill="black"/>
<path d="M143.037 133.683C133.879 138.284 122.627 138.141 113.612 133.239C112.809 132.794 112.006 133.984 112.809 134.428C122.269 139.574 134.036 139.803 143.682 134.959C144.499 134.543 143.869 133.267 143.037 133.683Z" fill="black"/>
<path d="M154.753 150.051C154.653 150.624 154.581 151.183 154.538 151.757C154.481 151.8 154.438 151.857 154.395 151.929C149.765 159.74 141.595 164.513 133.598 168.24C124.582 172.439 114.993 175.363 105.19 176.983C99.9151 177.843 94.5975 178.301 89.2656 178.373C95.3858 170.991 99.4277 161.804 98.6394 152.029C98.6251 151.871 98.6108 151.699 98.5964 151.542C98.5248 150.796 98.4101 150.051 98.2811 149.32C98.8114 149.908 99.3704 150.467 99.9437 150.997C102.409 153.348 105.204 155.354 108.214 156.931C113.159 159.496 118.663 160.901 124.21 161.059C124.238 161.073 124.253 161.073 124.281 161.073C124.969 161.159 125.729 161.059 126.431 161.044C126.589 161.03 126.732 161.03 126.875 161.03C127.019 161.03 127.162 161.044 127.305 161.044C128.008 161.044 128.767 161.159 129.455 161.073C129.484 161.073 129.513 161.073 129.527 161.059C135.074 160.901 140.592 159.496 145.523 156.931C148.948 155.154 152.073 152.803 154.753 150.051Z" fill="black"/>
<path d="M131.373 117.645C130.57 119.837 127.647 119.293 127.303 117.129C127.245 116.742 126.758 116.541 126.414 116.627C125.769 116.785 125.196 117.114 124.637 117.473C124.092 117.831 123.476 118.347 122.788 118.39C120.537 118.504 120.996 114.979 121.154 113.646C121.627 109.704 122.687 105.863 123.762 102.05C124.006 101.162 122.63 100.775 122.386 101.663C121.741 103.957 121.111 106.264 120.595 108.586C120.093 110.865 119.591 113.259 119.563 115.595C119.548 117.344 120.294 119.422 122.243 119.766C123.82 120.038 124.852 118.848 126.127 118.247C126.615 119.436 127.718 120.353 129.022 120.497C130.714 120.669 132.19 119.565 132.749 118.017C133.064 117.143 131.674 116.77 131.373 117.63V117.645Z" fill="black"/>
<path d="M175.563 188.463C173.542 190.9 170.919 192.605 168.124 194.039C165.186 195.544 162.119 196.791 158.965 197.808C152.616 199.872 145.98 200.99 139.315 201.349C125.412 202.094 111.351 199.629 98.0499 195.716C91.3851 193.752 84.7919 191.086 79.4887 186.485C78.8007 185.883 77.7831 186.887 78.4711 187.503C83.2583 191.674 89.0632 194.354 95.0687 196.303C101.705 198.468 108.57 200.044 115.45 201.205C129.31 203.556 143.729 203.771 157.331 199.815C161.001 198.74 164.598 197.378 168.024 195.687C171.191 194.139 174.273 192.233 176.552 189.495C177.14 188.793 176.122 187.775 175.534 188.478L175.563 188.463Z" fill="black"/>
<path d="M31.7001 216.126C31.1984 215.624 30.3814 215.252 29.6791 215.28C28.9338 215.309 28.1741 215.553 27.6581 216.126C27.1422 216.685 26.8125 217.373 26.8125 218.147V223.321C26.8125 224.052 27.1278 224.826 27.6581 225.342C28.1598 225.844 28.9768 226.216 29.6791 226.188C30.4244 226.159 31.1841 225.915 31.7001 225.342C32.216 224.783 32.5457 224.095 32.5457 223.321V218.147C32.5457 217.416 32.2304 216.642 31.7001 216.126Z" fill="black"/>
<path d="M66.8401 218.348C66.7827 217.574 66.5534 216.886 65.9944 216.327C65.4928 215.825 64.6758 215.452 63.9735 215.481C63.2282 215.51 62.4685 215.753 61.9525 216.327C61.4652 216.857 61.0495 217.602 61.1069 218.348C61.2789 220.612 61.4509 222.862 61.6085 225.127C61.6659 225.901 61.8952 226.589 62.4542 227.148C62.9558 227.65 63.7728 228.022 64.4751 227.994C65.2204 227.965 65.9801 227.721 66.4961 227.148C66.9834 226.618 67.3991 225.872 67.3417 225.127C67.1697 222.862 66.9977 220.612 66.8401 218.348Z" fill="black"/>
<path d="M95.5744 220.54C95.5171 219.767 95.2878 219.079 94.7288 218.52C94.2271 218.018 93.4102 217.645 92.7078 217.674C91.9625 217.703 91.2029 217.946 90.6869 218.52C90.1996 219.05 89.7839 219.795 89.8412 220.54C89.9846 222.475 90.1279 224.396 90.2856 226.331C90.3429 227.105 90.5722 227.793 91.1312 228.352C91.6329 228.854 92.4498 229.226 93.1522 229.198C93.8975 229.169 94.6571 228.925 95.1731 228.352C95.6604 227.822 96.0761 227.076 96.0188 226.331C95.8754 224.396 95.7321 222.475 95.5744 220.54Z" fill="black"/>
<path d="M124.768 220.555C124.581 219.867 124.065 219.207 123.449 218.835C122.833 218.477 121.93 218.319 121.242 218.548C120.554 218.778 119.88 219.207 119.522 219.867C119.164 220.555 119.035 221.314 119.235 222.074C119.508 223.106 119.723 224.167 119.88 225.227C119.923 225.586 119.966 225.958 119.995 226.317C120.052 227.091 120.267 227.779 120.841 228.338C121.342 228.839 122.159 229.212 122.862 229.183C123.607 229.155 124.366 228.911 124.882 228.338C125.37 227.807 125.785 227.062 125.728 226.317C125.57 224.367 125.269 222.432 124.768 220.54V220.555Z" fill="black"/>
<path d="M152.529 220.54C152.543 220.139 152.457 219.781 152.285 219.437C152.171 219.079 151.97 218.778 151.698 218.52C151.196 218.018 150.379 217.645 149.677 217.674C148.931 217.703 148.172 217.946 147.656 218.52C147.168 219.05 146.753 219.795 146.81 220.54L147.183 225.127C147.168 225.528 147.254 225.887 147.426 226.231C147.541 226.589 147.742 226.89 148.014 227.148C148.516 227.65 149.333 228.022 150.035 227.994C150.78 227.965 151.54 227.721 152.056 227.148C152.543 226.618 152.959 225.872 152.902 225.127L152.529 220.54Z" fill="black"/>
<path d="M180.628 217.33C180.384 216.628 179.968 215.997 179.309 215.61C178.693 215.252 177.79 215.094 177.102 215.323C176.414 215.553 175.74 215.983 175.382 216.642C175.038 217.301 174.851 218.118 175.095 218.849C175.267 219.351 175.382 219.852 175.468 220.368C175.539 221.085 175.539 221.816 175.468 222.547C175.324 223.321 175.353 224.052 175.754 224.754C176.098 225.342 176.786 225.915 177.474 226.073C178.205 226.245 179.037 226.202 179.682 225.786C180.284 225.399 180.871 224.797 181 224.066C181.416 221.816 181.359 219.494 180.628 217.315V217.33Z" fill="black"/>
<path d="M204.425 217.961C204.439 217.559 204.353 217.201 204.181 216.857C204.066 216.499 203.866 216.198 203.593 215.94C203.092 215.438 202.275 215.065 201.572 215.094C200.827 215.123 200.067 215.366 199.551 215.94C199.078 216.456 198.62 217.23 198.706 217.961C198.921 219.623 199.136 221.271 199.351 222.934C199.336 223.335 199.422 223.694 199.594 224.038C199.709 224.396 199.91 224.697 200.182 224.955C200.684 225.457 201.501 225.829 202.203 225.801C202.948 225.772 203.708 225.528 204.224 224.955C204.697 224.439 205.156 223.665 205.07 222.934C204.855 221.271 204.64 219.623 204.425 217.961Z" fill="black"/>
<path d="M227.306 216.785C227.048 216.069 226.661 215.467 225.987 215.065C225.371 214.707 224.468 214.549 223.78 214.779C223.092 215.008 222.418 215.438 222.06 216.097C221.716 216.757 221.515 217.588 221.773 218.305C222.246 219.637 222.576 221.013 222.791 222.404C222.791 222.518 222.82 222.619 222.834 222.733C222.82 223.135 222.906 223.493 223.078 223.837C223.192 224.195 223.393 224.496 223.665 224.754C224.167 225.256 224.984 225.629 225.686 225.6C226.432 225.571 227.191 225.328 227.707 224.754C228.195 224.224 228.61 223.479 228.553 222.733C228.367 220.698 227.98 218.706 227.292 216.785H227.306Z" fill="black"/>
<path d="M191.388 204.645C191.173 203.183 190.972 201.721 190.757 200.259C190.671 199.887 190.499 199.557 190.241 199.285C190.041 198.97 189.768 198.726 189.439 198.54C188.822 198.181 187.919 198.024 187.231 198.253C186.543 198.482 185.87 198.912 185.511 199.572C185.411 199.801 185.325 200.03 185.225 200.259C185.081 200.761 185.081 201.277 185.225 201.779C185.44 203.241 185.64 204.703 185.855 206.165C185.941 206.537 186.113 206.867 186.371 207.139C186.572 207.455 186.844 207.698 187.174 207.885C187.79 208.243 188.693 208.401 189.381 208.171C190.069 207.942 190.743 207.512 191.101 206.853C191.202 206.623 191.288 206.394 191.388 206.165C191.531 205.663 191.531 205.147 191.388 204.645Z" fill="black"/>
<path d="M164.327 204.244C164.169 203.556 163.61 202.882 163.008 202.524C162.392 202.166 161.489 202.008 160.801 202.237C160.113 202.467 159.439 202.897 159.081 203.556C158.708 204.258 158.608 204.989 158.794 205.763C158.938 206.365 159.038 206.967 159.124 207.569C159.21 208.243 159.267 208.902 159.296 209.576C159.325 210.321 159.597 211.066 160.142 211.597C160.643 212.098 161.46 212.471 162.163 212.442C162.908 212.414 163.668 212.17 164.184 211.597C164.685 211.052 165.058 210.335 165.029 209.576C164.958 207.784 164.728 205.978 164.327 204.23V204.244Z" fill="black"/>
<path d="M135.297 207.598C135.211 207.225 135.039 206.896 134.781 206.623C134.58 206.308 134.308 206.064 133.978 205.878C133.648 205.663 133.29 205.548 132.917 205.534C132.53 205.448 132.158 205.462 131.771 205.591C131.083 205.821 130.409 206.251 130.051 206.91C129.707 207.555 129.492 208.401 129.764 209.117C130.137 210.135 130.395 211.181 130.552 212.242C130.552 212.615 130.624 212.959 130.796 213.274C130.911 213.632 131.111 213.933 131.384 214.191C131.642 214.478 131.957 214.664 132.301 214.779C132.645 214.965 133.018 215.037 133.405 215.022C134.15 214.994 134.91 214.75 135.426 214.177C135.569 213.99 135.727 213.79 135.87 213.603C136.128 213.159 136.257 212.672 136.257 212.156C136.099 210.594 135.813 209.06 135.268 207.584L135.297 207.598Z" fill="black"/>
<path d="M108.068 206.652C107.839 205.95 107.395 205.319 106.75 204.932C106.133 204.574 105.23 204.416 104.542 204.645C103.854 204.875 103.181 205.305 102.822 205.964C102.464 206.637 102.292 207.426 102.536 208.171C102.994 209.604 103.324 211.081 103.539 212.571C103.553 212.7 103.568 212.829 103.582 212.958C103.568 213.36 103.654 213.718 103.826 214.062C103.94 214.42 104.141 214.721 104.413 214.979C104.915 215.481 105.732 215.854 106.434 215.825C107.18 215.796 107.939 215.553 108.455 214.979C108.942 214.449 109.372 213.689 109.301 212.958C109.086 210.823 108.699 208.701 108.039 206.652H108.068Z" fill="black"/>
<path d="M82.227 211.611C82.141 211.138 82.0694 210.665 81.9977 210.192C81.8401 208.931 81.7541 207.67 81.7254 206.394C81.7254 205.649 81.4101 204.889 80.8797 204.373C80.3781 203.871 79.5611 203.499 78.8588 203.527C78.1135 203.556 77.3538 203.8 76.8378 204.373C76.3218 204.932 75.9922 205.634 75.9922 206.394C76.0209 208.659 76.2788 210.909 76.6945 213.13C76.8235 213.804 77.4398 214.506 78.0131 214.85C78.6295 215.209 79.5324 215.366 80.2204 215.137C80.9084 214.908 81.5821 214.478 81.9404 213.818C82.313 213.102 82.3847 212.399 82.227 211.611Z" fill="black"/>
<path d="M49.8127 207.885C49.698 207.526 49.4974 207.225 49.225 206.967C48.967 206.681 48.6517 206.494 48.3077 206.38C47.9637 206.193 47.5911 206.122 47.2041 206.136C46.4588 206.165 45.6991 206.408 45.1831 206.982C44.6671 207.541 44.3375 208.229 44.3375 209.003V212.185C44.3231 212.586 44.4091 212.944 44.5811 213.288C44.6958 213.646 44.8965 213.947 45.1688 214.205C45.4268 214.492 45.7421 214.678 46.0861 214.793C46.4301 214.979 46.8028 215.051 47.1897 215.037C47.9351 215.008 48.6947 214.764 49.2107 214.191C49.7267 213.632 50.0564 212.944 50.0564 212.17V208.988C50.0707 208.587 49.9847 208.229 49.8127 207.885Z" fill="black"/>
<path d="M48.4495 237.281C48.3921 236.507 48.1771 235.819 47.6038 235.26C47.1021 234.759 46.2852 234.386 45.5828 234.415C44.8375 234.443 44.0779 234.687 43.5619 235.26C43.0746 235.791 42.6589 236.536 42.7162 237.281C42.9026 239.732 43.1032 242.197 43.2896 244.648C43.3469 245.422 43.5619 246.11 44.1352 246.669C44.6369 247.171 45.4538 247.544 46.1562 247.515C46.9015 247.486 47.6611 247.243 48.1771 246.669C48.6644 246.139 49.0801 245.394 49.0228 244.648C48.8364 242.197 48.6358 239.732 48.4495 237.281Z" fill="black"/>
<path d="M19.8308 248.275L18.9135 242.284C18.8131 241.624 18.1538 240.893 17.5948 240.564C16.9785 240.205 16.0755 240.048 15.3876 240.277C14.6996 240.506 14.0259 240.936 13.6676 241.596C13.5673 241.825 13.4813 242.054 13.3809 242.284C13.2376 242.785 13.2376 243.301 13.3809 243.803C13.6819 245.795 13.9973 247.802 14.2982 249.794C14.3986 250.453 15.0579 251.184 15.6169 251.514C16.2332 251.872 17.1362 252.03 17.8242 251.801C18.5122 251.571 19.1858 251.141 19.5441 250.482C19.6445 250.253 19.7305 250.023 19.8308 249.794C19.9741 249.292 19.9741 248.776 19.8308 248.275Z" fill="black"/>
<path d="M83.5884 245.293C83.3161 244.261 83.1154 243.229 82.9577 242.183C82.8574 241.28 82.7714 240.377 82.7571 239.474C82.7427 238.729 82.4561 237.983 81.9114 237.453C81.4098 236.951 80.5928 236.579 79.8905 236.608C79.1451 236.636 78.3855 236.88 77.8695 237.453C77.3678 238.012 77.0095 238.714 77.0239 239.474C77.0812 241.939 77.4395 244.433 78.0702 246.827C78.2565 247.515 78.7725 248.174 79.3888 248.547C80.0051 248.905 80.9081 249.063 81.5961 248.833C83.0867 248.346 84.004 246.856 83.6027 245.308L83.5884 245.293Z" fill="black"/>
<path d="M111.976 241.08C111.861 240.406 111.216 239.689 110.657 239.36C110.041 239.001 109.138 238.844 108.45 239.073C107.762 239.302 107.088 239.732 106.73 240.392C106.63 240.621 106.544 240.85 106.443 241.08C106.3 241.581 106.3 242.097 106.443 242.599C106.472 242.771 106.501 242.943 106.529 243.115C106.773 245.078 106.816 247.042 106.658 249.02C106.601 249.722 107.017 250.568 107.504 251.041C107.991 251.514 108.823 251.915 109.525 251.887C110.27 251.858 111.03 251.614 111.546 251.041C112.091 250.453 112.32 249.808 112.392 249.02C112.607 246.354 112.42 243.702 111.976 241.08Z" fill="black"/>
<path d="M142.194 237.439C141.692 236.937 140.875 236.565 140.173 236.593C138.61 236.665 137.32 237.855 137.306 239.46C137.277 241.71 137.263 243.975 137.234 246.225C137.234 246.956 137.564 247.73 138.08 248.246C138.596 248.762 139.399 249.12 140.101 249.092C141.663 249.02 142.953 247.83 142.968 246.225C142.996 243.975 143.011 241.71 143.039 239.46C143.039 238.729 142.71 237.955 142.194 237.439Z" fill="black"/>
<path d="M167.499 237.869C167.499 236.364 166.195 234.931 164.632 235.003C163.084 235.074 161.751 236.264 161.766 237.869C161.794 240.535 161.938 243.201 162.224 245.838C162.31 246.627 162.482 247.286 163.07 247.859C163.572 248.361 164.389 248.734 165.091 248.705C165.836 248.676 166.596 248.432 167.112 247.859C167.599 247.329 168.029 246.569 167.958 245.838C167.671 243.187 167.528 240.535 167.499 237.869Z" fill="black"/>
<path d="M192.448 243.086C192.391 242.814 192.362 242.527 192.319 242.255C192.176 241.065 192.104 239.876 192.119 238.672C192.119 237.941 191.789 237.153 191.273 236.651C190.771 236.149 189.954 235.777 189.252 235.805C188.507 235.834 187.747 236.078 187.231 236.651C186.715 237.21 186.4 237.898 186.386 238.672C186.357 240.664 186.558 242.656 186.916 244.606C187.045 245.279 187.661 245.982 188.234 246.326C188.851 246.684 189.754 246.842 190.442 246.612C191.13 246.383 191.803 245.953 192.162 245.294C192.262 245.064 192.348 244.835 192.448 244.606C192.592 244.104 192.592 243.588 192.448 243.086Z" fill="black"/>
<path d="M220.613 242.499C220.512 241.882 220.426 241.28 220.34 240.664C220.168 239.331 220.011 237.998 219.882 236.665C219.81 235.891 219.609 235.203 219.036 234.644C218.534 234.142 217.717 233.77 217.015 233.798C216.27 233.827 215.51 234.071 214.994 234.644C214.507 235.174 214.077 235.92 214.148 236.665C214.392 239.13 214.707 241.581 215.08 244.018C215.18 244.677 215.84 245.408 216.399 245.738C217.015 246.096 217.918 246.254 218.606 246.024C219.294 245.795 219.968 245.365 220.326 244.706L220.613 244.018C220.756 243.516 220.756 243 220.613 242.499Z" fill="black"/>
<path d="M244.856 237.439C244.355 236.937 243.538 236.565 242.835 236.593C242.09 236.622 241.33 236.866 240.814 237.439C240.298 237.998 239.969 238.686 239.969 239.46V244.634C239.969 245.365 240.284 246.139 240.814 246.655C241.316 247.157 242.133 247.529 242.835 247.501C243.581 247.472 244.34 247.228 244.856 246.655C245.372 246.096 245.702 245.408 245.702 244.634V239.46C245.702 238.729 245.387 237.955 244.856 237.439Z" fill="black"/>
<path d="M31.2834 258.021C31.0971 257.333 30.5811 256.674 29.9648 256.301C29.3485 255.943 28.4455 255.785 27.7575 256.015C27.0695 256.244 26.3959 256.674 26.0376 257.333C25.6792 258.021 25.5502 258.781 25.7509 259.541C26.0806 260.773 26.3242 262.02 26.5106 263.281C26.5392 263.511 26.5679 263.74 26.5966 263.969C26.5822 264.371 26.6682 264.729 26.8402 265.073C26.9549 265.431 27.1555 265.732 27.4279 265.99C27.9295 266.492 28.7465 266.865 29.4488 266.836C30.1941 266.807 30.9538 266.564 31.4698 265.99C31.9571 265.46 32.3871 264.715 32.3154 263.969C32.1148 261.963 31.7851 259.97 31.2691 258.007L31.2834 258.021Z" fill="black"/>
<path d="M61.5029 266.004C61.0443 264.084 60.5856 262.149 60.1269 260.228C59.9693 259.54 59.4103 258.867 58.8083 258.508C58.192 258.15 57.289 257.992 56.601 258.222C55.0817 258.709 54.2217 260.185 54.5944 261.748C55.0531 263.668 55.5117 265.603 55.9704 267.524C56.128 268.212 56.687 268.885 57.289 269.244C57.9053 269.602 58.8083 269.76 59.4963 269.53C61.0156 269.043 61.8756 267.567 61.5029 266.004Z" fill="black"/>
<path d="M94.752 260.386C94.6947 259.612 94.4653 258.924 93.9063 258.365C93.4047 257.863 92.5877 257.491 91.8854 257.519C91.1401 257.548 90.3804 257.792 89.8644 258.365C89.3771 258.895 88.9758 259.641 89.0188 260.386C89.1908 262.78 89.3771 265.173 89.5491 267.567C89.6064 268.341 89.8358 269.029 90.3948 269.588C90.8964 270.089 91.7134 270.462 92.4157 270.433C93.161 270.405 93.9207 270.161 94.4367 269.588C94.924 269.057 95.3253 268.312 95.2823 267.567C95.1103 265.173 94.924 262.78 94.752 260.386Z" fill="black"/>
<path d="M128.148 260.2C128.048 259.541 127.388 258.81 126.829 258.48C126.213 258.122 125.31 257.964 124.622 258.193C123.934 258.423 123.26 258.853 122.902 259.512C122.802 259.741 122.716 259.971 122.615 260.2C122.472 260.702 122.472 261.218 122.615 261.719C122.615 261.777 122.63 261.834 122.644 261.906C122.888 263.84 122.945 265.804 122.802 267.753C122.744 268.456 123.16 269.301 123.647 269.774C124.149 270.276 124.966 270.649 125.668 270.62C126.414 270.591 127.173 270.348 127.689 269.774C128.22 269.187 128.463 268.542 128.535 267.753C128.721 265.216 128.549 262.708 128.148 260.2Z" fill="black"/>
<path d="M153.028 258.752C152.527 258.25 151.71 257.878 151.007 257.906C149.459 257.978 148.141 259.168 148.141 260.773V266.75C148.141 267.481 148.456 268.255 148.986 268.771C149.488 269.272 150.305 269.645 151.007 269.616C152.555 269.545 153.874 268.355 153.874 266.75V260.773C153.874 260.042 153.559 259.268 153.028 258.752Z" fill="black"/>
<path d="M179.93 260.587C179.901 259.827 179.629 259.096 179.084 258.566C178.583 258.064 177.766 257.691 177.063 257.72C176.318 257.749 175.558 257.992 175.043 258.566C174.541 259.11 174.168 259.827 174.197 260.587C174.283 262.651 174.355 264.7 174.441 266.764C174.469 267.524 174.742 268.255 175.286 268.785C175.788 269.287 176.605 269.659 177.307 269.631C178.052 269.602 178.812 269.358 179.328 268.785C179.83 268.24 180.202 267.524 180.174 266.764C180.088 264.7 180.016 262.651 179.93 260.587Z" fill="black"/>
<path d="M201.577 257.993C201.549 257.247 201.276 256.502 200.732 255.972C200.23 255.47 199.413 255.097 198.711 255.126C197.965 255.155 197.206 255.398 196.69 255.972C196.188 256.516 195.83 257.233 195.844 257.993C195.916 260.257 195.987 262.508 196.059 264.772C196.088 265.517 196.36 266.263 196.905 266.793C197.406 267.295 198.223 267.667 198.926 267.639C199.671 267.61 200.431 267.366 200.947 266.793C201.448 266.248 201.807 265.532 201.792 264.772C201.721 262.508 201.649 260.257 201.577 257.993Z" fill="black"/>
<path d="M229.763 257.548C229.419 256.961 228.731 256.387 228.043 256.23C227.312 256.058 226.481 256.101 225.836 256.516C225.234 256.903 224.675 257.505 224.517 258.236C224.059 260.386 223.786 262.579 223.758 264.772C223.758 265.503 224.087 266.291 224.603 266.793C225.119 267.295 225.922 267.667 226.624 267.639C228.201 267.567 229.462 266.377 229.491 264.772C229.505 263.754 229.577 262.737 229.706 261.733C229.806 261.074 229.907 260.415 230.05 259.77C230.208 259.01 230.165 258.236 229.763 257.563V257.548Z" fill="black"/>
<path d="M205.792 44.8619C202.137 39.6161 196.103 36.1045 189.882 34.9292C185.181 34.0406 179.649 34.3845 175.549 36.9215C177.47 33.1376 178.86 29.0814 179.62 24.9105C180.752 18.69 180.523 11.9249 177.384 6.2777C175.908 3.61178 173.672 1.21818 170.676 0.329541C167.895 -0.501768 165.015 0.32954 162.879 2.22148C157.662 6.86535 159.353 14.6051 161.718 20.2236C163.28 23.9358 165.172 27.4761 166.892 31.1023C168.411 34.3129 169.931 37.7098 169.959 41.293C167.222 38.1971 164.083 35.4738 160.485 33.4816C156.601 31.3316 152.358 29.9127 148.102 28.7374C147.213 28.4937 146.826 29.8697 147.715 30.1133C151.413 31.1453 155.082 32.3206 158.522 34.0549C161.933 35.7892 164.929 38.0824 167.566 40.8487C172.597 46.1089 176.409 52.5157 178.731 59.4098C180.036 63.294 180.867 67.3359 181.197 71.4208C181.268 72.3381 182.701 72.3381 182.63 71.4208C182.028 63.9247 179.806 56.6006 176.123 50.0504C174.933 47.9435 173.586 45.8795 172.095 43.9303C175.005 44.3029 177.57 46.0372 179.821 47.8861C182.515 50.1221 185.009 52.573 187.603 54.9093C190.155 57.2169 192.806 59.5101 195.773 61.2444C198.453 62.821 201.965 63.7957 204.774 61.9181C207.354 60.1981 208.53 56.9589 208.659 53.9633C208.788 50.7097 207.67 47.4992 205.821 44.8476L205.792 44.8619ZM171.679 34.8145C171.12 32.3779 170.332 30.0273 169.443 27.7054C167.68 23.0902 165.545 18.4177 165.301 13.4155C165.215 11.5379 165.33 6.83668 168.196 7.08034C170.361 7.25234 171.952 9.51694 172.769 11.3229C173.7 13.4012 174.059 15.7088 174.274 17.959C174.503 20.41 174.546 22.8752 174.388 25.3261C174.145 29.239 173.371 33.1089 172.152 36.8355C171.995 36.1332 171.837 35.4452 171.694 34.8145H171.679ZM175.678 26.9171C175.951 24.1508 175.979 21.3559 175.75 18.5897C175.564 16.1961 175.248 13.7451 174.374 11.4949C173.586 9.45961 172.324 7.46733 170.389 6.34936C168.282 5.11673 165.889 5.56105 164.771 7.82565C163.61 10.1619 163.696 12.9712 164.054 15.4794C164.427 18.1883 165.258 20.7826 166.219 23.3339C167.308 26.2578 168.555 29.1387 169.472 32.1343C169.888 33.5102 170.232 34.9005 170.518 36.3051C170.217 35.3448 169.888 34.3989 169.501 33.4816C168.254 30.5147 166.778 27.6624 165.359 24.7672C162.678 19.3063 159.052 12.3549 161.747 6.22037C162.822 3.76944 165.115 1.67683 167.881 1.44751C171.063 1.18952 173.786 3.33945 175.463 5.86204C178.832 10.9359 179.333 17.443 178.445 23.3339C177.656 28.6227 175.807 33.6966 173.141 38.3261C174.446 34.6425 175.306 30.83 175.693 26.9314L175.678 26.9171ZM203.914 60.7571C200.976 62.6347 197.508 60.7571 194.985 59.0658C192.319 57.2599 189.897 55.1099 187.532 52.9313C184.98 50.5807 182.486 48.1298 179.735 46.0085C178.588 45.1342 177.384 44.3316 176.094 43.7009C180.38 44.2742 184.565 45.5785 188.019 48.2731C190.341 50.0791 191.86 52.487 193.652 54.7803C195.257 56.8299 197.336 58.8222 200.001 59.3095C202.366 59.7395 204.688 58.7935 204.731 56.1132C204.774 53.605 203.484 51.0824 202.022 49.1331C198.812 44.8762 193.91 41.7373 188.836 40.1894C183.834 38.6557 178.402 38.7991 173.528 40.6194C176.854 36.4198 182.888 35.4308 188.062 36.0758C194.01 36.8211 199.844 39.8167 203.699 44.4606C205.663 46.8398 207.053 49.7781 207.197 52.8883C207.326 55.7119 206.451 59.1375 203.914 60.7571ZM173.829 42.024C182.687 38.6127 193.107 41.551 199.6 48.4451C201.277 50.2224 202.653 52.358 203.169 54.7803C203.413 55.9412 203.513 57.4462 202.137 57.8762C200.933 58.2488 199.514 57.8045 198.453 57.2312C196.089 55.9556 194.598 53.6623 193.05 51.5554C191.574 49.5631 189.94 47.8001 187.876 46.3955C183.733 43.5576 178.789 42.3966 173.829 42.024Z" fill="black"/>
<path d="M408.329 209.891H318.805C314.19 209.891 314.19 217.057 318.805 217.057H408.329C412.944 217.057 412.944 209.891 408.329 209.891Z" fill="black"/>
<path d="M405.42 234.071H318.29C313.674 234.071 313.674 241.237 318.29 241.237H405.42C410.035 241.237 410.035 234.071 405.42 234.071Z" fill="black"/>
<path d="M404.091 256.917H324.93C320.315 256.917 320.315 264.084 324.93 264.084H404.091C408.707 264.084 408.707 256.917 404.091 256.917Z" fill="black"/>
<path d="M349.134 276.726H303.096C300.057 266.822 296.761 256.946 294.038 246.942C297.334 240.22 302.852 234.902 306.421 228.338C306.45 228.323 306.479 228.323 306.507 228.323C307.21 228.209 307.138 227.363 306.651 227.048C306.393 226.704 305.819 226.589 305.533 227.033C302.365 227.549 299.197 228.022 296.016 228.424C294.396 228.624 292.762 228.825 291.128 228.997C290.368 229.069 289.723 229.054 288.964 228.882C288.935 228.882 288.906 228.882 288.863 228.868C288.749 218.849 288.104 208.859 286.914 198.912C288.72 198.454 290.54 197.981 292.332 197.479C303.383 194.369 314.161 190.327 324.524 185.425C325.57 184.938 326.617 184.436 327.648 183.92C327.663 183.906 327.692 183.906 327.706 183.891C330.472 195.874 333.238 207.827 336.005 219.81L344.461 256.473C346.009 263.224 347.571 269.975 349.134 276.726Z" fill="#FF714B"/>
<path d="M383.672 276.883H429.71C432.748 266.979 436.045 257.104 438.768 247.099C435.471 240.377 429.953 235.06 426.384 228.495C426.356 228.481 426.327 228.481 426.298 228.481C425.596 228.366 425.668 227.52 426.155 227.205C426.413 226.861 426.986 226.746 427.273 227.191C430.441 227.707 433.608 228.18 436.79 228.581C438.41 228.782 440.044 228.982 441.678 229.154C442.437 229.226 443.082 229.212 443.842 229.04C443.871 229.04 443.899 229.04 443.942 229.025C444.057 219.007 444.702 209.017 445.892 199.07C444.086 198.611 442.265 198.138 440.474 197.636C429.423 194.526 418.644 190.484 408.282 185.582C407.235 185.095 406.189 184.593 405.157 184.077C405.143 184.063 405.114 184.063 405.1 184.049C402.333 196.031 399.567 207.985 396.801 219.967L388.344 256.631C386.796 263.381 385.234 270.132 383.672 276.883Z" fill="#FF714B"/>
<path d="M345.682 96.3316C348.207 96.3316 350.254 94.0343 350.254 91.2004C350.254 88.3665 348.207 86.0692 345.682 86.0692C343.156 86.0692 341.109 88.3665 341.109 91.2004C341.109 94.0343 343.156 96.3316 345.682 96.3316Z" fill="black"/>
<path d="M353.012 79.6908C352.439 80.4361 351.493 80.7801 350.618 81.0811C349.472 81.4681 348.311 81.6974 347.135 81.9124C344.885 82.328 342.664 82.715 340.557 83.5893C339.439 84.048 338.407 84.6643 337.317 85.1803C336.586 85.5243 335.626 85.9829 334.866 85.4956C333.347 84.5066 334.651 82.0701 335.425 81.0668C336.156 80.1208 337.059 79.3038 338.034 78.6015C340.198 76.7955 342.85 75.6059 345.631 75.1043C347.551 74.7746 349.644 74.6313 351.435 75.5342C352.926 76.2796 354.216 78.1142 352.983 79.6908H353.012Z" fill="black"/>
<path d="M390.416 97.0481C392.941 97.0481 394.988 94.7508 394.988 91.9169C394.988 89.0831 392.941 86.7858 390.416 86.7858C387.891 86.7858 385.844 89.0831 385.844 91.9169C385.844 94.7508 387.891 97.0481 390.416 97.0481Z" fill="black"/>
<path d="M383.058 80.4217C383.631 81.1671 384.577 81.5111 385.452 81.812C386.598 82.199 387.759 82.4284 388.935 82.6433C391.185 83.059 393.407 83.446 395.514 84.3203C396.632 84.779 397.664 85.3953 398.753 85.9113C399.484 86.2552 400.444 86.7139 401.204 86.2266C402.723 85.2376 401.419 82.801 400.645 81.7977C399.914 80.8517 399.011 80.0348 398.036 79.3324C395.872 77.5265 393.22 76.3369 390.44 75.8352C388.519 75.5056 386.426 75.3622 384.635 76.2652C383.144 77.0105 381.854 78.8451 383.087 80.4217H383.058Z" fill="black"/>
<path d="M339.607 126.924C344.688 126.512 348.438 121.63 347.983 116.02C347.527 110.411 343.039 106.197 337.958 106.61C332.877 107.022 329.127 111.904 329.582 117.514C330.037 123.123 334.526 127.337 339.607 126.924Z" fill="#F4E140"/>
<path d="M403.256 117.487C403.711 111.877 399.961 106.995 394.88 106.583C389.799 106.17 385.311 110.384 384.856 115.993C384.4 121.603 388.15 126.485 393.231 126.897C398.313 127.31 402.801 123.096 403.256 117.487Z" fill="#F4E140"/>
<path d="M332.854 144.089C332.782 144.805 332.725 145.536 332.639 146.253C331.922 153.978 331.105 161.69 330.188 169.401C330.145 169.874 330.087 170.347 330.03 170.82C329.586 174.618 329.127 178.402 328.625 182.2C328.625 182.286 328.611 182.386 328.597 182.472C328.726 182.616 328.812 182.816 328.812 182.988C328.812 183.218 328.697 183.404 328.453 183.519C328.195 183.633 327.966 183.777 327.708 183.891C327.694 183.906 327.665 183.906 327.651 183.92C326.619 184.436 325.573 184.937 324.526 185.425C314.163 190.327 303.385 194.369 292.334 197.479C290.543 197.98 288.722 198.453 286.916 198.912C286.443 199.027 285.985 199.156 285.512 199.256C285.067 199.371 284.637 199.485 284.193 199.586C275.622 201.65 266.979 203.427 258.58 206.064C257.075 206.537 255.57 207.039 254.094 207.598C253.549 207.784 253.019 207.985 252.488 208.185C251.241 208.658 250.023 209.16 248.805 209.719C242.756 212.342 237.037 215.71 232.107 220.139C231.706 220.497 231.319 220.856 230.946 221.228C229.197 222.891 227.592 224.711 226.159 226.646C225.399 227.664 224.697 228.739 224.037 229.828C223.722 230.33 223.435 230.846 223.149 231.362C222.833 231.935 222.547 232.508 222.274 233.096C220.784 236.206 219.738 239.489 219.05 242.857C218.82 243.932 218.648 245.007 218.491 246.082C218.247 247.873 218.075 249.665 218.003 251.457C217.932 252.847 217.917 254.237 217.946 255.627C217.96 257.505 218.075 259.383 218.247 261.246C218.333 262.335 218.448 263.425 218.591 264.499C218.949 267.38 219.451 270.261 220.024 273.099C220.268 274.318 220.526 275.507 220.798 276.711C220.841 276.897 220.87 277.055 220.913 277.227C221.013 277.643 220.784 277.944 220.468 278.058H220.454C220.096 278.202 219.652 278.087 219.537 277.6C219.25 276.324 218.964 275.049 218.706 273.773C218.663 273.544 218.62 273.329 218.577 273.099C218.003 270.261 217.53 267.395 217.172 264.499C217.1 263.94 217.043 263.382 216.986 262.808C216.756 260.83 216.613 258.824 216.556 256.831C216.498 255.04 216.498 253.248 216.584 251.457C216.699 248.561 217.014 245.695 217.588 242.857C217.616 242.685 217.645 242.513 217.688 242.341C218.233 239.775 218.978 237.253 219.967 234.83C220.655 233.11 221.457 231.433 222.375 229.828C222.676 229.284 223.005 228.739 223.349 228.209C223.521 227.951 223.679 227.693 223.865 227.435C225.342 225.213 227.047 223.149 228.911 221.228C230.201 219.91 231.562 218.663 232.996 217.502C237.324 213.99 242.097 211.167 247.142 208.888C247.658 208.644 248.189 208.415 248.719 208.185C249.923 207.669 251.127 207.182 252.359 206.724C255.011 205.692 257.72 204.803 260.443 204C266.191 202.309 272.01 200.947 277.844 199.586C280.409 198.984 282.96 198.396 285.512 197.765C285.77 197.694 286.028 197.636 286.3 197.565H286.314C289.167 196.848 292.019 196.088 294.857 195.257C305.965 191.961 316.772 187.704 327.149 182.558C328.797 169.759 330.231 156.931 331.42 144.089C331.42 144.046 331.435 144.003 331.449 143.96C331.621 143.3 332.567 143.229 332.796 143.745C332.839 143.845 332.868 143.96 332.854 144.089Z" fill="black"/>
<path d="M515.54 255.699C515.497 258.638 515.268 261.576 514.895 264.5C514.551 267.381 514.064 270.262 513.491 273.099C513.448 273.343 513.404 273.601 513.347 273.845C513.089 275.135 512.817 276.41 512.516 277.686C512.401 278.173 511.943 278.288 511.584 278.145H511.57C511.255 278.016 511.04 277.729 511.14 277.313C511.183 277.113 511.226 276.926 511.269 276.726C511.541 275.507 511.799 274.318 512.043 273.099C512.616 270.262 513.118 267.381 513.476 264.5C513.806 261.877 514.021 259.225 514.092 256.588C514.15 254.882 514.135 253.191 514.049 251.5V251.457C513.963 249.694 513.806 247.931 513.562 246.168C513.404 245.064 513.218 243.961 512.974 242.857C512.33 239.704 511.355 236.608 510.008 233.67C509.664 232.924 509.305 232.179 508.904 231.448C508.603 230.903 508.302 230.359 507.958 229.828C507.958 229.828 507.958 229.814 507.944 229.814C506.037 226.646 503.701 223.794 501.021 221.229C500.677 220.885 500.304 220.555 499.946 220.225C493.969 214.851 486.831 211.038 479.335 208.186C477.4 207.44 475.436 206.767 473.473 206.15C470.864 205.333 468.227 204.588 465.59 203.915C463.812 203.442 462.035 203.012 460.258 202.582C456.015 201.564 451.758 200.618 447.516 199.586C444.907 198.955 442.298 198.282 439.718 197.565C428.668 194.455 417.904 190.413 407.527 185.511C406.71 185.124 405.907 184.751 405.104 184.35C404.66 184.135 404.23 183.92 403.8 183.705C403.743 183.662 403.671 183.633 403.614 183.605C403.126 183.375 403.184 182.874 403.456 182.558C401.822 169.788 400.389 156.989 399.199 144.175C399.113 143.258 400.546 143.258 400.632 144.175C401.836 157.017 403.255 169.845 404.904 182.644C405.033 182.702 405.147 182.773 405.276 182.831C415.539 187.89 426.217 192.076 437.196 195.343C442.685 196.977 448.261 198.296 453.851 199.586C456.502 200.202 459.154 200.819 461.806 201.478C463.597 201.908 465.389 202.367 467.166 202.84C468.657 203.241 470.133 203.657 471.609 204.086C475.522 205.233 479.407 206.58 483.162 208.186C488.838 210.622 494.241 213.661 499.057 217.588C500.462 218.735 501.809 219.939 503.07 221.229C505.177 223.379 507.084 225.729 508.703 228.28C508.933 228.639 509.148 228.983 509.348 229.341C509.449 229.499 509.535 229.671 509.635 229.828C510.266 230.918 510.839 232.036 511.355 233.168C512.702 236.135 513.705 239.245 514.365 242.427C514.393 242.57 514.422 242.714 514.451 242.857C514.952 245.351 515.268 247.874 515.425 250.396C515.454 250.754 515.468 251.098 515.483 251.457C515.554 252.861 515.569 254.28 515.54 255.699Z" fill="black"/>
<path d="M511.424 278.159H220.822C220.679 278.159 220.564 278.13 220.464 278.059H220.449C219.933 277.729 220.048 276.754 220.793 276.726H511.424C512.356 276.726 512.356 278.159 511.424 278.159Z" fill="black"/>
<path d="M404.19 183.189C401.194 187.446 396.493 190.069 391.691 191.817C386.675 193.666 381.357 194.842 376.04 195.415C365.304 196.576 354.325 195.286 344.149 191.645C341.296 190.628 338.516 189.424 335.821 188.048C334.459 187.345 333.112 186.6 331.794 185.798C330.489 184.995 329.271 184.092 328.612 182.673C328.225 181.842 326.992 182.558 327.379 183.39C328.511 185.812 331.149 187.13 333.384 188.349C335.835 189.696 338.372 190.9 340.967 191.946C346.27 194.096 351.845 195.601 357.507 196.433C368.629 198.067 380.196 197.235 390.846 193.609C396.45 191.703 401.911 188.836 405.394 183.891C405.924 183.132 404.691 182.415 404.161 183.175L404.19 183.189Z" fill="black"/>
<path d="M385.727 136.492C375.407 141.265 363.41 141.882 352.632 138.298C351.758 138.012 351.385 139.388 352.245 139.674C363.396 143.386 375.78 142.655 386.444 137.725C387.275 137.338 386.558 136.105 385.727 136.492Z" fill="black"/>
<path d="M309.198 104.989C307.722 101.792 306.962 98.1087 307.277 94.5828C307.578 91.2146 309.327 87.6314 312.652 86.3557C316.422 84.9081 320.607 86.9577 321.983 90.6843C322.026 90.8133 322.112 90.8993 322.198 90.9853C322.685 99.3127 323.56 107.626 324.735 115.896C317.898 115.638 312.022 111.123 309.198 104.989ZM369.698 165.058C369.597 165 369.468 164.986 369.325 165C368.207 165.144 367.089 165.215 365.985 165.215C364.738 165.244 363.491 165.187 362.273 165.058C351.695 163.997 342.035 157.791 335.972 148.933C334.811 147.242 333.793 145.493 332.905 143.687C330.884 139.603 329.494 135.231 328.605 130.716C327.114 123.148 326.097 115.452 325.179 107.798C324.147 99.155 323.445 90.455 323.244 81.7549C323.23 80.8232 321.797 80.8232 321.811 81.7549C321.854 83.7902 321.926 85.8398 322.026 87.875C320.406 85.7681 317.898 84.4208 315.103 84.4638C311.205 84.5211 308.109 87.2444 306.718 90.7559C305.199 94.5828 305.658 99.0977 306.876 102.939C308.08 106.68 310.201 110.163 313.197 112.743C316.479 115.552 320.621 117.243 324.936 117.344C325.523 121.328 326.168 125.284 326.871 129.225C327.788 134.342 329.207 139.316 331.443 143.96C331.815 144.734 332.202 145.493 332.632 146.253C333.048 146.998 333.478 147.729 333.937 148.46C337.42 153.907 342.092 158.594 347.696 161.819C353.243 165 359.607 166.763 365.985 166.649C367.103 166.649 368.221 166.563 369.325 166.434C370.085 166.333 370.214 165.316 369.698 165.058Z" fill="black"/>
<path d="M320.006 110.693C317.584 110.249 316.337 107.654 316.953 105.375C317.283 104.157 318.014 103.111 318.946 102.265C319.29 101.95 319.748 101.721 320.049 101.348C320.379 100.947 320.393 100.459 320.408 99.9719C320.508 97.607 319.849 95.1991 318.602 93.1781C317.498 91.4009 315.606 89.3226 313.284 89.6666C310.503 90.0822 309.858 93.3071 310.79 95.5287C311.134 96.3744 312.524 96.0017 312.166 95.1417C311.621 93.8518 311.478 91.9168 313.012 91.2145C314.402 90.5696 315.835 91.8739 316.638 92.8772C317.584 94.0381 318.258 95.4284 318.63 96.8904C318.802 97.564 318.917 98.2663 318.96 98.9686C318.974 99.2553 318.974 99.542 318.96 99.8286C318.96 100.316 318.96 100.402 318.587 100.703C316.638 102.294 315.09 104.53 315.348 107.167C315.577 109.489 317.254 111.639 319.605 112.069C320.508 112.241 320.895 110.851 319.992 110.693H320.006Z" fill="black"/>
<path d="M407.218 115.896C408.394 107.626 409.268 99.3126 409.755 90.9852C409.841 90.9135 409.913 90.8132 409.97 90.6842C411.346 86.9577 415.546 84.9081 419.301 86.3557C422.627 87.6313 424.375 91.2145 424.676 94.5828C424.991 98.0943 424.232 101.792 422.756 104.988C419.932 111.123 414.055 115.638 407.218 115.896ZM425.249 90.7416C423.845 87.23 420.749 84.5067 416.85 84.4494C414.055 84.4064 411.561 85.7537 409.927 87.8606C410.028 85.8254 410.099 83.7758 410.142 81.7405C410.157 80.8088 408.723 80.8088 408.709 81.7405C408.523 90.4406 407.806 99.1406 406.774 107.783C405.857 115.437 404.839 123.134 403.349 130.702C402.059 137.223 399.751 143.429 395.981 148.919C394.433 151.183 392.642 153.276 390.65 155.168C390.65 155.168 390.64 155.178 390.621 155.197C387.496 158.164 383.884 160.586 379.971 162.306C376.718 163.753 373.249 164.699 369.68 165.043C368.462 165.172 367.215 165.23 365.968 165.201C364.864 165.201 363.746 165.129 362.628 164.986C362.485 164.972 362.356 164.986 362.256 165.043C361.74 165.301 361.869 166.319 362.628 166.419C363.732 166.548 364.85 166.634 365.968 166.634C367.487 166.677 368.992 166.591 370.497 166.405C373.765 166.018 376.976 165.158 380.029 163.882C380.043 163.882 380.057 163.868 380.072 163.868C381.505 163.266 382.895 162.578 384.243 161.804C387.052 160.185 389.618 158.207 391.925 155.956C394.218 153.706 396.254 151.169 398.002 148.446C398.877 147.084 399.651 145.694 400.339 144.261C402.675 139.531 404.137 134.457 405.069 129.211C405.771 125.27 406.416 121.314 407.004 117.329C411.318 117.229 415.474 115.537 418.742 112.728C421.738 110.148 423.873 106.665 425.063 102.925C426.281 99.0833 426.74 94.5684 425.235 90.7416H425.249Z" fill="black"/>
<path d="M411.961 110.693C414.383 110.249 415.63 107.654 415.013 105.375C414.684 104.157 413.953 103.111 413.021 102.265C412.677 101.95 412.219 101.721 411.918 101.348C411.588 100.947 411.574 100.459 411.559 99.9719C411.459 97.607 412.118 95.1991 413.365 93.1781C414.469 91.4009 416.361 89.3226 418.683 89.6666C421.463 90.0822 422.108 93.3071 421.177 95.5287C420.833 96.3744 419.442 96.0017 419.801 95.1417C420.345 93.8518 420.489 91.9168 418.955 91.2145C417.565 90.5696 416.131 91.8739 415.329 92.8772C414.383 94.0381 413.709 95.4284 413.337 96.8904C413.165 97.564 413.05 98.2663 413.007 98.9686C412.993 99.2553 412.993 99.542 413.007 99.8286C413.007 100.316 413.007 100.402 413.38 100.703C415.329 102.294 416.877 104.53 416.619 107.167C416.389 109.489 414.713 111.639 412.362 112.069C411.459 112.241 411.072 110.851 411.975 110.693H411.961Z" fill="black"/>
<path d="M411.469 81.0812C410.551 73.0548 409.763 64.8134 407.714 57.0019C405.75 49.5488 402.167 43.0273 396.964 37.6812C392.22 32.7937 386.486 29.0814 380.309 26.7165C367.939 22.001 354.237 23.2479 342.728 29.9844C337.123 33.281 332.15 37.7958 328.251 43.2423C324.109 49.0185 321.185 55.7263 319.307 62.7208C318.361 66.2753 317.673 69.9016 317.2 73.5564C316.957 75.3767 316.785 77.197 316.656 79.0316C316.57 80.2069 316.255 81.8552 316.641 83.0878C316.67 83.5752 316.77 84.0481 317.028 84.4638C317.487 85.1948 318.333 85.4814 319.021 85.8971C320.382 86.7284 321.543 87.8464 322.633 89.0073C322.862 89.5663 323.077 90.1253 323.22 90.6986C323.722 92.6192 323.822 94.6115 323.908 96.5894C323.794 99.6423 323.779 102.695 323.851 105.748C323.894 107.253 323.951 108.772 324.037 110.277C324.095 111.152 325.198 111.266 325.428 110.607C325.7 110.521 325.901 110.277 325.886 109.905C325.714 105.648 325.542 101.405 325.37 97.1484C325.356 97.0051 325.356 96.8761 325.342 96.7328C325.614 89.5663 326.388 82.4285 327.707 75.3911C328.251 72.5388 328.868 69.7152 329.57 66.8916C329.928 65.487 330.301 64.0967 330.702 62.6921C331.032 61.5025 331.347 60.2555 331.892 59.1662C332.408 58.1056 333.139 57.2599 334.271 57.0593C335.59 56.8299 337.037 57.0736 338.342 57.2026C341.137 57.4606 343.903 57.8906 346.669 58.3636C352.001 59.2379 357.333 60.1982 362.751 60.3415C367.925 60.4705 373.142 59.9402 378.216 58.8222C380.724 58.2632 383.204 57.5609 385.641 56.7009C386.83 56.2853 388.006 55.841 389.181 55.3393C390.242 54.895 391.66 53.8917 392.85 54.1497C393.911 54.379 394.642 55.5113 395.172 56.4143C395.831 57.5466 396.39 58.7219 396.949 59.8972C398.125 62.3481 399.171 64.8994 400.103 67.465C404.274 79.0316 406.151 91.3579 407.584 103.627C407.699 104.602 409.132 104.616 409.018 103.627C409.018 103.584 409.003 103.541 409.003 103.498C409.089 103.369 409.161 103.226 409.132 103.011C408.76 99.2984 408.373 95.4571 409.132 91.7736C409.319 90.8706 409.562 89.9676 409.921 89.1077C410.279 88.2333 410.795 87.445 411.196 86.5707C411.999 84.8078 411.684 82.9732 411.469 81.0956V81.0812Z" fill="black"/>
<path d="M370.513 166.419C363.117 168.827 355.277 169.702 347.48 169.845C341.718 169.945 335.942 169.687 330.18 169.401C331.097 161.69 331.914 153.978 332.631 146.253C333.046 146.998 333.476 147.729 333.935 148.46C337.418 153.907 342.09 158.594 347.695 161.819C353.242 165.001 359.605 166.763 365.984 166.649C367.503 166.692 369.008 166.606 370.513 166.419Z" fill="black"/>
<path d="M401.625 67.6227C401.353 68.0241 400.622 68.1387 400.392 67.6227C399.504 65.6735 398.457 63.3659 396.494 62.3052C393.799 60.8289 391.018 62.9072 389.313 64.9138C387.564 66.9491 386.145 69.1564 383.909 70.7187C379.796 73.5852 374.392 74.1156 369.806 72.1233C367.57 71.1343 365.592 69.5864 364.087 67.6514C363.728 67.1784 363.384 66.6911 363.083 66.1608C362.725 65.5875 362.381 64.8422 361.578 64.9425C360.374 65.1002 359.228 66.4618 358.282 67.1641C353.996 70.3603 348.965 72.5819 343.648 73.2556C338.689 73.8862 333.572 72.9832 329.172 70.5897C327.065 69.4287 325.115 67.9094 323.539 66.0748C323.08 65.5445 322.593 64.5985 321.833 64.5555C321.159 64.5125 320.471 65.0142 319.927 65.3438C318.694 66.0605 317.433 66.7341 316.128 67.3218C311.212 69.6007 305.78 70.8763 300.362 70.045C295.589 69.2997 290.931 66.8631 288.193 62.8069C285.585 58.9227 284.882 53.6625 286.875 49.3769C288.896 44.9911 293.439 42.6548 297.868 41.3648C302.799 39.9172 308.116 39.6592 312.832 37.4663C315.183 36.377 317.16 34.786 318.737 32.7078C320.228 30.7442 321.403 28.5656 322.722 26.4873C324.04 24.4233 325.531 22.4597 327.509 20.9548C329.53 19.4068 331.923 18.3749 334.403 17.7872C340.165 16.4399 346.099 17.5292 351.732 18.9768C353.194 19.3638 354.957 20.1235 356.49 19.7651C357.752 19.4642 358.683 18.4179 359.586 17.5579C361.464 15.7806 363.628 14.3186 366.036 13.3727C370.666 11.5811 375.768 12.2834 380.011 14.7486C382.118 15.9813 384.024 17.6152 385.572 19.5072C387.149 21.4421 388.252 23.6207 389.299 25.871C390.388 28.2216 391.52 30.6725 393.469 32.4354C395.533 34.2987 398.257 35.1587 400.779 36.162C402.987 37.0363 405.18 38.0539 406.914 39.7166C408.82 41.5368 409.637 43.9161 409.551 46.5247C410.268 54.0781 405.71 61.4596 401.625 67.6227Z" fill="#FF714B"/>
<path d="M368.441 123.851C366.105 123.865 363.411 123.822 361.203 122.976C359.01 122.131 358.867 119.465 358.953 117.444C359.053 114.95 359.584 112.47 360.071 110.034C360.558 107.568 361.132 105.103 361.762 102.667C361.992 101.778 360.616 101.391 360.386 102.28C359.67 105.046 359.039 107.841 358.494 110.65C357.964 113.402 357.348 116.268 357.534 119.078C357.677 121.17 358.408 123.292 360.458 124.18C361.605 124.682 362.895 124.84 364.113 124.997C365.546 125.184 366.994 125.27 368.441 125.255C369.359 125.255 369.359 123.822 368.441 123.822V123.851Z" fill="black"/>
<path d="M362.35 81.0096C360.387 76.7957 356.631 73.2268 352.561 71.0482C349.336 69.3283 346.011 69.1133 342.657 69.5289C342.485 69.4573 338.772 70.0306 337.268 70.6039C337.225 70.6039 337.196 70.6183 337.153 70.6326C337.024 70.6613 336.924 70.7329 336.823 70.7902C330.746 73.2842 326.26 78.8167 324.74 85.4242C322.863 93.5939 325.084 103.441 332.624 108.027C348.82 117.888 370.248 97.9655 362.365 81.0096H362.35ZM356.617 100.502C351.873 106.221 343.875 109.432 336.651 106.809C329.356 104.157 326.389 96.2742 327.048 89.0217C327.65 82.3139 331.678 75.9358 337.841 73.3988C337.87 73.3988 337.898 73.3988 337.927 73.3988C341.94 72.3812 346.226 71.3349 350.196 73.0835C353.392 74.4881 356.388 77.0107 358.394 79.863C362.838 86.2125 361.419 94.7405 356.646 100.502H356.617Z" fill="black"/>
<path d="M409.764 80.2787C407.801 76.0648 404.045 72.4959 399.975 70.3173C396.75 68.5973 393.425 68.3823 390.071 68.798C389.899 68.7263 386.187 69.2996 384.682 69.873C384.639 69.873 384.61 69.8873 384.567 69.9016C384.438 69.9303 384.338 70.002 384.237 70.0593C378.16 72.5532 373.674 78.0857 372.155 84.6932C370.277 92.863 372.499 102.71 380.038 107.296C396.234 117.157 417.662 97.2345 409.779 80.2787H409.764ZM404.031 99.7714C399.287 105.49 391.289 108.701 384.065 106.078C376.77 103.426 373.803 95.5432 374.462 88.2908C375.064 81.5829 379.092 75.2048 385.255 72.6679C385.284 72.6679 385.312 72.6679 385.341 72.6679C389.354 71.6502 393.64 70.6039 397.61 72.3526C400.806 73.7572 403.802 76.2798 405.808 79.132C410.252 85.4815 408.833 94.0096 404.06 99.7714H404.031Z" fill="black"/>
<path d="M372.09 87.9323C370.385 87.5883 368.636 87.4307 366.902 87.5023C365.999 87.5453 365.096 87.6456 364.193 87.789C363.319 87.9323 362.129 88.0183 361.699 88.9356C361.369 89.6093 361.484 90.5122 362.215 90.8992C362.717 91.1572 363.405 91.1285 363.849 90.7702C363.892 90.7702 363.935 90.7559 363.964 90.7416C364.15 90.6986 364.351 90.6699 364.537 90.6269C364.695 90.5982 364.867 90.5696 365.024 90.5409C365.096 90.5409 365.153 90.5266 365.225 90.5122C365.225 90.5122 365.254 90.5122 365.297 90.5122C365.985 90.4262 366.687 90.3832 367.375 90.3689C368.779 90.3402 370.026 90.4549 371.302 90.7129C372.033 90.8562 372.879 90.4979 373.065 89.7096C373.223 88.9929 372.85 88.1043 372.062 87.9466L372.09 87.9323Z" fill="black"/>
</g>
<defs>
<clipPath id="clip0_1367_9789">
<rect width="515.1" height="278.904" fill="white" transform="translate(0.453125)"/>
</clipPath>
</defs>
</svg>
