<svg width="62" height="62" viewBox="0 0 62 62" fill="none" xmlns="http://www.w3.org/2000/svg">
<circle cx="30.8151" cy="30.8152" r="30" transform="rotate(-1.5787 30.8151 30.8152)" fill="#FF714B"/>
<path d="M42.5452 25.7033C42.9822 23.9107 42.7499 22.0202 41.892 20.3867C41.034 18.7531 39.6094 17.4889 37.8855 16.8312C36.1615 16.1736 34.2568 16.1677 32.5288 16.8148C30.8009 17.4619 29.3685 18.7173 28.5005 20.3456C27.0401 19.1864 25.2035 18.6066 23.3423 18.7171C21.481 18.8276 19.7259 19.6206 18.4129 20.9443C17.0998 22.2681 16.3211 24.0296 16.2257 25.8916C16.1303 27.7537 16.725 29.5855 17.8959 31.0365L18.047 31.1976L18.1805 31.3366L34.784 49.0585L42.2017 26.6238C42.3149 26.3465 42.411 26.0626 42.4893 25.7736L42.5452 25.7033Z" fill="#F4E140"/>
<path d="M34.9108 49.6765L17.9114 31.4977L17.8257 31.4L17.3035 30.8671L17.3837 30.8498C16.3067 29.3284 15.8035 27.4747 15.9634 25.6176C16.1234 23.7604 16.9361 22.02 18.2574 20.7052C19.5787 19.3904 21.323 18.5862 23.1809 18.4353C25.0388 18.2845 26.89 18.7967 28.4061 19.8811C29.2035 18.5034 30.3988 17.3991 31.8352 16.7131C33.2716 16.0272 34.8819 15.7916 36.4546 16.0375C38.0273 16.2834 39.4889 16.9991 40.6474 18.0908C41.8059 19.1824 42.6071 20.5989 42.9459 22.1542C43.174 23.1929 43.1866 24.2673 42.9831 25.3111L43.0386 25.299L42.8462 25.9026C42.7656 26.1977 42.6689 26.4881 42.5565 26.7726L34.9108 49.6765ZM18.3214 31.0344L18.4058 31.126L34.6505 48.4733L41.9299 26.5336C42.0297 26.2926 42.1143 26.0456 42.1833 25.7941L42.2302 25.6225C42.5197 24.5256 42.5454 23.3758 42.3051 22.2671C41.9887 20.8069 41.2291 19.48 40.1301 18.4678C39.0311 17.4557 37.6463 16.8076 36.1651 16.6121C34.6838 16.4167 33.1783 16.6834 31.8544 17.3759C30.5305 18.0684 29.4527 19.1528 28.7684 20.4809L28.5905 20.823L28.2933 20.5837C27.1212 19.6572 25.6915 19.1153 24.1997 19.0321C22.708 18.9488 21.2269 19.3282 19.959 20.1185C18.691 20.9088 17.698 22.0713 17.1157 23.4473C16.5334 24.8232 16.3902 26.3454 16.7057 27.8058C16.9431 28.9154 17.442 29.9523 18.1609 30.8302L18.3214 31.0344Z" fill="#F4E140"/>
</svg>
