<svg width="14" height="11" viewBox="0 0 14 11" fill="none" xmlns="http://www.w3.org/2000/svg">
<g id="Group 1007">
<path id="Vector" d="M11.5637 1.14821C11.3736 0.946041 11.0748 0.946041 10.8983 1.14821C10.7082 1.35037 10.7082 1.66807 10.8983 1.85583C11.9303 2.96769 12.5006 4.42629 12.5006 6.00034C12.5006 7.55994 11.9303 9.0329 10.8848 10.1304C10.6947 10.3326 10.6947 10.6503 10.8848 10.838C10.9798 10.9392 11.102 10.9825 11.2242 10.9825C11.3464 10.9825 11.4686 10.9392 11.5637 10.838C12.7856 9.53841 13.451 7.8199 13.451 5.98592C13.451 4.16633 12.7857 2.43349 11.5637 1.14826V1.14821Z" fill="black"/>
<path id="Vector_2" d="M1.5012 6.00006C1.5012 4.42604 2.07148 2.96749 3.11702 1.86999C3.30711 1.66782 3.30711 1.35012 3.11702 1.16237C2.92693 0.960201 2.62821 0.960201 2.45167 1.16237C1.21613 2.43318 0.550781 4.16605 0.550781 6.00003C0.550781 7.83401 1.21613 9.55246 2.43814 10.8521C2.53323 10.9533 2.65541 10.9966 2.77759 10.9966C2.89977 10.9966 3.02195 10.9533 3.11704 10.8521C3.30713 10.65 3.30713 10.3323 3.11704 10.1445C2.0715 9.03265 1.50122 7.55961 1.50122 6L1.5012 6.00006Z" fill="black"/>
<path id="Vector_3" d="M9.96026 2.85231C9.77017 2.65014 9.47145 2.65014 9.29491 2.85231C9.10482 3.05447 9.10482 3.37218 9.29491 3.55993C9.9059 4.20974 10.2454 5.07624 10.2454 5.98593C10.2454 6.89573 9.9059 7.76212 9.29491 8.41193C9.10482 8.6141 9.10482 8.9318 9.29491 9.11956C9.39 9.22069 9.51218 9.26401 9.63436 9.26401C9.75654 9.26401 9.87872 9.22069 9.97382 9.11956C10.7613 8.28199 11.1958 7.17 11.1958 5.98591C11.1823 4.81613 10.7478 3.68974 9.96026 2.85226V2.85231Z" fill="black"/>
<path id="Vector_4" d="M3.76892 6.00058C3.76892 5.07637 4.10837 4.22439 4.71936 3.57458C4.90945 3.37241 4.90945 3.05471 4.71936 2.86696C4.52927 2.66479 4.23055 2.66479 4.05401 2.86696C3.26648 3.70452 2.83203 4.81651 2.83203 6.01505C2.83203 7.19924 3.28011 8.34001 4.06766 9.16314C4.16276 9.26427 4.28493 9.30759 4.40712 9.30759C4.5293 9.30759 4.65147 9.26427 4.74657 9.16314C4.93666 8.96097 4.92311 8.64327 4.74657 8.45551C4.1084 7.79139 3.76894 6.9105 3.76894 6.00071L3.76892 6.00058Z" fill="black"/>
<path id="Vector_5" d="M6.45832 4.10862C6.17313 3.90645 5.79297 4.12302 5.79297 4.48405V7.50217C5.79297 7.86319 6.17316 8.07975 6.45832 7.87761L8.59013 6.3613C8.84814 6.17354 8.84814 5.78372 8.59013 5.59594L6.45832 4.10862Z" fill="black"/>
</g>
</svg>
