<svg width="885" height="900" viewBox="0 0 885 900" fill="none" xmlns="http://www.w3.org/2000/svg">
<path d="M824.268 1244.72C837.301 1246.19 859.084 1247.41 885.844 1243.66C887.507 1243.44 889.199 1243.22 890.922 1243C892.644 1242.78 894.366 1242.56 896.091 1242.14C899.539 1241.37 903.076 1240.61 906.673 1239.82C913.923 1238.5 921.156 1235.91 928.684 1233.56C930.559 1232.95 932.463 1232.35 934.368 1231.75C936.244 1231.03 938.12 1230.31 940.025 1229.56C943.808 1228.02 947.592 1226.34 951.377 1224.55C958.948 1220.92 966.496 1216.7 973.785 1211.71C988.333 1201.81 1002.06 1188.58 1011.54 1172.05C1021.21 1155.27 1025.46 1135.51 1023.41 1116.36C1022.38 1106.77 1019.78 1097.28 1015.4 1088.61C1011.07 1079.93 1004.78 1072.12 997.429 1066.12C990.081 1059.99 981.288 1055.8 972.446 1053.51C963.574 1051.16 954.71 1050.92 946.486 1051.78C936.956 1052.78 927.825 1055.38 919.333 1059.09C910.843 1062.76 902.845 1067.42 895.58 1072.98C881.05 1084.03 868.799 1098.2 860.732 1115.04C858.7 1119.23 857.022 1123.66 855.581 1128.1C854.467 1132.41 853.028 1136.7 852.21 1141.08C851.333 1145.46 850.397 1149.84 849.935 1154.22C849.674 1156.41 849.295 1158.63 849.123 1160.83L848.638 1167.43C847.472 1185.04 848.829 1202.34 850.903 1219.23C855.11 1253.06 862.773 1285.28 864.981 1317.42C867.247 1349.68 866.069 1382.29 860.924 1414.29C850.781 1478.39 826.576 1540.23 791.416 1594.92C773.776 1622.23 753.662 1648.02 730.818 1671.17C708.063 1694.39 683.076 1715.5 655.87 1733.3C647.447 1739 637.181 1745.08 626.589 1751.08C621.221 1753.93 615.88 1756.99 610.513 1759.69C605.117 1762.39 599.87 1765 594.891 1767.5C584.789 1772.11 575.964 1776.49 569.645 1779.51C563.413 1782.7 559.916 1785.27 560.76 1786.77C561.633 1788.32 565.158 1788.74 571.096 1788.09C574.065 1787.77 577.629 1787.18 581.731 1786.34C585.775 1785.31 590.385 1784 595.503 1782.42C615.827 1775.85 644.043 1763.4 674.456 1742.46C747.978 1691.64 806.274 1619.87 842.519 1538.59C860.863 1498.01 873.362 1454.88 879.88 1410.91C883.169 1388.91 884.562 1366.68 884.503 1344.47C884.621 1333.35 883.879 1322.25 883.137 1311.18L881.475 1294.62C880.792 1289.12 880.079 1283.66 879.248 1278.22C874.545 1246.47 868.085 1215.38 867.671 1184.6C867.505 1180.74 867.753 1176.95 867.823 1173.12C867.953 1169.3 868.379 1165.54 868.627 1161.74C869.566 1154.25 870.743 1146.79 872.748 1139.58L874.229 1134.17C874.752 1132.39 875.392 1130.77 875.973 1129.08C877.343 1125.78 878.802 1122.47 880.585 1119.35C884.092 1113.01 888.396 1107.06 893.288 1101.63C903.1 1090.79 915.412 1082.03 928.726 1076.53C942.039 1071.13 956.679 1069.27 969.478 1073.23C982.218 1077.1 992.909 1086.86 998.5 1099.28C1004.24 1111.71 1005.33 1126.58 1002.45 1140.48C1001.01 1147.44 998.597 1154.17 995.239 1160.37C991.791 1166.67 987.517 1172.56 982.626 1177.93C972.785 1188.71 960.444 1197.45 947.056 1204.33C940.347 1207.76 933.404 1210.8 926.231 1213.31L915.311 1216.75L909.866 1218.47C908.051 1219.01 906.15 1219.32 904.277 1219.77L893.1 1222.23L890.306 1222.83L887.455 1223.18L881.754 1223.92C877.953 1224.36 874.18 1225.03 870.381 1225.28L858.899 1225.81L853.173 1226.08C851.245 1226.09 849.348 1225.98 847.421 1225.93L835.919 1225.54C832.094 1225.47 828.276 1224.81 824.454 1224.47C820.634 1224.01 816.781 1223.73 812.992 1223.1C797.807 1220.51 782.657 1217.32 767.971 1212.39C738.506 1202.94 710.209 1189.53 684.145 1172.56C660.642 1157.42 639.064 1139.67 619.02 1119.94C598.975 1100.27 580.489 1078.96 563.172 1056.63C528.536 1011.95 498.566 963.502 468.48 914.933C438.453 866.334 407.806 817.463 371.962 772.064C354.055 749.395 334.833 727.572 313.875 707.39C292.916 687.239 270.19 668.7 245.476 652.986C222.414 638.15 197.372 625.488 170.41 617.638C156.899 613.787 142.929 611.207 128.673 610.462C114.417 609.687 99.963 610.808 85.838 614.454C71.5644 618.127 58.1813 624.509 46.2885 632.952C34.3665 641.366 23.992 652.05 15.912 664.478C7.92127 676.878 2.13358 691.258 0.725511 706.515C-0.623572 721.803 2.00005 737.192 8.37655 751.05C14.6931 764.966 24.7991 776.699 36.1471 785.983C47.5537 795.327 60.3206 802.254 73.4285 807.791C99.7655 818.629 127.556 823.848 155.446 825.301C183.103 826.337 210.429 825.057 237.721 821.463C264.952 817.927 291.913 811.928 318.13 803.459C363.303 788.786 406.574 766.057 442.415 733.818C451.397 725.818 459.822 717.19 467.659 708.021C471.651 703.526 475.291 698.701 479.019 693.937C482.512 689.022 486.122 684.167 489.29 679.041C492.665 674.035 495.568 668.758 498.619 663.571C501.404 658.234 504.336 652.986 506.797 647.497C509.464 642.098 511.688 636.517 514.03 630.996C516.136 625.384 518.361 619.803 520.141 614.099C535.247 568.532 539.464 520.684 539.103 473.855C538.713 426.877 533.781 380.473 528.904 334.397C526.674 312.666 524.2 288.826 522.976 264.585C521.692 240.313 521.452 215.519 522.296 192.012C522.918 172.565 524.825 146.667 529.277 121.27C533.522 95.8414 540.605 71.1846 547.437 53.4644C553.234 38.1352 560.605 22.7041 569.435 9.42376C589.955 -20.9913 608.316 -35.386 615.903 -43.312C623.726 -51.0576 621.488 -52.5049 608.983 -47.834C606.214 -46.7959 605.837 -47.6006 604.174 -47.4107C603.343 -47.301 602.241 -46.9272 600.362 -45.85C598.511 -44.7724 595.824 -43.0811 592.292 -39.9753C591.694 -39.4775 590.497 -38.482 589.958 -38.0133C567.7 -19.7456 550.21 4.71135 537.798 31.2983C525.355 57.9739 517.665 86.6277 512.317 115.455C505.8 150.912 503.549 186.889 503.791 222.656C503.956 240.54 504.744 258.4 506.067 276.208C507.389 294.044 509.248 311.679 511.017 329.283C514.586 364.492 518.216 399.554 519.978 434.595C521.711 469.606 521.723 504.659 517.471 539.102C513.249 573.487 504.823 607.323 489.992 638.273C482.621 653.733 473.804 668.497 463.546 682.147C453.229 695.768 441.5 708.335 428.687 719.705C403.088 742.563 372.978 760.213 341.193 773.634C309.262 786.876 275.479 795.769 241.144 800.77C220.057 803.778 198.776 805.479 177.452 805.667C172.142 805.788 166.776 805.642 161.469 805.586C156.221 805.441 151.005 805.178 145.761 804.707C135.302 803.824 124.91 802.201 114.702 800.046C94.3474 795.529 74.4051 788.496 57.4716 777.403C48.9894 771.915 41.4084 765.34 35.2911 757.772C29.1442 750.204 24.6694 741.556 22.0693 732.306C19.5592 722.967 19.0392 713.324 20.5632 703.88C22.0873 694.436 25.6845 685.252 30.7856 676.855C40.9587 660.03 56.9693 646.411 75.115 638.36C93.0835 630.248 113.895 628.068 134.129 629.974C154.482 631.881 174.522 638.114 193.589 646.532C204.037 651.21 214.212 656.508 224.022 662.603C228.912 665.71 233.922 668.61 238.691 671.893L252.968 681.831C271.682 695.613 289.311 711.014 306.277 727.416L305.69 726.846C340.638 761.677 370.521 801.556 398.462 842.748C451.247 920.769 496.88 1007.67 558.702 1083.68C589.466 1121.55 624.382 1156.59 664.778 1183.92C704.847 1211.33 749.773 1230.91 796.173 1240.21C799.843 1240.9 804.134 1241.75 808.869 1242.66C811.236 1243.19 813.724 1243.48 816.331 1243.78C818.848 1244.1 821.543 1244.4 824.268 1244.72Z" fill="#4A74EB"/>
</svg>
