<svg width="40" height="40" viewBox="0 0 40 40" fill="none" xmlns="http://www.w3.org/2000/svg">
<path d="M12.9513 31.6667H27.0344C28.0373 31.6667 28.7822 31.4148 29.2693 30.911C29.7564 30.4072 30 29.6233 30 28.5593V19.5057C30 18.4511 29.7564 17.6719 29.2693 17.1681C28.7822 16.6644 28.0373 16.4125 27.0344 16.4125L13.1519 16.4407C12.1681 16.4407 11.3969 16.6902 10.8381 17.1893C10.2794 17.6884 10 18.4605 10 19.5057V28.5593C10 29.6234 10.2459 30.4072 10.7378 30.911C11.2297 31.4148 11.9676 31.6667 12.9513 31.6667ZM12.4356 17.4859H15.5445V12.7825C15.5445 11.7467 15.745 10.8686 16.1462 10.1483C16.5473 9.42795 17.0846 8.88182 17.7579 8.50987C18.4313 8.13793 19.1786 7.95196 20 7.95196C20.8214 7.95196 21.5688 8.13793 22.2422 8.50987C22.9155 8.88181 23.4528 9.42795 23.8539 10.1483C24.255 10.8686 24.4556 11.7467 24.4556 12.7825V17.4859H27.5502V13.0226C27.5502 11.6761 27.3424 10.4991 26.927 9.49152C26.5115 8.48399 25.9456 7.6483 25.2292 6.98446C24.5129 6.32062 23.7035 5.82392 22.8009 5.49435C21.8983 5.16478 20.9647 5 20 5C19.0354 5 18.1041 5.16478 17.2063 5.49435C16.3085 5.82392 15.5015 6.32062 14.7851 6.98446C14.0688 7.6483 13.4981 8.48399 13.0731 9.49152C12.6481 10.4991 12.4356 11.6761 12.4356 13.0226L12.4356 17.4859Z" fill="#4A74EB"/>
</svg>
