<svg width="181" height="42" viewBox="0 0 181 42" fill="none" xmlns="http://www.w3.org/2000/svg">
    <path d="M27.2477 27.3137C27.36 24.8137 27.36 21.7234 27.36 17.9015C27.36 16.1591 26.5162 15.3728 24.7477 15.3728C22.9791 15.3728 21.4614 16.2427 21.4614 18.9961C21.4614 23.2385 21.4614 25.459 21.5737 27.3137H14.0162C14.0737 24.8973 14.0998 22.1152 14.0998 17.8728C14.0998 16.2714 13.3422 15.3728 11.5423 15.3728C9.74243 15.3728 8.19855 16.2427 8.19855 18.9961C8.19855 23.296 8.22728 25.6837 8.25602 27.3137H0.5C0.583595 24.785 0.583595 22.3111 0.583595 18.6042C0.583595 14.8973 0.583595 12.3372 0.5 9.80851H8.39447C8.36573 10.9893 8.337 11.9167 8.2534 13.0687L8.44933 13.0974C9.74243 10.6236 11.8219 9.47412 15.1082 9.47412C18.8464 9.47412 20.756 10.8796 21.2889 13.3247L21.5423 13.3534C22.8354 10.5164 25.3642 9.47674 28.5094 9.47674C32.9217 9.47674 34.86 11.611 34.86 15.2082C34.86 17.9903 34.7764 19.7328 34.7764 21.867C34.7764 23.8054 34.8052 25.6601 34.9175 27.319H27.2477V27.3137Z" fill="black"/>
    <path d="M51.7862 16.8048C51.7862 14.9213 51.1122 14.2186 48.4137 14.2186C45.4905 14.2186 44.7617 15.0336 44.8453 16.776C44.0302 16.6924 42.7658 16.6924 41.4179 16.6924C39.9001 16.6924 38.3275 16.7212 37.4288 16.8335C37.3714 11.4678 40.3782 9.35962 48.5835 9.35962C56.7888 9.35962 59.8792 11.776 59.8792 16.3554C59.8792 18.6308 59.7956 20.2321 59.7956 22.3952C59.7956 24.2787 59.9654 26.4965 60.245 27.3116H53.5861C52.0971 27.3116 51.8724 27.1992 51.8724 25.6266C51.8724 25.2609 51.8724 24.728 51.9012 24.1376H51.7314C50.804 26.554 48.1916 27.706 44.2287 27.706C39.3385 27.706 36.8672 26.4129 36.8672 22.7609C36.8672 19.1088 39.7617 17.6198 46.2794 17.6198C48.4999 17.6198 50.4383 17.6773 51.7862 17.9019V16.8048ZM51.7575 20.2321C50.5219 20.0911 49.2287 20.0623 47.8808 20.0623C45.5767 20.0623 44.5945 20.5691 44.5945 21.6924C44.5945 22.8157 45.4095 23.2651 47.6561 23.2651C50.1013 23.2651 51.7575 22.1966 51.7575 20.2295V20.2321Z" fill="black"/>
    <path d="M72.493 9.86627C75.9779 9.86627 79.3478 9.83754 81.5682 9.80881C81.5108 11.58 81.3985 13.7717 81.4272 15.5977C79.7135 15.569 76.1163 15.5141 72.4068 15.4567C72.3781 16.58 72.3781 17.7607 72.3781 19.0251C72.3781 20.5716 73.0233 21.1881 75.6931 21.1881C78.0808 21.1881 79.852 20.8799 81.1999 20.4854C81.3697 22.4812 81.678 24.8689 81.9862 26.8073C79.5411 27.2566 77.0411 27.5648 73.8096 27.5648C66.1659 27.5648 64.2276 24.754 64.2276 20.8224C64.2276 19.5006 64.2563 17.5073 64.2851 15.3705L62.2631 15.3417C62.2918 13.7952 62.2918 11.2404 62.2344 9.80619L64.3425 9.83493C64.3425 8.54182 64.3713 7.36104 64.3425 6.4624C65.6905 6.49114 67.0959 6.51987 68.5014 6.51987C69.9068 6.51987 71.3671 6.51987 72.6027 6.4624L72.4904 9.86105L72.493 9.86627Z" fill="black"/>
    <path d="M100.567 27.3141C100.625 25.1798 100.651 22.173 100.651 18.5471C100.651 16.1882 99.8071 15.3444 97.3907 15.3444C95.1154 15.3444 93.373 16.4415 93.373 19.4196C93.373 24.1114 93.4017 25.7415 93.4304 27.3141H84.8594C84.943 24.673 84.9717 22.3402 84.9717 18.0429C84.9717 13.7456 84.943 9.07999 84.8594 5.56641H93.4304C93.373 7.2801 93.373 8.60194 93.3468 10.091C93.3468 11.1594 93.3181 12.1416 93.2632 13.3224L93.4592 13.3512C94.6948 10.5978 97.2523 9.38825 101.382 9.38825C106.132 9.38825 109.11 11.2979 109.11 16.0758C109.11 18.5471 109.052 19.9525 109.052 21.6662C109.052 23.7456 109.052 25.5168 109.165 27.3141H100.567Z" fill="black"/>
    <path d="M119.079 21.666C119.079 22.818 119.949 23.3797 123.238 23.3797C126.075 23.3797 126.806 22.9852 126.806 22.1989C126.806 21.3003 126.049 20.7935 121.328 20.5688C114.05 20.1195 112.141 18.3483 112.141 14.921C112.141 11.0155 115.09 9.33057 123.24 9.33057C131.391 9.33057 134.453 10.7073 134.453 14.7538C134.453 15.0359 134.424 15.3442 134.395 15.6524C133.413 15.5688 131.725 15.5113 130.265 15.5113C129.113 15.5113 128.073 15.5401 127.454 15.5688V15.2606C127.454 14.2209 126.61 13.7141 123.604 13.7141C120.597 13.7141 120.093 14.0798 120.093 14.8374C120.093 15.5949 120.654 16.1592 125.74 16.4675C133.018 16.9743 134.761 18.4346 134.761 22.0866C134.761 25.9633 131.979 27.818 123.523 27.818C114.447 27.818 112.172 26.0208 112.172 22.2825C112.172 21.9743 112.201 21.6634 112.201 21.3264C113.24 21.41 114.534 21.4962 116.302 21.4962C117.342 21.4962 118.353 21.4962 119.084 21.4126V21.666H119.079Z" fill="black"/>
    <path d="M148.579 24.1427C149.762 24.1087 150.556 23.7587 151.343 23.0194C153.738 20.7728 153.579 17.6301 153.579 13.4086C153.579 10.6369 152.887 8.13953 151.499 5.91121C150.742 4.69387 150.366 3.60191 150.366 2.63534C150.366 1.418 151.207 0.809326 152.887 0.809326C154.566 0.809326 155.974 1.73409 157.234 3.58101C158.367 5.21894 158.976 6.94047 159.062 8.7482C159.313 13.0742 158.809 16.9797 157.55 20.4671C156.079 24.5424 153.749 27.2723 150.556 28.6568C149.253 29.2028 148.035 29.4771 146.902 29.4771C143.709 29.4771 141.272 27.4212 139.595 23.3041C138.211 19.9865 137.516 16.0366 137.516 11.4598C137.516 10.6526 137.555 9.88196 137.633 9.15312C137.638 9.09565 137.644 9.03818 137.646 8.9807C137.688 7.91487 137.761 6.80985 137.863 5.66565C138.007 4.09825 139.253 2.84433 140.823 2.72416C140.998 2.7111 141.175 2.70327 141.361 2.70327C143.503 2.70327 144.574 3.45823 144.574 4.97077L144.321 11.1437C144.24 13.5549 144.316 15.5664 144.553 17.1834C144.566 17.2749 144.585 17.3637 144.606 17.4551C144.922 18.8397 144.937 19.4196 145.256 20.8015C145.274 20.8799 145.488 21.5565 145.517 21.6322C145.517 21.6322 146.737 24.1975 148.584 24.1453L148.579 24.1427Z" fill="#FF6404"/>
    <path d="M161.375 9.94471C161.417 9.69131 161.313 9.33603 161.062 8.87365C160.808 8.41388 160.683 8.07689 160.683 7.86529C160.683 7.65369 160.725 7.4865 160.808 7.3611C161.354 6.89872 161.647 5.98441 161.691 4.62077C161.733 3.25713 162.112 2.34282 162.825 1.88043C163.789 1.20907 164.735 0.87207 165.659 0.87207C166.584 0.87207 167.235 1.20907 167.739 1.88043C168.073 2.17563 168.264 2.75296 168.306 3.61241C168.348 4.47187 168.452 4.9447 168.622 5.02829C176.981 5.95306 180.929 8.74565 180.466 13.4087C180.087 16.8517 178.112 19.2472 174.544 20.59C171.435 21.4311 168.327 22.2697 165.221 23.1109C164.758 25.3392 164.528 27.207 164.528 28.7169C164.528 30.6501 165.053 33.4008 166.104 36.9719C166.145 37.1391 166.42 37.5597 166.924 38.231C167.428 38.9024 167.681 39.4484 167.681 39.869C167.681 40.7519 166.819 41.1908 165.098 41.1908C164.257 41.1908 163.502 41.0628 162.83 40.812C161.822 40.4332 161.106 39.5529 160.688 38.1657C160.477 37.5362 160.247 36.2117 159.996 34.195C159.743 32.3481 159.617 30.4149 159.617 28.4008C159.617 25.8381 159.826 22.753 160.247 19.1401C160.626 16.0758 161.002 13.009 161.381 9.94209L161.375 9.94471ZM168.055 10.2582C167.509 10.8042 167.036 11.6767 166.639 12.8731C166.239 14.0696 166.041 15.1511 166.041 16.1176C166.041 17.0842 166.25 17.7242 166.67 17.9123C167.088 18.103 167.616 18.1971 168.246 18.1971C169.633 18.1971 170.965 17.7242 172.248 16.7812C173.528 15.8355 174.272 14.5659 174.484 12.9698C174.693 11.5408 173.98 10.637 172.342 10.2608C171.459 9.88201 170.597 9.69392 169.758 9.69392C168.92 9.69392 168.392 9.88201 168.058 10.2608L168.055 10.2582Z" fill="#FF6404"/>
</svg>
