<svg width="181" height="42" viewBox="0 0 181 42" fill="none" xmlns="http://www.w3.org/2000/svg">
<g clip-path="url(#clip0_2017_6573)">
<path d="M28.9254 30.0377C29.0448 27.3809 29.0448 24.0967 29.0448 20.0351C29.0448 18.1834 28.1481 17.3477 26.2686 17.3477C24.3891 17.3477 22.7762 18.2722 22.7762 21.1983C22.7762 25.7069 22.7762 28.0666 22.8955 30.0377H14.864C14.9251 27.4697 14.9529 24.5131 14.9529 20.0046C14.9529 18.3028 14.1478 17.3477 12.235 17.3477C10.3222 17.3477 8.68144 18.2722 8.68144 21.1983C8.68144 25.7679 8.71198 28.3054 8.74252 30.0377H0.5C0.588838 27.3504 0.588838 24.7213 0.588838 20.7819C0.588838 16.8425 0.588838 14.1218 0.5 11.4345H8.88965C8.85912 12.6893 8.82858 13.6748 8.73974 14.8991L8.94795 14.9297C10.3222 12.3006 12.532 11.0791 16.0245 11.0791C19.9972 11.0791 22.0266 12.5727 22.5929 15.1712L22.8622 15.2017C24.2364 12.1868 26.9238 11.0819 30.2663 11.0819C34.9553 11.0819 37.0153 13.35 37.0153 17.1728C37.0153 20.1295 36.9264 21.9812 36.9264 24.2494C36.9264 26.3093 36.957 28.2804 37.0763 30.0433H28.9254V30.0377Z" fill="black"/>
<path d="M55.0033 18.8692C55.0033 16.8675 54.287 16.1207 51.4192 16.1207C48.3126 16.1207 47.5381 16.9869 47.6269 18.8386C46.7608 18.7498 45.4171 18.7498 43.9846 18.7498C42.3716 18.7498 40.7003 18.7803 39.7453 18.8997C39.6842 13.1974 42.8796 10.957 51.5997 10.957C60.3197 10.957 63.6039 13.525 63.6039 18.3917C63.6039 20.8097 63.5151 22.5115 63.5151 24.8102C63.5151 26.8119 63.6955 29.1689 63.9926 30.035H56.9161C55.3336 30.035 55.0949 29.9157 55.0949 28.2444C55.0949 27.8557 55.0949 27.2894 55.1254 26.662H54.945C53.9594 29.2299 51.1832 30.4542 46.9717 30.4542C41.7747 30.4542 39.1484 29.08 39.1484 25.1989C39.1484 21.3178 42.2245 19.7354 49.1511 19.7354C51.5108 19.7354 53.5708 19.7964 55.0033 20.0352V18.8692ZM54.9727 22.5115C53.6596 22.3616 52.2854 22.3311 50.8529 22.3311C48.4043 22.3311 47.3604 22.8697 47.3604 24.0634C47.3604 25.2572 48.2266 25.7347 50.6141 25.7347C53.2126 25.7347 54.9727 24.5992 54.9727 22.5088V22.5115Z" fill="black"/>
<path d="M77.0076 11.4956C80.711 11.4956 84.2923 11.465 86.6521 11.4345C86.591 13.3167 86.4716 15.646 86.5022 17.5865C84.681 17.556 80.8582 17.4977 76.916 17.4366C76.8854 18.6304 76.8854 19.8852 76.8854 21.2289C76.8854 22.8724 77.5711 23.5276 80.4084 23.5276C82.9458 23.5276 84.8281 23.2 86.2606 22.7808C86.4411 24.9018 86.7687 27.4392 87.0963 29.4992C84.4977 29.9767 81.8409 30.3043 78.4068 30.3043C70.2836 30.3043 68.2237 27.3171 68.2237 23.1389C68.2237 21.7342 68.2542 19.6159 68.2848 17.345L66.136 17.3145C66.1665 15.6709 66.1665 12.9558 66.1055 11.4317L68.3459 11.4622C68.3459 10.088 68.3764 8.83318 68.3459 7.87817C69.7784 7.90871 71.272 7.93925 72.7656 7.93925C74.2591 7.93925 75.811 7.93925 77.1242 7.87817L77.0048 11.49L77.0076 11.4956Z" fill="black"/>
<path d="M106.838 30.0378C106.899 27.7697 106.927 24.5743 106.927 20.7209C106.927 18.214 106.03 17.3173 103.462 17.3173C101.044 17.3173 99.1921 18.4833 99.1921 21.6482C99.1921 26.6342 99.2227 28.3666 99.2532 30.0378H90.1445C90.2334 27.2311 90.2639 24.752 90.2639 20.1851C90.2639 15.6183 90.2334 10.66 90.1445 6.92603H99.2532C99.1921 8.74721 99.1921 10.152 99.1644 11.7344C99.1644 12.8699 99.1338 13.9137 99.0755 15.1685L99.2838 15.1991C100.597 12.273 103.315 10.9876 107.704 10.9876C112.751 10.9876 115.916 13.017 115.916 18.0946C115.916 20.7209 115.855 22.2145 115.855 24.0357C115.855 26.2455 115.855 28.1278 115.974 30.0378H106.838Z" fill="black"/>
<path d="M142.643 0.696209C142.426 0.288109 141.635 0.53519 141.374 0.596266C139.647 1.00159 138.528 1.34584 137.976 1.64011C136.454 2.35082 136.241 3.33914 136.343 4.06095C136.343 4.07484 136.346 4.08872 136.346 4.10537C136.349 5.22418 136.468 6.90933 136.696 9.11918C136.926 11.3457 137.043 13.0253 137.043 14.1052C137.043 15.5266 136.901 16.8453 136.627 18.0224L136.618 18.0613C136.341 20.0657 135.746 21.8702 134.85 23.4193C133.356 26.0179 131.527 26.7397 129.489 25.5154C126.357 23.6442 124.769 20.1296 124.769 15.0686C124.769 11.9315 125.389 8.92762 126.607 6.1431L126.621 6.10701C126.707 5.8516 126.749 5.61007 126.749 5.38797C126.749 4.59954 126.402 3.85274 125.719 3.16702L125.666 3.11427L125.6 3.08373C125.011 2.80889 124.395 2.67008 123.764 2.67008C122.857 2.67008 122.018 2.95048 121.271 3.50016C120.525 4.04985 120.008 4.74667 119.731 5.58508C118.726 8.85266 118.215 12.0786 118.215 15.1741C118.215 20.9985 119.981 25.8097 123.462 29.4714C124.819 30.9428 126.56 31.6896 128.634 31.6896C130.591 31.6896 132.662 31.04 134.789 29.7574C136.754 28.5553 138.362 27.0589 139.567 25.3044C142.276 21.365 143.65 16.4289 143.65 10.6267C143.65 8.27522 143.417 5.3852 142.953 2.03433C142.873 1.43745 142.879 1.59847 142.784 1.10153" fill="#4A74EE"/>
<path d="M151.824 10.0243C151.793 9.90772 151.751 9.66897 151.726 9.19146C151.685 8.36138 151.493 7.79504 151.138 7.45912C150.63 6.80116 149.933 6.46802 149.064 6.46802C148.195 6.46802 147.307 6.78173 146.432 7.38971C145.708 7.85889 145.319 8.7556 145.28 10.0521C145.247 11.0682 145.039 11.7678 144.678 12.0759L144.633 12.112L144.6 12.1592C144.481 12.3341 144.422 12.5562 144.422 12.8199C144.422 13.0837 144.536 13.4029 144.794 13.8721C145.033 14.3135 145.022 14.4857 145.016 14.5162L144.05 22.3451C143.692 25.4128 143.512 28.0751 143.512 30.2544C143.512 31.9757 143.62 33.6497 143.837 35.2266C144.056 36.9812 144.253 38.1111 144.439 38.6663C144.833 39.9683 145.53 40.8151 146.51 41.1815C147.126 41.412 147.823 41.5286 148.581 41.5286C150.738 41.5286 151.191 40.6901 151.191 39.9878C151.191 39.5352 150.955 38.9967 150.466 38.347C149.927 37.6308 149.85 37.4476 149.839 37.4087C148.961 34.4298 148.517 32.1145 148.517 30.521C148.517 29.3272 148.695 27.8391 149.045 26.0957L156.713 24.0219L156.751 24.0108C159.927 22.8142 161.71 20.6488 162.048 17.5645C162.462 13.3918 159.022 10.8544 151.824 10.0188V10.0243ZM156.141 17.1008C155.977 18.3501 155.408 19.3162 154.408 20.0547C153.398 20.7987 152.34 21.1763 151.26 21.1763C150.788 21.1763 150.394 21.1069 150.094 20.9736C149.955 20.9098 149.805 20.5766 149.805 19.8298C149.805 19.083 149.969 18.1724 150.291 17.2063C150.608 16.2569 150.977 15.5656 151.393 15.1492L151.41 15.1297C151.61 14.9021 151.993 14.7883 152.543 14.7883C153.198 14.7883 153.881 14.9382 154.572 15.2352L154.641 15.2574C156.157 15.6072 156.241 16.4207 156.141 17.0981V17.1008Z" fill="#4A74EE"/>
<path d="M170.662 17.42C170.259 17.2645 169.782 16.8869 169.24 16.2928C168.735 15.7404 168.466 15.2434 168.466 14.8575C168.466 14.6021 168.557 14.43 168.741 14.3051C169.351 13.9497 169.982 13.772 170.617 13.772C171.497 13.772 172.758 14.2634 174.36 15.2379C176.142 16.3178 177.3 16.8231 177.999 16.8231C178.463 16.8231 178.89 16.7148 179.293 16.4899C180.095 15.9791 180.501 15.1352 180.501 13.983C180.501 13.6582 180.428 13.3889 180.281 13.1752C179.704 12.0341 178.638 11.0736 177.091 10.3157C175.753 9.74656 174.387 9.18577 173.033 8.64719C172.55 8.40844 171.989 8.28906 171.364 8.28906C169.429 8.28906 167.439 9.03863 165.448 10.5156C163.313 12.0924 162.23 13.7748 162.23 15.5155C162.23 16.0374 162.35 16.5649 162.594 17.0924C163.38 18.7053 164.79 20.049 166.789 21.0873L166.82 21.1012C168.588 21.8452 170.404 22.6198 172.211 23.3999C173.663 24.0662 174.429 24.7491 174.429 25.3821C174.429 26.3177 174.024 27.0589 173.188 27.6419C172.319 28.2499 171.292 28.558 170.137 28.558C169.385 28.558 168.71 28.4109 168.13 28.1194C168.058 28.0833 167.772 27.8834 167.186 26.8479C166.708 25.979 166.123 25.582 165.445 25.6708C164.715 25.7152 164.024 26.0317 163.388 26.6064C162.73 27.2033 162.394 27.8751 162.394 28.5997C162.394 28.9495 162.464 29.2632 162.594 29.5297C163.946 32.3475 166.342 33.7773 169.71 33.7773C171.586 33.7773 173.438 33.3192 175.22 32.4197C177.011 31.5119 178.33 30.3681 179.135 29.0161C179.937 27.6697 180.342 26.3177 180.342 24.9962C180.342 23.8108 179.976 22.8613 179.246 22.17C177.289 20.3544 174.396 18.7553 170.662 17.42Z" fill="#4A74EE"/>
</g>
<defs>
<clipPath id="clip0_2017_6573">
<rect width="180" height="41.0682" fill="white" transform="translate(0.5 0.46582)"/>
</clipPath>
</defs>
</svg>
