<svg width="244" height="43" viewBox="0 0 244 43" fill="none" xmlns="http://www.w3.org/2000/svg">
<g clip-path="url(#clip0_1192_8896)">
<path d="M60.7256 2.39026C60.5967 8.9156 62.2728 15.4409 66.6564 20.4803C69.8797 24.2275 74.4567 26.7472 79.2271 27.8455C84.3198 29.073 90.3795 28.9438 95.0855 26.4888C97.1483 25.3904 98.8244 23.7106 99.7269 21.514C100.501 19.5758 100.307 17.4437 99.4691 15.5055C97.4707 10.983 92.1201 9.10942 87.5431 8.9802C83.0305 8.85099 78.2601 9.8847 74.3922 12.2752C71.1045 14.3426 68.4614 17.3791 67.1721 21.0618C66.0117 24.2275 66.0118 27.9101 67.3011 31.0759C71.04 40.3793 81.9991 42.899 91.0242 42.6406C92.7003 42.576 94.3764 42.4468 95.988 42.2529C97.2128 42.1237 98.3732 41.2838 98.3087 39.9271C98.2443 38.8287 97.2773 37.4074 95.988 37.6012C92.9581 37.9888 89.9283 38.1827 86.9629 37.9888C86.3827 37.9242 85.738 37.9242 85.1579 37.8596C84.9645 37.8596 84.8355 37.795 84.6421 37.795C84.7066 37.795 85.1579 37.8596 84.7711 37.795C84.4487 37.7304 84.1264 37.6658 83.8041 37.6658C82.6437 37.472 81.5478 37.2136 80.4519 36.8259C80.0007 36.6967 79.5494 36.5029 79.0981 36.3737C78.9692 36.3091 78.8403 36.2445 78.7114 36.2445C78.2601 36.0506 79.2271 36.5029 78.7758 36.2445C78.518 36.1152 78.2601 36.0506 78.0667 35.9214C77.2931 35.5338 76.4551 35.0815 75.746 34.5647C75.5526 34.4355 75.3592 34.3062 75.2302 34.177C74.9724 34.0478 75.6815 34.5647 75.3592 34.3062C75.2947 34.2416 75.1658 34.177 75.1013 34.1124C74.779 33.854 74.4567 33.5309 74.1343 33.2725C73.8765 33.0141 73.6186 32.7557 73.3608 32.4326C73.1674 32.2388 72.9095 31.6573 73.2318 32.3034C73.1674 32.1096 72.974 31.9804 72.845 31.7866C72.4583 31.2051 72.0715 30.559 71.7491 29.8483C71.4913 29.3315 71.9425 30.4298 71.7491 29.7837C71.6847 29.5899 71.6202 29.4607 71.5557 29.2669C71.4268 28.9438 71.3623 28.5562 71.2334 28.2332C71.1689 27.9747 71.1689 27.4579 71.04 27.264C71.2334 27.4579 71.1045 27.9101 71.04 27.4579C71.04 27.3933 71.04 27.264 71.04 27.1994C71.04 27.0056 70.9756 26.7472 70.9756 26.5534C70.9756 26.2303 70.9756 25.9073 70.9756 25.5843C70.9756 25.3904 70.9756 25.2612 71.04 25.0674C71.04 24.9382 71.04 24.8736 71.04 24.7444C71.1045 24.3567 71.1689 24.809 70.9756 24.9382C71.1045 24.7444 71.1045 24.0983 71.169 23.8399C71.2334 23.4522 71.3623 23.1292 71.4913 22.8061C71.5557 22.6769 71.6202 22.4831 71.6847 22.3539C71.7491 22.2893 71.7491 22.1601 71.8136 22.0955C71.9425 21.7724 71.6847 22.4185 71.6847 22.3539C71.6202 22.2247 72.1359 21.3848 72.2004 21.2556C72.3938 20.9325 72.5227 20.6741 72.7161 20.3511C72.7806 20.2219 72.9095 20.028 73.0384 19.8988C73.1674 19.705 73.6831 19.1881 73.1029 19.7696C73.6831 19.1881 74.1343 18.5421 74.7145 18.0252C74.9724 17.7668 75.2947 17.5084 75.5526 17.3145C76.0038 16.9269 75.1013 17.6376 75.6815 17.2499C75.8749 17.1207 76.0683 16.9915 76.2617 16.8623C76.9708 16.3454 77.7444 15.9578 78.518 15.5701C78.7114 15.5055 78.9047 15.3117 79.0981 15.3117C78.5824 15.3763 78.7758 15.4409 79.0337 15.3763C79.1626 15.3117 79.2915 15.3117 79.4205 15.2471C79.8717 15.0533 80.323 14.9241 80.7742 14.7949C81.7412 14.5364 82.7082 14.278 83.6752 14.1488C83.8041 14.1488 83.933 14.0842 84.0619 14.0842C83.4173 14.0842 83.8041 14.0842 84.0619 14.0842C84.3198 14.0842 84.5777 14.0196 84.8355 14.0196C85.4157 13.955 85.9959 13.955 86.5116 13.955C87.1563 13.955 87.8009 13.955 88.4456 14.0196C88.639 14.0196 89.5415 14.1488 88.8324 14.0196C89.1547 14.0842 89.477 14.1488 89.7993 14.2134C90.3151 14.3426 90.7663 14.4718 91.282 14.601C91.5399 14.6656 91.7978 14.7949 92.0556 14.8595C92.3779 14.9887 91.5399 14.601 91.9267 14.7949C92.0556 14.8595 92.1845 14.9241 92.3779 14.9887C92.7647 15.1825 93.1515 15.4409 93.5383 15.6994C93.6028 15.764 93.7317 15.8286 93.7962 15.8932C94.183 16.1516 93.6672 15.764 93.6672 15.764C93.7317 15.764 94.1185 16.1516 94.183 16.2162C94.3119 16.3454 94.4408 16.4746 94.5697 16.6039C94.6342 16.6685 94.6987 16.7977 94.7631 16.8623C95.0855 17.1853 94.4408 16.41 94.6987 16.7331C94.8921 17.0561 95.1499 17.3791 95.3433 17.7668C95.3433 17.8314 95.4078 17.896 95.4078 17.9606C95.6012 18.3482 95.2144 17.3791 95.3433 17.7668C95.4078 17.9606 95.4723 18.0898 95.4723 18.219C95.5367 18.4129 95.5367 18.5421 95.6012 18.7359C95.6657 19.0589 95.4723 18.9297 95.6012 18.5421C95.6012 18.6067 95.6012 18.8005 95.6012 18.8651C95.6012 19.0589 95.6012 19.2528 95.6012 19.382C95.6012 19.4466 95.6012 19.5112 95.6012 19.5758C95.6012 19.9634 95.7301 18.9297 95.6012 19.382C95.6012 19.5112 95.4078 20.4803 95.2789 20.4803C95.2144 20.4803 95.6012 19.8988 95.3433 20.2865C95.2789 20.3511 95.2789 20.4157 95.2789 20.4803C95.2144 20.6741 95.0855 20.8033 94.9565 20.9971C94.8921 21.0618 94.8276 21.1264 94.8276 21.191C94.5698 21.5786 95.2144 20.7387 94.8921 21.0618C94.6987 21.2556 94.5697 21.3848 94.4408 21.5786C94.3119 21.7078 94.1185 21.837 93.9896 21.9663C93.5383 22.3539 94.3764 21.7078 93.8606 22.0955C93.4094 22.4185 92.9581 22.6769 92.5069 22.8708C92.3779 22.9354 92.249 23 92.1845 23C91.7333 23.2584 92.7003 22.8061 92.1845 23C91.9267 23.0646 91.6688 23.1938 91.411 23.2584C90.8308 23.4522 90.1861 23.646 89.5415 23.7753C89.2191 23.8399 88.8968 23.9045 88.5745 23.9691C87.9298 24.0983 89.0902 23.9045 88.3811 23.9691C88.1877 23.9691 88.0588 24.0337 87.8654 24.0337C87.0273 24.0983 86.1893 24.1629 85.3512 24.1629C84.4487 24.1629 83.4818 24.0983 82.5793 24.0337C82.3859 24.0337 82.1925 24.0983 82.7726 24.0337C82.6437 24.0337 82.5148 23.9691 82.3859 23.9691C82.1925 23.9045 81.9346 23.9045 81.7412 23.8399C81.2255 23.7753 80.7742 23.646 80.2585 23.5168C79.2271 23.2584 78.2601 22.9354 77.2931 22.5477C77.2287 22.4831 77.0997 22.4831 77.0353 22.4185C76.5195 22.2247 77.551 22.6123 77.0353 22.4185C76.8419 22.2893 76.584 22.2247 76.3906 22.0955C75.8749 21.837 75.4236 21.5786 74.9079 21.3202C74.3922 21.0618 73.9409 20.7387 73.4897 20.4157C73.2963 20.2865 73.0384 20.0926 72.845 19.9634C72.3293 19.5758 72.7161 19.8988 72.845 19.9634C72.7161 19.8342 72.5872 19.7696 72.4583 19.6404C71.5557 18.8651 70.7177 18.0898 69.9441 17.1853C69.7507 16.9915 69.6218 16.7331 69.4284 16.5392C69.8152 17.0561 69.235 16.2808 69.1705 16.2162C68.7837 15.6994 68.4614 15.1825 68.1391 14.601C67.8168 14.0196 67.4944 13.4381 67.2366 12.8566C67.1721 12.7274 67.1077 12.6628 67.1077 12.5336C67.3655 13.0505 67.1077 12.469 67.0432 12.4044C66.9143 12.0813 66.7853 11.6937 66.6564 11.3061C66.2051 9.8847 65.8828 8.46334 65.625 6.97738C65.625 7.04199 65.6894 7.42963 65.625 6.97738C65.625 6.78356 65.5605 6.52513 65.5605 6.33131C65.496 5.94366 65.496 5.55602 65.496 5.23298C65.4316 4.39309 65.4316 3.48859 65.4316 2.64869C65.4316 1.42116 64.3357 0.258226 63.1108 0.322833C61.7571 0.129011 60.7256 1.09812 60.7256 2.39026Z" fill="#4A74EB"/>
<path d="M12.4417 8.4633V13.6965H12.893C13.2798 12.792 13.731 11.9521 14.3757 11.2414C15.0203 10.5307 15.7939 9.94927 16.7609 9.43241C17.7279 8.91555 18.8882 8.52791 20.242 8.26948C21.5313 8.01105 23.1429 7.88184 24.8835 7.88184C28.2357 7.88184 30.8143 8.39869 32.6193 9.3678C34.4243 10.3369 35.6491 11.8229 36.2293 13.7611H36.5517C36.9384 12.8566 37.3897 12.0167 38.0343 11.306C38.679 10.5953 39.4526 10.0139 40.4196 9.49702C41.3865 8.98016 42.5469 8.59252 43.9007 8.33409C45.19 8.07566 46.8016 7.94644 48.5421 7.94644C50.7984 7.94644 52.7324 8.14027 54.2795 8.59252C55.8267 9.04477 57.0515 9.69084 57.954 10.5307C58.8565 11.3706 59.5657 12.4043 60.0169 13.5673C60.4037 14.7948 60.5971 16.1516 60.5971 17.7021V32.3034H47.3818V20.028C47.3818 19.4465 47.3173 18.8651 47.1884 18.3482C47.0594 17.896 46.8016 17.4437 46.4148 17.1207C46.028 16.7976 45.5123 16.5392 44.8676 16.3454C44.223 16.1516 43.3849 16.0223 42.3535 16.0223C41.2576 16.0223 40.3551 16.1516 39.646 16.3454C38.9369 16.6038 38.3567 16.9268 37.9699 17.3145C37.5831 17.7021 37.2608 18.1544 37.1963 18.7359C37.0029 19.3173 36.9384 19.8988 36.9384 20.5449V32.3034H23.6587V20.028C23.6587 19.4465 23.5942 18.8651 23.4653 18.3482C23.3363 17.896 23.0785 17.4437 22.6917 17.1207C22.3049 16.7976 21.7892 16.5392 21.1445 16.3454C20.4999 16.1516 19.6618 16.0223 18.6304 16.0223C17.5345 16.0223 16.632 16.1516 15.9229 16.3454C15.2137 16.6038 14.6336 16.9268 14.2468 17.3145C13.7955 17.7021 13.5376 18.1544 13.4087 18.7359C13.2798 19.3173 13.2153 19.8988 13.2153 20.5449V32.3034H0V8.4633H12.4417Z" fill="black"/>
<path d="M115.006 8.4633V13.6965H115.457C115.844 12.792 116.295 11.9521 116.94 11.2414C117.585 10.5307 118.358 9.94927 119.325 9.43241C120.292 8.91555 121.453 8.52791 122.806 8.26948C124.096 8.01105 125.707 7.88184 127.448 7.88184C130.8 7.88184 133.379 8.39869 135.184 9.3678C136.989 10.3369 138.214 11.8229 138.794 13.7611H139.116C139.503 12.8566 139.954 12.0167 140.599 11.306C141.243 10.5953 142.017 10.0139 142.984 9.49702C143.951 8.98016 145.111 8.59252 146.465 8.33409C147.754 8.07566 149.366 7.94644 151.107 7.94644C153.363 7.94644 155.297 8.14027 156.844 8.59252C158.391 9.04477 159.616 9.69084 160.518 10.5307C161.421 11.3706 162.13 12.4043 162.581 13.5673C162.968 14.7948 163.162 16.1516 163.162 17.7021V32.3034H149.946V20.028C149.946 19.4465 149.882 18.8651 149.753 18.3482C149.624 17.896 149.366 17.4437 148.979 17.1207C148.592 16.7976 148.077 16.5392 147.432 16.3454C146.787 16.1516 145.949 16.0223 144.918 16.0223C143.822 16.0223 142.92 16.1516 142.21 16.3454C141.501 16.6038 140.921 16.9268 140.534 17.3145C140.148 17.7021 139.825 18.1544 139.761 18.7359C139.567 19.3173 139.503 19.8988 139.503 20.5449V32.3034H126.288V20.028C126.288 19.4465 126.223 18.8651 126.094 18.3482C125.965 17.896 125.707 17.4437 125.321 17.1207C124.934 16.7976 124.418 16.5392 123.773 16.3454C123.129 16.1516 122.291 16.0223 121.259 16.0223C120.163 16.0223 119.261 16.1516 118.552 16.3454C117.843 16.6038 117.262 16.9268 116.876 17.3145C116.424 17.7021 116.167 18.1544 116.038 18.7359C115.909 19.3173 115.844 19.8988 115.844 20.5449V32.3034H102.629V8.4633H115.006Z" fill="black"/>
<path d="M166.514 0H179.278V12.663H179.6C179.858 12.1462 180.309 11.6293 180.825 11.0478C181.405 10.4664 182.114 10.0141 183.081 9.49726C183.984 9.04501 185.144 8.65737 186.498 8.33433C187.787 8.0113 189.399 7.88208 191.139 7.88208C195.781 7.88208 199.262 8.9158 201.712 10.9186C204.161 12.9861 205.386 16.0872 205.386 20.4159C205.386 22.5479 204.999 24.3569 204.29 25.9075C203.581 27.4581 202.485 28.8148 201.131 29.7839C199.713 30.8176 198.102 31.5929 196.103 32.0452C194.105 32.562 191.913 32.8205 189.463 32.8205C187.787 32.8205 186.304 32.6913 185.08 32.4974C183.855 32.3036 182.759 31.9806 181.856 31.5929C180.954 31.2053 180.18 30.6884 179.536 30.1716C178.891 29.5901 178.375 29.0086 177.924 28.3626H177.537L176.248 32.239H166.449V0H166.514ZM181.405 24.5507C182.565 25.4552 184.048 25.8429 185.918 25.8429C186.885 25.8429 187.723 25.7783 188.496 25.5199C189.27 25.326 189.914 25.0676 190.43 24.6154C191.01 24.1631 191.333 23.6462 191.655 22.9356C191.977 22.2249 192.106 21.385 192.106 20.3513C192.106 18.2838 191.526 16.8625 190.495 16.0872C189.399 15.3119 187.852 14.9243 185.918 14.9243C185.08 14.9243 184.242 14.9889 183.532 15.2473C182.759 15.4411 182.05 15.8288 181.47 16.281C180.889 16.7333 180.438 17.3147 180.116 17.9608C179.793 18.6715 179.6 19.4468 179.6 20.4159C179.6 22.2895 180.245 23.6462 181.405 24.5507Z" fill="black"/>
<path d="M207.577 40.9607C205.772 39.9916 204.805 38.441 204.805 36.3736C204.805 35.6629 204.869 35.146 204.998 34.6938C205.127 34.3061 205.256 33.9185 205.45 33.66H212.734C212.67 33.7893 212.67 33.9185 212.67 34.0477C212.605 34.1769 212.605 34.3061 212.605 34.4999C212.605 35.7275 213.379 36.3736 214.99 36.3736C215.893 36.3736 216.602 36.1797 217.053 35.7921C217.504 35.4044 217.956 34.9522 218.278 34.3707L218.794 33.4662L203.773 8.52783H217.569L225.369 22.9999H225.692L233.105 8.52783H244L230.913 31.851C229.882 33.7893 228.786 35.4044 227.754 36.7612C226.723 38.118 225.627 39.2163 224.402 40.0562C223.177 40.8961 221.824 41.5421 220.341 41.9298C218.794 42.3174 217.053 42.5112 214.99 42.5112C211.832 42.5112 209.382 41.9944 207.577 40.9607Z" fill="black"/>
</g>
<defs>
<clipPath id="clip0_1192_8896">
<rect width="244" height="42.6408" fill="white"/>
</clipPath>
</defs>
</svg>
