<svg width="218" height="189" viewBox="0 0 218 189" fill="none" xmlns="http://www.w3.org/2000/svg">
<path d="M227.545 25.8307C253.585 29.4457 277.918 34.1978 301.232 40.5482C303.078 40.8486 304.399 40.9344 306.771 41.7497C308.531 42.4469 310.334 43.0476 312.116 43.6805C315.497 44.6996 318.846 45.783 322.163 46.8772C323.333 47.2419 324.514 47.6174 325.705 47.9928C325.716 47.9928 325.78 48.0143 325.802 48.025C327.712 48.5506 327.208 48.2074 326.102 47.671C324.846 47.1347 323.687 46.609 322.721 46.137C323.344 46.4374 325.018 47.1454 326.102 47.671C327.648 48.3146 329.344 49.0655 331.362 49.8379C334.4 50.8784 337.566 52.0369 340.754 53.3993C337.137 52.0476 334.024 50.8891 331.362 49.8379C329.43 49.205 327.584 48.5614 325.705 47.9928C325.158 47.8426 324.621 47.6925 324.052 47.5316C331.662 50.1382 339.133 53.0024 346.443 56.2419C348.128 56.9714 349.749 57.6686 351.058 58.2372C356.372 60.5542 361.524 63.2145 364.336 65.4672C365.528 66.2181 366.783 66.9261 367.953 67.7413C367.749 67.5697 367.524 67.3873 367.32 67.2157C367.825 67.5911 368.254 67.913 368.608 68.1811C373.578 71.5173 378.397 75.1966 382.39 79.6591C385.149 82.3516 387.746 85.4517 389.56 89.0453C389.56 89.0453 389.754 89.6996 389.99 90.5041C390.237 91.3087 390.344 92.317 390.484 92.9499C390.902 93.6579 391.106 94.6126 391.439 95.6853C391.621 96.2217 391.654 96.8116 391.75 97.4231C391.825 98.0453 391.954 98.6889 391.943 99.3754C392.212 96.1358 391.868 93.1001 391.085 90.3647C390.537 88.348 389.281 86.3313 387.779 84.4648C387.414 83.9928 387.038 83.5208 386.673 83.0381C386.287 82.5769 385.879 82.1156 385.503 81.6436C384.773 80.6674 384.011 79.7234 383.378 78.6615C384.022 79.7234 384.784 80.6674 385.503 81.6436C385.879 82.1263 386.276 82.5769 386.673 83.0381C387.049 83.5208 387.414 83.9928 387.779 84.4648C389.281 86.3206 390.537 88.3373 391.085 90.3647C391.879 93.1001 392.212 96.1358 391.943 99.3754C391.976 100.802 391.997 102.336 391.976 103.934C391.847 105.522 391.686 107.163 391.503 108.804C391.192 110.435 390.87 112.055 390.516 113.632C390.044 115.176 389.571 116.678 389.077 118.073C389.41 116.26 389.829 114.565 390.14 112.902C390.376 111.229 390.741 109.641 390.945 108.097C391.128 106.541 391.364 105.05 391.546 103.602C391.664 102.154 391.793 100.748 391.933 99.3754C391.943 98.6782 391.815 98.0453 391.739 97.4231C391.632 96.8116 391.611 96.2109 391.428 95.6853C391.095 94.6126 390.891 93.6686 390.473 92.9499C390.333 92.317 390.226 91.3087 389.979 90.5041C389.743 89.6889 389.55 89.0453 389.55 89.0453C387.746 85.4517 385.149 82.3516 382.38 79.6591C386.287 83.9499 389.539 89.0131 390.677 94.677C391.01 96.0822 391.085 97.5089 391.171 98.9571C391.149 100.448 391.128 101.939 391.106 103.43C391.042 104.921 390.849 106.402 390.73 107.903C390.688 108.654 390.548 109.384 390.419 110.124L390.044 112.344C389.088 117.075 387.628 121.677 385.557 125.979C383.442 130.259 380.812 134.249 377.785 137.896C371.656 145.158 363.982 150.951 355.76 155.628C351.638 157.967 347.355 160.005 343.019 161.882C338.639 163.695 334.217 165.39 329.687 166.816C320.671 169.745 311.429 172.03 302.069 173.81C283.35 177.393 264.201 179.281 244.697 180.118C225.183 180.944 205.294 180.74 184.878 179.625C162.777 178.38 141.127 176.213 120.056 172.909C114.797 172.073 109.559 171.15 104.417 170.067C101.852 169.53 99.2973 168.94 96.85 168.275C94.3705 167.557 91.8159 166.827 89.3471 166.012C79.3861 162.858 69.7043 159.104 60.5269 154.555C51.3817 150.029 42.7946 144.719 35.0448 138.551C31.1807 135.461 27.5741 132.114 24.1608 128.628C20.8333 125.12 17.7956 121.387 15.3913 117.397C12.9547 113.417 11.1836 109.169 10.3464 104.857C9.55209 100.534 9.76677 96.2002 11.0441 91.9416C13.5451 83.3921 19.5238 75.7008 26.4363 69.3397C33.424 62.9571 41.6998 57.8403 50.4264 53.3993C54.795 51.1788 59.3032 49.1192 63.8865 47.1561C68.5128 45.2574 73.1176 43.2836 77.7868 41.4493C96.5173 34.1549 116.01 28.0941 136.318 23.4922C138.261 23.0417 140.311 22.559 142.458 22.0655C144.594 21.5614 146.848 21.143 149.167 20.6388C151.485 20.1454 153.879 19.6305 156.337 19.1049C158.795 18.6007 161.339 18.1609 163.925 17.6567C166.512 17.1847 169.142 16.6376 171.826 16.1764C174.509 15.7366 177.235 15.2968 179.994 14.8462C181.368 14.621 182.753 14.3957 184.137 14.1704C185.522 13.9451 186.928 13.7842 188.323 13.5912C191.125 13.2157 193.926 12.8295 196.739 12.4434C219.215 9.5256 241.745 8.59235 257.138 8.62453C262.29 8.50653 266.476 8.23836 269.857 8.0989C273.228 7.97018 275.782 7.76637 277.693 7.51964C281.503 7.0262 282.684 6.36112 282.512 5.67459C282.169 4.31225 276.33 2.87483 275.342 2.71392C262.558 0.225245 250.998 -0.214564 236.142 0.0750667C221.276 0.439787 203.082 1.57685 176.849 4.73061C179.082 4.4517 180.928 4.22644 182.431 4.04408C183.933 3.87244 185.093 3.82954 185.93 3.7759C187.604 3.70081 187.991 3.7759 187.347 4.00117C186.703 4.22644 185.028 4.52679 182.57 4.98806C180.123 5.4815 176.881 6.08222 173.114 6.73657C169.325 7.33728 165.042 8.25981 160.448 9.10725C155.843 9.91178 150.991 10.9952 146.064 11.9928C141.127 12.9261 136.189 14.1382 131.402 15.1359C126.604 16.0906 122.064 17.2705 117.888 18.1072C116.375 18.4291 114.851 18.7509 113.305 19.0834C111.77 19.4696 110.224 19.8665 108.657 20.2634C105.523 21.0786 102.314 21.9261 99.0612 22.8486C92.6102 24.8653 85.8801 26.9249 79.1178 29.5316C72.2911 31.9559 65.4429 34.9165 58.4338 37.8879C51.4675 40.9881 44.351 44.41 37.4063 48.5828C30.4615 52.7127 23.6885 57.6472 17.6454 63.59C14.6399 66.5828 11.8813 69.8438 9.34815 73.3301C6.84718 76.8593 4.65749 80.6889 2.99375 84.8402C1.33001 88.9809 0.235164 93.497 0.041956 98.1418C-0.183454 102.797 0.610847 107.389 1.94184 111.626C4.71115 120.122 9.60576 127.148 14.8653 133.198C20.2 139.173 26.2753 144.611 33.1879 149.61C40.079 154.609 47.7644 159.029 56.126 163.116C61.5251 165.787 67.0208 168.189 72.5702 170.313C78.1303 172.427 83.7226 174.304 89.3471 175.999L93.5655 177.232L95.8088 177.833L98.0093 178.359C100.929 179.024 103.806 179.603 106.671 180.139C112.414 181.201 118.114 182.092 123.824 182.886C146.633 186.029 169.378 187.831 192.338 188.603C215.297 189.354 238.472 189.054 262.054 187.08C267.947 186.597 273.861 185.943 279.807 185.235C285.743 184.452 291.711 183.615 297.701 182.532C309.669 180.408 321.723 177.608 333.723 173.607C340.067 171.44 346.132 168.94 351.853 166.066C357.585 163.201 362.984 159.93 367.921 156.186C372.869 152.453 377.378 148.28 381.253 143.646C385.138 139.023 388.369 133.938 390.806 128.553C394.38 120.712 396.537 111.905 396.881 103.505C396.902 102.454 396.924 101.414 396.945 100.373C396.945 99.8581 396.967 99.3432 396.978 98.8283C396.978 98.3134 396.913 97.6913 396.881 97.1335C396.838 96.5649 396.795 95.9964 396.752 95.4279C396.666 94.87 396.559 94.323 396.452 93.7652C396.344 93.2181 396.237 92.671 396.13 92.1239C395.969 91.5983 395.818 91.0727 395.657 90.5578C394.38 86.4064 392.341 82.8879 390.215 79.9487C386.791 75.379 382.863 71.7533 378.88 68.6317C374.877 65.5208 370.809 62.882 366.73 60.5864C358.561 55.9952 350.49 52.466 342.482 49.4732C346.926 51.2324 351.037 52.9809 354.987 54.8367C358.948 56.6496 362.715 58.6341 366.504 60.7473C370.283 62.8927 374.029 65.2956 377.85 68.1597C381.65 71.0453 385.546 74.4136 389.174 78.9404C390.408 80.4207 391.063 81.5685 391.471 82.2014C391.858 82.845 391.933 83.0488 391.761 82.8879C391.385 82.5983 390.129 80.7962 388.133 78.6829C387.661 78.1251 387.102 77.5888 386.534 77.031C385.954 76.4732 385.374 75.8724 384.741 75.2932C383.453 74.1776 382.143 72.9761 380.759 71.9356C378.054 69.758 375.263 67.9237 373.277 66.6043C369.832 64.4481 364.926 60.1895 361.213 58.4839C353.398 54.3647 345.853 51.5006 337.019 48.4434C333.187 47.2419 333.981 46.4267 332.06 45.8689C319.952 41.7604 310.163 40.3766 302.434 37.963C296.541 36.2038 291.185 34.7235 285.958 33.3397C282.641 32.503 279.335 31.7199 275.793 31.0012C273.582 30.6257 271.285 30.2395 268.988 29.8534C270.727 30.5399 271.296 31.0441 271.822 31.5482C268.569 30.7974 263.986 29.6817 260.712 28.9952C263.986 29.671 268.569 30.7974 271.822 31.5482C271.296 31.0441 270.727 30.5292 268.988 29.8534C252.522 27.1287 233.48 24.6186 215.727 22.9022C215.791 22.9344 215.888 22.9881 215.952 23.0202C226.31 24.2002 236.379 25.7342 246.941 28.1263C242.357 27.1502 242.969 26.9571 248.25 27.7616C249.57 28.1692 250.891 28.5661 252.189 28.963C242.991 27.6436 233.802 26.528 225.194 24.6078C225.194 24.6078 221.222 24.3182 219.258 24.168C216.36 23.6639 216.532 23.3635 215.952 23.0095C213.934 22.7735 211.884 22.559 209.834 22.3659C211.959 22.8593 216.392 23.696 220.299 24.4255C224.196 25.1656 227.555 25.7985 227.555 25.7985L227.545 25.8307Z" fill="#4A74EB"/>
</svg>
