<svg width="516" height="301" viewBox="0 0 516 301" fill="none" xmlns="http://www.w3.org/2000/svg">
<g clip-path="url(#clip0_1367_10321)">
<path d="M426.492 82.2476C423.501 90.128 416.755 99.5816 421.531 108.128C421.815 108.624 421.46 109.149 420.922 109.191C417.988 109.432 415.21 110.623 412.999 112.564C412.744 112.805 412.432 112.791 412.191 112.678C411.922 112.664 411.667 112.522 411.596 112.167C411.284 110.75 411.043 109.319 410.901 107.873C410.604 104.939 410.703 101.977 411.142 99.0572C411.582 96.2225 412.545 93.2178 411.737 90.3689C411.057 87.9595 409.045 86.2162 406.876 85.139C404.764 84.1043 402.284 83.8209 400.753 81.8508C398.315 78.7326 399.407 72.7515 394.928 71.3484C389.911 69.7893 385.432 74.1122 380.84 75.2744C375.638 76.6067 371.244 73.5594 367.418 70.4129C363.605 67.2664 358.162 62.731 352.989 65.679C348.681 68.131 347.504 73.5736 345.761 77.7972C344.84 80.0224 343.72 82.1909 341.962 83.8634C340.432 85.3232 338.547 86.2728 336.619 87.0666C332.835 88.5973 328.129 89.4618 325.55 92.9343C323.835 95.2445 323.324 98.4052 323.055 101.212C322.772 104.287 322.913 107.391 323.48 110.424C323.509 110.538 323.509 110.623 323.48 110.722C323.863 111.26 323.225 112.153 322.545 111.742C320.958 110.807 319.243 110.169 317.443 109.815C317.06 109.744 316.847 109.29 316.947 108.95C316.961 108.908 316.989 108.879 317.003 108.851C315.784 107.207 314.594 105.534 313.63 103.734C312.68 101.934 311.958 100.007 311.759 97.98C311.546 95.8398 312.071 93.7847 312.808 91.7863C313.545 89.7595 314.48 87.7044 314.509 85.5217C314.551 83.4524 313.772 81.5106 312.836 79.6964C310.965 76.0964 308.783 72.8507 308.4 68.7121C308.046 64.9137 309.009 60.9451 311.107 57.7703C315.274 51.4632 322.998 49.4223 328.852 45.1844C330.34 44.1073 331.729 42.8458 332.821 41.3718C334.068 39.6852 334.932 37.7576 335.797 35.8442C336.676 33.8741 337.569 31.8757 338.858 30.1182C339.992 28.5733 341.367 27.241 342.926 26.1213C346.087 23.8678 350.013 22.6205 353.896 22.7339C358.219 22.8757 362.23 24.6331 366.27 26.008C368.311 26.7024 370.422 27.3261 372.577 27.5245C374.83 27.7371 377.055 27.4395 379.252 26.9434C383.504 25.9796 387.714 24.3213 392.15 24.4489C400.937 24.7182 406.947 32.1308 409.98 39.6852C410.83 41.7828 411.341 44.0364 412.333 46.0773C413.282 48.0191 414.799 49.3797 416.613 50.5136C418.3 51.5624 420.1 52.4412 421.715 53.6176C423.26 54.7514 424.578 56.1546 425.641 57.742C430.588 65.0696 429.468 74.4098 426.492 82.2476Z" fill="black"/>
<path d="M372.062 188.25C368.49 188.023 364.805 188.349 361.234 188.136C359.476 188.023 357.705 187.995 355.975 187.626C354.374 187.286 352.956 186.577 351.638 185.614C349.03 183.686 346.734 181.206 344.481 178.881C342.156 176.472 339.917 173.977 337.777 171.398C335.679 168.861 333.411 166.267 331.867 163.333C330.251 160.272 329.939 156.672 329.4 153.298C328.267 146.098 327.218 138.884 326.268 131.656C325.205 123.549 324.256 115.441 323.433 107.306C323.348 106.413 321.917 106.399 322.016 107.306C322.158 108.723 322.328 110.155 322.484 111.572C320.868 109.588 318.43 108.341 315.766 108.426C311.769 108.553 308.835 111.374 307.474 114.96C304.555 122.599 308.041 131.642 313.852 136.928C317.197 139.975 321.633 141.846 326.169 141.124C326.679 144.738 327.218 148.338 327.785 151.938C328.323 155.424 328.621 159.138 329.939 162.44C331.144 165.502 333.326 168.095 335.367 170.632C339.662 175.976 344.339 181.22 349.541 185.699C350.816 186.804 352.191 187.782 353.764 188.42C355.55 189.143 357.478 189.313 359.377 189.426C363.572 189.695 367.881 189.398 372.076 189.653C372.983 189.71 372.983 188.292 372.076 188.236L372.062 188.25ZM309.501 128.438C308.112 125.221 307.503 121.579 308.098 118.106C308.665 114.818 310.38 111.303 313.767 110.197C317.594 108.95 321.648 111.175 322.753 115.016C322.782 115.115 322.824 115.186 322.881 115.257C323.788 123.435 324.808 131.599 325.956 139.735C318.643 140.996 312.194 134.689 309.487 128.438H309.501Z" fill="black"/>
<path d="M321.311 134.193C319.822 134.774 318.476 133.47 317.952 132.166C317.498 131.047 317.484 129.785 317.824 128.637C318.008 128.028 318.292 127.432 318.674 126.922C319.085 126.369 319.667 126.043 320.134 125.547C321.027 124.598 320.588 122.656 320.404 121.522C319.978 118.858 318.207 116.023 315.188 116.009C312.665 116.009 310.766 118.532 311.928 120.884C312.339 121.706 313.558 120.984 313.147 120.176C312.566 118.999 313.487 117.681 314.692 117.469C316.18 117.199 317.498 118.177 318.207 119.41C318.972 120.728 319.128 122.302 319.17 123.79C319.17 124.243 319.227 124.413 318.83 124.796C318.646 124.966 318.419 125.108 318.235 125.278C317.852 125.632 317.512 126.058 317.229 126.497C316.109 128.254 315.826 130.593 316.563 132.549C317.314 134.519 319.44 136.447 321.665 135.568C322.501 135.242 322.133 133.867 321.282 134.207L321.311 134.193Z" fill="black"/>
<path d="M346.685 113.826C349.182 113.826 351.207 111.554 351.207 108.752C351.207 105.949 349.182 103.678 346.685 103.678C344.188 103.678 342.164 105.949 342.164 108.752C342.164 111.554 344.188 113.826 346.685 113.826Z" fill="black"/>
<path d="M353.95 97.3848C353.383 98.1218 352.448 98.462 351.583 98.7596C350.45 99.1423 349.302 99.3691 348.139 99.5817C345.914 99.9927 343.717 100.375 341.634 101.24C340.528 101.694 339.508 102.303 338.431 102.813C337.708 103.153 336.758 103.607 336.007 103.125C334.505 102.147 335.794 99.7376 336.56 98.7455C337.283 97.81 338.176 97.0021 339.139 96.3076C341.28 94.5218 343.902 93.3454 346.651 92.8494C348.55 92.5234 350.62 92.3816 352.391 93.2746C353.865 94.0116 355.141 95.8258 353.922 97.3848H353.95Z" fill="black"/>
<path d="M390.912 114.534C393.409 114.534 395.433 112.263 395.433 109.46C395.433 106.658 393.409 104.386 390.912 104.386C388.415 104.386 386.391 106.658 386.391 109.46C386.391 112.263 388.415 114.534 390.912 114.534Z" fill="black"/>
<path d="M383.662 98.0934C384.229 98.8304 385.165 99.1706 386.029 99.4682C387.163 99.8509 388.311 100.078 389.473 100.29C391.699 100.701 393.895 101.084 395.979 101.949C397.084 102.402 398.105 103.012 399.182 103.522C399.905 103.862 400.855 104.316 401.606 103.834C403.108 102.856 401.818 100.446 401.053 99.4541C400.33 98.5186 399.437 97.7108 398.473 97.0163C396.333 95.2304 393.711 94.054 390.962 93.558C389.062 93.232 386.993 93.0903 385.221 93.9832C383.747 94.7202 382.472 96.5344 383.691 98.0934H383.662Z" fill="black"/>
<path d="M370.535 140.188C368.976 140.046 367.445 139.763 365.943 139.323C365.319 139.139 364.71 138.927 364.1 138.7C363.136 138.331 362.669 138.19 362.612 137.084C362.456 134.037 362.555 130.975 362.796 127.942C363.278 121.734 364.384 115.583 365.503 109.46C365.659 108.567 364.299 108.185 364.143 109.078C362.91 115.895 361.677 122.726 361.28 129.657C361.18 131.386 361.138 133.101 361.152 134.83C361.152 136.064 360.869 138.019 361.762 139.012C362.187 139.493 362.853 139.706 363.434 139.947C364.185 140.245 364.951 140.514 365.73 140.741C367.303 141.194 368.919 141.478 370.549 141.619C371.456 141.704 371.456 140.287 370.549 140.202L370.535 140.188Z" fill="black"/>
<path d="M340.666 144.093C345.69 143.685 349.398 138.857 348.948 133.31C348.498 127.763 344.06 123.597 339.035 124.004C334.011 124.412 330.302 129.24 330.753 134.787C331.203 140.334 335.641 144.5 340.666 144.093Z" fill="#FAD9D9"/>
<path d="M403.612 134.748C404.062 129.201 400.354 124.373 395.33 123.965C390.305 123.558 385.867 127.724 385.417 133.271C384.967 138.819 388.675 143.646 393.699 144.054C398.724 144.462 403.162 140.295 403.612 134.748Z" fill="#FAD9D9"/>
<path d="M367.522 171.738C367.465 174.36 367.408 176.996 367.352 179.618C367.337 180.525 368.755 180.525 368.769 179.618C368.826 176.996 368.882 174.36 368.939 171.738C368.953 170.831 367.536 170.831 367.522 171.738Z" fill="black"/>
<path d="M330.678 206.151C330.948 206.462 331.004 206.958 330.537 207.185C329.247 207.837 327.957 208.461 326.653 209.07C316.406 213.918 305.748 217.914 294.82 220.99C292.155 221.741 289.462 222.422 286.77 223.074C278.294 225.114 269.747 226.872 261.442 229.48C259.415 230.118 257.402 230.812 255.418 231.577C248.105 234.384 241.117 238.14 235.264 243.398C234.867 243.752 234.484 244.107 234.116 244.475C231.48 246.998 229.155 249.847 227.284 252.979C226.972 253.475 226.689 253.985 226.405 254.496C224.478 258.067 223.16 261.908 222.352 265.863C222.125 266.926 221.955 267.989 221.799 269.052C221.558 270.823 221.388 272.595 221.317 274.367C221.105 278.661 221.36 282.984 221.898 287.264C222.253 290.113 222.749 292.962 223.316 295.768C223.557 296.973 223.812 298.164 224.081 299.354C224.124 299.524 224.152 299.68 224.194 299.85C224.294 300.261 224.067 300.559 223.755 300.672C223.401 300.814 222.961 300.701 222.848 300.219C222.565 298.957 222.281 297.696 222.026 296.435C221.983 296.208 221.941 295.995 221.898 295.768C221.331 292.962 220.864 290.127 220.509 287.264C219.971 282.984 219.73 278.661 219.928 274.367C220.042 271.504 220.354 268.669 220.92 265.863C220.949 265.693 220.977 265.523 221.02 265.352C221.927 261.03 223.457 256.82 225.654 252.979C225.952 252.441 226.278 251.902 226.618 251.378C228.206 248.883 230.062 246.587 232.117 244.475C233.393 243.171 234.739 241.938 236.157 240.79C240.876 236.949 246.149 233.959 251.705 231.577C255.475 229.948 259.373 228.601 263.299 227.439C268.982 225.766 274.736 224.42 280.505 223.074C286.146 221.755 291.773 220.437 297.329 218.793C308.313 215.533 319 211.324 329.261 206.236C330.891 193.579 332.308 180.894 333.485 168.194C333.57 167.287 334.987 167.287 334.902 168.194C333.726 180.865 332.323 193.522 330.693 206.151H330.678Z" fill="black"/>
<path d="M363.447 189.667C367.643 189.412 371.838 189.795 376.019 189.525C377.918 189.398 379.846 189.228 381.632 188.519C383.205 187.881 384.58 186.889 385.855 185.798C391.057 181.319 395.748 176.075 400.029 170.732C402.07 168.195 404.252 165.601 405.457 162.539C406.761 159.237 407.059 155.524 407.611 152.037C408.178 148.437 408.717 144.837 409.227 141.223C413.763 141.96 418.185 140.089 421.544 137.027C427.355 131.741 430.827 122.712 427.922 115.059C426.547 111.459 423.627 108.652 419.63 108.525C416.966 108.44 414.528 109.687 412.912 111.671C413.068 110.254 413.224 108.823 413.38 107.405C413.479 106.498 412.048 106.512 411.963 107.405C411.141 115.541 410.191 123.648 409.128 131.755C408.178 138.983 407.13 146.198 405.996 153.398C405.457 156.771 405.145 160.371 403.529 163.432C401.985 166.366 399.731 168.96 397.619 171.497C395.479 174.076 393.24 176.571 390.915 178.98C388.662 181.305 386.366 183.785 383.758 185.713C382.44 186.677 381.022 187.385 379.421 187.725C377.706 188.094 375.92 188.136 374.162 188.236C370.591 188.462 367.033 188.051 363.462 188.264C362.554 188.321 362.554 189.738 363.462 189.681L363.447 189.667ZM409.426 139.82C410.574 131.67 411.594 123.52 412.501 115.342C412.558 115.271 412.6 115.201 412.629 115.101C413.734 111.26 417.788 109.035 421.615 110.282C425.002 111.388 426.717 114.889 427.284 118.191C427.879 121.664 427.284 125.306 425.881 128.523C423.174 134.774 416.725 141.081 409.411 139.82H409.426Z" fill="black"/>
<path d="M414.092 134.278C415.58 134.859 416.926 133.555 417.451 132.251C417.904 131.131 417.918 129.87 417.578 128.722C417.394 128.112 417.11 127.517 416.728 127.007C416.317 126.454 415.736 126.128 415.268 125.632C414.375 124.682 414.814 122.741 414.999 121.607C415.424 118.942 417.196 116.108 420.214 116.093C422.737 116.093 424.636 118.616 423.474 120.969C423.063 121.791 421.844 121.068 422.255 120.26C422.836 119.084 421.915 117.766 420.71 117.553C419.222 117.284 417.904 118.262 417.195 119.495C416.43 120.813 416.274 122.386 416.232 123.875C416.232 124.328 416.175 124.498 416.572 124.881C416.756 125.051 416.983 125.193 417.167 125.363C417.55 125.717 417.89 126.142 418.173 126.582C419.293 128.339 419.577 130.678 418.84 132.634C418.088 134.604 415.962 136.531 413.737 135.653C412.901 135.327 413.269 133.952 414.12 134.292L414.092 134.278Z" fill="black"/>
<path d="M514.903 287.265C514.563 290.113 514.081 292.962 513.514 295.769C513.471 296.009 513.429 296.265 513.372 296.506C513.117 297.781 512.848 299.043 512.55 300.304C512.437 300.786 511.983 300.899 511.629 300.758C511.317 300.644 511.09 300.347 511.189 299.936C511.232 299.737 511.274 299.553 511.317 299.354C511.586 298.164 511.841 296.973 512.082 295.769C512.649 292.962 513.145 290.113 513.5 287.265C514.038 282.984 514.279 278.661 514.066 274.367C513.981 272.624 513.826 270.88 513.585 269.137C513.429 268.046 513.244 266.954 513.003 265.863C512.196 261.937 510.892 258.11 508.978 254.581C508.681 254.042 508.383 253.504 508.043 252.979C506.158 249.847 503.833 247.012 501.183 244.475C500.843 244.135 500.474 243.809 500.12 243.483C494.21 238.168 487.151 234.398 479.739 231.578C477.825 230.841 475.884 230.174 473.942 229.565C465.523 226.915 456.863 225.157 448.274 223.074C445.694 222.45 443.115 221.784 440.564 221.075C429.636 218 418.992 214.003 408.731 209.155C407.427 208.546 406.137 207.922 404.861 207.27C404.379 207.044 404.436 206.548 404.705 206.236C403.09 193.607 401.672 180.951 400.496 168.28C400.411 167.373 401.828 167.373 401.913 168.28C403.104 180.979 404.507 193.664 406.137 206.321C416.398 211.409 427.085 215.604 438.069 218.878C443.498 220.494 449.011 221.798 454.539 223.074C460.421 224.448 466.302 225.809 472.099 227.524C475.969 228.658 479.81 229.99 483.523 231.578C489.136 233.987 494.479 236.992 499.241 240.875C500.63 242.009 501.962 243.2 503.21 244.475C505.293 246.601 507.178 248.926 508.78 251.449C509.106 251.959 509.403 252.469 509.701 252.979C511.926 256.849 513.471 261.086 514.378 265.438C514.407 265.579 514.435 265.721 514.463 265.863C515.03 268.669 515.356 271.518 515.484 274.367C515.682 278.661 515.441 282.984 514.903 287.265Z" fill="black"/>
<path d="M511.474 299.34H224.11C223.203 299.34 223.203 300.757 224.11 300.757H511.474C512.381 300.757 512.381 299.34 511.474 299.34Z" fill="black"/>
<path d="M405.427 206.859C402.464 211.069 397.816 213.662 393.067 215.392C388.107 217.22 382.848 218.382 377.59 218.949C366.974 220.097 356.118 218.822 346.055 215.222C343.234 214.215 340.485 213.025 337.82 211.664C336.473 210.97 335.141 210.233 333.837 209.439C332.547 208.645 331.343 207.752 330.691 206.349C330.308 205.527 329.089 206.236 329.472 207.058C330.592 209.453 333.199 210.757 335.41 211.962C337.834 213.294 340.343 214.484 342.908 215.519C348.152 217.645 353.666 219.133 359.264 219.955C370.263 221.571 381.7 220.749 392.231 217.163C397.773 215.278 403.173 212.444 406.617 207.554C407.142 206.803 405.923 206.094 405.398 206.845L405.427 206.859Z" fill="black"/>
<path d="M363.58 95.5138C361.639 91.3468 357.925 87.8177 353.9 85.6633C350.711 83.9625 347.423 83.7499 344.106 84.161C343.936 84.0901 340.265 84.657 338.777 85.224C338.735 85.224 338.706 85.2381 338.664 85.2523C338.536 85.2807 338.437 85.3515 338.338 85.4082C332.328 87.8744 327.892 93.3453 326.39 99.8792C324.533 107.958 326.73 117.695 334.185 122.23C350.201 131.982 371.39 112.281 363.595 95.5138H363.58ZM357.911 114.789C353.22 120.445 345.311 123.619 338.168 121.026C330.953 118.404 328.02 110.608 328.672 103.437C329.267 96.8036 333.25 90.4964 339.344 87.9878C339.372 87.9878 339.401 87.9878 339.429 87.9878C343.398 86.9814 347.635 85.9468 351.561 87.6759C354.722 89.0649 357.684 91.5594 359.669 94.3799C364.062 100.659 362.659 109.092 357.939 114.789H357.911Z" fill="black"/>
<path d="M410.471 94.8052C408.529 90.6382 404.816 87.1091 400.791 84.9547C397.602 83.2539 394.313 83.0413 390.997 83.4523C390.827 83.3815 387.156 83.9484 385.668 84.5153C385.625 84.5153 385.597 84.5295 385.554 84.5437C385.427 84.572 385.328 84.6429 385.228 84.6996C379.219 87.1657 374.783 92.6366 373.28 99.1705C371.424 107.249 373.62 116.986 381.076 121.522C397.091 131.273 418.281 111.572 410.485 94.8052H410.471ZM404.802 114.081C400.11 119.736 392.202 122.911 385.058 120.317C377.844 117.695 374.91 109.9 375.562 102.728C376.158 96.0949 380.14 89.7878 386.235 87.2791C386.263 87.2791 386.291 87.2791 386.32 87.2791C390.288 86.2728 394.526 85.2382 398.452 86.9673C401.613 88.3563 404.575 90.8508 406.559 93.6713C410.953 99.9501 409.55 108.383 404.83 114.081H404.802Z" fill="black"/>
<path d="M373.207 102.374C371.52 102.034 369.791 101.878 368.076 101.949C367.183 101.991 366.29 102.09 365.397 102.232C364.533 102.374 363.357 102.459 362.931 103.366C362.605 104.032 362.719 104.925 363.442 105.308C363.938 105.563 364.618 105.535 365.057 105.18C365.1 105.18 365.142 105.166 365.171 105.152C365.355 105.109 365.553 105.081 365.738 105.038C365.894 105.01 366.064 104.982 366.22 104.953C366.29 104.953 366.347 104.939 366.418 104.925C366.418 104.925 366.446 104.925 366.489 104.925C367.169 104.84 367.864 104.797 368.544 104.783C369.933 104.755 371.166 104.868 372.427 105.123C373.15 105.265 373.987 104.911 374.171 104.131C374.327 103.423 373.958 102.544 373.179 102.388L373.207 102.374Z" fill="black"/>
<path d="M479.743 231.577H255.422C257.406 230.812 259.419 230.118 261.446 229.48C269.751 226.872 278.298 225.114 286.773 223.073H448.278C456.867 225.157 465.527 226.914 473.946 229.565C475.887 230.174 477.829 230.84 479.743 231.577Z" fill="black"/>
<path d="M508.04 252.979H227.281C229.152 249.847 231.477 246.998 234.113 244.475H501.18C503.831 247.012 506.155 249.847 508.04 252.979Z" fill="black"/>
<path d="M514.062 274.367H221.312C221.383 272.595 221.553 270.824 221.794 269.052C221.95 267.989 222.12 266.926 222.347 265.863H512.999C513.24 266.954 513.424 268.046 513.58 269.137C513.821 270.88 513.977 272.624 514.062 274.367Z" fill="black"/>
<path d="M513.5 287.264C513.145 290.113 512.649 292.962 512.082 295.768H223.316C222.749 292.962 222.253 290.113 221.898 287.264H513.5Z" fill="black"/>
<path d="M386.286 153.553C376.081 158.273 364.218 158.883 353.56 155.339C352.695 155.056 352.327 156.416 353.177 156.7C364.204 160.371 376.45 159.648 386.995 154.772C387.817 154.39 387.108 153.171 386.286 153.553Z" fill="black"/>
<path d="M124.827 143.576C122.574 143.292 120.504 142.357 118.974 140.826C118.095 139.947 117.415 138.927 117.769 137.708C118.109 136.602 118.761 135.511 119.243 134.448C121.199 130.083 122.8 125.604 124.048 121.054C124.26 120.261 122.9 119.92 122.687 120.714C121.256 125.902 119.385 130.976 117.06 135.894C116.578 136.914 116.054 137.92 116.295 139.054C116.522 140.117 117.259 141.039 118.067 141.818C119.725 143.434 122.021 144.483 124.445 144.795C125.337 144.908 125.72 143.689 124.827 143.576Z" fill="black"/>
<path d="M249.68 274.906C249.198 281.652 247.88 288.37 246.406 294.932C246.024 296.619 245.641 298.291 245.244 299.978C245.187 300.205 245.06 300.347 244.904 300.417C244.734 300.517 244.507 300.503 244.323 300.417C244.28 300.417 244.238 300.389 244.195 300.361C244.139 300.375 244.096 300.403 244.039 300.417H244.011C244.011 300.417 243.926 300.432 243.869 300.432H6.42413C6.42413 300.432 6.35327 300.432 6.32492 300.417H6.25405C6.25405 300.417 6.15484 300.417 6.11232 300.375C6.08397 300.389 6.04145 300.403 6.01311 300.417C5.81468 300.503 5.60208 300.517 5.41783 300.417C5.26192 300.347 5.13436 300.205 5.09184 299.978C4.69499 298.291 4.29814 296.619 3.92963 294.932C2.44144 288.37 1.12332 281.652 0.641429 274.906C0.38631 271.32 0.372136 267.72 0.712295 264.148C0.939068 261.71 1.32175 259.272 1.90285 256.849C3.2068 251.435 5.46035 246.19 8.84777 241.74C9.68399 240.649 10.5911 239.614 11.5549 238.636C14.3187 235.83 17.5643 233.519 21.0793 231.691C30.7172 226.688 41.6164 225.016 51.9346 221.954C59.1204 219.828 66.1362 216.767 72.5284 212.727C72.7835 212.571 73.0528 212.415 73.3079 212.231C77.078 209.793 80.6072 207.001 83.8103 203.855C92.4135 195.407 98.3521 183.261 95.4891 171.029C95.4324 170.803 95.4749 170.618 95.5742 170.477C95.886 170.037 96.6938 169.981 96.8498 170.647C96.8781 170.76 96.9064 170.888 96.9206 171.001C97.034 171.44 97.119 171.894 97.1899 172.347C97.3175 173.07 97.4309 173.807 97.5017 174.544C97.5159 174.7 97.5301 174.87 97.5442 175.026C98.508 187.088 92.0592 198.242 83.4418 206.165C80.5505 208.83 77.4323 211.211 74.1583 213.351C73.7473 213.62 73.3646 213.875 72.9536 214.13H72.9394C66.3346 218.241 59.1063 221.345 51.6511 223.513C41.3046 226.532 30.2778 228.19 20.7533 233.477C18.1596 234.908 15.7502 236.623 13.61 238.636C11.7675 240.337 10.1092 242.264 8.70603 244.39C5.57374 249.124 3.66034 254.567 2.66821 260.137C2.42726 261.469 2.24301 262.816 2.12962 264.148C1.76112 267.734 1.77529 271.32 2.04459 274.906C2.61152 283.041 4.48239 291.134 6.32492 299.043C6.35327 299.028 6.38161 299.014 6.42413 299.014H243.869C243.869 299.014 243.969 299.043 244.011 299.043C245.854 291.148 247.724 283.041 248.291 274.906C248.561 271.32 248.575 267.734 248.206 264.148C248.093 262.802 247.909 261.469 247.668 260.137C246.676 254.567 244.762 249.124 241.63 244.39C240.227 242.264 238.569 240.337 236.726 238.636C234.586 236.623 232.176 234.908 229.583 233.477C220.044 228.19 209.031 226.532 198.671 223.513C191.343 221.373 184.228 218.34 177.708 214.315C177.312 214.074 176.901 213.819 176.518 213.563C174.746 212.43 173.031 211.225 171.373 209.935C170.834 209.524 170.31 209.099 169.786 208.66C168.793 207.866 167.83 207.03 166.894 206.165C158.263 198.242 151.828 187.088 152.792 175.026C152.848 174.374 152.919 173.722 153.033 173.07C153.146 172.262 153.302 171.455 153.486 170.647C153.515 170.562 153.543 170.477 153.585 170.42C153.6 170.392 153.614 170.377 153.628 170.363C154.025 169.867 155.031 170.25 154.847 171.029C154.847 171.044 154.847 171.058 154.833 171.072C151.984 183.289 157.922 195.422 166.512 203.855C168.198 205.499 169.97 207.058 171.812 208.504C179.65 214.683 188.891 219.134 198.401 221.954C208.705 225.016 219.619 226.688 229.257 231.691C232.772 233.519 236.017 235.83 238.781 238.636C239.731 239.614 240.638 240.649 241.474 241.74C244.876 246.19 247.115 251.435 248.419 256.849C249 259.272 249.383 261.696 249.609 264.148C249.95 267.72 249.935 271.32 249.68 274.906Z" fill="black"/>
<path d="M83.8062 138.714C82.3888 138.714 81.014 138.062 79.7809 137.41C78.5904 136.787 77.4707 136.021 76.4502 135.157C74.3951 133.399 72.751 131.202 71.7022 128.708C70.5683 126.057 70.1006 123.095 70.4266 120.232C70.7242 117.511 71.9573 114.506 74.6927 113.415C77.8534 112.153 81.1274 114.336 81.6235 117.568C81.7652 118.46 83.1258 118.078 82.9841 117.185C82.5164 114.095 79.8943 111.757 76.762 111.643C73.6156 111.53 71.0644 113.783 69.9022 116.561C67.2943 122.812 69.8171 130.593 74.4376 135.199C75.6707 136.432 77.0738 137.495 78.5904 138.36C80.1636 139.253 81.9778 140.131 83.8203 140.131C84.7274 140.131 84.7274 138.714 83.8203 138.714H83.8062Z" fill="black"/>
<path d="M81.5361 133.286C78.9282 132.846 79.2826 129.346 79.4526 127.432C79.6794 125.065 80.2889 122.443 79.481 120.133C78.8715 118.39 77.2416 116.816 75.2715 117.072C73.5849 117.298 72.2526 119.07 72.8337 120.742C73.1314 121.593 74.5062 121.224 74.1943 120.36C73.9392 119.609 74.3928 118.843 75.1156 118.56C75.9377 118.234 76.8448 118.716 77.3975 119.325C78.8007 120.87 78.4463 123.35 78.2479 125.235C77.9361 128.155 76.9014 133.938 81.1251 134.647C82.018 134.788 82.4007 133.428 81.5078 133.286H81.5361Z" fill="black"/>
<path d="M167.179 138.686C168.596 138.686 169.971 138.034 171.204 137.382C172.395 136.758 173.514 135.993 174.535 135.128C176.59 133.371 178.234 131.174 179.283 128.679C180.417 126.029 180.884 123.067 180.558 120.204C180.261 117.482 179.028 114.478 176.292 113.386C173.132 112.125 169.858 114.308 169.362 117.539C169.22 118.432 167.859 118.049 168.001 117.156C168.469 114.067 171.091 111.728 174.223 111.615C177.369 111.501 179.921 113.755 181.083 116.533C183.691 122.783 181.168 130.564 176.547 135.171C175.314 136.404 173.911 137.467 172.395 138.331C170.821 139.224 169.007 140.103 167.165 140.103C166.258 140.103 166.258 138.686 167.165 138.686H167.179Z" fill="black"/>
<path d="M169.449 133.257C172.057 132.818 171.702 129.317 171.532 127.404C171.305 125.037 170.696 122.415 171.504 120.105C172.113 118.361 173.743 116.788 175.713 117.043C177.4 117.27 178.732 119.042 178.151 120.714C177.853 121.564 176.479 121.196 176.79 120.331C177.046 119.58 176.592 118.815 175.869 118.531C175.047 118.205 174.14 118.687 173.587 119.297C172.184 120.842 172.538 123.322 172.737 125.207C173.049 128.127 174.083 133.909 169.86 134.618C168.967 134.76 168.584 133.399 169.477 133.257H169.449Z" fill="black"/>
<path d="M102.74 121.494C105.237 121.494 107.261 119.222 107.261 116.42C107.261 113.617 105.237 111.346 102.74 111.346C100.243 111.346 98.2188 113.617 98.2188 116.42C98.2188 119.222 100.243 121.494 102.74 121.494Z" fill="black"/>
<path d="M97.6421 151.228C102.667 150.82 106.375 145.993 105.925 140.446C105.474 134.898 101.036 130.732 96.0117 131.14C90.9872 131.548 87.279 136.375 87.7293 141.922C88.1795 147.47 92.6176 151.636 97.6421 151.228Z" fill="#FAD9D9"/>
<path d="M128.016 183.97C127.194 184.069 126.287 183.899 125.465 183.927C119.087 184.21 112.68 182.821 107.011 179.873C104.035 178.314 101.271 176.33 98.833 174.006C98.2661 173.481 97.7133 172.929 97.1889 172.347C96.8488 171.993 96.5228 171.625 96.2251 171.256C95.9842 171.001 95.7716 170.746 95.5732 170.477C95.0204 169.825 94.5102 169.144 94.0283 168.45C90.2865 163.106 88.1464 156.714 86.3464 150.506C82.5054 137.354 81.1022 123.52 82.1794 109.871C82.2503 108.964 83.6676 108.964 83.5967 109.871C83.0156 117.298 83.1574 124.768 84.0361 132.166C84.8298 138.785 86.2188 145.333 88.1889 151.711C90.0172 157.692 92.1999 163.716 96.0125 168.762C102.32 177.11 112.156 182.07 122.474 182.524C123.466 182.552 124.458 182.552 125.465 182.524C126.287 182.481 127.194 182.637 128.016 182.552C128.257 182.524 128.427 182.609 128.554 182.736C128.852 183.119 128.668 183.899 128.016 183.97Z" fill="black"/>
<path d="M164.575 150.506C162.761 156.714 160.62 163.106 156.879 168.45C156.241 169.357 155.575 170.221 154.823 171.072C154.271 171.766 153.661 172.432 153.023 173.07C150.373 175.792 147.283 178.116 143.896 179.873C138.241 182.821 131.82 184.21 125.456 183.927C124.634 183.899 123.713 184.069 122.891 183.97C122.239 183.899 122.055 183.133 122.367 182.751C122.466 182.609 122.636 182.524 122.891 182.552C123.713 182.637 124.634 182.481 125.456 182.524C126.449 182.552 127.455 182.552 128.447 182.51C138.056 182.099 147.255 177.762 153.576 170.42C153.59 170.391 153.605 170.377 153.619 170.363C154.058 169.839 154.498 169.314 154.909 168.762C158.721 163.716 160.89 157.692 162.732 151.711C164.688 145.333 166.091 138.785 166.871 132.166C167.764 124.768 167.905 117.298 167.31 109.871C167.239 108.964 168.657 108.964 168.727 109.871C169.805 123.52 168.402 137.354 164.575 150.506Z" fill="black"/>
<path d="M110.013 105.052C109.446 105.789 108.511 106.13 107.646 106.427C106.512 106.81 105.364 107.037 104.202 107.249C101.977 107.66 99.7798 108.043 97.6963 108.908C96.5908 109.361 95.5703 109.971 94.4932 110.481C93.7703 110.821 92.8207 111.274 92.0695 110.793C90.5672 109.815 91.8569 107.405 92.6223 106.413C93.3451 105.478 94.238 104.67 95.2018 103.975C97.342 102.189 99.9641 101.013 102.714 100.517C104.613 100.191 106.682 100.049 108.454 100.942C109.928 101.679 111.203 103.493 109.985 105.052H110.013Z" fill="black"/>
<path d="M146.998 122.202C149.495 122.202 151.519 119.931 151.519 117.128C151.519 114.326 149.495 112.054 146.998 112.054C144.501 112.054 142.477 114.326 142.477 117.128C142.477 119.931 144.501 122.202 146.998 122.202Z" fill="black"/>
<path d="M139.725 105.761C140.292 106.498 141.227 106.838 142.092 107.136C143.226 107.519 144.374 107.745 145.536 107.958C147.761 108.369 149.958 108.752 152.041 109.616C153.147 110.07 154.167 110.679 155.245 111.189C155.967 111.53 156.917 111.983 157.668 111.501C159.171 110.523 157.881 108.114 157.115 107.122C156.393 106.186 155.5 105.378 154.536 104.684C152.396 102.898 149.774 101.722 147.024 101.226C145.125 100.9 143.056 100.758 141.284 101.651C139.81 102.388 138.534 104.202 139.753 105.761H139.725Z" fill="black"/>
<path d="M160.597 141.915C161.047 136.367 157.339 131.54 152.314 131.132C147.29 130.724 142.851 134.891 142.401 140.438C141.951 145.985 145.659 150.813 150.684 151.22C155.708 151.628 160.146 147.462 160.597 141.915Z" fill="#FAD9D9"/>
<path d="M169.78 208.659C158.583 209.439 147.485 206.774 137.124 202.693C126.707 198.582 116.446 193.211 108.225 185.529C104.582 182.127 101.365 178.272 98.8281 174.006C101.266 176.33 104.03 178.314 107.006 179.874C112.675 182.822 119.082 184.211 125.46 183.927C131.824 184.211 138.244 182.822 143.899 179.874C147.287 178.116 150.376 175.792 153.027 173.07C152.913 173.722 152.843 174.374 152.786 175.026C151.822 187.088 158.257 198.242 166.888 206.165C167.824 207.03 168.787 207.866 169.78 208.659Z" fill="black"/>
<path d="M139.747 152.136C131.555 157.976 120.627 158.5 111.939 153.412C111.145 152.944 110.436 154.177 111.23 154.631C120.329 159.96 131.881 159.478 140.47 153.355C141.207 152.831 140.498 151.598 139.761 152.136H139.747Z" fill="black"/>
<path d="M233.085 234.597C223.418 241.669 212.689 247.239 201.379 251.193C190.111 255.134 178.291 257.501 166.385 258.223C153.813 258.989 141.157 257.968 128.84 255.36C116.509 252.738 104.504 248.571 93.1942 243.015C82.5642 237.8 72.3311 231.379 64.0539 222.819C63.0476 221.77 62.0696 220.693 61.12 219.601C60.5248 218.907 59.5326 219.913 60.1137 220.607C67.9232 229.707 77.9154 236.652 88.4745 242.208C99.6856 248.118 111.619 252.682 123.922 255.686C136.324 258.719 149.122 260.194 161.892 259.839C173.982 259.513 186.029 257.529 197.566 253.943C209.061 250.371 220.074 245.184 230.066 238.452C231.327 237.601 232.574 236.723 233.807 235.815C234.53 235.277 233.836 234.058 233.099 234.597H233.085Z" fill="black"/>
<path d="M178.475 113.004C178.56 113.585 177.809 114.152 177.284 113.627C176.278 112.607 174.747 112.621 173.457 113.004C171.898 113.472 170.424 114.379 169.049 115.243C168.468 115.612 167.916 115.002 168.015 114.478C167.859 111.119 167.462 107.774 167.108 104.443C166.498 98.5896 165.861 92.7502 165.152 86.9249C164.783 83.9769 164.401 81.043 163.975 78.1233C163.763 76.6209 163.55 75.1186 163.309 73.6304C163.21 72.9642 163.111 72.2981 162.955 71.6319C160.631 79.0588 158.179 86.443 155.557 93.7565C155.542 93.7848 155.528 93.8132 155.5 93.8415C155.542 94.21 155.316 94.6352 154.834 94.6636C146.372 95.3297 137.911 95.8966 129.435 96.3927C128.982 96.4211 128.627 95.925 128.755 95.4998C130.725 88.7675 132.185 81.8934 133.106 74.9485L129.138 82.3753C127.493 85.4509 125.863 88.5265 124.219 91.588C123.397 93.1328 122.547 94.6494 121.626 96.1376C120.86 97.3707 120.152 98.1644 118.649 98.3344C111.605 99.1423 104.519 99.6242 97.4602 100.262C96.9783 100.305 96.6807 99.7659 96.7657 99.3549C98.0697 93.799 98.8917 88.1438 99.2886 82.4603C94.7673 92.1691 89.4806 101.509 83.4853 110.382C83.457 110.424 83.4145 110.453 83.3861 110.481C83.2302 112.196 83.0743 113.925 82.8617 115.64C82.7767 116.335 81.9688 116.59 81.5436 115.994C80.6932 114.79 79.4743 113.826 78.0995 113.259C77.0081 112.805 75.3357 112.338 74.4286 113.358C74.301 113.5 74.1593 113.557 74.0317 113.571C73.6491 113.826 72.9262 113.642 72.8412 113.018C72.5719 110.935 72.331 108.837 72.1467 106.739C70.9845 92.5943 73.89 78.4493 81.1326 66.1752C88.0917 54.383 98.75 45.1562 111.407 39.9546C114.241 38.7924 117.218 37.8428 120.251 37.0774C117.558 35.3058 115.956 32.1168 115.418 28.9561C114.567 24.0805 115.63 18.9639 117.955 14.6411C126.374 -1.04877 148.782 -4.22359 162.771 5.59851C169.092 10.0348 173.953 17.1498 174.124 25.0585C174.223 29.5797 172.834 34.2002 170.92 38.2538C169.461 41.3436 167.448 44.1924 164.783 46.3184C170.58 51.8318 174.804 59.0177 177.355 66.6713C182.33 81.5958 180.856 97.7533 178.475 113.004Z" fill="black"/>
<path d="M121.19 102.827C119.248 98.6604 115.535 95.1313 111.509 92.9769C108.32 91.2761 105.032 91.0635 101.716 91.4746C101.546 91.4037 97.8747 91.9706 96.3865 92.5376C96.344 92.5376 96.3156 92.5517 96.2731 92.5659C96.1456 92.5942 96.0464 92.6651 95.9471 92.7218C89.9377 95.188 85.5014 100.659 83.9991 107.193C82.1424 115.272 84.3392 125.009 91.7944 129.544C107.81 139.295 128.999 119.594 121.204 102.827H121.19ZM115.52 122.103C110.829 127.758 102.92 130.933 95.7771 128.339C88.5629 125.717 85.629 117.922 86.281 110.75C86.8762 104.117 90.8589 97.81 96.9534 95.3013C96.9818 95.3013 97.0101 95.3013 97.0385 95.3013C101.007 94.295 105.245 93.2604 109.171 94.9895C112.331 96.3785 115.294 98.873 117.278 101.694C121.672 107.972 120.269 116.405 115.549 122.103H115.52Z" fill="black"/>
<path d="M168.073 102.105C166.131 97.9376 162.417 94.4085 158.392 92.2541C155.203 90.5534 151.915 90.3408 148.598 90.7518C148.428 90.6809 144.758 91.2478 143.269 91.8148C143.227 91.8148 143.198 91.829 143.156 91.8431C143.028 91.8715 142.929 91.9423 142.83 91.999C136.82 94.4652 132.384 99.9361 130.882 106.47C129.025 114.549 131.222 124.286 138.677 128.821C154.693 138.573 175.882 118.872 168.087 102.105H168.073ZM162.403 121.38C157.712 127.035 149.803 130.21 142.66 127.617C135.446 124.994 132.512 117.199 133.164 110.027C133.759 103.394 137.742 97.0873 143.836 94.5786C143.865 94.5786 143.893 94.5786 143.921 94.5786C147.89 93.5723 152.128 92.5376 156.054 94.2668C159.214 95.6557 162.177 98.1502 164.161 100.971C168.554 107.25 167.151 115.683 162.432 121.38H162.403Z" fill="black"/>
<path d="M130.832 109.673C129.145 109.333 127.416 109.177 125.701 109.248C124.808 109.29 123.915 109.389 123.023 109.531C122.158 109.673 120.982 109.758 120.556 110.665C120.23 111.331 120.344 112.224 121.067 112.607C121.563 112.862 122.243 112.834 122.682 112.479C122.725 112.479 122.767 112.465 122.796 112.451C122.98 112.408 123.178 112.38 123.363 112.338C123.519 112.309 123.689 112.281 123.845 112.252C123.915 112.252 123.972 112.238 124.043 112.224C124.043 112.224 124.071 112.224 124.114 112.224C124.794 112.139 125.489 112.097 126.169 112.082C127.558 112.054 128.791 112.167 130.052 112.423C130.775 112.564 131.612 112.21 131.796 111.43C131.952 110.722 131.583 109.843 130.804 109.687L130.832 109.673Z" fill="black"/>
<path d="M30.3286 248.94C26.7428 247.438 23.1853 245.836 19.6561 244.192C17.5727 243.214 15.0782 243.611 13.8451 245.723C12.7679 247.565 13.2781 250.556 15.3758 251.534C19.5711 253.504 23.8089 255.361 28.0751 257.146C30.2011 258.039 32.7523 256.197 33.305 254.17C33.9853 251.718 32.4688 249.833 30.3286 248.94Z" fill="#F4E140"/>
<path d="M46.8485 231.492C44.9209 234.696 42.8233 237.785 40.5556 240.776C39.1666 242.604 40.2721 245.538 42.0863 246.587C44.269 247.863 46.5083 246.899 47.8973 245.056C50.1509 242.08 52.2485 238.976 54.1903 235.773C57.0249 231.067 49.669 226.801 46.8485 231.478V231.492Z" fill="#F4E140"/>
<path d="M39.8011 267.705C43.4011 269.874 46.9586 272.113 50.4736 274.438C55.0516 277.457 59.587 270.257 55.0232 267.252C51.5082 264.927 47.9507 262.688 44.3507 260.519C39.6594 257.699 35.1097 264.885 39.8011 267.705Z" fill="#F4E140"/>
<path d="M30.5137 287.534L18.4948 283.792C13.2648 282.162 11.0113 290.368 16.227 291.998L28.246 295.74C33.4759 297.37 35.7295 289.164 30.5137 287.534Z" fill="#F4E140"/>
<path d="M74.2485 256.083C70.5493 255.119 66.921 253.929 63.4343 252.384C61.3367 251.449 58.8705 251.775 57.6233 253.915C56.5603 255.729 57.0422 258.804 59.154 259.726C63.3351 261.568 67.5729 263.127 71.995 264.275C77.2958 265.65 79.5635 257.458 74.2627 256.069L74.2485 256.083Z" fill="#F4E140"/>
<path d="M74.1815 274.466C70.5248 277.754 66.9248 281.127 63.3956 284.572C59.4696 288.398 65.4791 294.408 69.4051 290.581C72.9342 287.137 76.5343 283.778 80.191 280.476C84.2729 276.805 78.2351 270.809 74.1815 274.466Z" fill="#F4E140"/>
<path d="M99.052 284.727C95.6078 283.75 92.1212 282.913 88.6062 282.219C86.3527 281.779 84.0141 282.857 83.3763 285.195C82.8094 287.279 84.085 289.986 86.3527 290.425C89.8677 291.12 93.3543 291.956 96.7984 292.934C102.071 294.436 104.324 286.23 99.0661 284.727H99.052Z" fill="#F4E140"/>
<path d="M102.352 267.167C99.5028 263.907 96.4697 260.831 93.2382 257.968C91.5232 256.437 88.9154 256.282 87.2287 257.968C85.6838 259.513 85.4996 262.447 87.2287 263.978C90.4602 266.855 93.5075 269.916 96.3422 273.176C97.8445 274.905 100.807 274.721 102.352 273.176C104.067 271.461 103.868 268.896 102.352 267.167Z" fill="#F4E140"/>
<path d="M114.677 268.768C112.381 272.666 109.915 276.45 107.236 280.107C105.876 281.964 106.924 284.855 108.767 285.918C110.921 287.18 113.232 286.258 114.578 284.387C117.243 280.731 119.723 276.961 122.019 273.049C124.797 268.315 117.455 264.035 114.677 268.754V268.768Z" fill="#F4E140"/>
<path d="M142.227 262.773C139.166 261.752 136.317 260.42 133.539 258.776C128.805 255.998 124.525 263.34 129.245 266.118C132.632 268.116 136.232 269.718 139.974 270.965C145.175 272.708 147.401 264.502 142.242 262.759L142.227 262.773Z" fill="#F4E140"/>
<path d="M140.894 283.14C136.657 282.686 132.433 282.077 128.238 281.34C122.88 280.404 120.584 288.597 125.97 289.546C130.916 290.411 135.891 291.105 140.894 291.644C143.176 291.885 145.146 289.518 145.146 287.392C145.146 284.883 143.19 283.381 140.894 283.14Z" fill="#F4E140"/>
<path d="M159.141 262.419C157.157 266.104 155.017 269.69 152.721 273.19C149.702 277.768 157.058 282.035 160.063 277.485C162.359 273.984 164.499 270.398 166.483 266.713C169.077 261.894 161.735 257.6 159.141 262.419Z" fill="#F4E140"/>
<path d="M188.375 261.795C185.327 261.597 182.28 261.327 179.247 260.916C176.979 260.605 174.683 261.469 174.017 263.893C173.478 265.877 174.697 268.811 176.993 269.123C180.778 269.647 184.562 270.058 188.389 270.313C190.685 270.455 192.641 268.258 192.641 266.061C192.641 263.638 190.685 261.951 188.389 261.809L188.375 261.795Z" fill="#F4E140"/>
<path d="M181.877 282.913C177.937 282.843 173.996 282.786 170.056 282.715C164.585 282.616 164.585 291.12 170.056 291.219C173.996 291.29 177.937 291.347 181.877 291.417C187.348 291.517 187.348 283.013 181.877 282.913Z" fill="#F4E140"/>
<path d="M200.807 263.014C199.701 267.436 198.312 271.759 196.597 275.983C195.733 278.109 197.533 280.66 199.573 281.213C201.997 281.879 203.939 280.376 204.803 278.236C206.504 274.012 207.907 269.69 209.013 265.268C210.331 259.953 202.139 257.685 200.807 263V263.014Z" fill="#F4E140"/>
<path d="M225.216 248.231C221.488 250.088 217.704 251.831 213.849 253.376C211.723 254.227 210.221 256.211 210.873 258.606C211.425 260.633 213.962 262.433 216.102 261.583C220.652 259.754 225.117 257.77 229.496 255.573C234.386 253.121 230.092 245.794 225.202 248.231H225.216Z" fill="#F4E140"/>
<path d="M240.497 251.959C238.484 251.406 235.621 252.639 235.267 254.935L233.424 266.968C233.07 269.236 234.005 271.546 236.401 272.198C238.413 272.751 241.276 271.518 241.63 269.222L243.473 257.189C243.827 254.921 242.892 252.611 240.497 251.959Z" fill="#F4E140"/>
<path d="M224.405 278.151C220.663 279.937 216.822 281.397 212.868 282.602C207.652 284.203 209.877 292.41 215.136 290.808C219.785 289.377 224.306 287.591 228.699 285.493C233.632 283.14 229.323 275.799 224.405 278.151Z" fill="#F4E140"/>
<path d="M19.655 261.313C15.9132 263.099 12.0723 264.559 8.11793 265.764C2.90216 267.365 5.12737 275.572 10.3857 273.97C15.0345 272.538 19.5558 270.753 23.9495 268.655C28.8818 266.302 24.5731 258.96 19.655 261.313Z" fill="#F4E140"/>
<path d="M51.1947 287.506C49.2247 284.515 47.127 281.61 44.9018 278.803C43.4845 277.003 41.0041 276.295 38.9915 277.655C37.1915 278.86 36.412 281.751 37.8435 283.565C40.0687 286.386 42.1522 289.277 44.1364 292.268C47.1554 296.846 54.2137 292.084 51.1947 287.52V287.506Z" fill="#F4E140"/>
<path d="M79.656 246.998C77.3883 243.483 75.2906 239.869 73.3489 236.17C70.7977 231.308 63.4984 235.674 66.0355 240.507C67.9772 244.206 70.0749 247.82 72.3426 251.335C75.3048 255.942 82.6182 251.604 79.656 246.998Z" fill="#F4E140"/>
</g>
<defs>
<clipPath id="clip0_1367_10321">
<rect width="515.1" height="300.814" fill="white" transform="translate(0.453125)"/>
</clipPath>
</defs>
</svg>
