<svg width="516" height="284" viewBox="0 0 516 284" fill="none" xmlns="http://www.w3.org/2000/svg">
<g clip-path="url(#clip0_1367_9713)">
<path d="M511.333 238.107C510.887 238.294 510.426 238.467 509.98 238.611C508.698 239.057 507.388 239.388 506.064 239.604C499.917 240.583 494.475 238.769 489.077 235.947C483.923 233.255 478.122 229.268 472.018 230.952C466.403 232.492 462.387 237.358 457.247 239.892C451.95 242.483 446.35 242.195 440.894 240.209C435.582 238.265 430.701 235.228 425.26 233.615C422.712 232.867 420.034 232.449 417.385 232.924C414.621 233.428 412.131 234.753 409.799 236.25C404.976 239.359 400.628 243.304 395.086 245.103C388.104 247.378 380.863 245.06 374.529 241.979C368.9 239.23 363.775 235.559 357.253 237.272C347.292 239.878 340.151 248.933 329.685 250.271C318.399 251.725 311.993 241.907 303.571 236.495C299.137 233.644 294.459 233.183 289.737 235.703C284.684 238.395 280.624 242.67 275.355 245.017C263.997 250.07 253.502 242.8 243.425 238.179C238.156 235.746 232.398 233.99 226.611 235.53C224.624 236.048 222.724 236.912 220.982 238.035C220.161 238.553 219.384 239.129 218.664 239.777C219.355 238.049 220.161 236.365 221.083 234.753C221.385 234.206 221.716 233.659 222.061 233.126C222.234 232.867 222.393 232.608 222.58 232.349C223.328 232.046 224.106 231.773 224.883 231.557C226.596 231.039 228.367 230.722 230.152 230.621C235.997 230.29 241.611 232.521 246.779 234.997C251.904 237.445 256.871 240.468 262.428 241.879C268.056 243.318 272.951 241.907 277.687 238.726C282.337 235.602 286.656 231.47 292.242 230.103C297.395 228.836 302.391 230.405 306.652 233.371C310.884 236.322 314.397 240.18 318.672 243.045C322.876 245.866 327.339 246.845 332.233 245.305C342.037 242.224 349.321 233.169 360.032 232.478C366.913 232.032 372.499 236.408 378.473 239.086C381.798 240.554 385.412 241.72 389.083 241.72C392.192 241.72 395.043 240.741 397.72 239.215C402.701 236.394 406.905 232.32 412.203 230.06C417.558 227.756 423.115 228.174 428.499 230.146C433.797 232.104 438.677 235.141 444.104 236.725C446.681 237.473 449.387 237.848 452.036 237.229C454.858 236.581 457.305 234.983 459.637 233.313C464.402 229.93 469.153 226.086 475.329 226.245C481.648 226.389 487.047 230.132 492.503 232.867C497.513 235.372 502.595 236.322 507.907 234.738C508.31 234.623 508.727 234.479 509.13 234.335C509.188 234.306 509.26 234.292 509.317 234.263C509.418 234.422 509.505 234.594 509.605 234.753C510.239 235.847 510.815 236.97 511.333 238.107Z" fill="#4A74EB"/>
<path d="M515.541 260.737C515.066 261.054 514.591 261.342 514.087 261.63C511.596 263.026 508.847 264.005 506.068 264.451C499.921 265.416 494.48 263.616 489.081 260.795C483.927 258.103 478.126 254.115 472.022 255.785C466.408 257.34 462.391 262.205 457.252 264.725C451.954 267.33 446.354 267.028 440.898 265.056C435.586 263.112 430.706 260.075 425.264 258.462C422.716 257.699 420.038 257.296 417.39 257.771C414.626 258.275 412.135 259.585 409.803 261.097C404.98 264.192 400.633 268.151 395.09 269.95C388.108 272.225 380.867 269.907 374.533 266.826C368.904 264.077 363.779 260.406 357.258 262.119C347.296 264.725 340.155 273.78 329.69 275.118C318.403 276.558 311.997 266.754 303.575 261.342C299.142 258.491 294.463 258.016 289.741 260.55C284.688 263.242 280.628 267.517 275.36 269.864C264.001 274.917 253.507 267.647 243.429 263.012C238.16 260.579 232.402 258.837 226.615 260.377C222.93 261.356 219.489 263.443 216.941 266.308C216.48 266.812 216.063 267.33 215.674 267.877C215.444 265.891 215.3 263.875 215.242 261.874C215.688 261.457 216.149 261.054 216.639 260.665C220.482 257.628 225.262 255.756 230.156 255.468C236.001 255.137 241.615 257.368 246.784 259.83C251.909 262.277 256.875 265.315 262.432 266.726C268.061 268.165 272.955 266.754 277.692 263.573C282.342 260.449 286.66 256.317 292.246 254.935C297.4 253.669 302.395 255.252 306.656 258.218C310.889 261.154 314.401 265.027 318.677 267.892C322.88 270.713 327.343 271.692 332.238 270.152C342.041 267.071 349.326 258.002 360.036 257.311C366.917 256.865 372.503 261.255 378.477 263.918C381.803 265.401 385.416 266.567 389.087 266.567C392.197 266.567 395.047 265.574 397.725 264.062C402.706 261.226 406.909 257.167 412.207 254.892C417.562 252.603 423.119 253.006 428.503 254.993C433.801 256.951 438.681 259.988 444.108 261.572C446.685 262.321 449.392 262.68 452.04 262.076C454.862 261.428 457.309 259.83 459.642 258.16C464.407 254.763 469.157 250.933 475.333 251.077C481.653 251.236 487.051 254.979 492.507 257.699C497.906 260.406 503.376 261.313 509.135 259.182C510.877 258.534 512.547 257.642 514.044 256.519C514.519 256.174 514.979 255.799 515.426 255.411C515.454 255.77 515.469 256.116 515.483 256.476C515.555 257.887 515.57 259.312 515.541 260.737Z" fill="#4A74EB"/>
<path d="M466.945 207.645C466.412 207.991 465.894 208.351 465.361 208.725C462.684 210.625 460.15 212.799 457.242 214.224C451.944 216.83 446.344 216.528 440.888 214.541C435.576 212.612 430.696 209.574 425.254 207.962C422.706 207.199 420.028 206.782 417.38 207.271C414.616 207.775 412.125 209.085 409.793 210.597C404.97 213.692 400.623 217.636 395.08 219.45C388.098 221.725 380.857 219.407 374.523 216.312C368.894 213.577 363.769 209.906 357.248 211.604C347.286 214.224 340.146 223.265 329.68 224.618C318.393 226.058 311.987 216.254 303.566 210.841C299.132 207.991 294.453 207.516 289.731 210.035C284.678 212.742 280.618 217.017 275.35 219.364C265.56 223.711 256.419 218.917 247.623 214.555C247.062 214.268 246.515 213.994 245.953 213.72C246.471 213.476 247.004 213.245 247.537 213.015C248.746 212.497 249.955 212.007 251.193 211.547C251.769 211.835 252.359 212.137 252.935 212.425C256.001 213.965 259.111 215.376 262.422 216.225C268.051 217.651 272.945 216.254 277.682 213.058C282.332 209.934 286.65 205.803 292.236 204.435C297.39 203.168 302.385 204.752 306.646 207.717C310.879 210.654 314.391 214.527 318.667 217.391C322.87 220.199 327.333 221.192 332.228 219.652C342.031 216.556 349.316 207.501 360.026 206.81C366.908 206.364 372.493 210.755 378.467 213.418C381.793 214.901 385.406 216.067 389.077 216.067C392.187 216.053 395.037 215.074 397.715 213.548C402.696 210.726 406.899 206.652 412.197 204.392C417.552 202.103 423.109 202.506 428.493 204.493C433.791 206.436 438.671 209.488 444.098 211.072C446.675 211.806 449.382 212.18 452.031 211.575C454.852 210.913 457.299 209.315 459.632 207.66C459.761 207.573 459.876 207.487 460.006 207.386C460.524 207.026 461.042 206.652 461.561 206.278C463.36 206.71 465.16 207.17 466.945 207.645Z" fill="#4A74EB"/>
<path d="M344.928 100.67C347.464 100.67 349.521 98.3627 349.521 95.5164C349.521 92.6701 347.464 90.3627 344.928 90.3627C342.392 90.3627 340.336 92.6701 340.336 95.5164C340.336 98.3627 342.392 100.67 344.928 100.67Z" fill="black"/>
<path d="M352.321 83.9711C351.745 84.7196 350.795 85.0651 349.917 85.3675C348.766 85.7561 347.599 85.9865 346.419 86.2024C344.159 86.6199 341.927 87.0086 339.811 87.8867C338.688 88.3474 337.652 88.9664 336.558 89.4847C335.824 89.8302 334.859 90.2908 334.096 89.8014C332.57 88.8081 333.88 86.3608 334.658 85.3531C335.392 84.4029 336.299 83.5824 337.278 82.877C339.451 81.0631 342.115 79.8683 344.907 79.3644C346.836 79.0333 348.938 78.8893 350.738 79.7963C352.235 80.5449 353.531 82.3875 352.292 83.9711H352.321Z" fill="black"/>
<path d="M389.874 101.404C392.41 101.404 394.466 99.0969 394.466 96.2506C394.466 93.4043 392.41 91.0969 389.874 91.0969C387.337 91.0969 385.281 93.4043 385.281 96.2506C385.281 99.0969 387.337 101.404 389.874 101.404Z" fill="black"/>
<path d="M382.49 84.705C383.066 85.4535 384.016 85.799 384.894 86.1013C386.046 86.49 387.212 86.7204 388.392 86.9363C390.652 87.3538 392.884 87.7425 395 88.6206C396.123 89.0813 397.159 89.7003 398.253 90.2185C398.988 90.564 399.952 91.0247 400.715 90.5353C402.241 89.5419 400.931 87.0947 400.154 86.087C399.419 85.1368 398.513 84.3163 397.534 83.6109C395.36 81.797 392.697 80.6021 389.904 80.0983C387.975 79.7672 385.873 79.6232 384.073 80.5302C382.576 81.2787 381.281 83.1214 382.519 84.705H382.49Z" fill="black"/>
<path d="M338.834 131.408C343.938 130.993 347.704 126.09 347.247 120.456C346.789 114.822 342.282 110.59 337.178 111.004C332.075 111.418 328.308 116.321 328.765 121.956C329.223 127.59 333.731 131.822 338.834 131.408Z" fill="#FF714B"/>
<path d="M402.754 121.912C403.212 116.278 399.445 111.374 394.342 110.96C389.238 110.546 384.731 114.778 384.273 120.412C383.816 126.046 387.582 130.95 392.686 131.364C397.789 131.778 402.297 127.546 402.754 121.912Z" fill="#FF714B"/>
<path d="M332.044 148.637C331.972 149.357 331.914 150.091 331.828 150.811C331.108 158.57 330.288 166.315 329.366 174.06C329.323 174.535 329.265 175.01 329.208 175.485C328.747 179.386 328.272 183.288 327.768 187.189C327.898 187.333 327.984 187.534 327.984 187.707C327.984 187.938 327.869 188.125 327.624 188.24C327.351 188.369 327.092 188.513 326.818 188.643C325.782 189.161 324.731 189.665 323.68 190.154C313.272 195.078 302.446 199.137 291.347 202.261C288.64 203.024 285.905 203.715 283.17 204.378C274.561 206.451 265.88 208.236 257.444 210.884C255.933 211.36 254.421 211.863 252.938 212.425C252.391 212.612 251.859 212.814 251.326 213.015C250.074 213.49 248.85 213.994 247.626 214.555C241.551 217.19 235.807 220.573 230.855 225.021C230.452 225.381 230.063 225.741 229.689 226.115C227.933 227.785 226.32 229.613 224.881 231.557C224.118 232.579 223.412 233.659 222.75 234.753C222.433 235.257 222.145 235.775 221.858 236.293C221.541 236.869 221.253 237.445 220.979 238.035C219.482 241.159 218.431 244.456 217.74 247.839C217.51 248.918 217.337 249.998 217.179 251.078C216.934 252.877 216.761 254.677 216.689 256.476C216.617 257.872 216.603 259.269 216.632 260.665C216.646 262.551 216.761 264.437 216.934 266.308C217.021 267.402 217.136 268.497 217.28 269.576C217.64 272.47 218.143 275.363 218.719 278.214C218.964 279.437 219.223 280.632 219.497 281.841C219.54 282.029 219.569 282.187 219.612 282.36C219.713 282.777 219.482 283.079 219.166 283.195H219.151C218.791 283.339 218.345 283.223 218.23 282.734C217.942 281.453 217.654 280.172 217.395 278.89C217.352 278.66 217.308 278.444 217.265 278.214C216.689 275.363 216.214 272.484 215.854 269.576C215.782 269.015 215.725 268.453 215.667 267.878C215.437 265.891 215.293 263.875 215.235 261.874C215.178 260.075 215.178 258.275 215.264 256.476C215.379 253.568 215.696 250.689 216.272 247.839C216.301 247.666 216.33 247.493 216.373 247.32C216.92 244.743 217.668 242.21 218.662 239.777C219.353 238.049 220.159 236.365 221.08 234.753C221.382 234.206 221.714 233.659 222.059 233.126C222.232 232.867 222.39 232.608 222.577 232.349C224.06 230.117 225.773 228.044 227.645 226.115C228.94 224.791 230.308 223.538 231.748 222.372C236.095 218.845 240.889 216.009 245.956 213.72C246.475 213.476 247.007 213.245 247.54 213.015C248.749 212.497 249.958 212.007 251.196 211.547C253.86 210.51 256.581 209.618 259.316 208.811C265.088 207.113 270.933 205.745 276.792 204.378C282.522 203.039 288.237 201.7 293.88 200.03C305.037 196.719 315.892 192.443 326.314 187.275C327.97 174.42 329.409 161.536 330.604 148.637C330.604 148.594 330.619 148.551 330.633 148.507C330.806 147.845 331.756 147.773 331.986 148.291C332.029 148.392 332.058 148.507 332.044 148.637Z" fill="black"/>
<path d="M515.535 260.737C515.492 263.688 515.261 266.639 514.887 269.576C514.542 272.47 514.052 275.363 513.476 278.214C513.433 278.458 513.39 278.718 513.332 278.962C513.073 280.258 512.8 281.539 512.497 282.82C512.382 283.31 511.922 283.425 511.562 283.281H511.547C511.231 283.151 511.015 282.864 511.115 282.446C511.159 282.245 511.202 282.057 511.245 281.856C511.519 280.632 511.778 279.437 512.022 278.214C512.598 275.363 513.102 272.47 513.462 269.576C513.793 266.942 514.009 264.279 514.081 261.63C514.139 259.917 514.124 258.218 514.038 256.519V256.476C513.951 254.705 513.793 252.935 513.548 251.164C513.39 250.055 513.203 248.947 512.958 247.839C512.31 244.671 511.331 241.562 509.978 238.611C509.633 237.862 509.273 237.114 508.87 236.379C508.567 235.832 508.265 235.285 507.92 234.753C507.92 234.753 507.92 234.738 507.905 234.738C505.991 231.557 503.644 228.692 500.952 226.115C500.606 225.77 500.232 225.439 499.872 225.108C493.869 219.709 486.7 215.88 479.171 213.015C477.228 212.266 475.255 211.59 473.283 210.971C470.663 210.15 468.014 209.402 465.365 208.725C463.58 208.25 461.795 207.818 460.01 207.386C455.749 206.364 451.473 205.414 447.212 204.378C444.592 203.744 441.972 203.068 439.381 202.348C428.281 199.224 417.47 195.164 407.047 190.241C406.227 189.852 405.421 189.478 404.615 189.075C404.168 188.859 403.736 188.643 403.304 188.427C403.247 188.384 403.175 188.355 403.117 188.326C402.628 188.096 402.685 187.592 402.959 187.275C401.318 174.449 399.878 161.593 398.683 148.723C398.597 147.802 400.037 147.802 400.123 148.723C401.332 161.622 402.757 174.506 404.413 187.362C404.543 187.419 404.658 187.491 404.787 187.549C415.095 192.631 425.82 196.834 436.847 200.116C442.361 201.758 447.961 203.082 453.575 204.378C456.238 204.997 458.902 205.616 461.565 206.278C463.364 206.71 465.164 207.17 466.949 207.645C468.446 208.049 469.929 208.466 471.412 208.898C475.342 210.05 479.243 211.403 483.015 213.015C488.715 215.462 494.143 218.514 498.98 222.459C500.39 223.61 501.744 224.82 503.011 226.115C505.127 228.275 507.041 230.636 508.668 233.198C508.898 233.558 509.114 233.903 509.316 234.263C509.417 234.422 509.503 234.594 509.604 234.753C510.237 235.847 510.813 236.97 511.331 238.107C512.685 241.087 513.692 244.211 514.355 247.407C514.383 247.551 514.412 247.695 514.441 247.839C514.945 250.343 515.261 252.877 515.42 255.411C515.449 255.771 515.463 256.116 515.477 256.476C515.549 257.887 515.564 259.312 515.535 260.737Z" fill="black"/>
<path d="M511.42 281.856H219.543C218.621 281.856 218.621 283.295 219.543 283.295H511.42C512.341 283.295 512.341 281.856 511.42 281.856Z" fill="black"/>
<path d="M403.691 187.909C400.682 192.184 395.96 194.819 391.138 196.575C386.099 198.432 380.758 199.612 375.417 200.188C364.635 201.354 353.608 200.059 343.387 196.402C340.522 195.38 337.729 194.171 335.023 192.789C333.655 192.083 332.302 191.335 330.977 190.529C329.667 189.723 328.444 188.816 327.781 187.39C327.393 186.555 326.155 187.275 326.543 188.11C327.681 190.543 330.329 191.867 332.575 193.091C335.037 194.444 337.585 195.654 340.191 196.704C345.517 198.864 351.117 200.375 356.804 201.21C367.975 202.851 379.592 202.017 390.288 198.374C395.917 196.46 401.402 193.581 404.9 188.614C405.433 187.851 404.195 187.131 403.662 187.894L403.691 187.909Z" fill="black"/>
<path d="M385.165 141.021C374.8 145.815 362.751 146.434 351.925 142.835C351.047 142.547 350.672 143.929 351.536 144.217C362.736 147.946 375.174 147.212 385.885 142.26C386.72 141.871 386 140.633 385.165 141.021Z" fill="black"/>
<path d="M308.315 109.379C306.832 106.169 306.069 102.469 306.386 98.9281C306.688 95.5451 308.444 91.9461 311.784 90.6649C315.57 89.2109 319.774 91.2695 321.156 95.0124C321.199 95.142 321.285 95.2284 321.372 95.3147C321.861 103.679 322.739 112.028 323.92 120.335C317.053 120.076 311.151 115.541 308.315 109.379ZM369.08 169.712C368.979 169.655 368.849 169.64 368.706 169.655C367.583 169.799 366.46 169.871 365.351 169.871C364.099 169.899 362.846 169.842 361.623 169.712C350.999 168.647 341.296 162.414 335.206 153.517C334.04 151.818 333.018 150.062 332.125 148.248C330.096 144.145 328.699 139.755 327.807 135.22C326.31 127.619 325.287 119.888 324.366 112.201C323.33 103.52 322.624 94.7821 322.423 86.0438C322.408 85.1081 320.969 85.1081 320.983 86.0438C321.026 88.088 321.098 90.1466 321.199 92.1908C319.572 90.0747 317.053 88.7215 314.246 88.7646C310.33 88.8222 307.221 91.5574 305.824 95.0844C304.298 98.9281 304.759 103.463 305.983 107.321C307.192 111.078 309.322 114.576 312.331 117.168C315.628 119.989 319.788 121.688 324.121 121.789C324.712 125.791 325.359 129.764 326.065 133.723C326.986 138.862 328.411 143.857 330.657 148.522C331.031 149.299 331.42 150.062 331.852 150.825C332.269 151.574 332.701 152.308 333.162 153.042C336.66 158.512 341.353 163.22 346.982 166.459C352.553 169.655 358.945 171.425 365.351 171.31C366.474 171.31 367.597 171.224 368.706 171.094C369.468 170.994 369.598 169.971 369.08 169.712Z" fill="black"/>
<path d="M319.15 115.095C316.717 114.648 315.465 112.043 316.084 109.754C316.415 108.53 317.149 107.479 318.085 106.63C318.43 106.313 318.891 106.083 319.193 105.709C319.524 105.305 319.539 104.816 319.553 104.327C319.654 101.951 318.992 99.5327 317.739 97.5029C316.631 95.7179 314.73 93.6305 312.398 93.976C309.606 94.3934 308.958 97.6325 309.893 99.8638C310.239 100.713 311.635 100.339 311.275 99.4752C310.728 98.1795 310.584 96.2361 312.125 95.5307C313.521 94.8829 314.961 96.1929 315.767 97.2006C316.717 98.3667 317.394 99.7631 317.768 101.231C317.941 101.908 318.056 102.613 318.099 103.319C318.113 103.607 318.113 103.895 318.099 104.183C318.099 104.672 318.099 104.758 317.725 105.061C315.767 106.659 314.212 108.904 314.471 111.553C314.702 113.885 316.386 116.045 318.747 116.477C319.654 116.649 320.043 115.253 319.136 115.095H319.15Z" fill="black"/>
<path d="M406.761 120.335C407.941 112.028 408.82 103.679 409.309 95.3147C409.395 95.2428 409.467 95.142 409.525 95.0124C410.907 91.2695 415.125 89.2109 418.897 90.6649C422.237 91.9461 423.993 95.5451 424.295 98.9281C424.612 102.455 423.849 106.169 422.366 109.379C419.53 115.541 413.628 120.076 406.761 120.335ZM424.871 95.07C423.46 91.543 420.351 88.8078 416.435 88.7502C413.628 88.7071 411.123 90.0603 409.482 92.1764C409.583 90.1322 409.654 88.0736 409.698 86.0294C409.712 85.0937 408.272 85.0937 408.258 86.0294C408.071 94.7677 407.351 103.506 406.315 112.187C405.393 119.874 404.371 127.605 402.874 135.206C401.578 141.756 399.261 147.989 395.475 153.503C393.92 155.777 392.12 157.879 390.119 159.779C390.119 159.779 390.11 159.789 390.09 159.808C386.952 162.788 383.324 165.221 379.394 166.948C376.126 168.402 372.643 169.352 369.058 169.698C367.834 169.827 366.582 169.885 365.329 169.856C364.221 169.856 363.098 169.784 361.975 169.64C361.831 169.626 361.702 169.64 361.601 169.698C361.083 169.957 361.212 170.979 361.975 171.08C363.084 171.209 364.207 171.296 365.329 171.296C366.855 171.339 368.367 171.253 369.879 171.066C373.161 170.677 376.386 169.813 379.452 168.532C379.466 168.532 379.481 168.517 379.495 168.517C380.935 167.913 382.331 167.222 383.684 166.444C386.506 164.818 389.083 162.831 391.4 160.571C393.704 158.311 395.748 155.763 397.504 153.028C398.382 151.66 399.16 150.264 399.851 148.824C402.197 144.073 403.666 138.977 404.602 133.708C405.307 129.75 405.955 125.776 406.545 121.774C410.878 121.673 415.053 119.975 418.335 117.153C421.344 114.562 423.489 111.064 424.684 107.306C425.907 103.448 426.368 98.9137 424.857 95.07H424.871Z" fill="black"/>
<path d="M411.525 115.095C413.958 114.648 415.211 112.043 414.592 109.754C414.26 108.53 413.526 107.479 412.591 106.63C412.245 106.313 411.784 106.083 411.482 105.709C411.151 105.305 411.137 104.816 411.122 104.327C411.021 101.951 411.684 99.5327 412.936 97.5029C414.045 95.7179 415.945 93.6305 418.277 93.976C421.07 94.3934 421.718 97.6325 420.782 99.8638C420.436 100.713 419.04 100.339 419.4 99.4752C419.947 98.1795 420.091 96.2361 418.55 95.5307C417.154 94.8829 415.714 96.1929 414.908 97.2006C413.958 98.3667 413.282 99.7631 412.907 101.231C412.735 101.908 412.619 102.613 412.576 103.319C412.562 103.607 412.562 103.895 412.576 104.183C412.576 104.672 412.576 104.758 412.95 105.061C414.908 106.659 416.463 108.904 416.204 111.553C415.974 113.885 414.289 116.045 411.928 116.477C411.021 116.649 410.633 115.253 411.54 115.095H411.525Z" fill="black"/>
<path d="M372.598 125.114C372.555 124.193 371.115 124.193 371.159 125.114C371.187 125.733 371.216 126.352 371.245 126.971C371.274 127.691 371.115 127.921 370.381 127.677C369.33 127.345 368.481 126.626 367.891 125.704C367.588 125.215 366.969 125.272 366.653 125.704C365.731 126.971 364.637 128.281 363.327 129.159C362.55 129.678 361.657 129.937 360.952 129.174C360.477 128.67 360.246 127.936 360.074 127.273C359.627 125.604 359.599 123.833 359.584 122.12C359.57 120.378 359.613 118.622 359.699 116.88C360.088 109.826 361.312 102.844 362.535 95.8906C362.694 94.9837 361.312 94.595 361.153 95.5019C360.045 101.836 358.922 108.185 358.418 114.605C358.173 117.787 358.044 120.983 358.202 124.178C358.317 126.352 358.562 129.951 360.952 130.93C363.356 131.923 365.775 129.231 367.272 127.259C368.193 128.324 369.489 129.159 370.885 129.246C373.232 129.39 372.67 126.611 372.584 125.1L372.598 125.114Z" fill="black"/>
<path d="M411.011 85.3529C410.089 77.2912 409.298 69.0136 407.239 61.1679C405.267 53.6821 401.668 47.132 396.442 41.7623C391.677 36.8534 385.919 33.1248 379.714 30.7495C367.29 26.0133 353.528 27.2657 341.968 34.0318C336.339 37.3428 331.344 41.8775 327.428 47.3479C323.268 53.1494 320.331 59.8867 318.445 66.9118C317.495 70.482 316.804 74.1241 316.329 77.795C316.084 79.6233 315.911 81.4516 315.782 83.2943C315.695 84.4747 315.379 86.1302 315.767 87.3683C315.796 87.8577 315.897 88.3328 316.156 88.7503C316.617 89.4845 317.466 89.7724 318.157 90.1898C319.525 91.0248 320.691 92.1477 321.785 93.3137C322.015 93.8752 322.231 94.4366 322.375 95.0124C322.879 96.9415 322.98 98.9425 323.066 100.929C322.951 103.995 322.936 107.062 323.008 110.128C323.052 111.64 323.109 113.166 323.196 114.677C323.253 115.555 324.362 115.67 324.592 115.008C324.866 114.922 325.067 114.677 325.053 114.303C324.88 110.027 324.707 105.766 324.534 101.491C324.52 101.347 324.52 101.217 324.506 101.073C324.779 93.8752 325.557 86.7061 326.881 79.6377C327.428 76.7729 328.047 73.937 328.752 71.101C329.112 69.6902 329.487 68.2938 329.89 66.883C330.221 65.6882 330.538 64.4357 331.085 63.3416C331.603 62.2764 332.337 61.427 333.474 61.2255C334.799 60.9951 336.253 61.2399 337.563 61.3694C340.37 61.6285 343.148 62.0604 345.927 62.5355C351.282 63.4136 356.637 64.3781 362.079 64.5221C367.276 64.6517 372.516 64.119 377.612 62.9961C380.131 62.4347 382.622 61.7293 385.069 60.8656C386.264 60.4481 387.445 60.0018 388.625 59.498C389.69 59.0517 391.116 58.044 392.31 58.3031C393.376 58.5334 394.11 59.6707 394.643 60.5777C395.305 61.7149 395.866 62.8954 396.428 64.0758C397.608 66.5375 398.659 69.1 399.595 71.6768C403.784 83.2942 405.67 95.6746 407.109 107.997C407.225 108.976 408.664 108.991 408.549 107.997C408.549 107.954 408.535 107.911 408.535 107.868C408.621 107.738 408.693 107.594 408.664 107.378C408.29 103.65 407.901 99.7918 408.664 96.0921C408.851 95.1852 409.096 94.2783 409.456 93.4145C409.816 92.5364 410.334 91.7446 410.737 90.8664C411.543 89.0958 411.227 87.2531 411.011 85.3672V85.3529Z" fill="black"/>
<path d="M369.869 171.066C362.441 173.484 354.567 174.362 346.735 174.506C340.948 174.607 335.147 174.348 329.359 174.06C330.281 166.315 331.101 158.57 331.821 150.811C332.239 151.559 332.67 152.293 333.131 153.028C336.629 158.498 341.322 163.205 346.951 166.445C352.522 169.64 358.914 171.411 365.32 171.296C366.846 171.339 368.358 171.253 369.869 171.066Z" fill="black"/>
<path d="M188.563 108.113C187.8 116.692 186.001 125.172 183.841 133.507C181.754 141.612 179.091 149.572 175.477 157.13C172.008 164.371 167.718 171.209 162.751 177.515C162.535 177.803 162.247 177.817 162.003 177.688C161.859 177.673 161.715 177.616 161.585 177.472C158.908 174.362 158.001 170.144 157.295 166.214C156.863 163.781 156.59 161.334 156.46 158.872C156.46 158.757 156.431 158.642 156.431 158.527C156.431 158.181 156.431 157.836 156.431 157.49C156.374 155.835 156.374 154.179 156.46 152.524C156.475 152.034 156.907 151.804 157.295 151.847C157.31 151.818 157.324 151.775 157.338 151.732C158.202 149.63 159.714 147.759 161.009 145.887C162.737 143.008 164.076 139.927 165.055 136.731C164.752 136.616 164.522 136.328 164.666 135.911C166.552 130.656 167.991 125.244 168.913 119.744C169.143 118.334 169.345 116.937 169.517 115.526C169.618 114.749 169.748 113.972 170.352 113.41C171.029 112.791 171.993 112.719 172.828 112.503C173.865 112.23 174.858 111.812 175.78 111.28C179.652 109.077 182.128 105.133 183.453 100.972C184.748 96.8406 185.122 91.7301 181.725 88.4766C178.774 85.6551 173.951 86.4037 172.094 90.089C172.051 90.161 171.993 90.2041 171.95 90.2617C171.792 91.0391 170.525 90.9959 170.539 90.1178C170.597 86.4612 170.223 82.8047 169.417 79.2345C166.667 67.0701 159.181 56.0429 148.701 49.2337C148.312 52.5015 147.794 55.755 147.117 58.9796C145.793 65.2562 143.979 71.5184 141.517 77.4495C141.042 78.6011 140.38 79.4505 139.142 79.7816C137.659 80.1703 136.004 80.1559 134.492 80.2998C131.109 80.6309 127.74 80.962 124.357 81.3075C123.997 81.3363 123.594 80.9476 123.638 80.5877C124.545 73.6346 124.976 66.6382 125.02 59.6418C122.601 65.285 120.183 70.9282 117.764 76.5713C117.26 77.723 116.785 79.033 115.605 79.6376C114.899 79.9975 114.093 79.9975 113.33 80.0119C112.495 80.0407 111.675 80.0695 110.84 80.0983C107.154 80.2135 103.483 80.343 99.798 80.4582C99.3229 80.4726 99.0062 79.9831 99.1069 79.5368C100.46 73.505 101.583 67.43 102.49 61.3118C101.77 62.8521 101.108 64.4212 100.489 66.0192C99.654 68.193 98.8334 70.3811 97.9121 72.5117C96.818 75.1461 95.5799 77.723 94.0252 80.1559C91.5059 84.0859 88.3964 87.6273 84.8406 90.6648C84.8406 90.6792 84.855 90.6936 84.855 90.7224C84.8982 91.327 84.3223 91.5286 83.8761 91.3414C83.2427 91.4422 82.6236 90.6648 83.2283 90.1754C83.257 90.1466 83.2714 90.1322 83.3002 90.1034C82.9116 88.635 81.6159 87.4546 80.3347 86.7204C78.8663 85.871 77.1244 85.5399 75.4977 86.1013C72.5753 87.0947 71.0349 90.2185 70.7758 93.1265C70.5023 96.308 71.2797 99.6478 72.3594 102.628C74.4324 108.343 78.7367 113.353 84.7542 114.936C84.8406 114.965 84.8982 115.008 84.9702 115.037C85.3301 115.037 85.7044 115.253 85.69 115.728C85.5892 119.831 86.1074 123.89 87.1152 127.864C88.0077 131.434 89.2745 134.918 90.8005 138.286C92.2833 141.583 94.1404 144.664 95.7959 147.874C97.0339 150.321 97.437 152.884 97.4802 155.518C97.581 155.633 97.653 155.763 97.653 155.95C97.7393 158.498 97.6242 161.032 97.3219 163.551C97.4082 163.666 97.4658 163.781 97.4802 163.954C97.6962 170.331 93.6653 175.758 89.7784 180.423C82.5085 189.103 73.6262 196.46 63.1172 200.865C57.3444 203.298 51.2693 204.939 45.2231 206.537C38.9608 208.221 32.6986 209.877 26.4364 211.546C26.5084 212.151 25.7598 212.727 25.2271 212.18C22.8518 209.747 21.369 206.781 20.4909 203.614C20.1022 202.635 19.7567 201.642 19.4976 200.62C17.9572 194.559 18.5618 188.052 20.6205 182.179C22.895 175.672 26.9259 169.871 31.4318 164.616C40.7315 153.733 52.6514 144.735 59.403 131.966C63.9809 123.3 65.9532 113.727 67.3784 104.125C67.5799 102.109 67.7383 100.108 67.8822 98.1075C68.7604 85.943 69.4226 73.7209 73.5686 62.1323C77.0092 52.5015 82.3501 43.5041 89.3897 36.0615C96.3285 28.7196 105.009 22.8893 114.683 19.8806C124.069 16.9439 134.262 16.5696 143.849 18.7577C153.394 20.9459 162.334 25.8117 168.884 33.1535C172.915 37.6882 176.039 42.9427 178.659 48.3987C181.221 53.7827 183.323 59.3971 184.921 65.141C187.224 73.4186 188.491 81.9985 188.721 90.5928C189.125 96.4231 189.096 102.282 188.578 108.113H188.563Z" fill="#4A74EB"/>
<path d="M85.1114 113.266C83.6718 113.266 82.2754 112.604 81.0229 111.942C79.8137 111.309 78.6764 110.531 77.6399 109.653C75.5525 107.868 73.8825 105.637 72.8172 103.103C71.6656 100.411 71.1905 97.4022 71.5216 94.4943C71.8239 91.7303 73.0764 88.6784 75.8548 87.5699C79.0651 86.2886 82.3905 88.5056 82.8944 91.7878C83.0383 92.6948 84.4203 92.3061 84.2764 91.3992C83.8013 88.2609 81.1381 85.8856 77.9566 85.7704C74.7607 85.6552 72.1694 87.9442 70.989 90.7657C68.3401 97.1143 70.9026 105.018 75.5957 109.696C76.8481 110.949 78.2733 112.028 79.8137 112.907C81.4116 113.813 83.2543 114.706 85.1257 114.706C86.0471 114.706 86.0471 113.266 85.1257 113.266H85.1114Z" fill="black"/>
<path d="M82.8 107.753C80.1511 107.306 80.511 103.751 80.6838 101.807C80.9141 99.4031 81.5331 96.7398 80.7126 94.3933C80.0935 92.6226 78.438 91.0247 76.437 91.2838C74.7239 91.5142 73.3707 93.3136 73.9609 95.0123C74.2632 95.8761 75.6596 95.5018 75.3429 94.6237C75.0838 93.8607 75.5444 93.0833 76.2786 92.7954C77.1136 92.4643 78.0349 92.9537 78.5964 93.5728C80.0216 95.1419 79.6617 97.6612 79.4601 99.5758C79.1434 102.541 78.0925 108.415 82.3825 109.135C83.2894 109.279 83.6781 107.897 82.7712 107.753H82.8Z" fill="black"/>
<path d="M169.791 113.238C171.231 113.238 172.627 112.575 173.88 111.913C175.089 111.28 176.226 110.502 177.263 109.624C179.35 107.839 181.02 105.608 182.085 103.074C183.237 100.382 183.712 97.3734 183.381 94.4655C183.079 91.7015 181.826 88.6495 179.048 87.5411C175.838 86.2598 172.512 88.4768 172.008 91.759C171.864 92.666 170.482 92.2773 170.626 91.3704C171.101 88.2321 173.765 85.8568 176.946 85.7416C180.142 85.6264 182.733 87.9154 183.914 90.7369C186.563 97.0855 184 104.989 179.307 109.667C178.055 110.92 176.629 112 175.089 112.878C173.491 113.785 171.648 114.677 169.777 114.677C168.856 114.677 168.856 113.238 169.777 113.238H169.791Z" fill="black"/>
<path d="M172.105 107.739C174.753 107.292 174.394 103.737 174.221 101.793C173.99 99.389 173.371 96.7258 174.192 94.3793C174.811 92.6086 176.467 91.0107 178.468 91.2698C180.181 91.5001 181.534 93.2996 180.944 94.9983C180.641 95.862 179.245 95.4878 179.562 94.6096C179.821 93.8466 179.36 93.0693 178.626 92.7813C177.791 92.4502 176.87 92.9397 176.308 93.5587C174.883 95.1279 175.243 97.6471 175.444 99.5618C175.761 102.527 176.812 108.401 172.522 109.121C171.615 109.265 171.226 107.883 172.133 107.739H172.105Z" fill="black"/>
<path d="M104.342 101.534C106.879 101.534 108.935 99.2266 108.935 96.3803C108.935 93.534 106.879 91.2266 104.342 91.2266C101.806 91.2266 99.75 93.534 99.75 96.3803C99.75 99.2266 101.806 101.534 104.342 101.534Z" fill="black"/>
<path d="M100.568 131.736C105.672 131.322 109.438 126.418 108.981 120.784C108.524 115.15 104.016 110.918 98.9125 111.332C93.809 111.746 90.0426 116.65 90.4999 122.284C90.9572 127.918 95.465 132.15 100.568 131.736Z" fill="#FF714B"/>
<path d="M130.568 163.738C130.438 163.608 130.265 163.522 130.021 163.551C129.43 163.608 128.797 163.551 128.192 163.537C127.948 163.537 127.689 163.537 127.444 163.522H127.429C127.113 163.537 126.782 163.537 126.465 163.537C126.393 163.537 126.321 163.537 126.249 163.551C125.63 163.551 125.011 163.537 124.392 163.522C113.912 163.061 103.921 158.023 97.5147 149.544C93.6422 144.419 91.4253 138.301 89.5682 132.226C87.5672 125.748 86.1564 113.338 85.3502 106.615C84.688 101.073 84.4433 95.4875 84.6016 89.9019C84.5872 89.9019 84.5728 89.9019 84.5584 89.9019C84.2417 89.8587 83.925 89.8156 83.6083 89.7724C83.4499 89.7292 83.3204 89.6716 83.1764 89.614C82.7877 102.844 84.3137 119.356 87.7111 130.988C89.5394 137.293 91.7132 143.785 95.5137 149.213C96.0032 149.918 96.5214 150.609 97.0829 151.271C97.2844 151.545 97.5003 151.804 97.7451 152.063C98.0474 152.437 98.3785 152.812 98.724 153.172C99.2566 153.762 99.8181 154.323 100.394 154.856C102.87 157.217 105.677 159.232 108.7 160.816C113.667 163.393 119.195 164.803 124.766 164.962C125.515 164.976 126.249 164.976 126.998 164.947C127.156 164.933 127.3 164.933 127.444 164.933C127.588 164.933 127.732 164.947 127.876 164.947C128.581 164.947 129.344 165.062 130.035 164.976C130.064 164.976 130.093 164.976 130.107 164.962C130.712 164.847 130.87 164.098 130.582 163.724L130.568 163.738Z" fill="black"/>
<path d="M167.153 131.002C165.31 137.308 163.137 143.8 159.336 149.227C158.688 150.149 158.012 151.027 157.249 151.89C156.687 152.596 156.068 153.272 155.42 153.92C152.728 156.684 149.59 159.045 146.15 160.83C141.197 163.407 135.655 164.818 130.084 164.976C129.335 164.991 128.587 164.991 127.852 164.962C127.708 164.962 127.564 164.947 127.42 164.947C127.276 164.947 127.133 164.947 126.974 164.962C126.269 164.976 125.506 165.077 124.815 164.991C124.786 164.991 124.772 164.991 124.743 164.976C124.138 164.861 123.98 164.127 124.282 163.753C124.383 163.609 124.556 163.522 124.815 163.551C125.275 163.594 125.765 163.565 126.24 163.551C126.312 163.537 126.384 163.537 126.456 163.537C126.773 163.537 127.104 163.537 127.42 163.522H127.435C127.68 163.537 127.939 163.537 128.183 163.537C128.946 163.551 129.709 163.537 130.458 163.508C140.218 163.09 149.561 158.685 155.982 151.228C155.996 151.199 156.011 151.185 156.025 151.171C156.471 150.638 156.918 150.105 157.335 149.544C161.208 144.419 163.41 138.301 165.282 132.226C167.268 125.748 168.694 113.338 169.485 106.616C170.392 99.101 170.536 91.5144 169.932 83.971C169.86 83.0497 171.299 83.0497 171.371 83.971C172.465 97.8342 171.04 117.643 167.153 131.002Z" fill="black"/>
<path d="M111.728 84.8346C111.152 85.5832 110.202 85.9287 109.323 86.231C108.172 86.6197 107.006 86.85 105.825 87.0659C103.565 87.4834 101.334 87.8721 99.2175 88.7503C98.0946 89.2109 97.0581 89.8299 95.964 90.3482C95.2298 90.6937 94.2653 91.1544 93.5023 90.6649C91.9763 89.6716 93.2864 87.2243 94.0638 86.2166C94.7979 85.2665 95.7049 84.4459 96.6838 83.7405C98.8576 81.9266 101.521 80.7318 104.314 80.2279C106.243 79.8968 108.344 79.7529 110.144 80.6598C111.641 81.4084 112.937 83.2511 111.699 84.8346H111.728Z" fill="black"/>
<path d="M149.295 102.268C151.832 102.268 153.888 99.9605 153.888 97.1141C153.888 94.2678 151.832 91.9604 149.295 91.9604C146.759 91.9604 144.703 94.2678 144.703 97.1141C144.703 99.9605 146.759 102.268 149.295 102.268Z" fill="black"/>
<path d="M141.904 85.5688C142.48 86.3174 143.43 86.6629 144.308 86.9652C145.46 87.3539 146.626 87.5843 147.806 87.8002C150.066 88.2177 152.298 88.6064 154.414 89.4845C155.537 89.9452 156.573 90.5642 157.667 91.0824C158.402 91.4279 159.366 91.8886 160.129 91.3991C161.655 90.4058 160.345 87.9585 159.568 86.9508C158.834 86.0007 157.927 85.1802 156.948 84.4748C154.774 82.6609 152.111 81.466 149.318 80.9622C147.389 80.6311 145.287 80.4871 143.487 81.3941C141.99 82.1426 140.695 83.9853 141.933 85.5688H141.904Z" fill="black"/>
<path d="M163.114 122.277C163.571 116.643 159.805 111.74 154.701 111.325C149.598 110.911 145.09 115.143 144.633 120.777C144.175 126.412 147.942 131.315 153.045 131.729C158.149 132.143 162.657 127.912 163.114 122.277Z" fill="#FF714B"/>
<path d="M133.804 113.18C133.113 112.576 132.091 113.583 132.782 114.202C134.553 115.743 136.784 117.672 136.467 120.277C136.165 122.797 133.934 124.51 132.062 125.935C131.328 126.482 132.062 127.734 132.782 127.173C135.042 125.46 137.49 123.488 137.878 120.464C138.267 117.355 135.935 115.052 133.79 113.18H133.804Z" fill="black"/>
<path d="M143.656 137.48C134.457 142.101 123.156 141.957 114.101 137.034C113.295 136.588 112.489 137.782 113.295 138.229C122.796 143.397 134.615 143.627 144.304 138.761C145.124 138.344 144.491 137.063 143.656 137.48Z" fill="black"/>
<path d="M155.423 153.92C155.323 154.496 155.251 155.057 155.207 155.633C155.15 155.676 155.107 155.734 155.063 155.806C150.414 163.652 142.208 168.445 134.175 172.188C125.12 176.406 115.489 179.343 105.642 180.97C100.345 181.833 95.0037 182.294 89.6484 182.366C95.7955 174.952 99.8551 165.725 99.0634 155.907C99.049 155.748 99.0346 155.575 99.0202 155.417C98.9482 154.669 98.833 153.92 98.7035 153.186C99.2361 153.776 99.7976 154.337 100.373 154.87C102.849 157.231 105.657 159.246 108.68 160.83C113.646 163.407 119.174 164.818 124.746 164.976C124.774 164.99 124.789 164.99 124.818 164.99C125.509 165.077 126.272 164.976 126.977 164.962C127.135 164.947 127.279 164.947 127.423 164.947C127.567 164.947 127.711 164.962 127.855 164.962C128.561 164.962 129.324 165.077 130.015 164.99C130.043 164.99 130.072 164.99 130.087 164.976C135.658 164.818 141.2 163.407 146.152 160.83C149.593 159.045 152.731 156.684 155.423 153.92Z" fill="black"/>
<path d="M60.959 281.841C61.7076 272.513 61.7508 263.141 61.0885 253.813C60.3112 242.469 58.4973 231.182 55.7045 220.17C54.452 215.217 52.9837 210.308 51.3281 205.471C51.7024 205.371 52.0767 205.27 52.451 205.155C55.1286 204.377 57.7631 203.485 60.3688 202.463C61.3909 206.321 63.032 210.064 64.7451 213.62C67.8114 219.997 71.4968 226.057 75.7436 231.701C83.431 241.936 93.0475 251.351 104.967 256.433C111.489 259.225 118.456 260.391 125.525 260.521C132.809 260.651 140.237 259.974 147.219 257.786C159.225 254.043 169.245 245.765 176.645 235.76C184.116 225.669 188.852 213.85 192.307 201.815C194.337 202.664 196.381 203.427 198.469 204.104C196.525 213.202 195.503 222.487 195.417 231.801C195.287 243.52 196.626 255.281 199.404 266.682C200.643 271.822 202.197 276.889 204.026 281.841H60.959Z" fill="black"/>
<path d="M73.1279 233.327C73.0128 232.953 72.7824 232.694 72.4657 232.464C70.911 231.341 69.3562 230.232 67.8015 229.109C67.5135 228.908 67.0241 228.879 66.693 228.965C66.3619 229.052 66.002 229.311 65.8292 229.628C65.6565 229.959 65.5701 230.362 65.6853 230.736C65.8004 231.11 66.0308 231.37 66.3475 231.6C67.9022 232.723 69.457 233.831 71.0117 234.954C71.2997 235.156 71.7891 235.184 72.1202 235.098C72.4513 235.012 72.8112 234.753 72.984 234.436C73.1567 234.105 73.2431 233.702 73.1279 233.327Z" fill="white"/>
<path d="M63.7071 216.326C62.9009 216.139 62.1955 216.571 61.9364 217.334C61.6197 218.269 61.2598 219.191 60.8999 220.112C60.8567 220.213 60.8135 220.314 60.7847 220.4C60.7703 220.443 60.7415 220.501 60.7271 220.544C60.6839 220.587 60.6263 220.789 60.5975 220.832C60.54 220.961 60.4824 221.091 60.4248 221.221C60.2233 221.667 60.0217 222.127 59.8058 222.574C59.633 222.934 59.5466 223.294 59.6618 223.682C59.7482 224.013 60.0073 224.373 60.324 224.546C60.9574 224.891 61.9508 224.762 62.2963 224.028C63.2176 222.099 64.0238 220.112 64.7292 218.097C64.9739 217.391 64.4557 216.484 63.7215 216.326H63.7071Z" fill="white"/>
<path d="M66.6608 237.545C65.8402 237.358 65.178 237.79 64.8901 238.553C64.1703 240.468 63.4649 242.368 62.7451 244.283C62.4859 244.988 63.033 245.895 63.7528 246.053C64.5734 246.241 65.2356 245.809 65.5235 245.046C66.2433 243.131 66.9487 241.231 67.6685 239.316C67.9276 238.611 67.3806 237.704 66.6608 237.545Z" fill="white"/>
<path d="M82.6707 245.42C80.9144 244.844 79.1293 244.355 77.3298 243.966C76.5956 243.808 75.7319 244.182 75.5591 244.974C75.4008 245.694 75.7751 246.572 76.5668 246.744C78.3663 247.133 80.1514 247.623 81.9077 248.198C82.6275 248.429 83.5057 247.925 83.6784 247.191C83.8656 246.399 83.4337 245.679 82.6707 245.42Z" fill="white"/>
<path d="M74.6331 252.071C73.8558 251.898 73.0928 252.301 72.8624 253.079C72.3298 254.864 71.8115 256.634 71.2789 258.419C71.063 259.139 71.538 260.017 72.2866 260.19C73.064 260.363 73.827 259.96 74.0573 259.182C74.5899 257.397 75.1082 255.627 75.6408 253.842C75.8568 253.122 75.3817 252.244 74.6331 252.071Z" fill="white"/>
<path d="M71.015 269.259C69.489 268.381 67.9775 267.517 66.4515 266.639C65.8037 266.265 64.8535 266.466 64.4793 267.157C64.1194 267.848 64.2921 268.727 64.9975 269.13C66.5235 270.008 68.035 270.872 69.561 271.75C70.2088 272.124 71.159 271.922 71.5333 271.231C71.8932 270.54 71.7204 269.662 71.015 269.259Z" fill="white"/>
<path d="M87.5682 255.123C86.9924 254.59 86.0999 254.561 85.5384 255.123C84.1564 256.505 82.7744 257.872 81.3924 259.254C80.8598 259.787 80.8166 260.766 81.3924 261.284C81.9682 261.817 82.8608 261.846 83.4222 261.284C84.8042 259.902 86.1862 258.535 87.5682 257.153C88.1009 256.62 88.1441 255.641 87.5682 255.123Z" fill="white"/>
<path d="M99.6816 261.802C99.9408 262.148 99.6816 261.802 99.6385 261.73C99.5665 261.63 99.4945 261.543 99.4225 261.443C99.2786 261.241 99.1346 261.054 99.005 260.852C98.7315 260.449 98.458 260.046 98.2133 259.643C97.7094 258.823 97.2343 257.973 96.8025 257.109C96.4714 256.433 95.4492 256.188 94.8302 256.591C94.1392 257.037 93.9521 257.844 94.312 258.563C95.2333 260.435 96.3706 262.177 97.6518 263.832C97.8678 264.106 98.3428 264.25 98.6739 264.25C99.0338 264.25 99.4513 264.091 99.696 263.832C99.9408 263.559 100.128 263.199 100.114 262.81C100.099 262.407 99.9408 262.105 99.696 261.788L99.6816 261.802Z" fill="white"/>
<path d="M85.5613 273.823C85.5613 273.823 85.5613 273.823 85.5469 273.837C85.5469 273.837 85.5613 273.808 85.5757 273.794L85.5613 273.823Z" fill="white"/>
<path d="M87.9739 269C87.4125 268.482 86.4912 268.41 85.9441 269C84.2742 270.771 82.7482 272.7 81.4094 274.73C80.9919 275.363 81.2654 276.342 81.9276 276.702C82.6474 277.076 83.4536 276.86 83.8999 276.184C84.2022 275.709 84.5189 275.248 84.85 274.787C85.0084 274.557 85.1811 274.327 85.3539 274.111C85.4259 274.024 85.4978 273.938 85.5554 273.837C85.5266 273.881 85.5122 273.881 85.5698 273.823C85.5842 273.794 85.5986 273.78 85.613 273.751C85.613 273.765 85.5842 273.78 85.5698 273.794C85.613 273.737 85.6706 273.665 85.7138 273.607C86.4192 272.714 87.1678 271.851 87.9595 271.016C88.4778 270.469 88.5498 269.519 87.9595 268.986L87.9739 269Z" fill="white"/>
<path d="M105.535 275.306C104.009 273.708 102.497 272.11 100.971 270.512C100.453 269.965 99.4599 269.95 98.9416 270.512C98.409 271.102 98.3802 271.966 98.9416 272.542C100.468 274.14 101.979 275.738 103.505 277.335C104.023 277.883 105.017 277.897 105.535 277.335C106.068 276.745 106.096 275.882 105.535 275.306Z" fill="white"/>
<path d="M116.179 263.918C115.776 263.299 114.884 262.954 114.207 263.4C112.436 264.581 110.68 265.761 108.909 266.942C108.29 267.359 107.959 268.237 108.391 268.914C108.794 269.533 109.687 269.878 110.363 269.432C112.134 268.252 113.89 267.071 115.661 265.891C116.28 265.473 116.611 264.595 116.179 263.918Z" fill="white"/>
<path d="M132.1 267.546C130.358 266.567 128.66 265.502 127.033 264.35C126.414 263.918 125.406 264.221 125.061 264.868C124.672 265.603 124.917 266.38 125.579 266.841C127.22 267.992 128.904 269.058 130.646 270.037C131.309 270.411 132.244 270.209 132.619 269.518C132.978 268.842 132.806 267.949 132.1 267.546Z" fill="white"/>
<path d="M124.72 270.929C124.634 270.598 124.375 270.238 124.058 270.066C123.727 269.893 123.324 269.806 122.95 269.922C122.575 270.037 122.316 270.267 122.086 270.584C121.956 270.757 121.827 270.929 121.712 271.088C120.776 272.297 119.739 273.42 118.616 274.456C118.055 274.974 118.055 275.982 118.616 276.486C119.207 277.033 120.056 277.033 120.646 276.486C122.1 275.133 123.41 273.636 124.562 272.038C124.763 271.75 124.792 271.26 124.706 270.929H124.72Z" fill="white"/>
<path d="M71.6094 276.428C69.8387 276.63 68.0536 276.644 66.2686 276.472C65.52 276.4 64.8002 277.191 64.829 277.911C64.8721 278.761 65.4624 279.279 66.2686 279.351C68.0392 279.524 69.8387 279.509 71.6094 279.308C71.9981 279.264 72.3292 279.178 72.6315 278.89C72.8763 278.645 73.0634 278.228 73.049 277.868C73.0202 277.163 72.4156 276.342 71.6094 276.428Z" fill="white"/>
<path d="M146.586 264.941C146.528 264.538 146.456 264.221 146.168 263.919C145.924 263.674 145.506 263.487 145.146 263.501C144.772 263.516 144.383 263.645 144.124 263.919C143.879 264.178 143.649 264.567 143.707 264.941C143.836 265.934 143.836 266.927 143.707 267.921C143.664 268.18 143.62 268.439 143.577 268.684C143.491 269.058 143.52 269.447 143.721 269.792C143.894 270.095 144.239 270.382 144.585 270.454C145.319 270.627 146.183 270.239 146.356 269.447C146.687 267.964 146.787 266.438 146.586 264.926V264.941Z" fill="white"/>
<path d="M141.106 274.672C138.802 274.946 136.485 275.032 134.167 274.902C133.418 274.859 132.699 275.593 132.727 276.342C132.771 277.148 133.361 277.738 134.167 277.782C136.485 277.897 138.802 277.825 141.106 277.551C141.854 277.465 142.589 276.947 142.545 276.112C142.517 275.406 141.912 274.571 141.106 274.672Z" fill="white"/>
<path d="M158.159 266.193C157.914 265.948 157.497 265.761 157.137 265.775C156.762 265.79 156.374 265.919 156.115 266.193C155.841 266.495 155.74 266.812 155.697 267.215C155.496 268.986 155.308 270.771 155.107 272.541C155.064 272.887 155.294 273.319 155.524 273.564C155.769 273.808 156.187 273.995 156.546 273.981C156.921 273.967 157.309 273.837 157.569 273.564C157.842 273.261 157.943 272.945 157.986 272.541C158.188 270.771 158.375 268.986 158.576 267.215C158.619 266.87 158.389 266.438 158.159 266.193Z" fill="white"/>
<path d="M167.312 256.807C167.196 256.461 166.981 256.116 166.649 255.943C166.29 255.756 165.944 255.727 165.541 255.799C163.698 256.102 161.884 256.533 160.099 257.08C159.379 257.296 158.847 258.103 159.092 258.851C159.322 259.571 160.085 260.089 160.862 259.859C162.647 259.312 164.461 258.88 166.304 258.578C166.635 258.52 166.995 258.203 167.168 257.915C167.355 257.613 167.427 257.152 167.312 256.807Z" fill="white"/>
<path d="M178.197 259.269C178.024 258.966 177.678 258.678 177.333 258.606C176.627 258.448 175.706 258.822 175.562 259.614C175.231 261.37 174.871 263.112 174.454 264.84C174.281 265.574 174.684 266.438 175.461 266.611C176.196 266.783 177.045 266.395 177.232 265.603C177.65 263.875 178.009 262.133 178.341 260.377C178.413 259.988 178.398 259.614 178.197 259.269Z" fill="white"/>
<path d="M171.828 270.843C171.712 270.468 171.482 270.209 171.165 269.979C169.841 269.072 168.517 268.165 167.192 267.258C166.904 267.057 166.415 267.028 166.084 267.114C165.752 267.201 165.393 267.46 165.22 267.776C165.047 268.108 164.961 268.511 165.076 268.885C165.191 269.259 165.421 269.518 165.738 269.749C167.063 270.656 168.387 271.563 169.711 272.47C169.999 272.671 170.489 272.7 170.82 272.613C171.151 272.527 171.511 272.268 171.684 271.951C171.856 271.62 171.943 271.217 171.828 270.843Z" fill="white"/>
<path d="M155.595 277.407L150.053 274.341C149.391 273.981 148.455 274.154 148.081 274.859C147.721 275.536 147.894 276.443 148.599 276.832L154.141 279.898C154.804 280.258 155.739 280.085 156.114 279.38C156.474 278.703 156.301 277.796 155.595 277.407Z" fill="white"/>
<path d="M176.387 275.378C176.157 274.672 175.379 274.111 174.616 274.37C172.126 275.205 169.621 276.026 167.131 276.86C166.411 277.091 165.878 277.868 166.123 278.631C166.353 279.337 167.131 279.898 167.894 279.639C170.384 278.804 172.889 277.983 175.379 277.148C176.099 276.918 176.632 276.141 176.387 275.378Z" fill="white"/>
<path d="M191.467 269.951C190.128 269.072 188.789 268.18 187.45 267.302C186.817 266.884 185.823 267.158 185.478 267.82C185.089 268.54 185.319 269.346 185.996 269.792C187.335 270.67 188.674 271.563 190.013 272.441C190.646 272.859 191.639 272.585 191.985 271.923C192.373 271.203 192.143 270.397 191.467 269.951Z" fill="white"/>
<path d="M198.263 273.117C197.989 272.873 197.629 272.686 197.241 272.7C196.881 272.714 196.463 272.83 196.219 273.117C195.168 274.341 194.031 275.464 192.792 276.501C192.519 276.731 192.375 277.177 192.375 277.523C192.375 277.868 192.533 278.3 192.792 278.545C193.066 278.789 193.426 278.977 193.815 278.962C194.218 278.948 194.52 278.804 194.837 278.545C196.06 277.508 197.212 276.385 198.263 275.162C198.522 274.874 198.68 274.543 198.68 274.14C198.68 273.78 198.522 273.362 198.263 273.117Z" fill="white"/>
<path d="M184.572 276.976C183.622 275.881 182.672 274.773 181.736 273.679C181.506 273.405 181.059 273.261 180.714 273.261C180.368 273.261 179.936 273.42 179.692 273.679C179.447 273.952 179.26 274.312 179.274 274.701C179.289 275.104 179.433 275.421 179.692 275.723C180.642 276.817 181.592 277.926 182.528 279.02C182.758 279.293 183.204 279.437 183.55 279.437C183.895 279.437 184.327 279.279 184.572 279.02C184.817 278.746 185.004 278.386 184.989 277.998C184.975 277.595 184.831 277.278 184.572 276.976Z" fill="white"/>
<path d="M192.212 256.98C191.809 256.361 190.916 256.015 190.239 256.462C188.656 257.512 187.144 258.678 185.705 259.931C185.143 260.435 185.158 261.471 185.705 261.961C186.309 262.522 187.13 262.493 187.735 261.961C188.31 261.457 188.886 260.982 189.491 260.521C190.211 259.974 190.93 259.441 191.679 258.952C191.996 258.75 192.241 258.463 192.341 258.088C192.442 257.743 192.399 257.282 192.197 256.98H192.212Z" fill="white"/>
<path d="M184.265 250.199C183.516 249.335 182.796 248.443 182.091 247.55C181.702 247.046 181.328 246.543 180.968 246.039C180.738 245.722 180.493 245.477 180.104 245.377C179.759 245.276 179.298 245.319 178.996 245.52C178.391 245.909 178.003 246.83 178.478 247.493C179.658 249.134 180.911 250.717 182.235 252.243C182.725 252.819 183.775 252.79 184.265 252.243C184.826 251.639 184.798 250.818 184.265 250.214V250.199Z" fill="white"/>
<path d="M173.752 246.73C172.96 246.543 172.226 246.975 171.981 247.738C171.405 249.494 170.93 251.279 170.57 253.093C170.426 253.827 170.786 254.676 171.578 254.864C172.298 255.022 173.19 254.648 173.349 253.856C173.708 252.042 174.184 250.257 174.759 248.501C174.99 247.781 174.486 246.903 173.752 246.73Z" fill="white"/>
<path d="M187.799 237.545C186.244 237.646 184.675 237.588 183.12 237.416C182.775 237.372 182.328 237.603 182.098 237.833C181.853 238.078 181.666 238.495 181.68 238.855C181.695 239.23 181.824 239.618 182.098 239.877C182.4 240.151 182.717 240.252 183.12 240.295C184.675 240.482 186.244 240.525 187.799 240.424C188.547 240.381 189.282 239.791 189.238 238.985C189.21 238.251 188.605 237.502 187.799 237.545Z" fill="white"/>
<path d="M193.698 241.663C193.525 241.36 193.18 241.072 192.834 241.001C192.014 240.813 191.337 241.245 191.063 242.008C190.617 243.232 190.142 244.441 189.638 245.636C189.523 245.924 189.393 246.212 189.264 246.485C189.106 246.86 189.005 247.191 189.12 247.594C189.206 247.925 189.465 248.285 189.782 248.458C190.113 248.63 190.516 248.717 190.891 248.602C191.222 248.501 191.61 248.27 191.754 247.939C192.503 246.241 193.208 244.513 193.842 242.771C193.971 242.44 193.871 241.965 193.698 241.663Z" fill="white"/>
<path d="M190.098 230.477C189.897 230.175 189.609 229.887 189.235 229.815C188.673 229.7 188.141 229.541 187.608 229.326C186.931 229.023 186.298 228.663 185.708 228.203C185.434 227.987 184.916 227.972 184.599 228.059C184.268 228.145 183.908 228.404 183.735 228.721C183.563 229.052 183.476 229.455 183.592 229.829C183.635 229.945 183.692 230.06 183.735 230.175C183.865 230.391 184.038 230.564 184.254 230.693C185.477 231.629 186.946 232.291 188.457 232.593C188.846 232.665 189.22 232.651 189.566 232.449C189.868 232.277 190.156 231.931 190.228 231.586C190.314 231.211 190.3 230.808 190.084 230.477H190.098Z" fill="white"/>
<path d="M192.93 218.485C192.93 218.125 192.771 217.708 192.512 217.463C191.994 216.988 190.986 216.83 190.483 217.463C189.216 219.032 188.093 220.702 187.171 222.502C186.826 223.164 186.97 224.1 187.69 224.474C188.352 224.819 189.288 224.676 189.662 223.956C190.094 223.135 190.555 222.329 191.058 221.537C191.303 221.149 191.562 220.774 191.836 220.4C191.965 220.213 192.109 220.026 192.239 219.853C192.239 219.853 192.268 219.81 192.282 219.795C192.354 219.695 192.44 219.594 192.512 219.507C192.757 219.205 192.93 218.903 192.93 218.485Z" fill="white"/>
<path d="M253.595 257.354C253.105 264.206 251.767 271.03 250.269 277.695C249.881 279.408 249.492 281.107 249.089 282.82C249.031 283.05 248.902 283.194 248.743 283.266C248.571 283.367 248.34 283.353 248.153 283.266C248.11 283.266 248.067 283.238 248.024 283.209C247.966 283.223 247.923 283.252 247.865 283.266H247.837C247.837 283.266 247.75 283.281 247.693 283.281H6.51792C6.51792 283.281 6.44594 283.281 6.41715 283.266H6.34517C6.34517 283.266 6.2444 283.266 6.20121 283.223C6.17242 283.238 6.12923 283.252 6.10044 283.266C5.89889 283.353 5.68295 283.367 5.49581 283.266C5.33745 283.194 5.20789 283.05 5.1647 282.82C4.76162 281.107 4.35853 279.408 3.98424 277.695C2.47267 271.03 1.13385 264.206 0.644387 257.354C0.38526 253.712 0.370864 250.055 0.716366 246.428C0.946701 243.951 1.33539 241.475 1.92562 239.014C3.25005 233.514 5.539 228.188 8.97962 223.668C9.82898 222.559 10.7503 221.508 11.7292 220.515C14.5364 217.665 17.8331 215.318 21.4033 213.461C30.1704 208.912 39.974 207.069 49.4465 204.493C49.9216 204.377 50.3966 204.248 50.8573 204.104C51.4907 203.931 52.1098 203.758 52.7432 203.571C55.1905 202.851 57.6378 202.016 60.0275 201.052C60.4738 200.894 60.9201 200.721 61.3663 200.519C65.6275 198.777 69.7591 196.661 73.6604 194.2C73.9196 194.041 74.1931 193.883 74.4522 193.696C78.2815 191.22 81.8661 188.384 85.1196 185.188C93.8579 176.608 99.8898 164.271 96.9818 151.847C96.9242 151.617 96.9674 151.43 97.0682 151.286C97.3849 150.839 98.2055 150.782 98.3638 151.458C98.3926 151.574 98.4214 151.703 98.4358 151.818C98.551 152.265 98.6373 152.725 98.7093 153.186C98.8389 153.92 98.9541 154.669 99.026 155.417C99.026 155.576 99.0548 155.748 99.0692 155.907C99.861 165.725 95.8013 174.952 89.6543 182.366C89.2512 182.856 88.8337 183.345 88.4162 183.806C87.2502 185.116 86.0265 186.354 84.7453 187.534C81.8085 190.241 78.6414 192.659 75.316 194.833C74.8985 195.106 74.5098 195.366 74.0923 195.625H74.0779C70.1478 198.072 65.9874 200.174 61.6974 201.93C61.2512 202.117 60.8193 202.29 60.373 202.463C57.7674 203.485 55.1329 204.377 52.4553 205.155C52.081 205.27 51.7067 205.371 51.3324 205.471C50.8717 205.601 50.3966 205.731 49.936 205.86C40.1755 208.509 29.9832 210.337 21.0722 215.275C18.4377 216.729 15.9904 218.471 13.8166 220.515C11.9452 222.243 10.2609 224.2 8.83566 226.36C5.65416 231.168 3.71072 236.696 2.703 242.354C2.45827 243.707 2.27112 245.074 2.15596 246.428C1.78166 250.07 1.79606 253.712 2.06958 257.354C2.64542 265.617 4.54568 273.837 6.41715 281.87C6.44594 281.856 6.47473 281.841 6.51792 281.841H247.693C247.693 281.841 247.793 281.87 247.837 281.87C249.708 273.852 251.608 265.617 252.184 257.354C252.458 253.712 252.472 250.07 252.098 246.428C251.983 245.06 251.795 243.707 251.551 242.354C250.543 236.696 248.6 231.168 245.418 226.36C243.993 224.2 242.309 222.243 240.437 220.515C238.263 218.471 235.816 216.729 233.182 215.275C223.493 209.905 212.307 208.221 201.784 205.155C201.136 204.968 200.488 204.766 199.841 204.55C199.38 204.421 198.919 204.277 198.473 204.104C196.386 203.427 194.341 202.664 192.312 201.815C191.851 201.642 191.405 201.455 190.958 201.253C187.345 199.684 183.847 197.885 180.492 195.812C180.089 195.567 179.672 195.308 179.283 195.049C177.484 193.897 175.742 192.674 174.058 191.364C173.51 190.946 172.978 190.514 172.445 190.068C171.437 189.262 170.459 188.412 169.508 187.534C161.346 180.034 155.113 169.698 155.084 158.412C155.084 157.591 155.113 156.742 155.184 155.907C155.199 155.82 155.199 155.72 155.213 155.633C155.256 155.057 155.328 154.496 155.429 153.92C155.544 153.099 155.703 152.279 155.89 151.458C155.919 151.372 155.947 151.286 155.991 151.228C156.005 151.199 156.019 151.185 156.034 151.17C156.437 150.667 157.459 151.055 157.272 151.847C157.272 151.861 157.272 151.876 157.257 151.89C154.364 164.299 160.396 176.622 169.12 185.188C170.833 186.858 172.632 188.441 174.504 189.91C179.629 193.955 185.344 197.266 191.347 199.871C191.793 200.059 192.24 200.26 192.686 200.433C194.687 201.268 196.717 202.031 198.775 202.707C199.236 202.866 199.697 203.01 200.157 203.154C200.604 203.298 201.064 203.442 201.511 203.571C211.976 206.681 223.061 208.379 232.85 213.461C236.421 215.318 239.717 217.665 242.524 220.515C243.489 221.508 244.41 222.559 245.26 223.668C248.715 228.188 250.989 233.514 252.314 239.014C252.904 241.475 253.293 243.937 253.523 246.428C253.868 250.055 253.854 253.712 253.595 257.354Z" fill="black"/>
<path d="M127.839 123.646C127.81 123.502 127.753 123.358 127.695 123.228C127.58 122.955 127.364 122.753 127.134 122.58C126.903 122.408 126.587 122.321 126.299 122.307C125.996 122.307 125.68 122.393 125.435 122.552C125.19 122.71 124.945 122.94 124.83 123.214C124.744 123.415 124.686 123.588 124.672 123.804C124.672 123.962 124.672 124.121 124.729 124.279C124.744 124.337 124.773 124.38 124.801 124.437C124.873 124.668 124.989 124.884 125.147 125.056C125.334 125.258 125.608 125.416 125.881 125.474C126.443 125.589 127.062 125.445 127.465 125.028C127.695 124.783 127.825 124.509 127.868 124.178C127.897 123.991 127.868 123.847 127.853 123.66L127.839 123.646Z" fill="black"/>
<path d="M188.475 60.0738C188.647 59.7139 188.575 59.2101 188.1 59.0229C186.416 54.0996 187.265 48.8451 187.539 43.7634C187.813 38.8688 187.208 34.1038 185.293 29.5691C181.593 20.7876 173.762 14.2807 164.434 12.2653C159.611 11.2144 153.838 11.0561 149.462 13.6761C141.515 2.93683 127.522 -1.46829 114.581 0.460752C107.368 1.52604 100.473 4.4052 94.3686 8.34966C88.4807 12.1645 83.0967 17.0015 79.3105 22.9614C75.0493 29.6842 73.0627 37.9906 75.0349 45.7932C74.9486 45.8076 74.8622 45.822 74.7614 45.8364C74.1424 45.9515 74.128 46.6137 74.4591 46.988C72.5876 48.8307 70.7306 50.6733 68.8591 52.516C67.1028 54.2579 65.1737 55.9134 63.6334 57.8713C62.3665 59.4836 61.6036 61.3982 62.021 63.4568C62.4385 65.5154 63.8637 67.2141 65.5624 68.3802C67.5347 69.7334 69.9532 70.4964 72.2421 71.1154C74.6463 71.7632 77.1223 72.1807 79.5984 72.4254C84.6946 72.9437 89.8483 72.7133 94.9445 72.2527C116.222 70.3236 137.009 64.882 158.286 62.953C164.174 62.4203 170.091 62.1612 175.993 62.334C179.017 62.4203 182.025 62.6507 185.034 62.953C186.502 63.0969 189.194 62.7082 188.935 60.6496C188.892 60.3473 188.719 60.1602 188.489 60.0594L188.475 60.0738ZM79.4257 25.5814C82.6936 19.636 87.6746 14.7558 93.1882 10.8833C104.23 3.09519 118.395 -1.03641 131.654 3.02321C138.406 5.08181 144.567 9.15582 148.67 14.9573C148.886 15.2596 149.303 15.4468 149.649 15.2165C153.608 12.5676 158.977 12.654 163.483 13.5321C167.946 14.4103 172.222 16.3393 175.778 19.1897C179.276 21.9969 182.011 25.6534 183.825 29.7562C185.768 34.147 186.359 38.8256 186.114 43.5906C185.855 48.5284 185.077 53.6101 186.416 58.4183C172.87 53.6389 159.049 49.6081 144.941 46.8729C130.171 44.0081 115.113 42.5397 100.069 43.0292C92.1661 43.2883 84.2771 44.1233 76.5033 45.534C74.7758 38.7968 76.129 31.6133 79.4545 25.5814H79.4257ZM182.457 61.2831C179.967 61.0671 177.462 60.9376 174.957 60.88C170.019 60.7792 165.067 60.9664 160.144 61.3694C150.196 62.1612 140.349 63.7879 130.517 65.4866C120.612 67.1997 110.708 69.028 100.717 70.2229C91.1296 71.3601 81.0668 72.2671 71.6663 69.4743C69.3342 68.7833 66.8437 67.9195 65.1018 66.1488C63.2447 64.263 62.8128 61.6717 64.2812 59.426C65.6776 57.2954 67.837 55.5679 69.6365 53.7828C71.7527 51.6954 73.8545 49.6081 75.9707 47.5207C76.129 47.3767 76.1722 47.204 76.1722 47.0312C90.6401 44.3536 105.439 43.8065 120.094 44.915C134.908 46.0379 149.548 48.8595 163.872 52.8039C171.689 54.9489 179.391 57.4394 187.021 60.1602C187.15 60.3041 187.337 60.3761 187.51 60.3905C187.481 60.4769 187.467 60.5489 187.481 60.664C187.683 62.2332 183.191 61.3406 182.457 61.2687V61.2831Z" fill="black"/>
<path d="M155.113 4.29003C154.868 3.48387 154.35 2.76408 153.616 2.31781C152.824 1.82835 151.831 1.71318 150.924 1.91472C150.362 2.04429 149.844 2.3322 149.427 2.72089C149.326 2.74968 149.239 2.80726 149.167 2.87924C148.03 4.10289 147.886 6.1183 148.894 7.4859C149.93 8.91109 151.874 9.2278 153.414 8.47921C154.955 7.73063 155.602 5.87357 155.099 4.27564L155.113 4.29003ZM153.817 5.74401C153.817 5.58566 153.817 5.80159 153.789 5.85918C153.76 6.00313 153.702 6.1327 153.659 6.27666C153.645 6.30545 153.63 6.33424 153.616 6.36303C153.573 6.43501 153.544 6.50699 153.501 6.57897C153.486 6.60776 153.457 6.63655 153.443 6.66534C153.4 6.70853 153.357 6.76611 153.314 6.8093C153.27 6.86688 153.213 6.91007 153.155 6.95326C153.155 6.95326 153.126 6.98205 153.112 6.99645C153.098 6.99645 153.069 7.02524 153.069 7.02524C152.939 7.11161 152.81 7.18359 152.68 7.25557C152.666 7.25557 152.666 7.25557 152.651 7.25557C152.651 7.25557 152.651 7.25557 152.622 7.25557C152.536 7.28436 152.45 7.31315 152.363 7.34194C152.291 7.35634 152.219 7.37074 152.162 7.38513C152.133 7.38513 152.104 7.38513 152.075 7.39953C151.931 7.39953 151.773 7.42832 151.629 7.41392C151.557 7.41392 151.485 7.41392 151.428 7.39953C151.399 7.39953 151.37 7.39953 151.341 7.38513C151.183 7.35634 151.025 7.29876 150.881 7.25557C150.866 7.25557 150.823 7.22678 150.823 7.22678C150.765 7.19799 150.693 7.1548 150.636 7.12601C150.578 7.09722 150.521 7.05403 150.478 7.01084C150.449 6.98205 150.406 6.95326 150.377 6.92447C150.319 6.86688 150.262 6.8093 150.204 6.75172C150.204 6.75172 150.175 6.72292 150.175 6.70853C150.161 6.67974 150.118 6.62215 150.118 6.62215C150.089 6.57897 150.06 6.52138 150.031 6.4782C150.06 6.30545 150.031 6.1327 149.959 5.95995C150.017 6.07511 149.93 5.90236 149.93 5.85918C149.902 5.7872 149.887 5.71522 149.873 5.64324C149.873 5.60005 149.858 5.55686 149.844 5.51368C149.844 5.51368 149.844 5.49928 149.844 5.48489C149.844 5.45609 149.844 5.4273 149.844 5.41291C149.844 5.35532 149.844 5.29774 149.844 5.25455C149.844 5.18257 149.844 5.0962 149.844 5.02422C149.844 4.99543 149.844 4.98103 149.844 4.95224C149.844 4.95224 149.844 4.95224 149.844 4.92345C149.873 4.76509 149.916 4.60674 149.974 4.44839C149.974 4.41959 150.002 4.3908 150.017 4.36201C150.046 4.29003 150.089 4.23245 150.132 4.16047C150.175 4.08849 150.218 4.03091 150.262 3.97332C150.19 4.0741 150.334 3.90135 150.362 3.87255C150.42 3.81497 150.492 3.75739 150.549 3.68541C150.549 3.68541 150.564 3.67101 150.578 3.65662C150.593 3.65662 150.636 3.61343 150.636 3.61343C150.708 3.57024 150.765 3.52705 150.837 3.48387C150.866 3.48387 150.981 3.41189 151.01 3.41189C151.154 3.3543 151.298 3.31112 151.442 3.28233C151.471 3.28233 151.514 3.28233 151.543 3.26793C151.629 3.26793 151.73 3.26793 151.816 3.26793C151.903 3.26793 151.975 3.26793 152.061 3.26793C152.075 3.26793 152.09 3.26793 152.09 3.26793C152.133 3.26793 152.162 3.26793 152.205 3.28233C152.277 3.28233 152.335 3.31112 152.407 3.32551C152.45 3.32551 152.493 3.3543 152.536 3.3687C152.536 3.3687 152.623 3.39749 152.651 3.41189C152.666 3.41189 152.68 3.42628 152.68 3.42628C152.723 3.44068 152.766 3.46947 152.81 3.48387C152.882 3.52705 152.954 3.57024 153.011 3.61343C153.026 3.61343 153.054 3.64222 153.069 3.65662C153.069 3.65662 153.098 3.67101 153.098 3.68541C153.155 3.74299 153.213 3.78618 153.27 3.85816C153.314 3.90135 153.371 3.95893 153.414 4.01651C153.429 4.0453 153.443 4.0597 153.472 4.08849C153.558 4.21805 153.616 4.34762 153.688 4.47718C153.688 4.50597 153.717 4.56355 153.731 4.59234C153.76 4.66432 153.774 4.72191 153.789 4.79389C153.803 4.86587 153.817 4.93784 153.832 4.99543C153.832 5.02422 153.832 5.05301 153.846 5.0818C153.846 5.0818 153.846 5.0818 153.846 5.0962C153.846 5.24016 153.861 5.38411 153.846 5.52807C153.846 5.60005 153.846 5.67203 153.832 5.74401H153.817Z" fill="black"/>
</g>
<defs>
<clipPath id="clip0_1367_9713">
<rect width="515.1" height="283.338" fill="white" transform="translate(0.453125)"/>
</clipPath>
</defs>
</svg>
