<svg width="516" height="270" viewBox="0 0 516 270" fill="none" xmlns="http://www.w3.org/2000/svg">
<g clip-path="url(#clip0_1138_4980)">
<path d="M172.816 226.988C170.285 240.591 167.366 254.123 164.101 267.568H164.288C165.223 267.568 165.223 269.006 164.288 269.006H92.3309C92.1727 269.006 92.0433 268.949 91.9426 268.877C91.5831 268.992 91.1517 268.863 91.0223 268.417C89.9294 264.75 88.8653 261.083 87.8156 257.402C84.1774 244.56 80.8556 231.633 77.8646 218.633C77.6777 217.799 78.7993 217.425 79.1588 218.044C85.6729 221.61 92.978 223.781 100.211 225.306C112.607 227.908 125.491 228.239 138.002 226.327C150.498 224.428 162.635 220.344 173.678 214.175C174.095 213.931 174.498 214.161 174.656 214.506C174.843 214.664 174.973 214.894 174.93 215.196C174.254 219.137 173.549 223.062 172.816 226.988Z" fill="#F4E140"/>
<path d="M253.303 243.726C252.814 250.571 251.477 257.387 249.981 264.045C249.593 265.756 249.205 267.453 248.802 269.164C248.745 269.394 248.615 269.538 248.457 269.61C248.285 269.711 248.054 269.696 247.868 269.61C247.824 269.596 247.781 269.581 247.738 269.553C247.681 269.553 247.637 269.596 247.58 269.61H247.551C247.551 269.61 247.465 269.625 247.407 269.625H6.49949C6.49949 269.625 6.42759 269.625 6.39883 269.61H6.32693C6.32693 269.61 6.22627 269.596 6.18313 269.567C6.15437 269.581 6.11123 269.596 6.08247 269.61C5.88115 269.696 5.66545 269.711 5.47851 269.61C5.32033 269.538 5.19091 269.394 5.14777 269.164C4.74513 267.453 4.34249 265.756 3.96861 264.045C2.45871 257.387 1.12138 250.571 0.632456 243.726C0.373616 240.088 0.359236 236.436 0.704356 232.812C0.934436 230.338 1.3227 227.865 1.91228 225.406C3.23523 219.913 5.52165 214.592 8.95847 210.077C9.80689 208.97 10.7272 207.92 11.705 206.928C14.5091 204.081 17.8022 201.737 21.3684 199.882C30.1258 195.338 39.9186 193.497 49.3806 190.923C49.8551 190.808 50.3297 190.678 50.7898 190.535C51.1781 190.434 51.552 190.333 51.9259 190.218C52.1703 190.146 52.4292 190.074 52.6736 190.003C55.1182 189.284 57.5628 188.45 59.9499 187.486C60.3957 187.328 60.8415 187.155 61.2872 186.954C65.5437 185.214 69.6708 183.1 73.5677 180.641C73.8266 180.483 74.0998 180.325 74.3587 180.138C78.1837 177.665 81.7643 174.832 85.0142 171.639C93.7429 163.069 99.7681 150.745 96.8633 138.335C96.8058 138.105 96.849 137.918 96.9496 137.774C97.266 137.329 98.0856 137.271 98.2438 137.947C98.2726 138.062 98.3013 138.191 98.3157 138.307C98.4307 138.752 98.517 139.212 98.5889 139.673C98.7183 140.406 98.8334 141.154 98.9053 141.902C98.9197 142.06 98.9341 142.232 98.9484 142.39C99.7393 152.198 95.6842 161.415 89.5439 168.821C89.1413 169.31 88.7243 169.799 88.3072 170.259C87.1424 171.567 85.9202 172.804 84.6403 173.983C82.9723 175.522 81.2179 176.974 79.406 178.326C79.0178 178.642 78.6151 178.93 78.1981 179.232C77.2203 179.937 76.228 180.612 75.2214 181.274C74.8044 181.547 74.4162 181.806 73.9991 182.065H73.9848C70.059 184.509 65.9032 186.609 61.618 188.363C61.1722 188.55 60.7408 188.723 60.295 188.895C57.8217 189.859 55.3339 190.722 52.803 191.455C52.6592 191.498 52.5298 191.541 52.386 191.584C52.0265 191.699 51.6814 191.786 51.3219 191.886C51.3075 191.886 51.2788 191.901 51.2644 191.901C50.8042 192.03 50.3297 192.16 49.8695 192.289C40.1199 194.935 29.9389 196.761 21.0377 201.694C18.4061 203.146 15.9615 204.886 13.7901 206.928C11.9207 208.653 10.2383 210.609 8.81467 212.766C5.63669 217.569 3.69539 223.091 2.68879 228.742C2.44433 230.094 2.25739 231.46 2.14235 232.812C1.76848 236.45 1.78286 240.088 2.05607 243.726C2.63127 251.98 4.52943 260.191 6.39883 268.215C6.42759 268.201 6.45635 268.187 6.49949 268.187H247.407C247.407 268.187 247.508 268.215 247.551 268.215C249.421 260.206 251.319 251.98 251.894 243.726C252.167 240.088 252.182 236.45 251.808 232.812C251.693 231.446 251.506 230.094 251.261 228.742C250.255 223.091 248.313 217.569 245.135 212.766C243.712 210.609 242.029 208.653 240.16 206.928C237.988 204.886 235.544 203.146 232.912 201.694C223.235 196.33 212.061 194.647 201.55 191.584C200.903 191.397 200.255 191.196 199.608 190.98C199.148 190.851 198.688 190.707 198.242 190.535C196.157 189.859 194.115 189.097 192.088 188.248C191.627 188.076 191.182 187.889 190.736 187.687C187.126 186.12 183.632 184.322 180.282 182.252C179.879 182.007 179.462 181.748 179.074 181.49C177.276 180.339 175.536 179.117 173.854 177.808C173.307 177.391 172.775 176.96 172.243 176.514C171.237 175.709 170.259 174.86 169.31 173.983C161.156 166.491 154.93 156.166 154.901 144.893C154.901 144.073 154.93 143.224 155.002 142.39C155.016 142.304 155.016 142.204 155.03 142.117C155.074 141.542 155.145 140.981 155.246 140.406C155.361 139.586 155.519 138.767 155.706 137.947C155.735 137.861 155.764 137.774 155.807 137.717C155.821 137.688 155.836 137.674 155.85 137.659C156.253 137.156 157.274 137.544 157.087 138.335C157.087 138.335 157.087 138.364 157.072 138.378C154.182 150.774 160.207 163.083 168.921 171.639C170.633 173.307 172.43 174.889 174.3 176.356C179.419 180.397 185.128 183.704 191.124 186.307C191.57 186.494 192.016 186.695 192.461 186.868C194.46 187.702 196.488 188.464 198.544 189.14C199.004 189.298 199.465 189.442 199.925 189.586C200.37 189.729 200.831 189.873 201.276 190.003C211.731 193.109 222.803 194.806 232.582 199.882C236.148 201.737 239.441 204.081 242.245 206.928C243.208 207.92 244.129 208.97 244.977 210.077C248.428 214.592 250.7 219.913 252.023 225.406C252.613 227.865 253.001 230.324 253.231 232.812C253.576 236.436 253.562 240.088 253.303 243.726Z" fill="black"/>
<path d="M85.0125 99.7971C83.5745 99.7971 82.1797 99.1356 80.9286 98.4741C79.7207 97.8414 78.5847 97.0649 77.5493 96.1877C75.4642 94.4046 73.7961 92.1757 72.732 89.6448C71.5816 86.9558 71.1071 83.9503 71.4378 81.0456C71.7398 78.2846 72.9909 75.2361 75.7662 74.1288C78.9729 72.849 82.2947 75.0635 82.798 78.3421C82.9418 79.2481 84.3223 78.8598 84.1785 77.9539C83.7039 74.819 81.0436 72.4463 77.8657 72.3313C74.6733 72.2163 72.0849 74.5027 70.9058 77.3212C68.2598 83.6627 70.8195 91.5573 75.5074 96.2308C76.7584 97.4819 78.182 98.5604 79.7207 99.4376C81.3169 100.344 83.1575 101.235 85.0269 101.235C85.9472 101.235 85.9472 99.7971 85.0269 99.7971H85.0125Z" fill="black"/>
<path d="M82.6963 94.2897C80.0504 93.8439 80.4099 90.292 80.5824 88.3507C80.8125 85.9493 81.4309 83.289 80.6112 80.945C79.9929 79.1763 78.3392 77.5801 76.3403 77.839C74.6291 78.069 73.2774 79.8665 73.867 81.5634C74.169 82.4262 75.5638 82.0523 75.2475 81.1751C74.9886 80.413 75.4488 79.6365 76.1822 79.3489C77.0162 79.0181 77.9365 79.507 78.4973 80.1254C79.921 81.6928 79.5615 84.2093 79.3601 86.1218C79.0438 89.0841 77.994 94.9511 82.2793 95.6701C83.1852 95.8139 83.5735 94.4335 82.6675 94.2897H82.6963Z" fill="black"/>
<path d="M169.599 99.7685C171.037 99.7685 172.432 99.107 173.683 98.4456C174.891 97.8128 176.027 97.0363 177.062 96.1591C179.147 94.376 180.816 92.1471 181.88 89.6162C183.03 86.9272 183.505 83.9218 183.174 81.017C182.872 78.2561 181.621 75.2075 178.845 74.1002C175.639 72.8204 172.317 75.0349 171.814 78.3136C171.67 79.2195 170.289 78.8313 170.433 77.9253C170.908 74.7905 173.568 72.4178 176.746 72.3027C179.938 72.1877 182.527 74.4741 183.706 77.2926C186.352 83.6342 183.792 91.5288 179.104 96.2023C177.853 97.4533 176.43 98.5318 174.891 99.409C173.295 100.315 171.454 101.207 169.585 101.207C168.664 101.207 168.664 99.7685 169.585 99.7685H169.599Z" fill="black"/>
<path d="M171.913 94.2611C174.559 93.8153 174.199 90.2635 174.027 88.3222C173.796 85.9207 173.178 83.2604 173.998 80.9165C174.616 79.1477 176.27 77.5516 178.269 77.8104C179.98 78.0405 181.332 79.838 180.742 81.5348C180.44 82.3976 179.045 82.0237 179.361 81.1466C179.62 80.3844 179.16 79.6079 178.427 79.3203C177.593 78.9896 176.672 79.4785 176.112 80.0968C174.688 81.6642 175.047 84.1807 175.249 86.0933C175.565 89.0555 176.615 94.9226 172.33 95.6416C171.424 95.7854 171.035 94.4049 171.941 94.2611H171.913Z" fill="black"/>
<path d="M104.228 88.0776C106.761 88.0776 108.815 85.7727 108.815 82.9295C108.815 80.0863 106.761 77.7815 104.228 77.7815C101.694 77.7815 99.6406 80.0863 99.6406 82.9295C99.6406 85.7727 101.694 88.0776 104.228 88.0776Z" fill="black"/>
<path d="M100.451 118.247C105.549 117.833 109.311 112.936 108.854 107.307C108.397 101.679 103.895 97.4521 98.7968 97.8658C93.699 98.2796 89.9367 103.178 90.3935 108.806C90.8503 114.434 95.3531 118.661 100.451 118.247Z" fill="#FF714B"/>
<path d="M129.941 151.45C129.941 151.45 129.898 151.465 129.869 151.465C129.179 151.551 128.417 151.436 127.712 151.436C127.568 151.436 127.424 151.421 127.281 151.421C127.137 151.421 126.993 151.421 126.835 151.436C126.087 151.465 125.354 151.465 124.606 151.45C119.041 151.292 113.519 149.883 108.558 147.309C105.538 145.727 102.734 143.714 100.261 141.355C99.6855 140.823 99.1247 140.263 98.5926 139.673C98.2475 139.313 97.9168 138.94 97.6148 138.566C97.3703 138.307 97.1546 138.048 96.9533 137.775C96.3925 137.113 95.8748 136.423 95.3859 135.718C91.5896 130.297 89.4182 123.812 87.5919 117.513C83.695 104.169 82.2713 84.3819 83.3642 70.534C83.4361 69.6137 84.8741 69.6137 84.8022 70.534C84.2126 78.0691 84.3564 85.6474 85.248 93.1537C86.0533 99.8692 87.4625 112.265 89.4613 118.736C91.3164 124.804 93.5309 130.916 97.3991 136.035C103.798 144.505 113.778 149.538 124.247 149.998C124.865 150.012 125.483 150.027 126.102 150.027C126.173 150.012 126.245 150.012 126.317 150.012C126.634 150.012 126.964 150.012 127.281 149.998H127.295C127.54 150.012 127.798 150.012 128.043 150.012C128.647 150.027 129.28 150.084 129.869 150.027C130.114 149.998 130.286 150.084 130.416 150.213C130.703 150.587 130.545 151.335 129.941 151.45Z" fill="black"/>
<path d="M172.574 50.0855C172.157 41.8889 170.676 33.4478 165.47 26.8474C163.055 23.7845 159.934 21.3543 156.282 19.9738C155.203 16.3788 152.154 13.7904 149.207 11.5615C145.151 8.49855 141.01 5.39248 136.351 3.30738C131.907 1.33732 126.918 0.31634 122.1 1.30856C117.599 2.2145 114.206 5.10488 110.985 8.18219C109.388 9.72085 107.807 11.3026 106.009 12.5968C104.068 13.9917 101.925 14.9552 99.5956 15.4872C94.577 16.6232 89.3571 15.9474 84.2522 16.3788C76.1994 17.0403 67.8015 21.2536 64.0195 28.7024C59.1879 38.1932 65.1987 48.1442 64.3215 58.0088C64.0914 60.4822 63.3581 62.9268 61.9057 64.9831C60.5108 66.9532 58.5839 68.4775 56.7433 70.0161C53.2202 72.9496 49.9991 76.257 47.5401 80.154C45.1242 83.9935 43.4849 88.3794 43.3843 92.9378C43.2836 97.2518 44.6066 101.508 46.8355 105.175C49.0931 108.9 52.228 112.063 55.8086 114.522C56.6139 115.083 57.9656 115.816 57.9943 116.938C58.0231 118.103 56.6426 119.196 56.0674 120.116C54.9314 121.914 54.3418 123.984 54.1693 126.084C53.7522 131.347 56.0387 135.862 59.5186 139.428C62.3371 142.333 65.9608 144.605 69.5558 146.129C74.1287 148.085 79.2048 149.049 84.1515 148.143C88.1635 147.409 92.0318 145.267 94.6345 142.103C95.6987 140.794 96.5327 139.342 97.1079 137.76C97.64 137.803 98.2008 137.286 97.8125 136.725C90.7232 126.271 86.5098 113.99 85.7333 101.379C85.7046 100.775 85.0718 100.574 84.6548 100.775C79.363 98.6898 74.5601 94.7928 72.1011 89.5873C70.8644 86.9558 70.3324 83.9503 70.7781 81.06C71.2095 78.3134 72.5613 75.0923 75.1928 73.7693C77.9681 72.3601 81.2324 73.7405 82.4691 76.444C82.4116 76.4584 82.5122 76.4296 82.4691 76.444C83.073 77.2349 82.7279 78.2702 83.6626 78.2127C90.6225 77.695 94.3613 72.1444 97.7406 66.4355C99.4087 63.6027 100.703 60.5541 102.615 57.865C104.643 54.9891 107.404 53.1628 110.798 52.2712C114.321 51.3509 118.06 51.2071 121.683 51.0777C125.537 50.9195 129.391 50.9051 133.245 50.6319C136.998 50.3731 140.766 49.8985 144.389 48.8488C146.043 48.3743 147.697 47.7559 149.106 46.7349C150.299 45.8578 151.249 44.7361 152.039 43.4994C159.431 50.143 165.039 58.6703 168.188 68.0892C168.389 68.7219 168.591 69.3547 168.778 69.9874C169.252 71.5692 169.641 73.1797 169.971 74.7903C170.23 80.9162 170.029 87.0564 169.295 93.1535C168.505 99.869 167.081 112.265 165.096 118.736C163.227 124.804 161.027 130.915 157.159 136.035C156.742 136.595 156.296 137.128 155.85 137.66C155.836 137.674 155.821 137.688 155.807 137.717C149.394 145.166 140.061 149.566 130.311 149.983C129.564 150.012 128.801 150.026 128.039 150.012C127.795 150.012 127.536 150.012 127.291 149.998H127.277C126.961 150.012 126.63 150.012 126.314 150.012C126.242 150.012 126.17 150.012 126.098 150.026C125.623 150.026 125.134 150.07 124.674 150.026C124.415 149.998 124.243 150.084 124.142 150.228C123.84 150.602 123.998 151.335 124.602 151.45C124.631 151.464 124.646 151.464 124.674 151.464C125.365 151.551 126.127 151.45 126.831 151.436C126.99 151.421 127.133 151.421 127.277 151.421C127.421 151.421 127.565 151.436 127.709 151.436C128.442 151.464 129.19 151.464 129.937 151.45C135.502 151.292 141.039 149.883 145.985 147.309C149.422 145.525 152.557 143.167 155.246 140.406C155.893 139.759 156.512 139.083 157.072 138.379C157.835 137.516 158.51 136.639 159.158 135.718C162.954 130.297 165.125 123.812 166.966 117.513C170.058 106.886 171.582 92.1757 171.524 79.6363C171.798 79.622 172.042 79.4638 172.085 79.1618C172.143 79.0611 172.2 78.9605 172.2 78.8167C172.819 69.2684 173.063 59.6482 172.574 50.0855ZM151.867 40.911C151.105 42.4209 150.199 43.8877 148.933 45.0381C147.625 46.2029 145.971 46.8787 144.317 47.382C140.722 48.4462 136.969 48.9351 133.245 49.1939C126.155 49.6828 118.865 49.1652 111.862 50.56C108.756 51.1784 105.765 52.3863 103.464 54.6296C101.278 56.7722 99.8257 59.5187 98.4309 62.1934C95.2816 68.1755 90.982 74.8622 83.9502 76.2427C82.9005 73.5536 80.3408 71.6698 77.4073 71.7705C73.9417 71.8855 71.5547 74.5171 70.2892 77.5369C67.6002 83.9791 70.1742 91.1116 74.7902 95.9289C77.4648 98.7186 80.7866 100.804 84.3672 102.199C85.2588 114.422 89.2708 126.314 96.015 136.552C94.8215 140.536 91.7442 143.613 88.0485 145.382C83.8352 147.395 78.9747 147.438 74.5169 146.316C69.6134 145.08 64.2352 142.391 60.4677 138.494C57.8937 135.819 56.0674 132.569 55.6504 128.83C55.4203 126.731 55.636 124.559 56.4125 122.589C56.8008 121.612 57.3472 120.706 57.9943 119.886C58.6127 119.081 59.3173 118.261 59.4179 117.211C59.5905 115.126 57.5342 114.005 56.0818 112.969C54.3274 111.718 52.7169 110.28 51.2789 108.698C48.4173 105.578 46.2171 101.782 45.2824 97.6401C44.3046 93.2542 44.9517 88.7101 46.7636 84.6262C48.5611 80.571 51.3508 77.0048 54.5144 73.9131C57.678 70.8358 61.7619 68.42 63.9189 64.4511C68.7937 55.5211 63.0417 45.4551 63.5162 36.1225C63.9764 27.4801 70.9363 21.1961 78.8453 18.8234C87.5596 16.2206 97.5393 19.643 105.606 14.5957C109.158 12.3811 111.847 9.08813 115.04 6.42783C116.737 5.01859 118.635 3.82506 120.749 3.1492C122.977 2.41582 125.35 2.24326 127.694 2.4302C132.598 2.84722 137.127 5.00422 141.226 7.63575C143.296 8.95871 145.295 10.4255 147.265 11.8922C149.02 13.2008 150.788 14.5238 152.298 16.1199C153.406 17.2703 154.34 18.6077 154.844 20.1176C154.815 20.2182 154.8 20.3333 154.829 20.4627C154.944 21.0667 155.03 21.6706 155.102 22.2746C155.865 28.6305 154.772 35.2022 151.867 40.911ZM171.352 63.2288C171.323 65.6734 171.265 68.1036 171.179 70.5338C171.136 69.973 170.604 69.7573 170.187 69.8723C169.971 69.1246 169.741 68.3912 169.482 67.6578C167.239 60.8561 163.759 54.4857 159.215 48.9063C157.259 46.5049 155.102 44.276 152.773 42.2196C156.138 36.1944 157.288 28.9757 156.468 22.1452C156.584 22.0445 156.655 21.8719 156.641 21.6562C162.939 24.3741 167.124 30.5574 169.094 36.9709C170.374 41.1124 170.877 45.4407 171.122 49.7547C171.366 54.2413 171.381 58.7422 171.352 63.2288Z" fill="black"/>
<path d="M151.867 40.9111C151.105 42.421 150.199 43.8878 148.934 45.0382C147.625 46.203 145.972 46.8788 144.318 47.3821C140.723 48.4463 136.97 48.9352 133.245 49.194C126.156 49.6829 118.865 49.1653 111.862 50.5601C108.756 51.1785 105.765 52.3864 103.464 54.6297C101.279 56.7723 99.8262 59.5188 98.4313 62.1935C95.2821 68.1756 90.9825 74.8623 83.9506 76.2428C82.9009 73.5537 80.3413 71.6699 77.4078 71.7706C73.9422 71.8856 71.5551 74.5172 70.2897 77.537C67.6006 83.9792 70.1746 91.1117 74.7906 95.929C77.4653 98.7187 80.787 100.804 84.3677 102.199C85.2592 114.422 89.2712 126.314 96.0155 136.552C94.8219 140.536 91.7446 143.613 88.0489 145.382C83.8356 147.395 78.9752 147.438 74.5174 146.316C69.6138 145.08 64.2357 142.391 60.4681 138.494C57.8941 135.819 56.0679 132.569 55.6508 128.83C55.4208 126.731 55.6364 124.56 56.413 122.589C56.8012 121.612 57.3477 120.706 57.9948 119.886C58.6131 119.081 59.3177 118.261 59.4184 117.211C59.5909 115.126 57.5346 114.005 56.0822 112.969C54.3279 111.718 52.7173 110.28 51.2793 108.698C48.4177 105.578 46.2176 101.782 45.2829 97.6402C44.305 93.2543 44.9521 88.7102 46.764 84.6263C48.5615 80.5711 51.3512 77.0049 54.5148 73.9132C57.6784 70.8359 61.7623 68.4201 63.9193 64.4512C68.7941 55.5212 63.0421 45.4552 63.5167 36.1226C63.9768 27.4802 70.9368 21.1962 78.8457 18.8235C87.56 16.2207 97.5397 19.6431 105.607 14.5958C109.159 12.3813 111.848 9.08824 115.04 6.42794C116.737 5.0187 118.635 3.82516 120.749 3.1493C122.978 2.41592 125.351 2.24336 127.695 2.4303C132.598 2.84732 137.128 5.00432 141.226 7.63586C143.297 8.95882 145.296 10.4256 147.266 11.8923C149.02 13.2009 150.789 14.5239 152.299 16.12C153.406 17.2704 154.341 18.6078 154.844 20.1177C154.815 20.2183 154.801 20.3334 154.83 20.4628C154.945 21.0668 155.031 21.6707 155.103 22.2747C155.865 28.6306 154.772 35.2023 151.867 40.9111Z" fill="black"/>
<path d="M111.601 71.3966C111.026 72.1444 110.077 72.4895 109.2 72.7915C108.049 73.1797 106.884 73.4098 105.705 73.6255C103.448 74.0425 101.219 74.4308 99.1049 75.308C97.9833 75.7681 96.9479 76.3865 95.855 76.9042C95.1217 77.2493 94.1582 77.7094 93.3961 77.2205C91.8718 76.2283 93.1804 73.7837 93.9569 72.7771C94.6903 71.828 95.5962 71.0084 96.574 70.3037C98.7454 68.4919 101.406 67.2983 104.195 66.795C106.122 66.4643 108.222 66.3205 110.019 67.2264C111.515 67.9742 112.809 69.8148 111.572 71.3966H111.601Z" fill="black"/>
<path d="M149.118 88.811C151.652 88.811 153.706 86.5061 153.706 83.6629C153.706 80.8197 151.652 78.5149 149.118 78.5149C146.585 78.5149 144.531 80.8197 144.531 83.6629C144.531 86.5061 146.585 88.811 149.118 88.811Z" fill="black"/>
<path d="M141.747 72.1156C142.322 72.8634 143.271 73.2085 144.149 73.5105C145.299 73.8987 146.464 74.1288 147.643 74.3445C149.901 74.7615 152.13 75.1498 154.243 76.027C155.365 76.4871 156.4 77.1055 157.493 77.6232C158.227 77.9683 159.19 78.4284 159.952 77.9395C161.477 76.9473 160.168 74.5027 159.391 73.4961C158.658 72.547 157.752 71.7274 156.774 71.0227C154.603 69.2109 151.943 68.0173 149.153 67.514C147.226 67.1833 145.126 67.0395 143.329 67.9454C141.833 68.6932 140.539 70.5338 141.776 72.1156H141.747Z" fill="black"/>
<path d="M162.932 108.797C163.389 103.169 159.627 98.2711 154.529 97.8573C149.431 97.4436 144.928 101.671 144.472 107.299C144.015 112.927 147.777 117.825 152.875 118.239C157.973 118.652 162.476 114.425 162.932 108.797Z" fill="#FF714B"/>
<path d="M143.485 123.984C134.296 128.6 123.008 128.456 113.963 123.538C113.158 123.093 112.352 124.286 113.158 124.732C122.649 129.894 134.455 130.124 144.132 125.264C144.952 124.847 144.319 123.567 143.485 123.984Z" fill="black"/>
<path d="M155.249 140.406C155.148 140.981 155.076 141.542 155.033 142.117C154.976 142.16 154.933 142.218 154.89 142.29C150.245 150.127 142.048 154.915 134.024 158.654C124.979 162.868 115.359 165.801 105.523 167.426C100.231 168.289 94.8962 168.749 89.5469 168.821C95.6871 161.415 99.7423 152.198 98.9514 142.39C98.937 142.232 98.9226 142.06 98.9082 141.902C98.8363 141.154 98.7213 140.406 98.5919 139.673C99.1239 140.262 99.6848 140.823 100.26 141.355C102.733 143.713 105.537 145.727 108.557 147.308C113.518 149.882 119.04 151.292 124.605 151.45C124.634 151.464 124.648 151.464 124.677 151.464C125.367 151.55 126.13 151.45 126.834 151.435C126.992 151.421 127.136 151.421 127.28 151.421C127.424 151.421 127.568 151.435 127.711 151.435C128.416 151.435 129.178 151.55 129.868 151.464C129.897 151.464 129.926 151.464 129.94 151.45C135.505 151.292 141.042 149.882 145.988 147.308C149.425 145.525 152.56 143.167 155.249 140.406Z" fill="black"/>
<path d="M162.951 29.7956C162.894 29.6231 162.793 29.4649 162.649 29.3355C162.52 29.1917 162.362 29.091 162.189 29.0335C162.016 28.9472 161.829 28.9041 161.628 28.9041L161.24 28.9616C160.995 29.0335 160.78 29.1485 160.607 29.3355C160.535 29.4361 160.463 29.5224 160.377 29.6231C160.248 29.8531 160.176 30.0832 160.176 30.3421V30.644C160.176 30.8453 160.205 31.0323 160.305 31.2049C160.363 31.3774 160.463 31.5356 160.607 31.665C160.737 31.8088 160.895 31.9095 161.067 31.967C161.24 32.0533 161.427 32.0964 161.628 32.0964C161.758 32.082 161.887 32.0676 162.016 32.0389C162.261 31.967 162.477 31.8519 162.649 31.665L162.879 31.3774C163.009 31.1473 163.081 30.9172 163.081 30.6584V30.3564C163.081 30.1551 163.052 29.9682 162.951 29.7956Z" fill="black"/>
<path d="M160.223 38.7541C160.151 38.5096 160.036 38.2939 159.849 38.1213C159.748 38.0494 159.662 37.9775 159.561 37.8913C159.331 37.7618 159.101 37.6899 158.842 37.6899H158.741C158.54 37.6899 158.353 37.7187 158.181 37.8194C158.008 37.8769 157.85 37.9775 157.72 38.1213C157.577 38.2508 157.476 38.4089 157.418 38.5815C157.332 38.7541 157.289 38.941 157.289 39.1423L157.347 39.5306C157.418 39.775 157.534 39.9907 157.72 40.1633C157.821 40.2352 157.907 40.3071 158.008 40.3934C158.238 40.5228 158.468 40.5947 158.727 40.5947H158.828C159.029 40.5947 159.216 40.5659 159.389 40.4653C159.561 40.4078 159.719 40.3071 159.849 40.1633C159.992 40.0339 160.093 39.8757 160.151 39.7031C160.237 39.5306 160.28 39.3436 160.28 39.1423C160.266 39.0129 160.251 38.8835 160.223 38.7541Z" fill="black"/>
<path d="M165.143 36.3813C165.085 36.2087 164.984 36.0506 164.841 35.9211C164.711 35.7773 164.553 35.6767 164.38 35.6192C164.208 35.5329 164.021 35.4897 163.82 35.4897C163.69 35.5041 163.561 35.5185 163.431 35.5473C163.187 35.6192 162.971 35.7342 162.799 35.9211C162.727 36.0218 162.655 36.1081 162.569 36.2087C162.439 36.4388 162.367 36.6689 162.367 36.9277V37.0284C162.367 37.2297 162.396 37.4167 162.497 37.5892C162.554 37.7618 162.655 37.92 162.799 38.0494C162.928 38.1932 163.086 38.2938 163.259 38.3514C163.431 38.4376 163.618 38.4808 163.82 38.4808L164.208 38.4233C164.452 38.3514 164.668 38.2363 164.841 38.0494C164.912 37.9487 164.984 37.8624 165.071 37.7618C165.2 37.5317 165.272 37.3016 165.272 37.0428V36.9421C165.272 36.7408 165.243 36.5539 165.143 36.3813Z" fill="black"/>
<path d="M164.418 45.944C164.346 45.6995 164.231 45.4838 164.044 45.3113C163.943 45.2394 163.857 45.1675 163.756 45.0812C163.526 44.9518 163.296 44.8799 163.037 44.8799H162.937C162.735 44.8799 162.548 44.9086 162.376 45.0093C162.203 45.0668 162.045 45.1675 161.916 45.3113C161.772 45.4407 161.671 45.5989 161.614 45.7714C161.528 45.944 161.484 46.1309 161.484 46.3323C161.499 46.4617 161.513 46.5911 161.542 46.7205C161.614 46.965 161.729 47.1807 161.916 47.3532C162.016 47.4251 162.103 47.497 162.203 47.5833C162.433 47.7127 162.664 47.7846 162.922 47.7846H163.023C163.224 47.7846 163.411 47.7559 163.584 47.6552C163.756 47.5977 163.915 47.497 164.044 47.3532C164.188 47.2238 164.288 47.0656 164.346 46.8931C164.432 46.7205 164.475 46.5336 164.475 46.3323C164.461 46.2028 164.447 46.0734 164.418 45.944Z" fill="black"/>
<path d="M168.85 41.3855C168.792 41.2129 168.692 41.0547 168.548 40.9253C168.447 40.8534 168.361 40.7815 168.26 40.6952C168.03 40.5658 167.8 40.4939 167.541 40.4939C167.412 40.5083 167.282 40.5227 167.153 40.5514C166.909 40.6233 166.693 40.7384 166.52 40.9253C166.492 40.9541 166.448 40.9972 166.42 41.026C166.276 41.1554 166.175 41.3136 166.118 41.4861C166.031 41.6587 165.988 41.8456 165.988 42.0469C165.988 42.2483 166.017 42.4352 166.118 42.6078C166.175 42.7803 166.276 42.9385 166.42 43.0679C166.52 43.1398 166.607 43.2117 166.707 43.298C166.937 43.4274 167.167 43.4993 167.426 43.4993L167.815 43.4418C168.059 43.3699 168.275 43.2549 168.447 43.0679C168.476 43.0392 168.519 42.996 168.548 42.9673C168.692 42.8378 168.792 42.6797 168.85 42.5071C168.936 42.3345 168.979 42.1476 168.979 41.9463C168.979 41.745 168.951 41.558 168.85 41.3855Z" fill="black"/>
<path d="M168.951 49.4816C168.894 49.3091 168.793 49.1509 168.649 49.0215C168.52 48.8777 168.362 48.777 168.189 48.7195C168.016 48.6332 167.829 48.5901 167.628 48.5901C167.499 48.6045 167.369 48.6188 167.24 48.6476C166.995 48.7195 166.78 48.8345 166.607 49.0215C166.535 49.1221 166.463 49.2084 166.377 49.3091C166.248 49.5392 166.176 49.7692 166.176 50.0281V50.1287C166.176 50.3301 166.205 50.517 166.305 50.6896C166.363 50.8621 166.463 51.0203 166.607 51.1497C166.737 51.2935 166.895 51.3942 167.067 51.4517C167.24 51.538 167.427 51.5811 167.628 51.5811L168.016 51.5236C168.261 51.4517 168.477 51.3367 168.649 51.1497C168.721 51.0491 168.793 50.9628 168.879 50.8621C169.009 50.632 169.081 50.402 169.081 50.1431V50.0425C169.081 49.8411 169.052 49.6542 168.951 49.4816Z" fill="black"/>
<path d="M167.325 55.593C165.47 55.593 165.47 58.469 167.325 58.469C169.18 58.469 169.18 55.593 167.325 55.593Z" fill="black"/>
<path d="M101.405 268.187H69.1509C69.1509 268.187 69.1222 268.072 69.0934 268.029C65.369 261.471 62.3923 254.54 59.2719 247.681C62.0185 243.424 64.9807 239.326 68.1731 235.4C68.7339 234.71 67.7848 233.732 67.1953 234.336C60.8537 230.684 54.1526 227.678 47.5234 224.558C49.853 213.629 51.6217 202.585 52.8009 191.455C55.3318 190.722 57.8195 189.859 60.2929 188.896C60.7386 188.723 61.17 188.55 61.6158 188.363C65.9011 186.609 70.0569 184.51 73.9826 182.065H73.997C74.414 181.806 74.8023 181.547 75.2193 181.274C76.2259 180.613 77.2181 179.937 78.1959 179.232C81.7334 190.592 85.0696 202.039 88.2044 213.528C91.3824 225.248 94.3591 237.025 97.1056 248.86C98.6012 255.288 100.039 261.73 101.405 268.187Z" fill="black"/>
<path d="M152.891 268.187H185.145C185.145 268.187 185.174 268.072 185.202 268.029C188.927 261.471 191.904 254.54 195.024 247.681C192.277 243.424 189.315 239.326 186.123 235.4C185.562 234.71 186.511 233.732 187.101 234.336C193.442 230.684 200.143 227.678 206.772 224.558C204.443 213.629 202.674 202.585 201.495 191.455C198.964 190.722 196.476 189.859 194.003 188.896C193.557 188.723 193.126 188.55 192.68 188.363C188.395 186.609 184.239 184.51 180.313 182.065H180.299C179.882 181.806 179.494 181.547 179.077 181.274C178.07 180.613 177.078 179.937 176.1 179.232C172.562 190.592 169.226 202.039 166.091 213.528C162.913 225.248 159.937 237.025 157.19 248.86C155.695 255.288 154.257 261.73 152.891 268.187Z" fill="black"/>
<path d="M139.084 104.169C138.452 102.831 137.517 101.638 136.841 100.315C134.008 94.7641 132.887 88.5232 131.794 82.4548C131.635 81.5489 130.241 81.9372 130.413 82.8431C131.42 88.365 132.455 93.9301 134.698 99.0925C135.245 100.372 135.878 101.609 136.582 102.803C136.942 103.421 137.387 103.996 137.718 104.629C138.135 105.42 137.991 105.98 137.503 106.685C135.906 108.972 133.692 110.769 131.204 112.006C130.37 112.423 131.103 113.659 131.923 113.242C134.511 111.963 136.755 110.093 138.466 107.778C139.314 106.628 139.731 105.563 139.07 104.183L139.084 104.169Z" fill="black"/>
<path d="M179.461 96.8926C178.655 95.6416 177.649 94.1604 176.024 94.0598C175.104 94.0023 175.104 95.4403 176.024 95.4978C176.599 95.5409 177.03 96.0298 177.376 96.4469C177.807 96.9789 178.21 97.5541 178.54 98.1581C179.231 99.4091 179.274 100.689 178.411 101.868C177.721 102.803 176.484 103.565 175.334 102.975C174.068 102.343 173.68 100.847 173.45 99.5673C173.378 99.1791 172.918 98.9634 172.558 99.064C172.156 99.1791 171.983 99.5673 172.055 99.9556C172.299 101.336 172.76 102.788 173.881 103.723C175.003 104.687 176.441 104.874 177.778 104.241C179.015 103.651 179.993 102.415 180.367 101.12C180.798 99.6392 180.252 98.1581 179.446 96.907L179.461 96.8926Z" fill="black"/>
<path d="M181.07 89.2566C180.811 88.8252 180.323 88.5376 179.819 88.552C179.719 88.552 179.604 88.5664 179.503 88.5952C179.503 88.5952 179.489 88.5952 179.474 88.5952C179.345 88.5952 179.23 88.6239 179.115 88.6958C178.77 88.854 178.539 89.1847 178.439 89.5299C178.338 89.8318 178.338 90.1913 178.439 90.4933C178.554 90.8384 178.77 91.1692 179.1 91.3417C179.302 91.4424 179.532 91.5143 179.762 91.5143C179.992 91.5143 180.208 91.4424 180.409 91.3417C180.567 91.2698 180.711 91.1548 180.811 91.0254C180.97 90.8384 181.07 90.6659 181.171 90.4358C181.315 90.0619 181.272 89.6018 181.07 89.2566Z" fill="black"/>
<path d="M181.819 85.6616C181.819 85.6616 181.819 85.5753 181.804 85.5322C181.804 85.5322 181.804 85.5178 181.804 85.5034C181.79 85.4459 181.747 85.374 181.732 85.3165C181.732 85.3021 181.718 85.2877 181.704 85.2734C181.66 85.2158 181.617 85.1439 181.56 85.1008C181.502 85.0433 181.445 85.0001 181.387 84.957C181.387 84.957 181.358 84.9426 181.344 84.9282C181.344 84.9282 181.33 84.9282 181.315 84.9282C181.258 84.8995 181.186 84.8707 181.128 84.842C181.042 84.8132 180.941 84.7988 180.841 84.7988C180.841 84.7988 180.826 84.7988 180.812 84.7988C180.74 84.7988 180.668 84.7988 180.596 84.8276C180.596 84.8276 180.582 84.8276 180.568 84.8276C180.539 84.8276 180.481 84.8707 180.481 84.8707C180.481 84.8707 180.409 84.8995 180.381 84.9139C180.309 84.957 180.251 85.0001 180.194 85.0577C180.165 85.0864 180.136 85.1296 180.122 85.1439C180.093 85.1727 180.064 85.2015 180.05 85.2446C179.992 85.3309 179.964 85.4172 179.964 85.5178C179.949 85.6185 179.949 85.7048 179.964 85.8054C179.964 85.8054 179.964 85.8054 179.964 85.8198C179.964 85.8773 179.949 85.9348 179.949 85.9924C179.949 86.0786 179.964 86.1937 179.992 86.28C180.021 86.3662 180.05 86.4669 180.107 86.5388C180.151 86.6107 180.208 86.697 180.28 86.7545C180.424 86.8839 180.496 86.9127 180.683 86.9846C180.74 86.9846 180.812 86.999 180.87 87.0133C180.97 87.0133 181.056 86.999 181.143 86.9558C181.2 86.9414 181.258 86.9127 181.301 86.8695C181.373 86.812 181.445 86.7545 181.488 86.6682C181.56 86.5819 181.617 86.4957 181.66 86.395C181.689 86.3231 181.732 86.2368 181.761 86.1649C181.775 86.1074 181.775 86.0499 181.79 85.9924C181.79 85.9348 181.804 85.8917 181.804 85.8342C181.804 85.791 181.804 85.7479 181.79 85.7048L181.819 85.6616Z" fill="black"/>
<path d="M434.779 98.2872C434.635 99.8259 433.974 101.293 432.651 102.17C431.285 103.076 430.034 102.644 428.567 102.414C428.15 102.357 427.747 102.27 427.575 102.731C427.431 103.09 427.546 103.637 427.56 104.01C427.589 104.873 427.575 105.722 427.532 106.584C427.46 108.31 427.244 110.021 426.928 111.718C424.325 125.509 413.698 136.711 400.109 140.119C400.253 140.004 400.353 139.831 400.353 139.601C400.368 139.256 400.382 138.911 400.411 138.566C400.109 138.652 399.793 138.738 399.476 138.81C398.585 139.026 398.959 140.406 399.864 140.19C399.936 140.176 400.023 140.147 400.095 140.133C399.678 140.464 398.901 140.277 398.915 139.601C399.289 128.715 405.904 119.095 406.048 108.195V108.094C406.048 108.094 406.062 107.994 406.062 107.936C406.062 107.232 406.882 107.059 407.285 107.419C411.426 107.303 415.251 105.305 418.17 102.4C420.816 99.7827 422.872 96.4897 424.368 93.0817C425.907 89.5442 426.539 85.6328 425.029 81.9803C423.706 78.7736 420.629 75.5668 416.948 75.5093C413.324 75.4374 410.419 78.4141 408.421 81.1319C408.061 81.6064 407.299 81.592 407.098 80.9593C404.912 73.7118 402.726 66.4787 400.54 59.2312C400.497 59.0874 400.512 58.958 400.54 58.8285C397.65 51.768 393.35 45.3401 387.929 39.9476C386.577 42.2915 385.024 44.5205 383.27 46.5912C379.848 50.56 375.634 53.925 370.788 55.9813C369.58 56.4846 368.329 56.9304 367.064 57.2611C365.956 57.5487 364.633 57.9657 363.483 57.7644C361.312 57.3905 361.642 54.9603 362.275 52.9759C357.731 55.6074 352.137 56.2258 347.061 57.0886C340.561 58.1958 334.047 59.2024 327.519 60.094C325.419 67.0826 324.01 74.2726 323.334 81.5489V81.5921C323.334 81.5921 323.32 81.7071 323.305 81.7646V81.7934C323.305 81.7934 323.291 81.8221 323.291 81.8365C323.133 82.6706 321.796 82.6562 321.867 81.7646V81.7359C320.861 79.8521 319.667 77.9395 317.855 76.7316C316.101 75.5525 313.901 75.1498 311.974 76.1564C309.026 77.7382 307.674 81.362 307.243 84.4824C306.812 87.7754 307.329 91.1404 308.537 94.2177C309.774 97.3957 311.787 100.3 314.289 102.616C316.993 105.132 320.746 107.49 324.6 106.714C325.06 106.613 325.491 106.915 325.506 107.404C325.707 113.156 326.742 118.851 328.597 124.315C330.179 128.988 333.084 134.151 331.315 139.17C331.243 138.911 331.027 138.695 330.668 138.724C330.423 138.738 330.179 138.753 329.935 138.753C329.906 138.868 329.863 138.997 329.82 139.112C329.489 139.96 330.869 140.334 331.214 139.486C331.258 139.385 331.301 139.27 331.315 139.17C331.444 139.572 331.229 140.133 330.668 140.162C327.562 140.363 324.427 139.932 321.494 138.911C316.274 137.084 311.758 133.504 308.969 128.715C306.495 124.488 305.417 119.555 305.819 114.709C305.028 115.371 304.252 116.047 303.461 116.708C302.598 117.441 301.664 118.232 300.484 118.39C297.781 118.721 297.163 115.141 296.846 113.199C296.041 108.253 296.774 102.989 297.68 98.0859C298.557 93.2686 299.952 88.552 301.793 84.0079C303.648 79.4063 305.963 74.9916 308.724 70.8646C310.464 68.2762 312.449 65.8172 314.131 63.1713C316.461 58.2246 317.654 52.7602 319.135 47.4971C321.048 40.7098 323.996 34.3394 327.691 28.3286C331.099 22.7779 335.241 17.5724 340.633 13.8192C350.153 7.19 363.124 6.3272 373.549 11.2595C373.405 10.9 373.305 10.5262 373.276 10.1235C373.19 9.01626 373.635 7.86586 374.613 7.29066C376.856 6.01084 379.718 8.4123 381.487 9.59146C389.496 14.9983 396.126 22.4184 400.598 31.0033C402.899 35.4179 404.423 40.1346 406.062 44.8224C407.73 49.5822 409.657 54.3707 412.979 58.2533C413.137 58.4403 413.18 58.656 413.152 58.8429C417.753 65.2564 423.002 71.2097 427.273 77.8533C429.286 80.9737 431.055 84.238 432.421 87.6892C433.111 89.4148 433.686 91.1835 434.118 92.9954C434.52 94.6922 434.937 96.5329 434.779 98.2872Z" fill="#F4E140"/>
<path d="M345.118 86.5102C347.652 86.5102 349.706 84.2053 349.706 81.3621C349.706 78.519 347.652 76.2141 345.118 76.2141C342.585 76.2141 340.531 78.519 340.531 81.3621C340.531 84.2053 342.585 86.5102 345.118 86.5102Z" fill="black"/>
<path d="M352.5 69.8295C351.924 70.5773 350.975 70.9224 350.098 71.2243C348.948 71.6126 347.783 71.8427 346.604 72.0584C344.346 72.4754 342.117 72.8637 340.003 73.7408C338.882 74.201 337.846 74.8193 336.753 75.337C336.02 75.6821 335.057 76.1423 334.295 75.6534C332.77 74.6612 334.079 72.2166 334.855 71.21C335.589 70.2609 336.495 69.4412 337.472 68.7366C339.644 66.9247 342.304 65.7312 345.094 65.2279C347.021 64.8972 349.12 64.7534 350.918 65.6593C352.413 66.4071 353.707 68.2477 352.471 69.8295H352.5Z" fill="black"/>
<path d="M390.001 87.2436C392.535 87.2436 394.589 84.9387 394.589 82.0955C394.589 79.2524 392.535 76.9475 390.001 76.9475C387.468 76.9475 385.414 79.2524 385.414 82.0955C385.414 84.9387 387.468 87.2436 390.001 87.2436Z" fill="black"/>
<path d="M382.638 70.5485C383.213 71.2962 384.162 71.6414 385.039 71.9433C386.19 72.3316 387.354 72.5617 388.534 72.7774C390.791 73.1944 393.02 73.5827 395.134 74.4598C396.256 74.92 397.291 75.5383 398.384 76.056C399.117 76.4011 400.081 76.8613 400.843 76.3724C402.367 75.3802 401.059 72.9356 400.282 71.929C399.549 70.9799 398.643 70.1602 397.665 69.4556C395.494 67.6437 392.833 66.4502 390.043 65.9469C388.117 65.6161 386.017 65.4723 384.22 66.3783C382.724 67.126 381.43 68.9667 382.667 70.5485H382.638Z" fill="black"/>
<path d="M339.029 117.215C344.127 116.801 347.889 111.903 347.432 106.275C346.976 100.647 342.473 96.4196 337.375 96.8334C332.277 97.2471 328.515 102.145 328.972 107.773C329.428 113.401 333.931 117.628 339.029 117.215Z" fill="#FF714B"/>
<path d="M402.893 107.745C403.35 102.117 399.588 97.2186 394.49 96.8048C389.392 96.3911 384.889 100.618 384.433 106.246C383.976 111.875 387.738 116.772 392.836 117.186C397.934 117.6 402.436 113.373 402.893 107.745Z" fill="#FF714B"/>
<path d="M404.966 173.768C405.023 173.653 405.11 173.538 405.167 173.423C405.081 173.38 404.98 173.337 404.894 173.293C404.764 173.236 404.649 173.164 404.52 173.106C402.866 160.265 401.443 147.395 400.235 134.511C400.148 133.59 398.71 133.59 398.797 134.511C399.99 147.366 401.428 160.208 403.068 173.02C402.794 173.337 402.737 173.84 403.226 174.07C403.283 174.099 403.355 174.127 403.413 174.171C403.815 174.372 404.204 174.573 404.621 174.76C404.693 174.415 404.793 174.084 404.966 173.754V173.768Z" fill="black"/>
<path d="M515.478 242.145C515.464 241.785 515.45 241.44 515.421 241.08C515.263 238.55 514.946 236.019 514.443 233.517C514.414 233.373 514.385 233.229 514.357 233.085C513.695 229.893 512.689 226.772 511.337 223.796C510.819 222.66 510.244 221.538 509.611 220.445C509.511 220.287 509.424 220.114 509.324 219.956C509.122 219.597 508.907 219.252 508.677 218.892C507.052 216.333 505.139 213.974 503.025 211.817C501.76 210.523 500.408 209.315 498.999 208.165C494.167 204.225 488.746 201.176 483.051 198.731C479.284 197.121 475.387 195.769 471.461 194.619C469.98 194.187 468.499 193.77 467.003 193.368C465.22 192.893 463.423 192.433 461.625 192.002C458.965 191.34 456.305 190.722 453.644 190.103C448.036 188.809 442.442 187.486 436.935 185.847C436.173 185.617 435.411 185.372 434.648 185.142C435.037 185.646 435.252 186.25 435.324 186.868C436.69 187.285 438.071 187.688 439.451 188.076C442.04 188.795 444.657 189.471 447.274 190.103C451.531 191.139 455.801 192.088 460.058 193.109C461.841 193.54 463.624 193.972 465.407 194.446C468.053 195.122 470.699 195.87 473.316 196.689C475.286 197.308 477.256 197.984 479.198 198.731C486.718 201.593 493.88 205.418 499.876 210.811C500.236 211.141 500.609 211.472 500.955 211.817C503.644 214.391 505.988 217.253 507.9 220.431C507.914 220.431 507.914 220.445 507.914 220.445C508.26 220.977 508.562 221.524 508.864 222.07C509.266 222.804 509.626 223.551 509.971 224.299C511.322 227.247 512.3 230.353 512.947 233.517C513.192 234.624 513.379 235.731 513.537 236.838C513.781 238.607 513.94 240.376 514.026 242.145V242.188C514.112 243.885 514.127 245.581 514.069 247.293C513.997 249.939 513.781 252.599 513.451 255.23C513.091 258.121 512.588 261.011 512.013 263.858C511.768 265.081 511.509 266.274 511.236 267.482C511.193 267.698 511.15 267.885 511.107 268.086C511.006 268.503 511.222 268.791 511.538 268.906H511.553C511.912 269.064 512.372 268.949 512.487 268.46C512.789 267.18 513.062 265.9 513.321 264.606C513.379 264.362 513.422 264.103 513.465 263.858C514.04 261.011 514.529 258.121 514.874 255.23C515.248 252.297 515.478 249.349 515.521 246.401C515.55 244.977 515.536 243.554 515.464 242.145H515.478Z" fill="black"/>
<path d="M511.412 267.497H219.858C218.938 267.497 218.938 268.935 219.858 268.935H511.412C512.333 268.935 512.333 267.497 511.412 267.497Z" fill="black"/>
<path d="M385.295 126.817C374.942 131.606 362.906 132.224 352.092 128.629C351.215 128.341 350.841 129.722 351.704 130.01C362.891 133.734 375.316 133.001 386.014 128.054C386.848 127.666 386.129 126.429 385.295 126.817Z" fill="black"/>
<path d="M308.522 95.1955C307.041 91.9888 306.278 88.2932 306.595 84.7557C306.897 81.3764 308.651 77.7814 311.987 76.5016C315.769 75.0492 319.968 77.1055 321.349 80.8443C321.392 80.9737 321.478 81.06 321.564 81.1463C322.053 89.5011 322.931 97.8415 324.11 106.139C317.25 105.88 311.355 101.35 308.522 95.1955ZM369.22 155.462C369.119 155.405 368.99 155.39 368.846 155.405C367.724 155.548 366.603 155.62 365.495 155.62C364.244 155.649 362.993 155.591 361.771 155.462C351.158 154.398 341.466 148.171 335.384 139.285C334.219 137.588 333.198 135.833 332.306 134.022C330.279 129.923 328.884 125.537 327.992 121.008C326.497 113.415 325.476 105.693 324.555 98.014C323.52 89.3429 322.815 80.6142 322.614 71.8856C322.6 70.9509 321.162 70.9509 321.176 71.8856C321.219 73.9276 321.291 75.9839 321.392 78.0258C319.767 75.912 317.25 74.5603 314.446 74.6034C310.535 74.6609 307.429 77.3931 306.034 80.9162C304.51 84.7557 304.97 89.2854 306.192 93.1392C307.4 96.8924 309.528 100.387 312.534 102.975C315.827 105.794 319.983 107.49 324.311 107.591C324.901 111.589 325.548 115.558 326.252 119.512C327.173 124.646 328.596 129.636 330.84 134.295C331.213 135.071 331.602 135.833 332.033 136.596C332.45 137.343 332.881 138.077 333.342 138.81C336.836 144.274 341.524 148.977 347.146 152.212C352.711 155.405 359.096 157.173 365.495 157.058C366.617 157.058 367.739 156.972 368.846 156.843C369.608 156.742 369.737 155.721 369.22 155.462Z" fill="black"/>
<path d="M319.362 100.919C316.932 100.473 315.681 97.8701 316.299 95.5837C316.63 94.3614 317.363 93.3116 318.298 92.4632C318.643 92.1469 319.103 91.9168 319.405 91.5429C319.736 91.1403 319.75 90.6513 319.765 90.1624C319.865 87.7897 319.204 85.3739 317.953 83.3463C316.845 81.5632 314.947 79.4781 312.618 79.8232C309.828 80.2402 309.181 83.4757 310.116 85.7046C310.461 86.553 311.856 86.1792 311.496 85.3164C310.95 84.0222 310.806 82.0809 312.345 81.3762C313.739 80.7291 315.177 82.0377 315.983 83.0443C316.932 84.2091 317.608 85.604 317.982 87.0707C318.154 87.7466 318.269 88.4512 318.312 89.1558C318.327 89.4434 318.327 89.731 318.312 90.0186C318.312 90.5075 318.312 90.5938 317.938 90.8958C315.983 92.492 314.43 94.7353 314.688 97.3812C314.919 99.7107 316.601 101.868 318.959 102.299C319.865 102.472 320.254 101.077 319.348 100.919H319.362Z" fill="black"/>
<path d="M406.867 106.153C408.046 97.8558 408.923 89.5155 409.412 81.1607C409.498 81.0888 409.57 80.9881 409.628 80.8587C411.008 77.1199 415.222 75.0636 418.989 76.5159C422.325 77.7958 424.08 81.3908 424.382 84.7701C424.698 88.2932 423.936 92.0032 422.455 95.2099C419.622 101.365 413.726 105.894 406.867 106.153ZM424.957 80.9162C423.548 77.3931 420.442 74.6609 416.53 74.6034C413.726 74.5603 411.224 75.912 409.585 78.0258C409.685 75.9839 409.757 73.9276 409.8 71.8856C409.815 70.9509 408.377 70.9509 408.362 71.8856C408.175 80.6142 407.456 89.3429 406.421 98.014C405.501 105.693 404.48 113.415 402.984 121.008C401.69 127.551 399.375 133.777 395.593 139.285C394.04 141.557 392.242 143.656 390.244 145.554C390.244 145.554 390.234 145.564 390.215 145.583C387.08 148.56 383.456 150.99 379.531 152.715C376.266 154.168 372.786 155.117 369.206 155.462C367.983 155.591 366.732 155.649 365.481 155.62C364.374 155.62 363.252 155.548 362.131 155.405C361.987 155.39 361.858 155.405 361.757 155.462C361.239 155.721 361.369 156.742 362.131 156.843C363.238 156.972 364.36 157.058 365.481 157.058C367.006 157.101 368.515 157.015 370.025 156.828C373.304 156.44 376.525 155.577 379.588 154.297C379.602 154.297 379.617 154.283 379.631 154.283C381.069 153.679 382.464 152.989 383.816 152.212C386.634 150.587 389.208 148.603 391.523 146.345C393.824 144.088 395.866 141.542 397.621 138.81C398.498 137.444 399.274 136.049 399.964 134.611C402.308 129.866 403.775 124.775 404.71 119.512C405.414 115.558 406.062 111.589 406.651 107.591C410.98 107.49 415.15 105.794 418.428 102.975C421.434 100.387 423.576 96.8924 424.77 93.1392C425.992 89.2854 426.452 84.7557 424.943 80.9162H424.957Z" fill="black"/>
<path d="M411.626 100.919C414.056 100.473 415.308 97.8701 414.689 95.5837C414.358 94.3614 413.625 93.3116 412.69 92.4632C412.345 92.1469 411.885 91.9168 411.583 91.5429C411.252 91.1403 411.238 90.6513 411.224 90.1624C411.123 87.7897 411.784 85.3739 413.035 83.3463C414.143 81.5632 416.041 79.4781 418.37 79.8232C421.16 80.2402 421.807 83.4757 420.873 85.7046C420.527 86.553 419.133 86.1792 419.492 85.3164C420.039 84.0222 420.182 82.0809 418.644 81.3762C417.249 80.7291 415.811 82.0377 415.006 83.0443C414.056 84.2091 413.381 85.604 413.007 87.0707C412.834 87.7466 412.719 88.4512 412.676 89.1558C412.662 89.4434 412.662 89.731 412.676 90.0186C412.676 90.5075 412.676 90.5938 413.05 90.8958C415.006 92.492 416.559 94.7353 416.3 97.3812C416.07 99.7107 414.387 101.868 412.029 102.299C411.123 102.472 410.735 101.077 411.641 100.919H411.626Z" fill="black"/>
<path d="M370.039 156.828C362.619 159.244 354.754 160.121 346.931 160.265C341.15 160.366 335.355 160.107 329.574 159.819C330.495 152.083 331.314 144.346 332.033 136.595C332.45 137.343 332.882 138.077 333.342 138.81C336.836 144.274 341.524 148.977 347.147 152.212C352.712 155.404 359.096 157.173 365.495 157.058C367.02 157.101 368.53 157.015 370.039 156.828Z" fill="black"/>
<path d="M369.133 115.069C367.522 115.069 365.926 115.025 364.33 114.896C363.984 114.867 363.639 114.839 363.309 114.81C363.122 114.795 362.532 114.81 362.36 114.695C361.943 114.407 362.072 112.883 362.058 112.423C361.899 109.345 361.885 106.268 362 103.191C362.23 96.9211 363.035 90.6802 364.373 84.5543C364.574 83.6483 363.179 83.2601 362.992 84.166C361.497 90.9821 360.663 97.942 360.519 104.916C360.49 106.656 360.49 108.396 360.548 110.151C360.576 111.028 360.605 111.891 360.663 112.768C360.706 113.458 360.663 114.22 360.85 114.896C361.238 116.248 362.69 116.19 363.855 116.291C365.624 116.449 367.393 116.507 369.176 116.507C370.096 116.507 370.096 115.069 369.176 115.069H369.133Z" fill="black"/>
<path d="M415.554 50.1721C415.137 48.1302 413.684 46.7641 412.577 45.096C411.973 44.19 411.614 43.2697 411.642 42.1625C411.671 41.0552 412.03 39.9911 412.289 38.927C412.706 37.2733 413.181 34.7855 411.757 33.4626C411.038 32.7867 409.989 32.873 409.083 32.9018C408.752 32.9018 408.407 32.9305 408.076 32.9449C407.889 29.4218 406.696 25.985 404.625 23.1377C402.267 19.8879 399.117 17.9897 395.565 16.3073C393.638 15.4013 391.668 14.4666 390.058 13.0574C388.49 11.6769 387.283 9.9513 385.902 8.38388C383.342 5.47912 380.064 3.30775 376.469 1.88413C368.646 -1.20757 359.874 -0.258491 352.31 3.12081C348.241 4.93268 344.689 7.77992 340.519 9.3761C336.622 10.8716 332.423 11.6913 328.885 13.9921C322.199 18.3348 318.978 26.4164 318.647 34.1528C318.359 34.1528 318.072 34.1528 317.784 34.1528C315.627 34.2247 314.261 35.6627 313.959 37.7478C313.599 40.3362 315.081 42.7521 314.534 45.3548C314.017 47.8426 312.521 49.9996 312.061 52.5017C311.716 54.3567 311.86 56.2692 312.952 57.7935C312.881 58.1818 313.111 58.6563 313.614 58.6995C326.858 59.8499 340.145 60.2381 353.418 60.5976C366.532 60.9571 379.704 61.3454 392.79 59.9937C399.851 59.2603 406.854 58.0236 413.713 56.183C413.943 56.1973 414.187 56.1254 414.36 55.881C415.554 54.2417 415.971 52.1566 415.582 50.1577L415.554 50.1721ZM328.152 16.2641C331.244 13.7476 335.083 12.7266 338.808 11.49C340.677 10.8716 342.503 10.1526 344.258 9.2323C346.17 8.21132 347.982 7.0034 349.88 5.93928C356.941 1.99917 365.439 0.187289 373.363 2.35867C376.958 3.35089 380.38 5.10524 383.141 7.62174C386.031 10.2533 387.958 13.6901 391.366 15.7608C395.019 17.961 399.103 19.1114 402.094 22.3181C404.812 25.2228 406.437 29.0767 406.638 33.0456C406.178 33.0743 405.703 33.1175 405.243 33.1606C402.568 33.4194 399.908 33.7933 397.233 34.0953C392.1 34.6561 386.937 34.728 381.789 34.7568C371.019 34.7999 360.248 34.8431 349.492 34.7712C344.099 34.7424 338.721 34.6705 333.329 34.5698C330.697 34.5123 328.066 34.4548 325.434 34.3829C323.665 34.3398 321.868 34.2103 320.085 34.1528C320.387 27.4805 322.889 20.5781 328.181 16.2641H328.152ZM413.325 54.8025C410.995 55.4352 408.666 55.9529 406.322 56.4418C406.365 56.2261 406.394 56.0104 406.408 55.7803C406.465 54.6443 406.408 53.4795 406.408 52.3435C406.408 49.942 406.408 47.5406 406.408 45.1391C406.408 44.2188 404.97 44.2188 404.97 45.1391C404.97 47.2242 404.97 49.2949 404.97 51.38V54.5005C404.97 55.0038 405.186 56.3124 404.654 56.6431C404.596 56.6863 404.553 56.7438 404.51 56.7869C399.707 57.7072 394.861 58.3687 390 58.8001C390.101 58.3687 390.13 57.9086 390.144 57.434C390.187 56.2549 390.216 55.0901 390.259 53.9109C390.331 51.567 390.417 49.2087 390.489 46.8647C390.518 45.9444 389.08 45.9444 389.051 46.8647C388.979 48.9642 388.907 51.0637 388.836 53.1632C388.807 54.1698 388.764 55.1764 388.735 56.183C388.721 56.6863 388.706 57.1896 388.677 57.6929C388.663 58.0955 388.663 58.57 388.433 58.9295C384.018 59.2747 379.589 59.4616 375.146 59.5047C374.182 59.5047 373.205 59.5047 372.241 59.5047C372.284 59.2028 372.299 58.9008 372.342 58.6707C372.514 57.3909 372.658 56.1254 372.788 54.8456C373.046 52.286 373.205 49.7263 373.291 47.1523C373.32 46.232 371.882 46.232 371.853 47.1523C371.781 49.2949 371.652 51.4376 371.465 53.5658C371.378 54.5868 371.278 55.6078 371.163 56.6287C371.105 57.1464 371.048 57.6497 370.976 58.1674C370.933 58.4838 370.889 58.8001 370.846 59.1165C370.832 59.2459 370.817 59.3753 370.789 59.5047C364.893 59.5047 358.997 59.4185 353.101 59.2459C353.461 54.6731 354.007 50.1146 354.784 45.5993C354.942 44.6933 353.547 44.3051 353.403 45.211C352.612 49.8414 352.037 54.5149 351.678 59.2028C346.63 59.0446 341.583 58.8576 336.55 58.6707C336.579 54.2848 337.01 49.9133 337.887 45.5993C338.074 44.6933 336.679 44.3051 336.507 45.211C335.615 49.6257 335.155 54.0979 335.126 58.5988C330.482 58.4119 325.837 58.153 321.192 57.8367C321.422 54.7881 321.81 51.7827 322.443 48.7916C322.63 47.8857 321.25 47.4974 321.063 48.4034C320.401 51.4807 320.013 54.6012 319.769 57.736C317.985 57.6066 316.188 57.5059 314.405 57.3477C314.405 57.3477 314.405 57.3334 314.39 57.319C311.414 54.141 315.037 49.3381 315.843 46.0451C316.389 43.8449 315.8 41.9324 315.44 39.7754C315.124 37.9204 315.526 35.7059 317.784 35.6052C320.2 35.4902 322.673 35.749 325.089 35.8209C325.981 35.8497 326.887 35.864 327.778 35.8784C327.088 39.7323 326.7 43.6292 326.628 47.5406C326.613 48.4609 328.051 48.4609 328.066 47.5406C328.138 43.6436 328.526 39.761 329.216 35.9216C330.352 35.9503 331.488 35.9791 332.624 36.0078C336.176 36.0797 339.728 36.1085 343.265 36.1516C342.503 40.9402 342.101 45.7718 342.072 50.6179C342.072 51.5382 343.51 51.5382 343.51 50.6179C343.524 45.8294 343.913 41.0408 344.689 36.3098C344.689 36.2667 344.689 36.2235 344.689 36.1804C345.581 36.1804 346.458 36.2092 347.349 36.2092C352.023 36.2379 356.696 36.2523 361.37 36.2523C360.852 41.4291 360.708 46.6203 360.938 51.8114C360.982 52.7318 362.42 52.7318 362.376 51.8114C362.146 46.6203 362.29 41.4291 362.808 36.2523C367.596 36.2523 372.37 36.2379 377.159 36.2235C377.964 36.2235 378.77 36.2235 379.589 36.2235C379.632 36.2954 379.69 36.3817 379.776 36.4392C380.136 36.7125 380.064 37.2158 380.078 37.6184C380.107 38.1792 380.121 38.7544 380.136 39.3152C380.164 40.4081 380.179 41.501 380.193 42.5939C380.193 44.8228 380.164 47.0517 380.093 49.2806C380.064 50.2009 381.502 50.2009 381.531 49.2806C381.617 46.7928 381.66 44.3051 381.631 41.8173C381.631 40.5951 381.588 39.3728 381.545 38.1505C381.531 37.5465 381.545 36.8275 381.344 36.2235C384.78 36.2235 388.232 36.1804 391.668 36.0078C393.423 35.9216 395.163 35.749 396.917 35.5621C397.464 40.178 397.866 44.794 398.139 49.4387C398.197 50.3591 399.635 50.3591 399.577 49.4387C399.304 44.7509 398.902 40.0774 398.341 35.4039C401.001 35.1019 403.661 34.7568 406.336 34.5411C407.558 34.4404 408.881 34.2679 410.089 34.3685C411.513 34.4979 411.398 36.2667 411.225 37.3596C410.894 39.4015 409.974 41.3716 410.362 43.4854C410.751 45.5849 412.448 46.9941 413.512 48.7485C414.662 50.661 414.547 52.9762 413.382 54.8312L413.325 54.8025Z" fill="black"/>
<path d="M345.063 14.0065C339.354 17.2132 330.208 16.7099 327.648 24.0581C327.346 24.9352 328.727 25.3091 329.029 24.4463C330.064 21.484 332.998 19.7441 335.802 18.7375C339.138 17.5439 342.675 17.0119 345.782 15.2575C346.587 14.7973 345.868 13.5607 345.063 14.0208V14.0065Z" fill="black"/>
<path d="M355.3 7.49196C355.113 7.18998 354.624 7.00304 354.322 7.23312C352.64 8.48417 350.943 9.72085 349.26 10.9719C348.944 11.202 348.786 11.5903 349.002 11.9498C349.189 12.2517 349.678 12.4387 349.979 12.2086C351.662 10.9575 353.359 9.72085 355.041 8.46979C355.358 8.23971 355.516 7.85145 355.3 7.49196Z" fill="black"/>
<path d="M352.511 15.3721C352.338 15.0701 351.835 14.8832 351.533 15.1132C349.534 16.6088 347.478 18.0036 345.335 19.2834C344.544 19.758 345.263 21.009 346.054 20.5201C348.197 19.2403 350.253 17.8454 352.252 16.3499C352.568 16.1198 352.727 15.7316 352.511 15.3721Z" fill="black"/>
<path d="M331.316 139.17C331.301 139.27 331.258 139.385 331.215 139.486C330.87 140.334 329.49 139.96 329.82 139.112C329.863 138.997 329.907 138.868 329.935 138.753C330.18 138.753 330.424 138.738 330.669 138.724C331.028 138.695 331.244 138.911 331.316 139.17Z" fill="#F4E140"/>
<path d="M400.41 138.566C400.381 138.911 400.367 139.256 400.353 139.601C400.353 139.831 400.252 140.004 400.108 140.119V140.133C400.036 140.147 399.95 140.176 399.878 140.191C398.972 140.406 398.598 139.026 399.49 138.81C399.806 138.738 400.123 138.652 400.425 138.566H400.41Z" fill="#F4E140"/>
<path d="M331.316 139.17C331.301 139.27 331.258 139.385 331.215 139.486C330.87 140.334 329.49 139.96 329.82 139.112C329.863 138.997 329.907 138.868 329.935 138.753C330.18 138.753 330.424 138.738 330.669 138.724C331.028 138.695 331.244 138.911 331.316 139.17Z" fill="#F4E140"/>
<path d="M400.41 138.566C400.381 138.911 400.367 139.256 400.353 139.601C400.353 139.831 400.252 140.004 400.108 140.119V140.133C400.036 140.147 399.95 140.176 399.878 140.191C398.972 140.406 398.598 139.026 399.49 138.81C399.806 138.738 400.123 138.652 400.425 138.566H400.41Z" fill="#F4E140"/>
<path d="M332.189 134.079C331.959 133.562 331.01 133.633 330.837 134.295C330.823 134.338 330.809 134.381 330.809 134.424C329.673 146.705 328.307 158.971 326.753 171.208C324.165 167.656 320.239 164.967 315.882 164.32C313.725 163.99 310.648 164.105 309.871 166.635C309.167 168.936 310.734 170.806 311.539 172.833C309.239 172.287 306.866 172.114 304.508 172.402C302.077 172.704 299.532 173.351 297.548 174.846C295.908 176.083 294.801 177.924 295.261 180.023C295.635 181.691 297.016 183.101 297.404 184.754C296.311 185.099 295.218 185.444 294.125 185.761C288.488 187.429 282.779 188.766 277.056 190.104C271.204 191.47 265.365 192.836 259.599 194.533C256.867 195.338 254.149 196.229 251.489 197.265C250.252 197.725 249.044 198.214 247.836 198.732C247.304 198.962 246.772 199.192 246.254 199.436C241.193 201.723 236.404 204.555 232.061 208.079C230.623 209.243 229.257 210.494 227.963 211.817C226.094 213.744 224.382 215.815 222.901 218.044C222.714 218.303 222.556 218.562 222.384 218.82C222.038 219.353 221.708 219.899 221.406 220.445C220.485 222.056 219.68 223.738 218.99 225.464C217.998 227.894 217.25 230.425 216.703 232.999C216.66 233.172 216.632 233.344 216.603 233.517C216.028 236.364 215.711 239.24 215.596 242.145C215.51 243.942 215.51 245.74 215.567 247.537C215.625 249.536 215.769 251.549 215.999 253.534C216.056 254.109 216.114 254.67 216.186 255.231C216.545 258.135 217.02 261.011 217.595 263.859C217.638 264.089 217.681 264.304 217.724 264.534C217.983 265.814 218.271 267.094 218.558 268.374C218.673 268.863 219.119 268.978 219.479 268.834H219.493C219.81 268.719 220.04 268.417 219.939 268C219.896 267.827 219.867 267.669 219.824 267.497C219.551 266.274 219.292 265.081 219.047 263.859C218.472 261.011 217.969 258.121 217.609 255.231C217.466 254.152 217.351 253.059 217.264 251.966C217.092 250.097 216.977 248.213 216.962 246.329C216.934 244.935 216.948 243.54 217.02 242.145C217.092 240.347 217.264 238.55 217.509 236.752C217.667 235.674 217.839 234.595 218.07 233.517C218.76 230.137 219.81 226.844 221.305 223.724C221.578 223.134 221.866 222.559 222.182 221.984C222.47 221.466 222.757 220.949 223.074 220.445C223.735 219.353 224.44 218.274 225.202 217.253C226.64 215.312 228.251 213.485 230.005 211.817C230.379 211.444 230.767 211.084 231.17 210.725C236.116 206.281 241.854 202.902 247.922 200.27C249.145 199.709 250.367 199.206 251.618 198.732C252.15 198.53 252.682 198.329 253.229 198.142C254.71 197.581 256.22 197.078 257.73 196.603C266.156 193.957 274.827 192.174 283.427 190.104C286.159 189.442 288.891 188.752 291.594 187.99C293.579 187.429 295.549 186.825 297.519 186.207C297.677 186.854 298.842 186.782 298.943 185.962C299.173 184.064 297.95 182.54 297.145 180.944C296.167 179.002 296.714 177.262 298.425 175.982C300.237 174.631 302.624 174.056 304.838 173.811C307.384 173.523 309.943 173.797 312.402 174.53C312.963 174.703 313.38 174.156 313.294 173.639C312.92 171.553 311.007 169.756 311.166 167.585C311.367 164.838 315.451 165.586 317.162 166.075C320.987 167.153 324.237 169.785 326.308 173.135C326.308 173.135 326.293 173.135 326.279 173.15C326.322 173.178 326.351 173.222 326.38 173.25C326.495 173.452 326.624 173.639 326.739 173.825C327.055 174.386 327.731 174.199 327.976 173.768C328.019 173.768 328.076 173.754 328.12 173.739C328.177 173.653 328.206 173.552 328.206 173.452C328.206 173.265 328.12 173.063 327.99 172.92C328.493 169.023 328.968 165.126 329.428 161.229C329.486 160.754 329.543 160.28 329.586 159.805C330.507 152.069 331.326 144.332 332.045 136.581C332.132 135.862 332.189 135.129 332.261 134.41C332.275 134.281 332.247 134.165 332.204 134.065L332.189 134.079Z" fill="black"/>
<path d="M403.271 172.114C397.361 191.844 388.072 210.293 378.135 228.254C375.619 232.812 373.045 237.328 370.485 241.857C363.798 234.02 357.586 225.809 351.892 217.239C346.01 208.381 340.661 199.149 335.916 189.629C333.226 184.237 330.724 178.758 328.424 173.178C328.078 172.33 326.684 172.704 327.043 173.567C331.156 183.503 335.872 193.195 341.179 202.542C346.485 211.889 352.366 220.906 358.794 229.519C362.288 234.207 365.941 238.751 369.737 243.195C369.709 243.252 369.68 243.295 369.651 243.353C369.191 244.158 370.442 244.877 370.888 244.072C371.003 243.885 371.103 243.683 371.218 243.497C371.218 243.468 371.247 243.453 371.262 243.425C381.299 225.766 391.336 208.007 398.871 189.097C401.043 183.647 402.998 178.125 404.681 172.503C404.939 171.611 403.559 171.237 403.3 172.114H403.271Z" fill="black"/>
<path d="M404.694 206.324C397.518 215.93 390.127 225.378 382.534 234.653C380.363 237.313 378.163 239.959 375.948 242.576C375.359 243.281 376.365 244.302 376.969 243.597C384.763 234.322 392.342 224.875 399.718 215.269C401.804 212.537 403.874 209.804 405.931 207.058C406.491 206.31 405.24 205.605 404.694 206.339V206.324Z" fill="black"/>
<path d="M408.322 220.043C400.916 226.672 393.51 233.316 386.105 239.945C385.414 240.563 386.435 241.584 387.126 240.966C394.531 234.337 401.937 227.693 409.343 221.064C410.033 220.446 409.012 219.425 408.322 220.043Z" fill="black"/>
<path d="M359.987 242.576C352.481 233.085 344.601 223.911 336.361 215.053C335.728 214.377 334.707 215.398 335.34 216.074C343.58 224.918 351.46 234.106 358.966 243.597C359.541 244.316 360.548 243.295 359.987 242.576Z" fill="black"/>
<path d="M352.93 244.043C345.726 237.5 338.191 231.345 330.339 225.608C329.592 225.061 328.873 226.312 329.62 226.844C337.371 232.524 344.806 238.607 351.909 245.064C352.6 245.682 353.606 244.676 352.93 244.043Z" fill="black"/>
<path d="M380.526 259.587C380.252 258.94 379.648 258.61 378.973 258.696C378.973 258.667 378.973 258.653 378.973 258.624C378.958 258.221 378.656 257.919 378.254 257.905C375.392 254.238 372.947 250.255 371.006 246.027C370.69 245.337 369.784 245.711 369.712 246.343C369.539 246.415 369.381 246.559 369.309 246.804C368.705 248.975 368.116 251.161 367.512 253.332C367.253 254.281 367.023 255.23 366.721 256.165C366.462 256.927 366.117 257.689 365.398 258.106C365.398 258.106 365.398 258.106 365.383 258.121C364.895 258.078 364.406 258.193 364.003 258.48C363.284 258.983 362.91 259.76 363.054 260.637C363.169 261.385 363.744 262.09 364.434 262.392C365.211 262.737 366.102 262.665 366.807 262.161C367.526 261.658 368.015 260.853 368.001 259.947C368.001 259.285 367.684 258.739 367.181 258.394C368.058 257.272 368.36 255.705 368.72 254.367C369.295 252.282 369.87 250.183 370.445 248.098C372.228 251.707 374.371 255.13 376.816 258.336C376.269 258.71 375.838 259.285 375.723 259.933C375.507 261.184 376.283 262.377 377.477 262.78C378.613 263.154 379.922 262.521 380.425 261.442C380.698 260.853 380.784 260.177 380.526 259.559V259.587Z" fill="black"/>
<path d="M442.4 178.729C441.767 176.644 439.51 175.393 437.554 174.803C434.822 173.984 431.845 173.739 429.012 173.969C426.366 174.171 423.807 174.818 421.376 175.824C422.282 174.171 423.562 172.718 424.18 170.921C424.784 169.181 424.813 166.938 423.49 165.5C421.793 163.659 418.946 164.234 416.818 164.781C414.474 165.37 412.202 166.334 410.131 167.599C407.73 169.066 405.616 170.95 403.862 173.135C403.286 173.854 404.307 174.875 404.883 174.156C408.334 169.828 413.266 166.808 418.73 165.845C420.097 165.6 421.837 165.471 422.699 166.808C423.289 167.729 423.231 168.965 422.973 169.986C422.311 172.575 420.097 174.487 419.306 177.047C419.104 177.679 419.823 178.125 420.355 177.852C423.375 176.328 426.711 175.465 430.105 175.364C433.024 175.264 436.504 175.508 439.064 177.032C440.128 177.665 441.307 178.715 441.106 180.081C440.962 181.044 440.214 181.691 439.423 182.18C437.568 183.302 435.397 183.906 434.103 185.761C433.571 186.523 434.822 187.242 435.339 186.48C436.461 184.869 438.632 184.352 440.228 183.36C441.81 182.367 443.004 180.699 442.414 178.744L442.4 178.729Z" fill="black"/>
<path d="M317.655 214.449C309.501 205.763 302.958 195.611 298.443 184.582C298.098 183.733 296.703 184.107 297.063 184.97C301.679 196.23 308.308 206.583 316.648 215.47C317.281 216.146 318.302 215.125 317.669 214.449H317.655Z" fill="black"/>
<path d="M434.868 184.783C432.926 189.025 430.309 192.908 427.75 196.79C425.003 200.946 422.256 205.116 419.51 209.272C418.992 210.049 420.243 210.768 420.746 209.991C423.493 205.835 426.24 201.665 428.986 197.509C431.546 193.627 434.163 189.744 436.104 185.502C436.493 184.668 435.242 183.935 434.868 184.783Z" fill="black"/>
</g>
<defs>
<clipPath id="clip0_1138_4980">
<rect width="515.105" height="269.682" fill="white" transform="translate(0.445312)"/>
</clipPath>
</defs>
</svg>
