<svg width="141" height="140" viewBox="0 0 141 140" fill="none" xmlns="http://www.w3.org/2000/svg">
<path d="M92.5941 14.0224C99.9453 16.8585 106.666 21.1148 112.372 26.5483C118.078 31.9817 122.659 38.4859 125.851 45.6894C129.044 52.8929 130.786 60.6548 130.979 68.5318C131.172 76.4087 129.812 84.2466 126.976 91.5978C124.14 98.949 119.883 105.67 114.45 111.376C109.016 117.082 102.512 121.662 95.3087 124.855C88.1052 128.048 80.3434 129.79 72.4664 129.983C64.5894 130.176 56.7516 128.816 49.4004 125.979C42.0492 123.143 35.3286 118.887 29.6223 113.454C23.916 108.02 19.3358 101.516 16.1432 94.3124C12.9505 87.1089 11.208 79.347 11.0151 71.4701C10.8222 63.5931 12.1826 55.7553 15.0187 48.404C17.8549 41.0528 22.1112 34.3322 27.5446 28.626C32.978 22.9197 39.4822 18.3395 46.6857 15.1468C53.8893 11.9542 61.6511 10.2117 69.5281 10.0187C77.4051 9.82582 85.2429 11.1863 92.5941 14.0224L92.5941 14.0224Z" stroke="#4A74EB" stroke-opacity="0.2" stroke-width="20"/>
<path d="M92.5941 14.0224C98.4682 16.2887 103.949 19.4654 108.835 23.436" stroke="#4A74EB" stroke-width="20" stroke-linecap="round"/>
</svg>
