<svg width="67" height="67" viewBox="0 0 67 67" fill="none" xmlns="http://www.w3.org/2000/svg">
<circle cx="33.2164" cy="33.2152" r="30" transform="rotate(6.5259 33.2164 33.2152)" fill="#F4E140"/>
<path d="M33.913 30.8199C34.3632 30.8714 34.7774 31.0247 35.1355 31.2536L38.2344 28.7907C38.6394 28.4687 39.2305 28.5364 39.5524 28.9415C39.8744 29.3466 39.8067 29.9377 39.4017 30.2597L36.3016 32.7236C36.4446 33.1243 36.5004 33.5615 36.4489 34.0118C36.3588 34.7995 35.9563 35.4789 35.3785 35.9381C35.0396 36.2092 34.6397 36.4041 34.2073 36.5003L33.5377 42.3533C33.4788 42.8679 33.0134 43.2379 32.4988 43.179C31.9842 43.1202 31.6143 42.6547 31.6732 42.14L32.3426 36.2881C31.9433 36.097 31.5972 35.8185 31.3281 35.4796L31.2785 35.4107C30.8525 34.8426 30.6342 34.1166 30.7211 33.3577C30.8115 32.5671 31.2141 31.8869 31.7917 31.4288C32.3693 30.9697 33.1219 30.7308 33.9124 30.8212L33.913 30.8199ZM47.0727 24.4386C47.262 23.9569 47.8066 23.7208 48.2883 23.9098C48.7699 24.0991 49.0061 24.6438 48.817 25.1255L47.5481 28.342C47.3588 28.8237 46.8142 29.0598 46.3326 28.8708L43.1164 27.6018C42.6348 27.4125 42.3987 26.8679 42.5877 26.3861C42.777 25.9044 43.3216 25.6683 43.8033 25.8573L44.6131 26.1766C43.0796 23.9195 40.9211 22.2407 38.4794 21.2775C35.3265 20.0338 31.7017 19.9837 28.3458 21.4171C28.2985 21.4429 28.2479 21.4646 28.1967 21.4822C24.8607 22.9547 22.4243 25.6371 21.1816 28.7901C19.9285 31.9678 19.8861 35.6229 21.353 38.9992C22.8182 42.3734 25.516 44.8366 28.692 46.0894C32.8912 47.7458 36.7547 47.1677 40.5122 45.0832C41.6337 44.5588 42.4202 46.1221 41.4178 46.7262C37.3612 49.1308 32.4417 49.5833 28.0058 47.8337C24.3875 46.4063 21.3115 43.595 19.6377 39.7398C17.9648 35.8875 18.0116 31.7216 19.4378 28.1033C20.8652 24.4846 23.6763 21.4082 27.5312 19.7342L27.5501 19.726C31.3973 18.0617 35.5551 18.1094 39.1664 19.5342C42.1666 20.717 44.7946 22.852 46.5583 25.7447L47.0727 24.4386ZM48.7957 33.3528C48.7839 32.1849 46.9848 32.0774 46.9184 33.359C46.9235 33.9668 46.9064 34.5288 46.8418 35.1343C46.7071 36.3119 48.4817 36.6159 48.7029 35.3775C48.7871 34.7164 48.8055 34.0178 48.7958 33.3517L48.7957 33.3528ZM46.9049 41.0299C47.4601 39.9986 46.0185 39.0791 45.319 40.0324C44.9771 40.5779 44.7052 41.0635 44.3223 41.5949C43.6833 42.4664 44.7821 43.5856 45.6868 42.8675C45.7408 42.8161 45.7832 42.7755 45.8278 42.7154C46.2239 42.175 46.5809 41.6172 46.9049 41.0299ZM34.373 33.0584C34.2129 32.8569 33.9749 32.7164 33.6999 32.6849C33.4248 32.6535 33.1612 32.7366 32.9598 32.8967C32.7583 33.0569 32.6178 33.2949 32.5863 33.5699C32.5566 33.8301 32.6275 34.078 32.7666 34.2725L32.7972 34.31C32.9573 34.5115 33.1953 34.652 33.4704 34.6835C33.7454 34.715 34.009 34.6318 34.2104 34.4717C34.4117 34.3133 34.5522 34.0753 34.5839 33.7985C34.6136 33.5383 34.5426 33.2913 34.4036 33.096L34.373 33.0584Z" fill="black"/>
</svg>
