<svg width="215" height="142" viewBox="0 0 215 142" fill="none" xmlns="http://www.w3.org/2000/svg">
<path d="M5.62841 133.797C11.2247 122.389 17.7555 112.195 25.5608 103.518C25.9097 102.631 26.0878 101.941 27.0369 101.164C27.8532 100.673 28.5947 100.108 29.3158 99.5402C29.9185 98.9419 30.5242 98.3361 31.1216 97.7401C31.7437 97.1584 32.3606 96.5788 32.9722 96.0016C33.3681 95.5597 33.7715 95.1209 34.1951 94.6859C34.2004 94.6836 34.2199 94.6566 34.2282 94.6469C34.8133 93.8762 34.444 93.8848 33.8482 94.1202C33.2417 94.4471 32.6616 94.7193 32.1515 94.9369C32.4775 94.7978 33.2638 94.3385 33.8482 94.1202C34.5795 93.7215 35.3373 93.2246 36.1802 92.5921C37.2989 91.5132 38.4801 90.3766 39.8582 89.4104C38.5033 90.708 37.3178 91.7906 36.1802 92.5921C35.4842 93.2923 34.8445 93.9932 34.1951 94.6859C34.0257 94.9008 33.8585 95.121 33.6809 95.3457C36.5656 92.738 39.5603 90.3006 42.659 88.005C43.3419 87.4346 43.9947 86.8956 44.5145 86.4382C45.5937 85.5436 46.6663 84.6332 47.7233 83.9343C48.787 83.2511 49.8 82.726 50.7258 82.5794C51.3129 82.236 51.9082 81.8828 52.5087 81.5275C52.3766 81.5528 52.2331 81.5953 52.0935 81.6177C52.3775 81.4966 52.6239 81.4039 52.8305 81.3344C54.0722 80.5877 55.3678 79.9235 56.638 79.2143C57.9426 78.5711 59.2225 77.8702 60.5555 77.2645C61.3366 76.7204 62.1179 76.1328 62.9276 75.5828C63.7418 75.0432 64.574 74.5022 65.4271 73.9956C65.4271 73.9956 65.7792 73.9758 66.225 73.9718C66.6686 73.9626 67.194 73.9557 67.5476 73.9538C68.1309 73.2956 69.082 72.6107 70.2978 72.0364C68.6403 72.129 67.1224 72.2427 65.7288 72.4585C64.6495 72.4782 63.791 73.3221 62.8645 74.0647C61.9283 74.799 60.9777 75.558 59.588 75.4185C60.9799 75.5633 61.9305 74.8042 62.8645 74.0647C63.791 73.3221 64.6472 72.473 65.7288 72.4585C67.1202 72.2374 68.6403 72.129 70.2978 72.0364C72.7883 70.7634 76.3457 69.9661 79.303 69.9335C78.4832 70.3141 77.6943 70.6506 76.9108 70.8978C76.5217 71.0203 76.1334 71.13 75.7489 71.2196C75.3711 71.3248 74.9941 71.4173 74.6179 71.4971C73.8707 71.6544 73.1319 71.7585 72.4104 71.8304C71.6926 71.9256 70.9922 71.9885 70.3031 72.0342C69.0925 72.6063 68.1391 73.2858 67.5528 73.9516C67.2068 73.9564 66.6761 73.9656 66.2303 73.9696C65.7844 73.9736 65.4324 73.9934 65.4324 73.9934C64.5845 74.4977 63.7523 75.0387 62.9329 75.5805C62.1254 76.1358 61.3419 76.7181 60.5607 77.2622C61.8524 76.6617 63.1396 76.0508 64.4687 75.5088C65.1284 75.2337 65.7791 74.9376 66.453 74.6812C67.1193 74.4219 67.7932 74.1655 68.4649 73.9039C69.8037 73.3702 71.1843 72.949 72.5485 72.4603C73.2403 72.2459 73.9343 72.0368 74.6314 71.8202C75.3284 71.6036 76.0202 71.3893 76.7329 71.2094C85.8035 68.7498 95.0141 67.6823 104.035 68.2099C108.531 68.464 113.032 69.1505 117.325 70.1802C121.553 71.275 125.647 72.9604 128.838 75.5023C130.422 76.7688 131.743 78.2471 132.648 79.9026C132.889 80.3084 133.041 80.7524 133.251 81.1716C133.414 81.6111 133.542 82.0588 133.694 82.5028C133.777 82.9579 133.862 83.4055 133.96 83.8539L134.049 85.2303C134.068 88.9328 132.061 92.7237 129.077 95.5352C127.584 96.9473 125.856 98.1432 123.999 99.0219C123.074 99.4601 122.111 99.8271 121.137 100.094C120.666 100.257 120.118 100.342 119.601 100.457C119.084 100.585 118.546 100.634 118.016 100.717C113.74 101.288 109.208 100.763 104.672 99.601C99.7511 98.3367 94.926 96.3799 90.1131 94.3496C85.3264 92.3081 80.6618 90.1153 76.1243 87.769C73.853 86.597 71.6147 85.386 69.4119 84.1413C68.3131 83.5178 67.2173 82.8869 66.1298 82.2462C65.5834 81.927 65.0873 81.6236 64.6316 81.3277C64.4023 81.1835 64.1888 81.0326 63.985 80.8899C63.8868 80.8201 63.7812 80.7472 63.6935 80.6729C63.5909 80.5926 63.5564 80.5701 63.486 80.507C62.9842 80.0881 62.5425 79.6064 62.2541 79.0468C61.9583 78.4842 61.8383 77.8529 61.8195 77.2404C61.8113 76.9151 61.8215 76.7059 61.8446 76.1625C61.8743 75.6783 61.9169 75.1513 61.9851 74.5824L62.2129 72.872L62.3269 72.0168L62.4888 71.1721C63.3051 66.673 64.6082 62.3386 66.4346 58.2402C68.2354 54.1402 70.4591 50.2446 73.0904 46.6344C78.3013 39.3801 84.9537 33.174 92.4377 28.1892C96.1884 25.7025 100.167 23.5466 104.299 21.7349C106.363 20.8175 108.483 20.0313 110.618 19.2946C112.773 18.6051 114.941 17.9599 117.15 17.4707L118.807 17.0993L120.472 16.7923C121.569 16.5665 122.737 16.4471 123.878 16.2955C125.024 16.1544 126.173 15.993 127.32 15.8699C128.482 15.7963 129.641 15.7301 130.809 15.6542L132.556 15.5543C133.137 15.5302 133.729 15.5504 134.316 15.5421C135.489 15.5509 136.666 15.5575 137.844 15.5641C139.019 15.5782 140.207 15.698 141.394 15.7691L143.168 15.8933L144.055 15.9618L144.948 16.0715C152.239 16.7718 162.645 17.8811 173.029 19.974C183.405 22.0459 193.722 24.8561 200.724 27.1071C203.163 27.5934 205.179 27.8753 206.849 27.9882C208.513 28.1288 209.829 28.095 210.855 27.9365C212.906 27.6143 213.807 26.7832 214.055 25.7902C214.565 23.8103 212.478 21.1886 212.084 20.8479C207.162 16.0843 202.02 13.6608 195.135 11.3043C193.423 10.6876 191.577 10.1345 189.605 9.51757C187.642 8.87813 185.514 8.27748 183.224 7.58519C180.945 6.86293 178.453 6.20714 175.779 5.37423C174.437 4.96639 173.03 4.59821 171.569 4.16024C170.837 3.94501 170.095 3.72152 169.333 3.49425C168.565 3.28198 167.785 3.06893 166.989 2.84988C169.174 3.38237 170.571 3.90347 171.34 4.26418C172.111 4.63014 172.256 4.86644 171.9 4.99347C171.544 5.1205 170.688 5.12552 169.456 5.0364C168.223 4.94203 166.596 4.82922 164.72 4.59918C160.95 4.14058 156.111 3.54882 151.172 2.94346L150.24 2.81345L149.303 2.71643C148.678 2.64824 148.055 2.57257 147.429 2.50438C146.18 2.36052 144.945 2.17394 143.72 2.01362C142.496 1.88403 141.294 1.73272 140.127 1.56047C138.959 1.40096 137.826 1.16428 136.736 1.02734C135.166 0.772167 133.537 0.567148 131.867 0.398066C130.196 0.254471 128.483 0.259255 126.732 0.249002C125.855 0.262993 124.966 0.23274 124.077 0.320178C123.186 0.389624 122.286 0.463557 121.379 0.552476C120.472 0.641392 119.557 0.740047 118.636 0.840944C117.716 0.941841 116.767 1.13566 115.822 1.2965C108.268 2.70616 100.554 5.50547 93.2933 9.48298C86.0129 13.444 79.1516 18.5044 73.0331 24.3153C66.9048 30.118 61.5462 36.6907 57.0956 43.658C52.6472 50.6305 49.4964 59.2028 48.0602 69.2155L47.8501 70.4282L47.6985 71.647L47.4178 74.0935C47.3452 74.9435 47.2873 75.8864 47.2893 76.9404L47.2935 77.373L47.3102 77.8932C47.3304 78.2321 47.3453 78.5732 47.3783 78.9128C47.4367 79.5891 47.5333 80.2676 47.6563 80.9349C48.1556 83.6072 49.2618 86.1572 50.928 88.3009C51.7585 89.3738 52.7124 90.3569 53.7595 91.2382C54.2853 91.6841 54.821 92.0947 55.3851 92.4994C55.6279 92.6751 55.8295 92.8126 56.046 92.956L56.674 93.3645C57.4924 93.8842 58.2441 94.3206 58.9097 94.7007L60.8113 95.7636C62.0795 96.4637 63.3516 97.1436 64.6266 97.816C67.1851 99.151 69.7646 100.434 72.3736 101.654C77.5841 104.092 82.8852 106.305 88.2664 108.297C93.6536 110.275 99.4814 112.251 106.065 113.229C109.349 113.715 112.828 113.931 116.432 113.678C117.332 113.617 118.243 113.495 119.146 113.396C120.06 113.236 120.969 113.109 121.88 112.9L123.245 112.572L123.929 112.398L124.658 112.168C125.632 111.858 126.612 111.546 127.521 111.127C131.228 109.559 134.516 107.356 137.373 104.612C140.206 101.852 142.622 98.4953 144.247 94.4641C144.681 93.4848 144.973 92.3922 145.277 91.3258C145.444 90.8012 145.526 90.2203 145.63 89.6612C145.726 89.0991 145.827 88.5347 145.9 87.9636C145.944 87.3804 145.974 86.7965 145.998 86.2096C146.028 85.6256 146.046 85.0409 145.991 84.4442C145.95 83.8534 145.902 83.2596 145.849 82.6681C145.813 82.0751 145.654 81.4977 145.541 80.9128C145.418 80.3325 145.296 79.7394 145.136 79.1747C144.957 78.6243 144.773 78.0761 144.576 77.5271C144.395 76.9714 144.158 76.4457 143.911 75.9244C143.664 75.4031 143.423 74.8668 143.149 74.3695C142.563 73.3906 141.985 72.3839 141.298 71.5165C140.956 71.0791 140.629 70.6042 140.267 70.2065L139.168 68.9998C137.666 67.4748 136.062 66.1176 134.415 65.0265C133.594 64.4401 132.759 63.9706 131.924 63.4704C131.089 63.0137 130.249 62.5592 129.403 62.1632C126.025 60.5693 122.624 59.4447 119.188 58.6454C118.254 58.4232 117.414 58.291 116.553 58.1371C115.699 57.999 114.846 57.8353 113.996 57.7384C112.297 57.5573 110.62 57.3417 108.96 57.2986C108.13 57.2617 107.305 57.2225 106.49 57.2043C105.672 57.2116 104.862 57.2219 104.052 57.2322C103.652 57.2415 103.25 57.2456 102.85 57.2549C102.451 57.2821 102.05 57.3042 101.657 57.3292C100.867 57.3868 100.075 57.4391 99.2962 57.4922C93.0433 58.0615 87.2404 59.3944 81.7402 60.9706C77.6959 61.9818 73.5307 63.0445 69.6053 64.2469C65.6866 65.465 62.022 66.8417 58.9637 68.27C49.3933 72.8663 42.1029 78.451 35.87 84.3728C39.5142 81.2427 42.7936 78.6714 46.3244 76.1792C49.8738 73.7162 53.6625 71.3187 58.4932 68.8429C60.1082 68.0239 60.7089 67.9167 60.5965 68.1632C60.4907 68.4254 59.6733 69.0594 58.5776 69.93C56.3391 71.6044 52.9868 74.1943 51.092 75.567C50.3098 76.2107 49.0584 76.6141 47.7695 77.0024C46.4858 77.3885 45.2282 77.8504 44.4812 78.5474C40.8514 81.0261 38.0535 84.0124 34.7835 87.3491C33.4992 88.9143 32.6482 87.5895 32.0031 88.3796C29.7428 90.659 28.0918 93.0259 26.6898 95.175C25.2705 97.3129 24.0732 99.2133 22.5755 100.584C21.4972 101.671 20.4365 102.681 19.4687 103.721C18.9788 104.234 18.492 104.739 18.0134 105.235C17.5468 105.744 17.0855 106.251 16.6272 106.751C15.4974 108.051 14.4973 109.409 13.5134 110.92C12.9819 111.904 12.43 112.927 11.878 113.951C12.7964 113.466 13.4665 113.522 14.1223 113.602C13.0759 114.879 11.5832 116.67 10.6297 118.02C11.5832 116.67 13.0737 114.874 14.1223 113.602C13.4665 113.522 12.7964 113.466 11.878 113.951C10.957 115.814 10.0014 117.742 9.02232 119.717C8.51707 120.689 8.083 121.712 7.62341 122.733C7.16683 123.747 6.70949 124.773 6.24688 125.802L5.55558 127.344L4.92129 128.918C4.49617 129.961 4.07328 131.01 3.65343 132.052C2.76649 134.112 2.07751 136.242 1.30695 138.283C1.35652 138.268 1.42938 138.25 1.48421 138.232C1.97646 137.054 2.48292 135.895 3.01188 134.745C3.53333 133.592 4.17397 132.5 4.79514 131.391C5.43131 130.288 6.09748 129.198 6.8064 128.12C7.5528 127.057 8.36142 126.023 9.21359 124.99C7.79884 126.803 7.55449 126.361 8.75206 124.039C9.30484 123.586 9.85761 123.133 10.4021 122.69C9.48808 124.774 8.55011 126.83 7.51553 128.792C6.53268 130.787 5.39627 132.655 3.91885 134.321C3.91885 134.321 3.43307 136.229 3.19585 137.174C2.40704 138.385 1.99261 138.127 1.48421 138.232C1.10518 139.151 0.702889 140.073 0.368073 141.023C1.12816 140.196 2.46558 138.391 3.56834 136.779C4.11445 135.975 4.62891 135.228 4.99802 134.68C5.38438 134.143 5.63064 133.802 5.63064 133.802L5.62841 133.797Z" fill="#4A74EB"/>
</svg>
