<svg width="560" height="350" viewBox="0 0 560 350" fill="none" xmlns="http://www.w3.org/2000/svg">
<g filter="url(#filter0_d_867_2112)">
<rect x="10" y="5" width="540" height="330" rx="12" fill="white"/>
<rect x="10.5" y="5.5" width="539" height="329" rx="11.5" stroke="#D9DBE1"/>
</g>
<path d="M10.4991 17C10.4991 10.6482 15.6482 5.49908 22 5.49908H538C544.352 5.49908 549.501 10.6482 549.501 17V35.4436H10.4991V17Z" fill="white"/>
<circle cx="37.4506" cy="20.4713" r="3.49353" fill="#E0754F"/>
<circle cx="49.4271" cy="20.4713" r="3.49353" fill="#F5DA63"/>
<circle cx="61.4076" cy="20.4713" r="3.49353" fill="#60AB41"/>
<path d="M10.4991 17C10.4991 10.6482 15.6482 5.49908 22 5.49908H538C544.352 5.49908 549.501 10.6482 549.501 17V35.4436H10.4991V17Z" stroke="#D9DBE1" stroke-width="0.998152"/>
<path d="M231.541 76.0222H240.979V77.0443V78.0983C239.733 78.0824 238.488 78.0664 237.418 78.0664C237.418 82.5381 237.418 87.0098 237.466 88.016C237.13 87.984 236.619 87.984 236.252 87.984C235.916 87.984 235.421 87.984 235.07 88.016C235.118 87.0258 235.118 82.5541 235.118 78.0664C234.048 78.0664 232.802 78.0824 231.541 78.0983V77.0443V76.0222ZM248.913 84.1671V83.7998C248.162 83.656 247.363 83.6241 246.501 83.6241C245.048 83.6241 244.393 84.0553 244.393 85.0774C244.393 86.0037 244.904 86.4988 246.198 86.4988C247.938 86.4988 248.913 85.5725 248.913 84.1671ZM248.992 86.2433L248.881 86.2273C248.418 87.5209 247.204 88.1597 245.351 88.1597C243.259 88.1597 242.157 87.3612 242.157 85.3329C242.157 83.4005 243.499 82.5221 246.325 82.5221C247.427 82.5221 248.354 82.6339 248.929 82.8096C248.945 82.4742 248.945 82.1548 248.945 81.8993C248.945 80.7015 248.338 80.0787 246.549 80.0787C245.303 80.0787 243.882 80.462 242.876 81.0369C242.748 80.446 242.524 79.5197 242.349 79.0566C243.531 78.5774 245.08 78.1462 246.629 78.1462C250.047 78.1462 251.244 79.5996 251.244 81.7396C251.244 82.9693 251.196 83.9116 251.196 85.0934C251.196 86.2273 251.276 87.5369 251.42 88H249.488C249.04 88 248.961 87.9361 248.961 87.4091C248.961 87.0737 248.976 86.6425 248.992 86.2433ZM260.132 78.3698H262.528C261.522 80.8452 259.414 86.4189 258.871 88C258.503 87.984 258.088 87.984 257.481 87.984C256.81 87.984 256.267 87.984 256.044 88C255.437 86.403 253.377 80.9091 252.355 78.3698H254.894C255.133 79.2801 256.092 81.8354 256.683 83.7359C257.05 84.8059 257.289 85.6044 257.433 86.2273H257.561C257.737 85.6044 257.992 84.774 258.359 83.7199C258.95 81.7556 259.861 79.2482 260.132 78.3698ZM270.769 83.113C270.769 80.989 269.619 80.0787 267.942 80.0787C266.281 80.0787 265.131 80.973 265.131 83.113C265.131 85.2531 266.265 86.3071 267.942 86.3071C269.651 86.3071 270.769 85.2371 270.769 83.113ZM272.94 83.0492C272.94 86.2752 270.976 88.2076 267.942 88.2076C264.923 88.2076 262.991 86.2752 262.991 83.0492C262.991 79.8072 265.035 78.1462 267.942 78.1462C270.848 78.1462 272.94 79.8072 272.94 83.0492ZM281.898 88H279.615C279.663 86.1155 279.663 84.0872 279.663 81.9153C279.663 79.4558 279.663 77.6831 279.615 75.6389H281.898C281.85 77.6033 281.866 79.3281 281.866 81.9951C281.866 84.3428 281.85 86.0516 281.898 88ZM291.491 78.3698H293.695C293.663 79.4718 293.663 80.5897 293.663 82.2506C293.663 83.7199 293.695 84.9976 293.695 86.0835C293.695 88.8943 292.497 90.3796 288.856 90.3796C286.923 90.3796 285.278 89.9644 284.304 89.3894C284.544 88.8784 284.783 88.016 284.911 87.5049C285.997 88.1757 287.371 88.5111 288.776 88.5111C290.597 88.5111 291.523 87.984 291.523 86.4828C291.539 85.9718 291.539 85.5565 291.587 84.9976L291.507 84.9816C290.98 86.0037 289.942 86.5946 288.297 86.5946C285.71 86.5946 284.496 85.5885 284.496 83.5762C284.496 82.2826 284.512 81.6917 284.512 80.7973C284.512 79.9349 284.512 79.1204 284.48 78.3698H286.748C286.716 79.5037 286.716 80.7494 286.716 82.9214C286.716 84.2469 287.355 84.9177 288.872 84.9177C290.357 84.9177 291.507 84.1511 291.507 82.5381C291.507 80.4779 291.491 79.1364 291.491 78.3698ZM303.168 82.6978V80.6855C302.498 80.0946 301.571 79.7593 300.597 79.7593C298.952 79.7593 298.201 80.5738 298.201 82.5381C298.201 84.2949 299.032 84.9976 300.501 84.9976C302.082 84.9976 303.168 84.1671 303.168 82.6978ZM303.12 78.3698H305.356C305.34 79.2003 305.324 80.3821 305.324 81.8514C305.324 83.2089 305.356 84.5823 305.356 85.8759C305.356 88.8624 304.238 90.3796 300.613 90.3796C298.633 90.3796 297.004 89.9644 296.029 89.3894C296.301 88.8784 296.525 88.016 296.652 87.5049C297.706 88.1757 299.064 88.5111 300.469 88.5111C302.162 88.5111 303.168 88 303.2 86.4668C303.2 86.0037 303.216 85.5246 303.264 84.9656L303.168 84.9496C302.657 85.9079 301.603 86.5786 299.958 86.5786C297.227 86.5786 295.982 85.2052 295.998 82.5221C295.998 79.6634 297.403 78.1942 299.83 78.1942C301.443 78.1942 302.466 78.7212 303.088 79.5197L303.152 79.4878C303.152 79.2961 303.136 79.1045 303.12 78.9448V78.3698ZM310.651 76.6291C310.651 77.0762 310.411 77.4435 309.23 77.4435C308.016 77.4435 307.792 77.0762 307.792 76.6291C307.792 76.1499 308.048 75.8465 309.23 75.8465C310.38 75.8465 310.651 76.1499 310.651 76.6291ZM310.348 88H308.08C308.112 86.4349 308.112 84.9816 308.112 83.0172C308.112 81.1487 308.112 79.8551 308.08 78.3698H310.348C310.3 79.8711 310.3 81.1327 310.3 83.0811C310.3 85.2052 310.3 86.4509 310.348 88ZM312.717 81.0209C312.717 79.3121 314.282 78.1622 317.029 78.1622C318.498 78.1622 319.983 78.4177 321.133 78.8649C321.006 79.4878 320.926 80.0946 320.83 80.7175C319.888 80.2224 318.259 79.9669 317.029 79.9828C315.336 79.9828 314.729 80.3502 314.729 81.005C314.729 81.3084 314.841 81.5479 315.176 81.7236C315.496 81.9312 316.135 82.059 317.125 82.1548C318.69 82.2986 319.856 82.586 320.526 83.129C321.085 83.6081 321.357 84.2949 321.357 85.2052C321.357 87.1216 319.808 88.2076 316.933 88.2076C315.272 88.2076 313.627 87.8403 312.509 87.3133C312.637 86.6745 312.749 86.0197 312.845 85.3968C313.963 86.0037 315.464 86.371 317.013 86.371C318.818 86.371 319.345 85.9238 319.345 85.2211C319.345 84.9177 319.249 84.6302 318.945 84.4386C318.53 84.1671 317.891 84.0713 316.773 83.9755C315.336 83.8477 314.266 83.5922 313.579 83.0971C313.004 82.6339 312.717 81.9632 312.717 81.0209ZM323.982 85.1253C324.86 85.1253 325.371 85.6364 325.371 86.5946C325.371 87.5528 324.876 88.0958 323.982 88.0958C323.056 88.0958 322.593 87.5528 322.593 86.5946C322.593 85.6364 323.088 85.1253 323.982 85.1253ZM323.998 78.1942C324.876 78.1942 325.387 78.7212 325.387 79.6634C325.387 80.6217 324.908 81.1487 323.998 81.1487C323.072 81.1487 322.593 80.6217 322.593 79.6634C322.593 78.7212 323.104 78.1942 323.998 78.1942Z" fill="black"/>
<path d="M257.118 237.75H259.934C259.34 239.807 258.174 244.746 257.866 246C257.36 245.989 256.623 245.978 255.787 245.978C254.687 245.978 254.038 245.989 253.675 246C253.389 244.746 252.19 239.697 251.585 237.75H254.588C254.676 238.564 255.138 240.852 255.512 242.656C255.644 243.206 255.754 243.723 255.831 244.163H255.853C255.93 243.723 256.04 243.184 256.172 242.645C256.546 240.852 257.019 238.487 257.118 237.75ZM263.169 238.058C263.169 238.388 262.982 238.707 261.684 238.707C260.364 238.707 260.177 238.388 260.177 238.058C260.177 237.684 260.397 237.453 261.684 237.453C262.96 237.453 263.169 237.684 263.169 238.058ZM262.982 246H260.364C260.397 244.944 260.397 243.778 260.397 242.447C260.397 241.193 260.386 240.192 260.364 239.147H262.982C262.949 240.203 262.949 241.182 262.949 242.59C262.949 244.086 262.949 244.977 262.982 246ZM268.719 242.821V241.083C268.433 240.951 268.081 240.874 267.663 240.874C266.882 240.874 266.486 241.27 266.486 242.557C266.486 243.778 266.882 244.185 267.531 244.185C268.213 244.185 268.719 243.767 268.719 242.821ZM268.664 237.486H271.304C271.271 238.685 271.282 239.884 271.282 241.908C271.282 243.657 271.271 244.834 271.304 246.011H268.675C268.675 245.769 268.686 245.538 268.686 245.274C268.686 245.109 268.686 244.933 268.697 244.757L268.62 244.746C268.334 245.45 267.718 246.099 266.486 246.099C264.924 246.099 263.956 245.12 263.956 242.59C263.956 240.038 265.122 239.037 266.629 239.037C267.586 239.037 268.268 239.356 268.664 240.038L268.697 240.027C268.675 239.642 268.675 239.323 268.675 238.905C268.675 238.377 268.686 237.937 268.664 237.486ZM277.099 239.147H279.728C279.706 240.126 279.706 241.006 279.706 242.557C279.706 244.009 279.706 245.043 279.728 246H277.11C277.121 245.571 277.121 245.252 277.143 244.867L277.077 244.856C276.681 245.725 275.933 246.11 274.789 246.11C273.436 246.11 272.556 245.461 272.556 243.91C272.556 242.755 272.578 242.161 272.578 241.413C272.578 240.566 272.578 239.862 272.545 239.147H275.185C275.152 240.126 275.152 241.468 275.152 243.118C275.152 243.811 275.394 244.086 275.999 244.086C276.626 244.086 277.121 243.712 277.121 242.744C277.121 240.555 277.11 239.84 277.099 239.147ZM280.549 239.147L281.253 239.158C281.264 238.685 281.264 238.234 281.264 237.849C281.66 237.871 282.1 237.871 282.529 237.871C282.958 237.871 283.409 237.871 283.805 237.849C283.794 238.267 283.772 238.707 283.761 239.169C284.542 239.169 285.312 239.158 285.939 239.147C285.917 239.829 285.884 240.632 285.895 241.325C285.455 241.314 284.619 241.292 283.728 241.281C283.717 241.831 283.717 242.414 283.717 243.041C283.717 243.536 283.937 243.723 284.553 243.723C285.07 243.723 285.51 243.646 285.851 243.514C285.884 244.207 286.005 245.164 286.093 245.835C285.444 246 284.905 246.088 284.091 246.088C281.858 246.088 281.209 245.087 281.209 243.569C281.209 242.942 281.22 242.117 281.231 241.248L280.56 241.237C280.56 240.61 280.571 239.73 280.549 239.147ZM289.777 238.058C289.777 238.388 289.59 238.707 288.292 238.707C286.972 238.707 286.785 238.388 286.785 238.058C286.785 237.684 287.005 237.453 288.292 237.453C289.568 237.453 289.777 237.684 289.777 238.058ZM289.59 246H286.972C287.005 244.944 287.005 243.778 287.005 242.447C287.005 241.193 286.994 240.192 286.972 239.147H289.59C289.557 240.203 289.557 241.182 289.557 242.59C289.557 244.086 289.557 244.977 289.59 246ZM298.033 246H295.393C295.415 245.043 295.426 243.745 295.426 242.139C295.426 241.424 295.195 241.138 294.568 241.138C293.941 241.138 293.446 241.49 293.446 242.48C293.446 244.603 293.457 245.318 293.468 246H290.85C290.872 245.021 290.883 244.141 290.883 242.59C290.883 241.127 290.872 240.093 290.85 239.147H293.468C293.457 239.576 293.457 239.895 293.435 240.28L293.501 240.302C293.908 239.422 294.678 239.048 295.778 239.048C297.197 239.048 298.011 239.686 298.011 241.325C298.011 242.425 297.989 242.986 297.989 243.701C297.989 244.559 298 245.274 298.033 246ZM302.024 238.058C302.024 238.388 301.837 238.707 300.539 238.707C299.219 238.707 299.032 238.388 299.032 238.058C299.032 237.684 299.252 237.453 300.539 237.453C301.815 237.453 302.024 237.684 302.024 238.058ZM301.837 246H299.219C299.252 244.944 299.252 243.778 299.252 242.447C299.252 241.193 299.241 240.192 299.219 239.147H301.837C301.804 240.203 301.804 241.182 301.804 242.59C301.804 244.086 301.804 244.977 301.837 246ZM302.887 241.138C302.887 239.829 303.954 239.026 306.11 239.026C307.276 239.026 308.409 239.191 309.179 239.411C309.08 240.016 308.992 240.621 308.926 241.226C308.255 240.94 307.265 240.83 306.517 240.83C305.67 240.83 305.461 240.951 305.461 241.204C305.461 241.336 305.516 241.424 305.681 241.501C305.846 241.578 306.143 241.633 306.594 241.688C307.54 241.798 308.288 241.996 308.717 242.381C309.102 242.711 309.289 243.206 309.289 243.877C309.289 245.417 308.211 246.143 306.022 246.143C304.757 246.143 303.591 245.923 302.832 245.648C302.931 244.988 303.008 244.317 303.074 243.668C303.833 243.998 304.823 244.218 305.747 244.218C306.539 244.218 306.726 244.053 306.726 243.8C306.726 243.679 306.682 243.569 306.539 243.481C306.341 243.371 306.066 243.338 305.56 243.272C304.614 243.162 303.91 242.986 303.47 242.634C303.074 242.304 302.887 241.82 302.887 241.138ZM224.589 258.786C224.589 260.603 225.048 262.27 225.766 263.268C225.337 263.328 224.888 263.437 224.549 263.537C223.82 262.599 223.201 260.812 223.201 258.786C223.201 256.76 223.83 254.973 224.549 254.025C224.888 254.135 225.327 254.244 225.766 254.294C225.038 255.282 224.589 256.959 224.589 258.786ZM230.735 255.981H232.233C231.604 257.528 230.286 261.012 229.947 262C229.717 261.99 229.458 261.99 229.078 261.99C228.659 261.99 228.32 261.99 228.18 262C227.801 261.002 226.513 257.568 225.874 255.981H227.461C227.611 256.55 228.21 258.147 228.579 259.335C228.809 260.004 228.959 260.503 229.049 260.892H229.128C229.238 260.503 229.398 259.984 229.627 259.325C229.997 258.097 230.566 256.53 230.735 255.981ZM234.744 254.893C234.744 255.173 234.594 255.402 233.855 255.402C233.097 255.402 232.957 255.173 232.957 254.893C232.957 254.594 233.117 254.404 233.855 254.404C234.574 254.404 234.744 254.594 234.744 254.893ZM234.554 262H233.137C233.156 261.022 233.156 260.113 233.156 258.886C233.156 257.718 233.156 256.909 233.137 255.981H234.554C234.524 256.919 234.524 257.708 234.524 258.926C234.524 260.253 234.524 261.032 234.554 262ZM240.546 259.375V257.438C240.137 257.159 239.568 256.999 238.949 256.999C237.821 256.999 237.242 257.628 237.242 259.026C237.242 260.433 237.851 261.002 238.84 261.002C239.778 261.002 240.546 260.433 240.546 259.375ZM240.506 254.274H241.954C241.924 255.402 241.924 256.43 241.924 258.417C241.924 259.934 241.924 261.002 241.944 262.01H240.526V261.301C240.526 261.122 240.536 260.952 240.546 260.762L240.486 260.752C240.167 261.491 239.468 262.1 238.39 262.1C236.903 262.1 235.905 261.142 235.905 259.035C235.905 256.939 236.993 255.871 238.54 255.871C239.458 255.871 240.107 256.181 240.496 256.75L240.536 256.74C240.526 256.38 240.526 256.091 240.526 255.702C240.526 255.153 240.536 254.763 240.506 254.274ZM243.754 260.203C244.293 260.203 244.622 260.513 244.622 261.122C244.622 261.74 244.313 262.07 243.754 262.07C243.195 262.07 242.896 261.74 242.896 261.122C242.896 260.513 243.215 260.203 243.754 260.203ZM249.875 258.656V260.503C250.305 260.792 250.854 260.992 251.542 260.992C252.63 260.992 253.139 260.343 253.139 258.966C253.139 257.618 252.62 257.049 251.572 257.049C250.674 257.049 249.875 257.518 249.875 258.656ZM249.885 257.039L249.935 257.049C250.295 256.301 251.043 255.871 252.141 255.871C253.708 255.871 254.507 256.79 254.507 258.956C254.507 261.112 253.618 262.1 252.111 262.1C251.043 262.1 250.325 261.681 249.955 261.211L249.895 261.221C249.905 261.331 249.905 261.431 249.905 261.541V262H248.478C248.498 261.032 248.508 259.884 248.508 258.357C248.508 256.58 248.498 255.143 248.488 254.274H249.925C249.915 254.823 249.905 255.292 249.905 256.011C249.905 256.39 249.895 256.68 249.885 257.039ZM259.731 259.604V259.375C259.262 259.285 258.762 259.265 258.223 259.265C257.315 259.265 256.906 259.535 256.906 260.173C256.906 260.752 257.225 261.062 258.034 261.062C259.122 261.062 259.731 260.483 259.731 259.604ZM259.781 260.902L259.711 260.892C259.421 261.701 258.663 262.1 257.505 262.1C256.197 262.1 255.509 261.601 255.509 260.333C255.509 259.125 256.347 258.576 258.114 258.576C258.802 258.576 259.381 258.646 259.741 258.756C259.751 258.546 259.751 258.347 259.751 258.187C259.751 257.438 259.371 257.049 258.253 257.049C257.475 257.049 256.587 257.289 255.958 257.648C255.878 257.279 255.738 256.7 255.628 256.41C256.367 256.111 257.335 255.841 258.303 255.841C260.439 255.841 261.188 256.75 261.188 258.087C261.188 258.856 261.158 259.445 261.158 260.183C261.158 260.892 261.208 261.711 261.298 262H260.09C259.811 262 259.761 261.96 259.761 261.631C259.761 261.421 259.771 261.152 259.781 260.902ZM264.254 262H262.826C262.856 260.822 262.856 259.555 262.856 258.197C262.856 256.66 262.856 255.552 262.826 254.274H264.254C264.224 255.502 264.234 256.58 264.234 258.247C264.234 259.714 264.224 260.782 264.254 262ZM269.81 259.604V259.375C269.341 259.285 268.841 259.265 268.302 259.265C267.394 259.265 266.985 259.535 266.985 260.173C266.985 260.752 267.304 261.062 268.113 261.062C269.201 261.062 269.81 260.483 269.81 259.604ZM269.86 260.902L269.79 260.892C269.5 261.701 268.742 262.1 267.584 262.1C266.276 262.1 265.588 261.601 265.588 260.333C265.588 259.125 266.426 258.576 268.193 258.576C268.881 258.576 269.46 258.646 269.82 258.756C269.83 258.546 269.83 258.347 269.83 258.187C269.83 257.438 269.45 257.049 268.332 257.049C267.554 257.049 266.666 257.289 266.037 257.648C265.957 257.279 265.817 256.7 265.707 256.41C266.446 256.111 267.414 255.841 268.382 255.841C270.518 255.841 271.267 256.75 271.267 258.087C271.267 258.856 271.237 259.445 271.237 260.183C271.237 260.892 271.287 261.711 271.377 262H270.169C269.89 262 269.84 261.96 269.84 261.631C269.84 261.421 269.85 261.152 269.86 260.902ZM272.686 257.638C272.686 256.57 273.664 255.851 275.381 255.851C276.299 255.851 277.227 256.011 277.946 256.291C277.866 256.68 277.816 257.059 277.756 257.448C277.167 257.139 276.149 256.979 275.381 256.989C274.323 256.989 273.943 257.219 273.943 257.628C273.943 257.818 274.013 257.967 274.223 258.077C274.422 258.207 274.822 258.287 275.441 258.347C276.419 258.437 277.147 258.616 277.567 258.956C277.916 259.255 278.086 259.684 278.086 260.253C278.086 261.451 277.117 262.13 275.321 262.13C274.283 262.13 273.255 261.9 272.556 261.571C272.636 261.172 272.706 260.762 272.765 260.373C273.464 260.752 274.402 260.982 275.371 260.982C276.499 260.982 276.828 260.702 276.828 260.263C276.828 260.074 276.768 259.894 276.578 259.774C276.319 259.604 275.92 259.545 275.221 259.485C274.323 259.405 273.654 259.245 273.225 258.936C272.865 258.646 272.686 258.227 272.686 257.638ZM281.772 255.981L282.581 255.991C282.581 255.532 282.581 255.103 282.581 254.713C282.8 254.713 283.06 254.723 283.29 254.723C283.519 254.723 283.769 254.723 283.988 254.713C283.978 255.123 283.968 255.552 283.958 255.991C284.747 255.991 285.585 255.981 286.334 255.971C286.314 256.34 286.304 256.82 286.304 257.189C285.675 257.169 284.807 257.159 283.938 257.149C283.928 257.977 283.928 258.876 283.928 259.864C283.928 260.533 284.228 260.852 285.046 260.852C285.525 260.852 285.945 260.752 286.284 260.623C286.324 261.032 286.404 261.511 286.464 261.86C285.925 261.99 285.525 262.08 284.877 262.08C283.16 262.08 282.561 261.231 282.561 260.024C282.561 259.275 282.571 258.217 282.581 257.139H281.772V255.981ZM291.547 259.604V259.375C291.078 259.285 290.579 259.265 290.04 259.265C289.131 259.265 288.722 259.535 288.722 260.173C288.722 260.752 289.041 261.062 289.85 261.062C290.938 261.062 291.547 260.483 291.547 259.604ZM291.597 260.902L291.527 260.892C291.237 261.701 290.479 262.1 289.321 262.1C288.013 262.1 287.325 261.601 287.325 260.333C287.325 259.125 288.163 258.576 289.93 258.576C290.618 258.576 291.197 258.646 291.557 258.756C291.567 258.546 291.567 258.347 291.567 258.187C291.567 257.438 291.187 257.049 290.07 257.049C289.291 257.049 288.403 257.289 287.774 257.648C287.694 257.279 287.554 256.7 287.444 256.41C288.183 256.111 289.151 255.841 290.119 255.841C292.255 255.841 293.004 256.75 293.004 258.087C293.004 258.856 292.974 259.445 292.974 260.183C292.974 260.892 293.024 261.711 293.114 262H291.906C291.627 262 291.577 261.96 291.577 261.631C291.577 261.421 291.587 261.152 291.597 260.902ZM295.84 257.299L295.91 257.309C296.219 256.311 296.868 255.891 297.796 255.891C298.166 255.891 298.495 255.961 298.795 256.061C298.735 256.37 298.655 257.009 298.635 257.379C298.345 257.259 298.026 257.199 297.657 257.199C296.659 257.209 296.1 257.678 296.1 259.105C296.1 260.084 296.11 261.331 296.14 262H294.652C294.672 261.162 294.672 260.263 294.672 258.966C294.672 257.688 294.672 256.83 294.652 255.981H295.88C295.87 256.36 295.85 256.78 295.84 257.299ZM301.148 258.646V260.523C301.567 260.812 302.136 260.982 302.825 260.982C303.903 260.982 304.412 260.343 304.412 258.976C304.412 257.598 303.893 256.979 302.904 256.979C301.946 256.979 301.148 257.478 301.148 258.646ZM301.158 257.019L301.218 257.039C301.577 256.34 302.296 255.871 303.413 255.871C305.001 255.871 305.779 256.989 305.779 258.966C305.779 260.942 304.871 262.1 303.364 262.1C302.315 262.1 301.607 261.721 301.218 261.211L301.168 261.231C301.178 261.531 301.178 261.8 301.178 262.13C301.178 262.549 301.188 262.938 301.188 263.387H299.75C299.78 262.05 299.78 260.273 299.78 258.736C299.78 257.418 299.77 256.68 299.76 255.981H301.188C301.188 256.191 301.178 256.37 301.178 256.59C301.178 256.73 301.168 256.87 301.158 257.019ZM312.989 260.922C314.077 260.922 314.646 260.473 314.646 259.515C314.646 258.606 314.067 258.237 313.039 258.237C311.901 258.237 311.253 258.746 311.253 259.505C311.253 260.343 311.881 260.922 312.989 260.922ZM310.943 258.397L310.993 258.407C311.382 257.678 312.201 257.289 313.329 257.289C315.145 257.289 316.064 258.057 316.064 259.485C316.064 261.162 315.066 262.13 313.019 262.13C310.754 262.13 309.646 260.862 309.636 258.147C309.636 255.612 310.993 254.384 313.229 254.384C314.397 254.384 315.315 254.674 315.894 255.043C315.694 255.412 315.485 255.841 315.305 256.211C314.796 255.841 314.027 255.632 313.259 255.632C311.752 255.632 310.993 256.311 310.963 257.888L310.943 258.397ZM322.082 254.893C322.082 255.173 321.932 255.402 321.193 255.402C320.435 255.402 320.295 255.173 320.295 254.893C320.295 254.594 320.455 254.404 321.193 254.404C321.912 254.404 322.082 254.594 322.082 254.893ZM321.892 262H320.475C320.495 261.022 320.495 260.113 320.495 258.886C320.495 257.718 320.495 256.909 320.475 255.981H321.892C321.862 256.919 321.862 257.708 321.862 258.926C321.862 260.253 321.862 261.032 321.892 262ZM324.79 257.299L324.86 257.309C325.17 256.311 325.818 255.891 326.747 255.891C327.116 255.891 327.445 255.961 327.745 256.061C327.685 256.37 327.605 257.009 327.585 257.379C327.296 257.259 326.976 257.199 326.607 257.199C325.609 257.209 325.05 257.678 325.05 259.105C325.05 260.084 325.06 261.331 325.09 262H323.603C323.623 261.162 323.623 260.263 323.623 258.966C323.623 257.688 323.623 256.83 323.603 255.981H324.83C324.82 256.36 324.8 256.78 324.79 257.299ZM334.42 260.912C335.698 260.912 336.217 260.503 336.217 259.794C336.217 259.085 335.698 258.726 334.42 258.726C333.142 258.726 332.623 259.085 332.623 259.794C332.623 260.503 333.142 260.912 334.42 260.912ZM334.43 255.572C333.272 255.572 332.743 255.921 332.743 256.62C332.743 257.279 333.252 257.638 334.42 257.638C335.588 257.638 336.107 257.279 336.107 256.62C336.107 255.921 335.578 255.572 334.43 255.572ZM335.897 258.167V258.217C336.137 258.247 336.346 258.287 336.546 258.357C337.344 258.646 337.634 259.145 337.634 259.994C337.634 261.321 336.506 262.12 334.43 262.12C332.344 262.12 331.226 261.321 331.226 259.994C331.226 259.145 331.525 258.646 332.294 258.357C332.483 258.297 332.693 258.247 332.933 258.217V258.167C332.673 258.117 332.454 258.057 332.264 257.977C331.625 257.708 331.316 257.209 331.316 256.45C331.316 255.173 332.254 254.394 334.43 254.394C336.586 254.394 337.534 255.163 337.534 256.44C337.534 257.199 337.215 257.708 336.576 257.977C336.376 258.047 336.157 258.117 335.897 258.167ZM339.416 258.786C339.416 256.959 338.967 255.272 338.238 254.304C338.677 254.234 339.117 254.135 339.456 254.025C340.185 254.973 340.803 256.76 340.803 258.786C340.803 260.812 340.185 262.599 339.446 263.537C339.117 263.437 338.677 263.328 338.238 263.268C338.957 262.27 339.416 260.613 339.416 258.786Z" fill="black"/>
<path d="M42.576 237.365H41.861C41.146 236.705 40.101 235.66 39.826 235.44C39.925 235.297 40.057 235.088 40.134 234.978C40.42 235.088 41.201 235.484 42.213 235.957C43.214 235.495 44.006 235.099 44.303 234.978C44.369 235.099 44.479 235.297 44.578 235.44C44.314 235.66 43.28 236.705 42.576 237.365ZM42.037 243.679V243.701C42.554 243.679 43.06 243.679 43.522 243.679C44.655 243.679 45.271 243.657 45.854 243.635C45.821 244.031 45.821 244.592 45.821 244.9C45.821 245.241 45.832 245.582 45.854 246H38.572C38.594 245.604 38.594 245.252 38.594 244.933C38.594 244.504 38.594 243.987 38.583 243.756C39.144 243.338 40.431 242.073 41.531 240.962C41.894 240.61 42.257 240.324 42.598 240.082L42.576 240.016C42.081 240.049 41.564 240.049 41.003 240.049C39.749 240.049 39.177 240.06 38.605 240.071C38.616 239.719 38.627 239.202 38.627 238.894C38.627 238.564 38.627 238.135 38.605 237.75H45.832C45.832 238.124 45.821 238.465 45.821 238.806C45.821 239.169 45.821 239.752 45.832 240.06C45.271 240.478 44.259 241.589 43.17 242.711C42.719 243.162 42.378 243.437 42.037 243.679ZM50.1246 240.643C49.3986 240.643 49.0466 241.028 48.9586 242.04C49.5966 242.062 50.2896 242.051 51.0046 242.04C51.0156 241.93 51.0156 241.787 51.0156 241.622C51.0156 240.907 50.7516 240.643 50.1246 240.643ZM52.9516 243.734C53.0176 244.295 53.1606 245.12 53.2816 245.637C52.3796 245.956 51.2906 246.121 50.1466 246.121C47.5946 246.121 46.4726 244.933 46.4726 242.524C46.4726 240.038 47.7486 239.004 50.0916 239.004C52.5336 239.004 53.2596 239.84 53.2596 241.864C53.2596 242.37 53.2156 242.843 53.1936 243.096C52.5446 243.085 51.5546 243.074 50.6746 243.074C50.0256 243.074 49.4096 243.085 48.9696 243.085C49.0796 243.811 49.5196 244.13 50.5206 244.13C51.4886 244.13 52.1156 244.031 52.9516 243.734ZM64.8803 246H62.4933C62.5263 244.977 62.5263 243.679 62.5263 242.051C62.5263 241.424 62.2843 241.149 61.7673 241.149C61.2283 241.149 60.7883 241.457 60.7883 242.403C60.7883 244.339 60.7773 245.23 60.8213 246H58.4563C58.4893 244.999 58.5003 243.866 58.5003 242.04C58.5003 241.457 58.2803 241.149 57.7413 241.149C57.1913 241.149 56.7513 241.457 56.7513 242.403C56.7513 244.262 56.7513 245.296 56.7733 246H54.3643C54.3863 245.01 54.3863 244.031 54.3863 242.59C54.3863 241.116 54.3863 240.137 54.3643 239.147H56.8173C56.8063 239.565 56.7953 239.873 56.7733 240.269L56.8393 240.291C57.2353 239.433 57.8623 239.048 58.8083 239.048C59.8313 239.048 60.5023 239.532 60.7003 240.357H60.7773C61.1733 239.389 61.9653 239.048 62.8893 239.048C64.1433 239.048 64.8693 239.752 64.8693 241.017C64.8693 242.172 64.8363 242.931 64.8363 243.822C64.8363 244.603 64.8473 245.351 64.8803 246ZM69.4175 240.643C68.6915 240.643 68.3395 241.028 68.2515 242.04C68.8895 242.062 69.5825 242.051 70.2975 242.04C70.3085 241.93 70.3085 241.787 70.3085 241.622C70.3085 240.907 70.0445 240.643 69.4175 240.643ZM72.2445 243.734C72.3105 244.295 72.4535 245.12 72.5745 245.637C71.6725 245.956 70.5835 246.121 69.4395 246.121C66.8875 246.121 65.7655 244.933 65.7655 242.524C65.7655 240.038 67.0415 239.004 69.3845 239.004C71.8265 239.004 72.5525 239.84 72.5525 241.864C72.5525 242.37 72.5085 242.843 72.4865 243.096C71.8375 243.085 70.8475 243.074 69.9675 243.074C69.3185 243.074 68.7025 243.085 68.2625 243.085C68.3725 243.811 68.8125 244.13 69.8135 244.13C70.7815 244.13 71.4085 244.031 72.2445 243.734ZM73.4483 241.138C73.4483 239.829 74.5153 239.026 76.6713 239.026C77.8373 239.026 78.9703 239.191 79.7403 239.411C79.6413 240.016 79.5533 240.621 79.4873 241.226C78.8163 240.94 77.8263 240.83 77.0783 240.83C76.2313 240.83 76.0223 240.951 76.0223 241.204C76.0223 241.336 76.0773 241.424 76.2423 241.501C76.4073 241.578 76.7043 241.633 77.1553 241.688C78.1013 241.798 78.8493 241.996 79.2783 242.381C79.6633 242.711 79.8503 243.206 79.8503 243.877C79.8503 245.417 78.7723 246.143 76.5833 246.143C75.3183 246.143 74.1523 245.923 73.3933 245.648C73.4923 244.988 73.5693 244.317 73.6353 243.668C74.3943 243.998 75.3843 244.218 76.3083 244.218C77.1003 244.218 77.2873 244.053 77.2873 243.8C77.2873 243.679 77.2433 243.569 77.1003 243.481C76.9023 243.371 76.6273 243.338 76.1213 243.272C75.1753 243.162 74.4713 242.986 74.0313 242.634C73.6353 242.304 73.4483 241.82 73.4483 241.138ZM87.9946 246H85.3546C85.3766 245.043 85.3876 243.745 85.3876 242.139C85.3876 241.424 85.1566 241.138 84.5296 241.138C83.9026 241.138 83.4076 241.49 83.4076 242.48C83.4076 244.603 83.4186 245.318 83.4296 246H80.8116C80.8336 245.021 80.8446 244.141 80.8446 242.59C80.8446 241.127 80.8336 240.093 80.8116 239.147H83.4296C83.4186 239.576 83.4186 239.895 83.3966 240.28L83.4626 240.302C83.8696 239.422 84.6396 239.048 85.7396 239.048C87.1586 239.048 87.9726 239.686 87.9726 241.325C87.9726 242.425 87.9506 242.986 87.9506 243.701C87.9506 244.559 87.9616 245.274 87.9946 246ZM91.985 238.058C91.985 238.388 91.798 238.707 90.5 238.707C89.18 238.707 88.993 238.388 88.993 238.058C88.993 237.684 89.213 237.453 90.5 237.453C91.776 237.453 91.985 237.684 91.985 238.058ZM91.798 246H89.18C89.213 244.944 89.213 243.778 89.213 242.447C89.213 241.193 89.202 240.192 89.18 239.147H91.798C91.765 240.203 91.765 241.182 91.765 242.59C91.765 244.086 91.765 244.977 91.798 246ZM92.8487 241.138C92.8487 239.829 93.9157 239.026 96.0717 239.026C97.2377 239.026 98.3707 239.191 99.1407 239.411C99.0417 240.016 98.9537 240.621 98.8877 241.226C98.2167 240.94 97.2267 240.83 96.4787 240.83C95.6317 240.83 95.4227 240.951 95.4227 241.204C95.4227 241.336 95.4777 241.424 95.6427 241.501C95.8077 241.578 96.1047 241.633 96.5557 241.688C97.5017 241.798 98.2497 241.996 98.6787 242.381C99.0637 242.711 99.2507 243.206 99.2507 243.877C99.2507 245.417 98.1727 246.143 95.9837 246.143C94.7187 246.143 93.5527 245.923 92.7937 245.648C92.8927 244.988 92.9697 244.317 93.0357 243.668C93.7947 243.998 94.7847 244.218 95.7087 244.218C96.5007 244.218 96.6877 244.053 96.6877 243.8C96.6877 243.679 96.6437 243.569 96.5007 243.481C96.3027 243.371 96.0277 243.338 95.5217 243.272C94.5757 243.162 93.8717 242.986 93.4317 242.634C93.0357 242.304 92.8487 241.82 92.8487 241.138ZM40.156 258.786C40.156 260.603 40.6152 262.27 41.3338 263.268C40.9046 263.328 40.4555 263.437 40.1161 263.537C39.3874 262.599 38.7686 260.812 38.7686 258.786C38.7686 256.76 39.3974 254.973 40.1161 254.025C40.4555 254.135 40.8946 254.244 41.3338 254.294C40.6052 255.282 40.156 256.959 40.156 258.786ZM46.3028 255.981H47.8001C47.1712 257.528 45.8537 261.012 45.5143 262C45.2847 261.99 45.0252 261.99 44.6459 261.99C44.2267 261.99 43.8873 261.99 43.7476 262C43.3683 261.002 42.0806 257.568 41.4418 255.981H43.0289C43.1786 256.55 43.7775 258.147 44.1468 259.335C44.3764 260.004 44.5261 260.503 44.616 260.892H44.6958C44.8056 260.503 44.9653 259.984 45.1949 259.325C45.5642 258.097 46.1331 256.53 46.3028 255.981ZM50.311 254.893C50.311 255.173 50.1612 255.402 49.4226 255.402C48.664 255.402 48.5243 255.173 48.5243 254.893C48.5243 254.594 48.684 254.404 49.4226 254.404C50.1413 254.404 50.311 254.594 50.311 254.893ZM50.1213 262H48.7039C48.7239 261.022 48.7239 260.113 48.7239 258.886C48.7239 257.718 48.7239 256.909 48.7039 255.981H50.1213C50.0914 256.919 50.0914 257.708 50.0914 258.926C50.0914 260.253 50.0914 261.032 50.1213 262ZM56.1138 259.375V257.438C55.7046 257.159 55.1356 256.999 54.5168 256.999C53.3888 256.999 52.8099 257.628 52.8099 259.026C52.8099 260.433 53.4188 261.002 54.407 261.002C55.3452 261.002 56.1138 260.433 56.1138 259.375ZM56.0739 254.274H57.5212C57.4912 255.402 57.4912 256.43 57.4912 258.417C57.4912 259.934 57.4912 261.002 57.5112 262.01H56.0938V261.301C56.0938 261.122 56.1038 260.952 56.1138 260.762L56.0539 260.752C55.7345 261.491 55.0358 262.1 53.9578 262.1C52.4705 262.1 51.4724 261.142 51.4724 259.035C51.4724 256.939 52.5604 255.871 54.1075 255.871C55.0258 255.871 55.6746 256.181 56.0639 256.75L56.1038 256.74C56.0938 256.38 56.0938 256.091 56.0938 255.702C56.0938 255.153 56.1038 254.763 56.0739 254.274ZM59.3214 260.203C59.8604 260.203 60.1898 260.513 60.1898 261.122C60.1898 261.74 59.8803 262.07 59.3214 262.07C58.7624 262.07 58.463 261.74 58.463 261.122C58.463 260.513 58.7824 260.203 59.3214 260.203ZM65.4429 258.656V260.503C65.8721 260.792 66.421 260.992 67.1098 260.992C68.1978 260.992 68.7068 260.343 68.7068 258.966C68.7068 257.618 68.1878 257.049 67.1397 257.049C66.2414 257.049 65.4429 257.518 65.4429 258.656ZM65.4528 257.039L65.5027 257.049C65.8621 256.301 66.6107 255.871 67.7087 255.871C69.2758 255.871 70.0743 256.79 70.0743 258.956C70.0743 261.112 69.1859 262.1 67.6787 262.1C66.6107 262.1 65.892 261.681 65.5227 261.211L65.4628 261.221C65.4728 261.331 65.4728 261.431 65.4728 261.541V262H64.0454C64.0654 261.032 64.0754 259.884 64.0754 258.357C64.0754 256.58 64.0654 255.143 64.0554 254.274H65.4928C65.4828 254.823 65.4728 255.292 65.4728 256.011C65.4728 256.39 65.4628 256.68 65.4528 257.039ZM75.2981 259.604V259.375C74.829 259.285 74.3299 259.265 73.7909 259.265C72.8826 259.265 72.4733 259.535 72.4733 260.173C72.4733 260.752 72.7928 261.062 73.6013 261.062C74.6892 261.062 75.2981 260.483 75.2981 259.604ZM75.348 260.902L75.2782 260.892C74.9887 261.701 74.2301 262.1 73.0722 262.1C71.7647 262.1 71.0759 261.601 71.0759 260.333C71.0759 259.125 71.9144 258.576 73.6811 258.576C74.3698 258.576 74.9488 258.646 75.3081 258.756C75.3181 258.546 75.3181 258.347 75.3181 258.187C75.3181 257.438 74.9388 257.049 73.8209 257.049C73.0423 257.049 72.1539 257.289 71.5251 257.648C71.4453 257.279 71.3055 256.7 71.1957 256.41C71.9343 256.111 72.9026 255.841 73.8708 255.841C76.0068 255.841 76.7554 256.75 76.7554 258.087C76.7554 258.856 76.7255 259.445 76.7255 260.183C76.7255 260.892 76.7754 261.711 76.8652 262H75.6575C75.378 262 75.3281 261.96 75.3281 261.631C75.3281 261.421 75.338 261.152 75.348 260.902ZM79.821 262H78.3936C78.4236 260.822 78.4236 259.555 78.4236 258.197C78.4236 256.66 78.4236 255.552 78.3936 254.274H79.821C79.791 255.502 79.801 256.58 79.801 258.247C79.801 259.714 79.791 260.782 79.821 262ZM85.3771 259.604V259.375C84.908 259.285 84.4089 259.265 83.8699 259.265C82.9616 259.265 82.5523 259.535 82.5523 260.173C82.5523 260.752 82.8717 261.062 83.6802 261.062C84.7682 261.062 85.3771 260.483 85.3771 259.604ZM85.427 260.902L85.3571 260.892C85.0677 261.701 84.3091 262.1 83.1512 262.1C81.8437 262.1 81.1549 261.601 81.1549 260.333C81.1549 259.125 81.9934 258.576 83.7601 258.576C84.4488 258.576 85.0278 258.646 85.3871 258.756C85.3971 258.546 85.3971 258.347 85.3971 258.187C85.3971 257.438 85.0178 257.049 83.8998 257.049C83.1213 257.049 82.2329 257.289 81.6041 257.648C81.5242 257.279 81.3845 256.7 81.2747 256.41C82.0133 256.111 82.9815 255.841 83.9498 255.841C86.0858 255.841 86.8344 256.75 86.8344 258.087C86.8344 258.856 86.8045 259.445 86.8045 260.183C86.8045 260.892 86.8544 261.711 86.9442 262H85.7364C85.457 262 85.4071 261.96 85.4071 261.631C85.4071 261.421 85.417 261.152 85.427 260.902ZM88.253 257.638C88.253 256.57 89.2312 255.851 90.948 255.851C91.8663 255.851 92.7946 256.011 93.5133 256.291C93.4334 256.68 93.3835 257.059 93.3236 257.448C92.7347 257.139 91.7166 256.979 90.948 256.989C89.89 256.989 89.5107 257.219 89.5107 257.628C89.5107 257.818 89.5806 257.967 89.7902 258.077C89.9898 258.207 90.3891 258.287 91.0079 258.347C91.9861 258.437 92.7148 258.616 93.134 258.956C93.4834 259.255 93.653 259.684 93.653 260.253C93.653 261.451 92.6848 262.13 90.8882 262.13C89.8501 262.13 88.822 261.9 88.1233 261.571C88.2031 261.172 88.273 260.762 88.3329 260.373C89.0316 260.752 89.9699 260.982 90.9381 260.982C92.066 260.982 92.3954 260.702 92.3954 260.263C92.3954 260.074 92.3355 259.894 92.1458 259.774C91.8863 259.604 91.487 259.545 90.7883 259.485C89.89 259.405 89.2212 259.245 88.792 258.936C88.4327 258.646 88.253 258.227 88.253 257.638ZM97.3398 255.981L98.1483 255.991C98.1483 255.532 98.1483 255.103 98.1483 254.713C98.3679 254.713 98.6274 254.723 98.857 254.723C99.0866 254.723 99.3361 254.723 99.5557 254.713C99.5457 255.123 99.5357 255.552 99.5258 255.991C100.314 255.991 101.153 255.981 101.901 255.971C101.881 256.34 101.871 256.82 101.871 257.189C101.243 257.169 100.374 257.159 99.5058 257.149C99.4958 257.977 99.4958 258.876 99.4958 259.864C99.4958 260.533 99.7953 260.852 100.614 260.852C101.093 260.852 101.512 260.752 101.851 260.623C101.891 261.032 101.971 261.511 102.031 261.86C101.492 261.99 101.093 262.08 100.444 262.08C98.7272 262.08 98.1283 261.231 98.1283 260.024C98.1283 259.275 98.1383 258.217 98.1483 257.139H97.3398V255.981ZM107.114 259.604V259.375C106.645 259.285 106.146 259.265 105.607 259.265C104.699 259.265 104.289 259.535 104.289 260.173C104.289 260.752 104.609 261.062 105.417 261.062C106.505 261.062 107.114 260.483 107.114 259.604ZM107.164 260.902L107.094 260.892C106.805 261.701 106.046 262.1 104.888 262.1C103.581 262.1 102.892 261.601 102.892 260.333C102.892 259.125 103.73 258.576 105.497 258.576C106.186 258.576 106.765 258.646 107.124 258.756C107.134 258.546 107.134 258.347 107.134 258.187C107.134 257.438 106.755 257.049 105.637 257.049C104.858 257.049 103.97 257.289 103.341 257.648C103.261 257.279 103.122 256.7 103.012 256.41C103.75 256.111 104.719 255.841 105.687 255.841C107.823 255.841 108.572 256.75 108.572 258.087C108.572 258.856 108.542 259.445 108.542 260.183C108.542 260.892 108.591 261.711 108.681 262H107.474C107.194 262 107.144 261.96 107.144 261.631C107.144 261.421 107.154 261.152 107.164 260.902ZM111.408 257.299L111.477 257.309C111.787 256.311 112.436 255.891 113.364 255.891C113.733 255.891 114.063 255.961 114.362 256.061C114.302 256.37 114.222 257.009 114.202 257.379C113.913 257.259 113.593 257.199 113.224 257.199C112.226 257.209 111.667 257.678 111.667 259.105C111.667 260.084 111.677 261.331 111.707 262H110.22C110.24 261.162 110.24 260.263 110.24 258.966C110.24 257.688 110.24 256.83 110.22 255.981H111.447C111.437 256.36 111.417 256.78 111.408 257.299ZM116.715 258.646V260.523C117.134 260.812 117.703 260.982 118.392 260.982C119.47 260.982 119.979 260.343 119.979 258.976C119.979 257.598 119.46 256.979 118.472 256.979C117.514 256.979 116.715 257.478 116.715 258.646ZM116.725 257.019L116.785 257.039C117.144 256.34 117.863 255.871 118.981 255.871C120.568 255.871 121.347 256.989 121.347 258.966C121.347 260.942 120.438 262.1 118.931 262.1C117.883 262.1 117.174 261.721 116.785 261.211L116.735 261.231C116.745 261.531 116.745 261.8 116.745 262.13C116.745 262.549 116.755 262.938 116.755 263.387H115.318C115.348 262.05 115.348 260.273 115.348 258.736C115.348 257.418 115.338 256.68 115.328 255.981H116.755C116.755 256.191 116.745 256.37 116.745 256.59C116.745 256.73 116.735 256.87 116.725 257.019ZM125.682 262.01C125.712 260.962 125.722 259.854 125.722 258.257C125.722 256.73 125.672 255.881 125.642 255.193C125.962 255.033 126.291 254.773 126.511 254.514C126.64 254.524 126.77 254.524 126.89 254.524C127.04 254.524 127.149 254.524 127.239 254.514C127.209 255.342 127.199 256.65 127.199 258.257C127.199 259.844 127.209 260.952 127.239 262C126.92 261.98 126.7 261.98 126.491 261.98C126.261 261.98 126.012 261.99 125.682 262.01ZM133.555 254.893C133.555 255.173 133.406 255.402 132.667 255.402C131.908 255.402 131.769 255.173 131.769 254.893C131.769 254.594 131.928 254.404 132.667 254.404C133.386 254.404 133.555 254.594 133.555 254.893ZM133.366 262H131.948C131.968 261.022 131.968 260.113 131.968 258.886C131.968 257.718 131.968 256.909 131.948 255.981H133.366C133.336 256.919 133.336 257.708 133.336 258.926C133.336 260.253 133.336 261.032 133.366 262ZM136.264 257.299L136.334 257.309C136.643 256.311 137.292 255.891 138.22 255.891C138.59 255.891 138.919 255.961 139.218 256.061C139.158 256.37 139.079 257.009 139.059 257.379C138.769 257.259 138.45 257.199 138.08 257.199C137.082 257.209 136.523 257.678 136.523 259.105C136.523 260.084 136.533 261.331 136.563 262H135.076C135.096 261.162 135.096 260.263 135.096 258.966C135.096 257.688 135.096 256.83 135.076 255.981H136.304C136.294 256.36 136.274 256.78 136.264 257.299ZM146.283 257.319C147.89 257.319 148.858 258.037 148.858 259.555C148.858 261.122 147.81 262.12 145.823 262.12C144.566 262.12 143.498 261.82 142.749 261.331C142.929 261.002 143.128 260.503 143.258 260.113C143.927 260.573 144.775 260.872 145.734 260.872C146.931 260.872 147.48 260.373 147.48 259.505C147.48 258.626 146.931 258.227 145.883 258.227C145.105 258.227 144.536 258.496 144.276 258.906C143.867 258.806 143.388 258.736 143.029 258.746C143.049 258.257 143.039 257.448 143.039 256.82C143.039 255.941 143.039 255.063 142.999 254.514C143.777 254.534 144.476 254.534 145.574 254.534C146.842 254.534 147.59 254.524 148.628 254.514C148.608 254.664 148.608 254.833 148.608 255.133C148.608 255.382 148.608 255.582 148.628 255.791C148.139 255.762 146.991 255.752 146.612 255.752C146.053 255.752 145.105 255.742 144.316 255.762C144.316 256.121 144.316 256.52 144.316 256.949C144.316 257.259 144.316 257.568 144.316 257.868C144.755 257.568 145.384 257.319 146.283 257.319ZM150.743 258.786C150.743 256.959 150.294 255.272 149.565 254.304C150.005 254.234 150.444 254.135 150.783 254.025C151.512 254.973 152.131 256.76 152.131 258.786C152.131 260.812 151.512 262.599 150.773 263.537C150.444 263.437 150.005 263.328 149.565 263.268C150.284 262.27 150.743 260.613 150.743 258.786Z" fill="black"/>
<path d="M456.432 242.733H457.378C457.202 241.93 457.015 241.105 456.828 240.39C456.663 239.829 456.542 239.29 456.454 238.894H456.421C456.322 239.29 456.201 239.818 456.036 240.412C455.871 241.127 455.684 241.941 455.497 242.733H456.432ZM461.074 246H457.994C457.961 245.703 457.873 245.131 457.73 244.427C457.257 244.427 456.795 244.427 456.432 244.427C456.091 244.427 455.618 244.427 455.134 244.427C454.991 245.109 454.881 245.67 454.837 246H452.021C452.692 243.932 454.023 238.894 454.298 237.75H458.709C459.017 238.905 460.359 243.899 461.074 246ZM465.977 239.147H468.606C468.584 240.126 468.584 241.006 468.584 242.557C468.584 244.009 468.584 245.043 468.606 246H465.988C465.999 245.571 465.999 245.252 466.021 244.867L465.955 244.856C465.559 245.725 464.811 246.11 463.667 246.11C462.314 246.11 461.434 245.461 461.434 243.91C461.434 242.755 461.456 242.161 461.456 241.413C461.456 240.566 461.456 239.862 461.423 239.147H464.063C464.03 240.126 464.03 241.468 464.03 243.118C464.03 243.811 464.272 244.086 464.877 244.086C465.504 244.086 465.999 243.712 465.999 242.744C465.999 240.555 465.988 239.84 465.977 239.147ZM474.333 239.147H477.083C476.533 240.126 475.686 241.875 474.718 242.557C475.785 243.261 476.346 244.779 477.149 246H474.608C474.289 246 474.157 245.934 474.047 245.714C473.596 244.878 473.024 243.866 472.518 243.283H472.452C472.452 244.284 472.452 245.098 472.474 246H469.845C469.878 244.713 469.867 243.206 469.867 241.589C469.867 240.082 469.878 238.784 469.845 237.486H472.485C472.441 238.784 472.452 240.005 472.452 241.864V242.172H472.529L473.211 241.127C473.761 240.302 474.113 239.62 474.333 239.147ZM480.934 238.652H480.219C479.504 237.992 478.459 236.947 478.184 236.727C478.283 236.584 478.415 236.375 478.492 236.265C478.778 236.375 479.559 236.771 480.571 237.244C481.572 236.782 482.364 236.386 482.661 236.265C482.727 236.386 482.837 236.584 482.936 236.727C482.672 236.947 481.638 237.992 480.934 238.652ZM483.189 242.381C483.574 242.711 483.761 243.206 483.761 243.877C483.761 245.417 482.683 246.143 480.494 246.143C479.229 246.143 478.063 245.923 477.304 245.648C477.403 244.988 477.48 244.317 477.546 243.668C478.305 243.998 479.295 244.218 480.219 244.218C481.011 244.218 481.198 244.053 481.198 243.8C481.198 243.679 481.154 243.569 481.011 243.481C480.813 243.371 480.538 243.338 480.032 243.272C479.086 243.162 478.382 242.986 477.942 242.634C477.546 242.304 477.359 241.82 477.359 241.138C477.359 239.829 478.426 239.026 480.582 239.026C481.748 239.026 482.881 239.191 483.651 239.411C483.552 240.016 483.464 240.621 483.398 241.226C482.727 240.94 481.737 240.83 480.989 240.83C480.142 240.83 479.933 240.951 479.933 241.204C479.933 241.336 479.988 241.424 480.153 241.501C480.318 241.578 480.615 241.633 481.066 241.688C482.012 241.798 482.76 241.996 483.189 242.381ZM484.294 239.147L484.998 239.158C485.009 238.685 485.009 238.234 485.009 237.849C485.405 237.871 485.845 237.871 486.274 237.871C486.703 237.871 487.154 237.871 487.55 237.849C487.539 238.267 487.517 238.707 487.506 239.169C488.287 239.169 489.057 239.158 489.684 239.147C489.662 239.829 489.629 240.632 489.64 241.325C489.2 241.314 488.364 241.292 487.473 241.281C487.462 241.831 487.462 242.414 487.462 243.041C487.462 243.536 487.682 243.723 488.298 243.723C488.815 243.723 489.255 243.646 489.596 243.514C489.629 244.207 489.75 245.164 489.838 245.835C489.189 246 488.65 246.088 487.836 246.088C485.603 246.088 484.954 245.087 484.954 243.569C484.954 242.942 484.965 242.117 484.976 241.248L484.305 241.237C484.305 240.61 484.316 239.73 484.294 239.147ZM493.986 240.643C493.26 240.643 492.908 241.028 492.82 242.04C493.458 242.062 494.151 242.051 494.866 242.04C494.877 241.93 494.877 241.787 494.877 241.622C494.877 240.907 494.613 240.643 493.986 240.643ZM496.813 243.734C496.879 244.295 497.022 245.12 497.143 245.637C496.241 245.956 495.152 246.121 494.008 246.121C491.456 246.121 490.334 244.933 490.334 242.524C490.334 240.038 491.61 239.004 493.953 239.004C496.395 239.004 497.121 239.84 497.121 241.864C497.121 242.37 497.077 242.843 497.055 243.096C496.406 243.085 495.416 243.074 494.536 243.074C493.887 243.074 493.271 243.085 492.831 243.085C492.941 243.811 493.381 244.13 494.382 244.13C495.35 244.13 495.977 244.031 496.813 243.734ZM498.017 241.138C498.017 239.829 499.084 239.026 501.24 239.026C502.406 239.026 503.539 239.191 504.309 239.411C504.21 240.016 504.122 240.621 504.056 241.226C503.385 240.94 502.395 240.83 501.647 240.83C500.8 240.83 500.591 240.951 500.591 241.204C500.591 241.336 500.646 241.424 500.811 241.501C500.976 241.578 501.273 241.633 501.724 241.688C502.67 241.798 503.418 241.996 503.847 242.381C504.232 242.711 504.419 243.206 504.419 243.877C504.419 245.417 503.341 246.143 501.152 246.143C499.887 246.143 498.721 245.923 497.962 245.648C498.061 244.988 498.138 244.317 498.204 243.668C498.963 243.998 499.953 244.218 500.877 244.218C501.669 244.218 501.856 244.053 501.856 243.8C501.856 243.679 501.812 243.569 501.669 243.481C501.471 243.371 501.196 243.338 500.69 243.272C499.744 243.162 499.04 242.986 498.6 242.634C498.204 242.304 498.017 241.82 498.017 241.138ZM512.563 246H509.923C509.945 245.043 509.956 243.745 509.956 242.139C509.956 241.424 509.725 241.138 509.098 241.138C508.471 241.138 507.976 241.49 507.976 242.48C507.976 244.603 507.987 245.318 507.998 246H505.38C505.402 245.021 505.413 244.141 505.413 242.59C505.413 241.127 505.402 240.093 505.38 239.147H507.998C507.987 239.576 507.987 239.895 507.965 240.28L508.031 240.302C508.438 239.422 509.208 239.048 510.308 239.048C511.727 239.048 512.541 239.686 512.541 241.325C512.541 242.425 512.519 242.986 512.519 243.701C512.519 244.559 512.53 245.274 512.563 246ZM516.553 238.058C516.553 238.388 516.366 238.707 515.068 238.707C513.748 238.707 513.561 238.388 513.561 238.058C513.561 237.684 513.781 237.453 515.068 237.453C516.344 237.453 516.553 237.684 516.553 238.058ZM516.366 246H513.748C513.781 244.944 513.781 243.778 513.781 242.447C513.781 241.193 513.77 240.192 513.748 239.147H516.366C516.333 240.203 516.333 241.182 516.333 242.59C516.333 244.086 516.333 244.977 516.366 246ZM517.417 241.138C517.417 239.829 518.484 239.026 520.64 239.026C521.806 239.026 522.939 239.191 523.709 239.411C523.61 240.016 523.522 240.621 523.456 241.226C522.785 240.94 521.795 240.83 521.047 240.83C520.2 240.83 519.991 240.951 519.991 241.204C519.991 241.336 520.046 241.424 520.211 241.501C520.376 241.578 520.673 241.633 521.124 241.688C522.07 241.798 522.818 241.996 523.247 242.381C523.632 242.711 523.819 243.206 523.819 243.877C523.819 245.417 522.741 246.143 520.552 246.143C519.287 246.143 518.121 245.923 517.362 245.648C517.461 244.988 517.538 244.317 517.604 243.668C518.363 243.998 519.353 244.218 520.277 244.218C521.069 244.218 521.256 244.053 521.256 243.8C521.256 243.679 521.212 243.569 521.069 243.481C520.871 243.371 520.596 243.338 520.09 243.272C519.144 243.162 518.44 242.986 518 242.634C517.604 242.304 517.417 241.82 517.417 241.138ZM406.034 258.786C406.034 260.603 406.494 262.27 407.212 263.268C406.783 263.328 406.334 263.437 405.994 263.537C405.266 262.599 404.647 260.812 404.647 258.786C404.647 256.76 405.276 254.973 405.994 254.025C406.334 254.135 406.773 254.244 407.212 254.294C406.484 255.282 406.034 256.959 406.034 258.786ZM412.181 255.981H413.678C413.05 257.528 411.732 261.012 411.393 262C411.163 261.99 410.904 261.99 410.524 261.99C410.105 261.99 409.766 261.99 409.626 262C409.247 261.002 407.959 257.568 407.32 255.981H408.907C409.057 256.55 409.656 258.147 410.025 259.335C410.255 260.004 410.405 260.503 410.494 260.892H410.574C410.684 260.503 410.844 259.984 411.073 259.325C411.443 258.097 412.012 256.53 412.181 255.981ZM416.189 254.893C416.189 255.173 416.04 255.402 415.301 255.402C414.542 255.402 414.403 255.173 414.403 254.893C414.403 254.594 414.562 254.404 415.301 254.404C416.02 254.404 416.189 254.594 416.189 254.893ZM416 262H414.582C414.602 261.022 414.602 260.113 414.602 258.886C414.602 257.718 414.602 256.909 414.582 255.981H416C415.97 256.919 415.97 257.708 415.97 258.926C415.97 260.253 415.97 261.032 416 262ZM421.992 259.375V257.438C421.583 257.159 421.014 256.999 420.395 256.999C419.267 256.999 418.688 257.628 418.688 259.026C418.688 260.433 419.297 261.002 420.285 261.002C421.224 261.002 421.992 260.433 421.992 259.375ZM421.952 254.274H423.4C423.37 255.402 423.37 256.43 423.37 258.417C423.37 259.934 423.37 261.002 423.39 262.01H421.972V261.301C421.972 261.122 421.982 260.952 421.992 260.762L421.932 260.752C421.613 261.491 420.914 262.1 419.836 262.1C418.349 262.1 417.351 261.142 417.351 259.035C417.351 256.939 418.439 255.871 419.986 255.871C420.904 255.871 421.553 256.181 421.942 256.75L421.982 256.74C421.972 256.38 421.972 256.091 421.972 255.702C421.972 255.153 421.982 254.763 421.952 254.274ZM425.2 260.203C425.739 260.203 426.068 260.513 426.068 261.122C426.068 261.74 425.759 262.07 425.2 262.07C424.641 262.07 424.341 261.74 424.341 261.122C424.341 260.513 424.661 260.203 425.2 260.203ZM431.321 258.656V260.503C431.75 260.792 432.299 260.992 432.988 260.992C434.076 260.992 434.585 260.343 434.585 258.966C434.585 257.618 434.066 257.049 433.018 257.049C432.12 257.049 431.321 257.518 431.321 258.656ZM431.331 257.039L431.381 257.049C431.74 256.301 432.489 255.871 433.587 255.871C435.154 255.871 435.953 256.79 435.953 258.956C435.953 261.112 435.064 262.1 433.557 262.1C432.489 262.1 431.77 261.681 431.401 261.211L431.341 261.221C431.351 261.331 431.351 261.431 431.351 261.541V262H429.924C429.944 261.032 429.954 259.884 429.954 258.357C429.954 256.58 429.944 255.143 429.934 254.274H431.371C431.361 254.823 431.351 255.292 431.351 256.011C431.351 256.39 431.341 256.68 431.331 257.039ZM441.177 259.604V259.375C440.707 259.285 440.208 259.265 439.669 259.265C438.761 259.265 438.352 259.535 438.352 260.173C438.352 260.752 438.671 261.062 439.48 261.062C440.568 261.062 441.177 260.483 441.177 259.604ZM441.226 260.902L441.157 260.892C440.867 261.701 440.108 262.1 438.951 262.1C437.643 262.1 436.954 261.601 436.954 260.333C436.954 259.125 437.793 258.576 439.56 258.576C440.248 258.576 440.827 258.646 441.186 258.756C441.196 258.546 441.196 258.347 441.196 258.187C441.196 257.438 440.817 257.049 439.699 257.049C438.921 257.049 438.032 257.289 437.403 257.648C437.324 257.279 437.184 256.7 437.074 256.41C437.813 256.111 438.781 255.841 439.749 255.841C441.885 255.841 442.634 256.75 442.634 258.087C442.634 258.856 442.604 259.445 442.604 260.183C442.604 260.892 442.654 261.711 442.744 262H441.536C441.256 262 441.206 261.96 441.206 261.631C441.206 261.421 441.216 261.152 441.226 260.902ZM445.699 262H444.272C444.302 260.822 444.302 259.555 444.302 258.197C444.302 256.66 444.302 255.552 444.272 254.274H445.699C445.669 255.502 445.679 256.58 445.679 258.247C445.679 259.714 445.669 260.782 445.699 262ZM451.256 259.604V259.375C450.786 259.285 450.287 259.265 449.748 259.265C448.84 259.265 448.431 259.535 448.431 260.173C448.431 260.752 448.75 261.062 449.559 261.062C450.647 261.062 451.256 260.483 451.256 259.604ZM451.305 260.902L451.236 260.892C450.946 261.701 450.187 262.1 449.03 262.1C447.722 262.1 447.033 261.601 447.033 260.333C447.033 259.125 447.872 258.576 449.638 258.576C450.327 258.576 450.906 258.646 451.265 258.756C451.275 258.546 451.275 258.347 451.275 258.187C451.275 257.438 450.896 257.049 449.778 257.049C449 257.049 448.111 257.289 447.482 257.648C447.403 257.279 447.263 256.7 447.153 256.41C447.892 256.111 448.86 255.841 449.828 255.841C451.964 255.841 452.713 256.75 452.713 258.087C452.713 258.856 452.683 259.445 452.683 260.183C452.683 260.892 452.733 261.711 452.823 262H451.615C451.335 262 451.285 261.96 451.285 261.631C451.285 261.421 451.295 261.152 451.305 260.902ZM454.131 257.638C454.131 256.57 455.11 255.851 456.826 255.851C457.745 255.851 458.673 256.011 459.392 256.291C459.312 256.68 459.262 257.059 459.202 257.448C458.613 257.139 457.595 256.979 456.826 256.989C455.768 256.989 455.389 257.219 455.389 257.628C455.389 257.818 455.459 257.967 455.669 258.077C455.868 258.207 456.267 258.287 456.886 258.347C457.865 258.437 458.593 258.616 459.012 258.956C459.362 259.255 459.531 259.684 459.531 260.253C459.531 261.451 458.563 262.13 456.767 262.13C455.728 262.13 454.7 261.9 454.002 261.571C454.082 261.172 454.151 260.762 454.211 260.373C454.91 260.752 455.848 260.982 456.816 260.982C457.944 260.982 458.274 260.702 458.274 260.263C458.274 260.074 458.214 259.894 458.024 259.774C457.765 259.604 457.365 259.545 456.667 259.485C455.768 259.405 455.1 259.245 454.67 258.936C454.311 258.646 454.131 258.227 454.131 257.638ZM463.218 255.981L464.027 255.991C464.027 255.532 464.027 255.103 464.027 254.713C464.246 254.713 464.506 254.723 464.735 254.723C464.965 254.723 465.214 254.723 465.434 254.713C465.424 255.123 465.414 255.552 465.404 255.991C466.193 255.991 467.031 255.981 467.78 255.971C467.76 256.34 467.75 256.82 467.75 257.189C467.121 257.169 466.253 257.159 465.384 257.149C465.374 257.977 465.374 258.876 465.374 259.864C465.374 260.533 465.674 260.852 466.492 260.852C466.971 260.852 467.39 260.752 467.73 260.623C467.77 261.032 467.85 261.511 467.91 261.86C467.371 261.99 466.971 262.08 466.322 262.08C464.606 262.08 464.007 261.231 464.007 260.024C464.007 259.275 464.017 258.217 464.027 257.139H463.218V255.981ZM472.993 259.604V259.375C472.523 259.285 472.024 259.265 471.485 259.265C470.577 259.265 470.168 259.535 470.168 260.173C470.168 260.752 470.487 261.062 471.296 261.062C472.384 261.062 472.993 260.483 472.993 259.604ZM473.043 260.902L472.973 260.892C472.683 261.701 471.925 262.1 470.767 262.1C469.459 262.1 468.77 261.601 468.77 260.333C468.77 259.125 469.609 258.576 471.376 258.576C472.064 258.576 472.643 258.646 473.003 258.756C473.013 258.546 473.013 258.347 473.013 258.187C473.013 257.438 472.633 257.049 471.515 257.049C470.737 257.049 469.848 257.289 469.22 257.648C469.14 257.279 469 256.7 468.89 256.41C469.629 256.111 470.597 255.841 471.565 255.841C473.701 255.841 474.45 256.75 474.45 258.087C474.45 258.856 474.42 259.445 474.42 260.183C474.42 260.892 474.47 261.711 474.56 262H473.352C473.072 262 473.023 261.96 473.023 261.631C473.023 261.421 473.033 261.152 473.043 260.902ZM477.286 257.299L477.356 257.309C477.665 256.311 478.314 255.891 479.242 255.891C479.612 255.891 479.941 255.961 480.24 256.061C480.181 256.37 480.101 257.009 480.081 257.379C479.791 257.259 479.472 257.199 479.103 257.199C478.104 257.209 477.545 257.678 477.545 259.105C477.545 260.084 477.555 261.331 477.585 262H476.098C476.118 261.162 476.118 260.263 476.118 258.966C476.118 257.688 476.118 256.83 476.098 255.981H477.326C477.316 256.36 477.296 256.78 477.286 257.299ZM482.593 258.646V260.523C483.013 260.812 483.582 260.982 484.27 260.982C485.348 260.982 485.857 260.343 485.857 258.976C485.857 257.598 485.338 256.979 484.35 256.979C483.392 256.979 482.593 257.478 482.593 258.646ZM482.603 257.019L482.663 257.039C483.023 256.34 483.741 255.871 484.859 255.871C486.446 255.871 487.225 256.989 487.225 258.966C487.225 260.942 486.317 262.1 484.809 262.1C483.761 262.1 483.053 261.721 482.663 261.211L482.613 261.231C482.623 261.531 482.623 261.8 482.623 262.13C482.623 262.549 482.633 262.938 482.633 263.387H481.196C481.226 262.05 481.226 260.273 481.226 258.736C481.226 257.418 481.216 256.68 481.206 255.981H482.633C482.633 256.191 482.623 256.37 482.623 256.59C482.623 256.73 482.613 256.87 482.603 257.019ZM494.236 258.277C495.393 258.277 496.022 257.758 496.022 257.009C496.022 256.121 495.383 255.602 494.286 255.602C493.198 255.602 492.579 256.071 492.579 256.959C492.579 257.868 493.148 258.277 494.236 258.277ZM496.332 258.117H496.282C495.883 258.836 495.064 259.225 493.936 259.225C492.1 259.225 491.171 258.467 491.171 256.919C491.171 255.432 492.179 254.384 494.256 254.384C496.511 254.384 497.629 255.652 497.629 258.367C497.629 260.912 496.302 262.13 494.096 262.13C492.908 262.13 491.95 261.83 491.351 261.431C491.551 261.062 491.75 260.652 491.93 260.273C492.469 260.682 493.257 260.892 494.096 260.892C495.543 260.892 496.252 260.203 496.312 258.636L496.332 258.117ZM503.528 254.893C503.528 255.173 503.378 255.402 502.639 255.402C501.881 255.402 501.741 255.173 501.741 254.893C501.741 254.594 501.901 254.404 502.639 254.404C503.358 254.404 503.528 254.594 503.528 254.893ZM503.338 262H501.921C501.941 261.022 501.941 260.113 501.941 258.886C501.941 257.718 501.941 256.909 501.921 255.981H503.338C503.308 256.919 503.308 257.708 503.308 258.926C503.308 260.253 503.308 261.032 503.338 262ZM506.236 257.299L506.306 257.309C506.615 256.311 507.264 255.891 508.193 255.891C508.562 255.891 508.891 255.961 509.191 256.061C509.131 256.37 509.051 257.009 509.031 257.379C508.742 257.259 508.422 257.199 508.053 257.199C507.055 257.209 506.496 257.678 506.496 259.105C506.496 260.084 506.506 261.331 506.536 262H505.048C505.068 261.162 505.068 260.263 505.068 258.966C505.068 257.688 505.068 256.83 505.048 255.981H506.276C506.266 256.36 506.246 256.78 506.236 257.299ZM513.181 262.01C513.211 260.962 513.221 259.854 513.221 258.257C513.221 256.73 513.171 255.881 513.141 255.193C513.46 255.033 513.79 254.773 514.009 254.514C514.139 254.524 514.269 254.524 514.388 254.524C514.538 254.524 514.648 254.524 514.738 254.514C514.708 255.342 514.698 256.65 514.698 258.257C514.698 259.844 514.708 260.952 514.738 262C514.418 261.98 514.199 261.98 513.989 261.98C513.76 261.98 513.51 261.99 513.181 262.01ZM523 258.167C523 260.762 521.693 262.13 519.547 262.13C517.391 262.13 516.133 260.762 516.133 258.167C516.133 255.582 517.49 254.384 519.557 254.384C521.613 254.384 523 255.582 523 258.167ZM519.557 255.692C518.399 255.692 517.63 256.36 517.63 258.217C517.63 260.113 518.389 260.792 519.557 260.792C520.734 260.792 521.483 260.104 521.483 258.217C521.483 256.37 520.724 255.692 519.557 255.692ZM524.849 258.786C524.849 256.959 524.399 255.272 523.671 254.304C524.11 254.234 524.549 254.135 524.889 254.025C525.617 254.973 526.236 256.76 526.236 258.786C526.236 260.812 525.617 262.599 524.879 263.537C524.549 263.437 524.11 263.328 523.671 263.268C524.389 262.27 524.849 260.613 524.849 258.786Z" fill="black"/>
<path d="M37 193.5C37 183.283 45.2827 175 55.5 175H200V212H55.5C45.2827 212 37 203.717 37 193.5Z" fill="#CB3E3E"/>
<rect x="201" y="175" width="162" height="37" fill="#F4E140"/>
<path d="M364 175H508.5C518.717 175 527 183.283 527 193.5C527 203.717 518.717 212 508.5 212H364V175Z" fill="#3FCC6F"/>
<g filter="url(#filter1_d_867_2112)">
<rect x="82" y="126" width="74.8462" height="30" rx="14.2812" fill="white" shape-rendering="crispEdges"/>
<path d="M100.092 142.34C101.523 142.34 102.138 141.939 102.138 139.593C102.138 137.332 101.537 136.989 100.121 136.989C99.6773 136.989 99.2623 137.003 98.8617 137.032C98.8331 137.904 98.8331 138.849 98.8331 139.779C98.8331 140.866 98.8331 141.667 98.8474 142.311C99.2623 142.34 99.6343 142.34 100.092 142.34ZM95.3134 134.385H100.378C104.041 134.385 105.658 135.458 105.658 139.464C105.658 143.756 104.227 145.115 100.307 145.115H95.3134C95.342 143.613 95.3563 142.039 95.3563 139.764C95.3563 137.489 95.342 135.787 95.3134 134.385ZM112.114 141.438V141.295C111.728 141.224 111.341 141.209 110.927 141.209C110.111 141.209 109.768 141.467 109.768 142.168C109.768 142.826 110.011 143.098 110.683 143.098C111.57 143.098 112.114 142.569 112.114 141.438ZM112.128 140.151V139.75C112.128 139.035 111.785 138.691 110.698 138.691C109.667 138.691 108.28 138.977 107.292 139.464C107.192 138.706 106.963 137.332 106.792 136.702C108.079 136.33 109.51 136.016 110.969 136.016C114.26 136.016 115.462 137.26 115.462 139.349C115.462 140.566 115.419 141.41 115.419 142.526C115.419 143.499 115.491 144.729 115.634 145.115H112.887C112.286 145.115 112.171 145.058 112.171 144.357C112.171 144.157 112.186 143.899 112.2 143.627H112.128C111.756 144.743 110.769 145.244 109.281 145.244C107.521 145.244 106.606 144.629 106.606 142.626C106.606 140.78 107.85 139.993 110.512 139.993C111.184 139.993 111.713 140.05 112.128 140.151ZM120.414 140.337V142.426C120.786 142.612 121.215 142.74 121.773 142.74C122.817 142.74 123.261 142.182 123.261 140.566C123.261 138.977 122.817 138.534 121.902 138.534C121.086 138.534 120.414 138.963 120.414 140.337ZM120.457 137.518L120.528 137.547C121.072 136.531 122.088 136.059 123.404 136.059C125.493 136.059 126.609 137.16 126.609 140.608C126.609 144.014 125.464 145.258 123.404 145.258C121.787 145.258 120.972 144.586 120.557 143.856L120.471 143.871C120.471 144.042 120.471 144.2 120.471 144.357C120.471 144.629 120.485 144.858 120.5 145.115H117.066C117.094 143.613 117.109 141.982 117.109 139.707C117.109 137.275 117.094 135.429 117.08 134.041H120.514C120.5 134.671 120.5 135.257 120.5 136.102C120.485 136.66 120.471 137.046 120.457 137.518ZM133.017 141.438V141.295C132.63 141.224 132.244 141.209 131.829 141.209C131.014 141.209 130.67 141.467 130.67 142.168C130.67 142.826 130.914 143.098 131.586 143.098C132.473 143.098 133.017 142.569 133.017 141.438ZM133.031 140.151V139.75C133.031 139.035 132.688 138.691 131.6 138.691C130.57 138.691 129.182 138.977 128.195 139.464C128.095 138.706 127.866 137.332 127.694 136.702C128.982 136.33 130.413 136.016 131.872 136.016C135.163 136.016 136.365 137.26 136.365 139.349C136.365 140.566 136.322 141.41 136.322 142.526C136.322 143.499 136.393 144.729 136.536 145.115H133.789C133.188 145.115 133.074 145.058 133.074 144.357C133.074 144.157 133.088 143.899 133.103 143.627H133.031C132.659 144.743 131.672 145.244 130.184 145.244C128.424 145.244 127.508 144.629 127.508 142.626C127.508 140.78 128.753 139.993 131.414 139.993C132.087 139.993 132.616 140.05 133.031 140.151ZM140.715 138.119H140.83C141.23 136.66 142.103 136.102 143.276 136.102C143.634 136.102 143.963 136.144 144.278 136.23C144.192 137.246 144.106 138.577 144.092 139.75C143.777 139.65 143.42 139.593 143.048 139.593C141.903 139.607 141.502 140.065 141.502 141.667C141.502 142.798 141.517 144.142 141.574 145.115H137.968C137.997 143.871 138.011 142.526 138.011 140.608C138.011 138.734 138.011 137.461 137.968 136.202H140.787C140.758 136.817 140.73 137.418 140.715 138.119Z" fill="#666666"/>
</g>
<path d="M121.46 178.082C120.667 178.965 119.283 178.965 118.49 178.082L110.864 169.591C109.71 168.306 110.622 166.261 112.349 166.261L127.601 166.261C129.328 166.261 130.24 168.306 129.086 169.591L121.46 178.082Z" fill="#666666"/>
<g filter="url(#filter2_d_867_2112)">
<rect x="268" y="126" width="102.846" height="30" rx="14.2812" fill="white" shape-rendering="crispEdges"/>
<path d="M285.781 140.122C287.155 140.122 287.613 139.721 287.613 138.491C287.613 137.26 287.098 136.903 285.853 136.903C285.595 136.903 285.037 136.903 284.594 136.917C284.594 138.033 284.594 139.106 284.608 140.108C284.894 140.108 285.309 140.122 285.781 140.122ZM281.117 134.385H286.669C289.43 134.385 290.961 135.329 290.961 138.419C290.961 141.367 289.645 142.64 286.368 142.64C285.824 142.64 285.295 142.626 284.637 142.612C284.665 143.584 284.694 144.429 284.751 145.115H281.117C281.16 143.57 281.174 142.039 281.174 139.75C281.174 137.475 281.16 135.873 281.117 134.385ZM298.049 140.537C298.049 139.035 297.477 138.534 296.504 138.534C295.545 138.534 294.959 139.006 294.959 140.537C294.959 142.068 295.531 142.654 296.504 142.654C297.505 142.654 298.049 142.054 298.049 140.537ZM301.368 140.48C301.368 143.656 299.723 145.301 296.504 145.301C293.285 145.301 291.696 143.656 291.696 140.48C291.696 137.289 293.456 136.016 296.504 136.016C299.551 136.016 301.368 137.289 301.368 140.48ZM310.141 142.054L310.156 142.096C310.928 142.082 311.701 142.082 312.202 142.082C313.103 142.082 314.005 142.054 314.706 141.996C314.706 142.497 314.677 143.098 314.677 143.699C314.677 144.243 314.677 144.758 314.706 145.115H306.107C306.135 144.758 306.164 144.114 306.164 143.456C306.164 142.84 306.164 142.297 306.135 141.91C309.727 140.236 310.986 139.535 310.986 138.477C310.986 137.79 310.528 137.475 309.655 137.475C308.639 137.475 307.552 137.818 306.808 138.276C306.565 137.504 306.278 135.93 305.964 135.129C306.908 134.685 308.296 134.213 310.342 134.213C313.332 134.213 314.791 135.315 314.791 137.475C314.791 138.849 314.334 139.807 312.545 140.995C311.801 141.467 310.957 141.81 310.141 142.054ZM333.58 145.115H330.475C330.518 143.785 330.518 142.096 330.518 139.979C330.518 139.163 330.204 138.806 329.531 138.806C328.83 138.806 328.258 139.206 328.258 140.437C328.258 142.955 328.243 144.114 328.301 145.115H325.225C325.267 143.813 325.282 142.34 325.282 139.965C325.282 139.206 324.996 138.806 324.295 138.806C323.579 138.806 323.007 139.206 323.007 140.437C323.007 142.855 323.007 144.2 323.035 145.115H319.902C319.931 143.828 319.931 142.554 319.931 140.68C319.931 138.763 319.931 137.489 319.902 136.202H323.093C323.078 136.745 323.064 137.146 323.035 137.661L323.121 137.69C323.636 136.574 324.452 136.073 325.682 136.073C327.013 136.073 327.886 136.702 328.143 137.776H328.243C328.759 136.516 329.789 136.073 330.991 136.073C332.622 136.073 333.566 136.989 333.566 138.634C333.566 140.136 333.523 141.124 333.523 142.282C333.523 143.298 333.537 144.271 333.58 145.115ZM339.453 135.2C338.609 135.2 338.137 134.785 338.137 133.927C338.137 133.097 338.609 132.696 339.453 132.696C340.312 132.696 340.798 133.097 340.798 133.927C340.798 134.785 340.326 135.2 339.453 135.2ZM339.482 138.148C338.538 138.148 338.08 138.648 337.965 139.965C338.795 139.993 339.696 139.979 340.626 139.965C340.641 139.822 340.641 139.636 340.641 139.421C340.641 138.491 340.297 138.148 339.482 138.148ZM343.159 142.168C343.245 142.898 343.431 143.971 343.588 144.643C342.415 145.058 340.998 145.273 339.51 145.273C336.191 145.273 334.732 143.728 334.732 140.594C334.732 137.361 336.391 136.016 339.439 136.016C342.615 136.016 343.56 137.103 343.56 139.736C343.56 140.394 343.502 141.009 343.474 141.338C342.63 141.324 341.342 141.31 340.197 141.31C339.353 141.31 338.552 141.324 337.98 141.324C338.123 142.268 338.695 142.683 339.997 142.683C341.256 142.683 342.072 142.554 343.159 142.168ZM354.339 145.115H350.906C350.934 143.871 350.948 142.182 350.948 140.093C350.948 139.163 350.648 138.791 349.832 138.791C349.017 138.791 348.373 139.249 348.373 140.537C348.373 143.298 348.387 144.228 348.402 145.115H344.996C345.025 143.842 345.039 142.697 345.039 140.68C345.039 138.777 345.025 137.432 344.996 136.202H348.402C348.387 136.76 348.387 137.175 348.359 137.675L348.445 137.704C348.974 136.559 349.976 136.073 351.406 136.073C353.252 136.073 354.311 136.903 354.311 139.035C354.311 140.465 354.282 141.195 354.282 142.125C354.282 143.241 354.296 144.171 354.339 145.115ZM356.84 141.581C357.927 141.581 358.542 142.154 358.542 143.384C358.542 144.629 357.942 145.244 356.84 145.244C355.752 145.244 355.152 144.629 355.152 143.384C355.152 142.154 355.767 141.581 356.84 141.581Z" fill="black"/>
</g>
<path d="M320.46 178.082C319.667 178.965 318.283 178.965 317.49 178.082L309.864 169.591C308.71 168.306 309.622 166.261 311.349 166.261L326.601 166.261C328.328 166.261 329.24 168.306 328.086 169.591L320.46 178.082Z" fill="black"/>
<defs>
<filter id="filter0_d_867_2112" x="0.64695" y="0.323475" width="558.706" height="348.706" filterUnits="userSpaceOnUse" color-interpolation-filters="sRGB">
<feFlood flood-opacity="0" result="BackgroundImageFix"/>
<feColorMatrix in="SourceAlpha" type="matrix" values="0 0 0 0 0 0 0 0 0 0 0 0 0 0 0 0 0 0 127 0" result="hardAlpha"/>
<feOffset dy="4.67653"/>
<feGaussianBlur stdDeviation="4.67653"/>
<feColorMatrix type="matrix" values="0 0 0 0 0.160784 0 0 0 0 0.160784 0 0 0 0 0.164706 0 0 0 0.07 0"/>
<feBlend mode="normal" in2="BackgroundImageFix" result="effect1_dropShadow_867_2112"/>
<feBlend mode="normal" in="SourceGraphic" in2="effect1_dropShadow_867_2112" result="shape"/>
</filter>
<filter id="filter1_d_867_2112" x="43.9167" y="106.958" width="151.014" height="106.167" filterUnits="userSpaceOnUse" color-interpolation-filters="sRGB">
<feFlood flood-opacity="0" result="BackgroundImageFix"/>
<feColorMatrix in="SourceAlpha" type="matrix" values="0 0 0 0 0 0 0 0 0 0 0 0 0 0 0 0 0 0 127 0" result="hardAlpha"/>
<feOffset dy="19.0417"/>
<feGaussianBlur stdDeviation="19.0417"/>
<feComposite in2="hardAlpha" operator="out"/>
<feColorMatrix type="matrix" values="0 0 0 0 0.153783 0 0 0 0 0.202141 0 0 0 0 0.312457 0 0 0 0.12 0"/>
<feBlend mode="normal" in2="BackgroundImageFix" result="effect1_dropShadow_867_2112"/>
<feBlend mode="normal" in="SourceGraphic" in2="effect1_dropShadow_867_2112" result="shape"/>
</filter>
<filter id="filter2_d_867_2112" x="229.917" y="106.958" width="179.014" height="106.167" filterUnits="userSpaceOnUse" color-interpolation-filters="sRGB">
<feFlood flood-opacity="0" result="BackgroundImageFix"/>
<feColorMatrix in="SourceAlpha" type="matrix" values="0 0 0 0 0 0 0 0 0 0 0 0 0 0 0 0 0 0 127 0" result="hardAlpha"/>
<feOffset dy="19.0417"/>
<feGaussianBlur stdDeviation="19.0417"/>
<feComposite in2="hardAlpha" operator="out"/>
<feColorMatrix type="matrix" values="0 0 0 0 0.153783 0 0 0 0 0.202141 0 0 0 0 0.312457 0 0 0 0.12 0"/>
<feBlend mode="normal" in2="BackgroundImageFix" result="effect1_dropShadow_867_2112"/>
<feBlend mode="normal" in="SourceGraphic" in2="effect1_dropShadow_867_2112" result="shape"/>
</filter>
</defs>
</svg>
