<svg width="562" height="350" viewBox="0 0 562 350" fill="none" xmlns="http://www.w3.org/2000/svg">
<g filter="url(#filter0_d_1190_5110)">
<rect x="10" y="5" width="540" height="330" rx="12" fill="white"/>
<rect x="10.5" y="5.5" width="539" height="329" rx="11.5" stroke="#D9DBE1"/>
</g>
<path d="M10.4991 17C10.4991 10.6482 15.6482 5.49908 22 5.49908H538C544.352 5.49908 549.501 10.6482 549.501 17V35.4436H10.4991V17Z" fill="white"/>
<circle cx="37.4506" cy="20.4713" r="3.49353" fill="#E0754F"/>
<circle cx="49.4271" cy="20.4713" r="3.49353" fill="#F5DA63"/>
<circle cx="61.4076" cy="20.4713" r="3.49353" fill="#60AB41"/>
<path d="M10.4991 17C10.4991 10.6482 15.6482 5.49908 22 5.49908H538C544.352 5.49908 549.501 10.6482 549.501 17V35.4436H10.4991V17Z" stroke="#D9DBE1" stroke-width="0.998152"/>
<path d="M221.239 76.0222H230.678V77.0443V78.0983C229.432 78.0824 228.186 78.0664 227.116 78.0664C227.116 82.5381 227.116 87.0098 227.164 88.016C226.829 87.984 226.318 87.984 225.951 87.984C225.615 87.984 225.12 87.984 224.769 88.016C224.817 87.0258 224.817 82.5541 224.817 78.0664C223.747 78.0664 222.501 78.0824 221.239 78.0983V77.0443V76.0222ZM238.611 84.1671V83.7998C237.861 83.656 237.062 83.6241 236.2 83.6241C234.747 83.6241 234.092 84.0553 234.092 85.0774C234.092 86.0037 234.603 86.4988 235.896 86.4988C237.637 86.4988 238.611 85.5725 238.611 84.1671ZM238.691 86.2433L238.579 86.2273C238.116 87.5209 236.903 88.1597 235.05 88.1597C232.958 88.1597 231.856 87.3612 231.856 85.3329C231.856 83.4005 233.197 82.5221 236.024 82.5221C237.126 82.5221 238.052 82.6339 238.627 82.8096C238.643 82.4742 238.643 82.1548 238.643 81.8993C238.643 80.7015 238.036 80.0787 236.248 80.0787C235.002 80.0787 233.581 80.462 232.575 81.0369C232.447 80.446 232.223 79.5197 232.048 79.0566C233.229 78.5774 234.778 78.1462 236.328 78.1462C239.745 78.1462 240.943 79.5996 240.943 81.7396C240.943 82.9693 240.895 83.9116 240.895 85.0934C240.895 86.2273 240.975 87.5369 241.119 88H239.186C238.739 88 238.659 87.9361 238.659 87.4091C238.659 87.0737 238.675 86.6425 238.691 86.2433ZM249.831 78.3698H252.227C251.22 80.8452 249.112 86.4189 248.569 88C248.202 87.984 247.787 87.984 247.18 87.984C246.509 87.984 245.966 87.984 245.743 88C245.136 86.403 243.075 80.9091 242.053 78.3698H244.593C244.832 79.2801 245.79 81.8354 246.381 83.7359C246.749 84.8059 246.988 85.6044 247.132 86.2273H247.26C247.435 85.6044 247.691 84.774 248.058 83.7199C248.649 81.7556 249.559 79.2482 249.831 78.3698ZM253.038 81.0209C253.038 79.3121 254.604 78.1622 257.35 78.1622C258.82 78.1622 260.305 78.4177 261.455 78.8649C261.327 79.4878 261.247 80.0946 261.151 80.7175C260.209 80.2224 258.58 79.9669 257.35 79.9828C255.658 79.9828 255.051 80.3502 255.051 81.005C255.051 81.3084 255.162 81.5479 255.498 81.7236C255.817 81.9312 256.456 82.059 257.446 82.1548C259.011 82.2986 260.177 82.586 260.848 83.129C261.407 83.6081 261.678 84.2949 261.678 85.2052C261.678 87.1216 260.129 88.2076 257.255 88.2076C255.594 88.2076 253.949 87.8403 252.831 87.3133C252.959 86.6745 253.07 86.0197 253.166 85.3968C254.284 86.0037 255.785 86.371 257.334 86.371C259.139 86.371 259.666 85.9238 259.666 85.2211C259.666 84.9177 259.57 84.6302 259.267 84.4386C258.852 84.1671 258.213 84.0713 257.095 83.9755C255.658 83.8477 254.588 83.5922 253.901 83.0971C253.326 82.6339 253.038 81.9632 253.038 81.0209ZM270.739 88H268.456C268.504 86.1155 268.504 84.0872 268.504 81.9153C268.504 79.4558 268.504 77.6831 268.456 75.6389H270.739C270.691 77.6033 270.707 79.3281 270.707 81.9951C270.707 84.3428 270.691 86.0516 270.739 88ZM274.567 75.7986C275.301 75.7986 276.419 75.7986 276.93 75.7667C276.914 75.9902 276.914 76.1979 276.914 76.4374C276.914 76.661 276.914 76.8367 276.93 77.0443C276.419 77.0283 275.301 77.0123 274.567 77.0123C273.864 77.0123 272.762 77.0283 272.251 77.0443C272.251 76.8367 272.267 76.661 272.267 76.4374C272.267 76.1979 272.251 75.9902 272.251 75.7667C272.762 75.7986 273.864 75.7986 274.567 75.7986ZM275.716 88H273.449C273.481 86.4349 273.481 84.9816 273.481 83.0172C273.481 81.1487 273.481 79.8551 273.449 78.3698H275.716C275.668 79.8711 275.668 81.1327 275.668 83.0811C275.668 85.2052 275.668 86.4509 275.716 88ZM293.002 88H290.814C290.862 86.6425 290.878 84.4865 290.878 81.9951C290.878 80.7175 290.351 80.0946 289.073 80.0946C287.796 80.0946 286.758 80.7973 286.758 82.5221C286.758 85.3809 286.742 86.7703 286.806 88H284.634C284.682 86.6425 284.698 84.9496 284.698 82.043C284.698 80.7494 284.202 80.0946 282.909 80.0946C281.631 80.0946 280.593 80.7973 280.593 82.5221C280.593 85.0455 280.593 87.0098 280.625 88H278.453C278.485 86.6585 278.485 85.301 278.485 83.3047C278.485 81.1966 278.485 79.7752 278.453 78.3698H280.673C280.657 78.9767 280.641 79.4079 280.609 79.9988L280.705 80.0148C281.264 78.817 282.254 78.2101 283.723 78.2101C285.177 78.2101 286.295 78.8489 286.598 80.0946L286.694 80.1106C287.269 78.7531 288.435 78.2101 289.904 78.2101C291.788 78.2101 292.986 79.2163 292.986 81.2126C292.986 82.5381 292.938 83.688 292.938 84.8538C292.938 85.8919 292.97 87.0737 293.002 88ZM299.827 79.8711C298.166 79.8711 297.255 80.7814 297.096 82.5381C298.581 82.5701 300.769 82.5701 302.014 82.5381C302.014 82.3465 302.03 82.1069 302.03 81.8354C302.03 80.5578 301.36 79.8711 299.827 79.8711ZM300.306 86.3231C301.663 86.3231 302.557 86.1315 303.564 85.5885C303.691 86.1953 303.883 86.8182 304.075 87.3931C302.909 87.9361 301.599 88.1916 300.098 88.1916C296.744 88.1916 294.956 86.355 294.956 83.0971C294.956 79.8391 296.872 78.1462 299.827 78.1622C302.941 78.1622 304.075 79.5037 304.075 82.2506C304.075 82.7936 304.043 83.3845 304.011 83.7359C303.244 83.7199 301.871 83.7199 300.258 83.7199C299.108 83.7199 297.958 83.7199 297.096 83.704C297.271 85.4288 298.309 86.3231 300.306 86.3231ZM315.792 88H313.476C313.508 86.5627 313.524 84.742 313.524 82.3145C313.524 80.7973 312.933 80.0627 311.368 80.0627C309.867 80.0627 308.669 80.8452 308.669 82.6818C308.669 85.8919 308.685 87.0258 308.701 88H306.417C306.449 86.6745 306.465 85.4447 306.465 83.3047C306.465 81.2126 306.449 79.6475 306.417 78.3698H308.717C308.701 78.9767 308.701 79.4399 308.669 80.0308L308.765 80.0467C309.371 78.801 310.585 78.2101 312.31 78.2101C314.562 78.2101 315.76 79.3281 315.76 81.8354C315.76 83.3047 315.728 83.9275 315.728 84.8379C315.728 85.9718 315.744 86.9779 315.792 88ZM320.952 76.6291C320.952 77.0762 320.713 77.4435 319.531 77.4435C318.317 77.4435 318.094 77.0762 318.094 76.6291C318.094 76.1499 318.349 75.8465 319.531 75.8465C320.681 75.8465 320.952 76.1499 320.952 76.6291ZM320.649 88H318.381C318.413 86.4349 318.413 84.9816 318.413 83.0172C318.413 81.1487 318.413 79.8551 318.381 78.3698H320.649C320.601 79.8711 320.601 81.1327 320.601 83.0811C320.601 85.2052 320.601 86.4509 320.649 88ZM323.018 81.0209C323.018 79.3121 324.583 78.1622 327.33 78.1622C328.799 78.1622 330.285 78.4177 331.435 78.8649C331.307 79.4878 331.227 80.0946 331.131 80.7175C330.189 80.2224 328.56 79.9669 327.33 79.9828C325.637 79.9828 325.03 80.3502 325.03 81.005C325.03 81.3084 325.142 81.5479 325.478 81.7236C325.797 81.9312 326.436 82.059 327.426 82.1548C328.991 82.2986 330.157 82.586 330.828 83.129C331.387 83.6081 331.658 84.2949 331.658 85.2052C331.658 87.1216 330.109 88.2076 327.234 88.2076C325.573 88.2076 323.929 87.8403 322.811 87.3133C322.938 86.6745 323.05 86.0197 323.146 85.3968C324.264 86.0037 325.765 86.371 327.314 86.371C329.119 86.371 329.646 85.9238 329.646 85.2211C329.646 84.9177 329.55 84.6302 329.247 84.4386C328.831 84.1671 328.193 84.0713 327.075 83.9755C325.637 83.8477 324.567 83.5922 323.881 83.0971C323.306 82.6339 323.018 81.9632 323.018 81.0209ZM334.283 85.1253C335.162 85.1253 335.673 85.6364 335.673 86.5946C335.673 87.5528 335.178 88.0958 334.283 88.0958C333.357 88.0958 332.894 87.5528 332.894 86.5946C332.894 85.6364 333.389 85.1253 334.283 85.1253ZM334.299 78.1942C335.178 78.1942 335.689 78.7212 335.689 79.6634C335.689 80.6217 335.209 81.1487 334.299 81.1487C333.373 81.1487 332.894 80.6217 332.894 79.6634C332.894 78.7212 333.405 78.1942 334.299 78.1942Z" fill="black"/>
<path d="M266.404 237.75H269.22C268.626 239.807 267.46 244.746 267.152 246C266.646 245.989 265.909 245.978 265.073 245.978C263.973 245.978 263.324 245.989 262.961 246C262.675 244.746 261.476 239.697 260.871 237.75H263.874C263.962 238.564 264.424 240.852 264.798 242.656C264.93 243.206 265.04 243.723 265.117 244.163H265.139C265.216 243.723 265.326 243.184 265.458 242.645C265.832 240.852 266.305 238.487 266.404 237.75ZM272.456 238.058C272.456 238.388 272.269 238.707 270.971 238.707C269.651 238.707 269.464 238.388 269.464 238.058C269.464 237.684 269.684 237.453 270.971 237.453C272.247 237.453 272.456 237.684 272.456 238.058ZM272.269 246H269.651C269.684 244.944 269.684 243.778 269.684 242.447C269.684 241.193 269.673 240.192 269.651 239.147H272.269C272.236 240.203 272.236 241.182 272.236 242.59C272.236 244.086 272.236 244.977 272.269 246ZM278.005 242.821V241.083C277.719 240.951 277.367 240.874 276.949 240.874C276.168 240.874 275.772 241.27 275.772 242.557C275.772 243.778 276.168 244.185 276.817 244.185C277.499 244.185 278.005 243.767 278.005 242.821ZM277.95 237.486H280.59C280.557 238.685 280.568 239.884 280.568 241.908C280.568 243.657 280.557 244.834 280.59 246.011H277.961C277.961 245.769 277.972 245.538 277.972 245.274C277.972 245.109 277.972 244.933 277.983 244.757L277.906 244.746C277.62 245.45 277.004 246.099 275.772 246.099C274.21 246.099 273.242 245.12 273.242 242.59C273.242 240.038 274.408 239.037 275.915 239.037C276.872 239.037 277.554 239.356 277.95 240.038L277.983 240.027C277.961 239.642 277.961 239.323 277.961 238.905C277.961 238.377 277.972 237.937 277.95 237.486ZM285.165 238.267C284.505 238.267 283.427 238.267 282.943 238.289C282.954 238.102 282.965 237.937 282.965 237.75C282.965 237.519 282.954 237.332 282.943 237.123C283.427 237.156 284.505 237.156 285.165 237.156C285.88 237.156 286.947 237.156 287.431 237.123C287.42 237.332 287.409 237.519 287.409 237.75C287.409 237.937 287.42 238.102 287.431 238.289C286.947 238.267 285.88 238.267 285.165 238.267ZM285.198 240.643C284.472 240.643 284.12 241.028 284.032 242.04C284.67 242.062 285.363 242.051 286.078 242.04C286.089 241.93 286.089 241.787 286.089 241.622C286.089 240.907 285.825 240.643 285.198 240.643ZM288.025 243.734C288.091 244.295 288.234 245.12 288.355 245.637C287.453 245.956 286.364 246.121 285.22 246.121C282.668 246.121 281.546 244.933 281.546 242.524C281.546 240.038 282.822 239.004 285.165 239.004C287.607 239.004 288.333 239.84 288.333 241.864C288.333 242.37 288.289 242.843 288.267 243.096C287.618 243.085 286.628 243.074 285.748 243.074C285.099 243.074 284.483 243.085 284.043 243.085C284.153 243.811 284.593 244.13 285.594 244.13C286.562 244.13 287.189 244.031 288.025 243.734ZM290.109 244.394C290.109 242.359 290.087 240.06 290.032 239.147H292.573C292.551 240.06 292.562 240.709 292.562 241.578C292.562 242.337 292.595 243.525 292.595 244.735C292.595 246.671 292.012 247.584 289.944 247.584C289.504 247.584 289.141 247.529 288.833 247.441C288.866 247.012 288.921 245.505 288.932 245.12C289.097 245.186 289.295 245.252 289.515 245.252C289.922 245.252 290.109 244.988 290.109 244.394ZM292.782 238.047C292.782 238.388 292.595 238.696 291.308 238.696C289.999 238.696 289.812 238.388 289.812 238.047C289.812 237.684 290.032 237.453 291.308 237.453C292.562 237.453 292.782 237.684 292.782 238.047ZM293.601 241.138C293.601 239.829 294.668 239.026 296.824 239.026C297.99 239.026 299.123 239.191 299.893 239.411C299.794 240.016 299.706 240.621 299.64 241.226C298.969 240.94 297.979 240.83 297.231 240.83C296.384 240.83 296.175 240.951 296.175 241.204C296.175 241.336 296.23 241.424 296.395 241.501C296.56 241.578 296.857 241.633 297.308 241.688C298.254 241.798 299.002 241.996 299.431 242.381C299.816 242.711 300.003 243.206 300.003 243.877C300.003 245.417 298.925 246.143 296.736 246.143C295.471 246.143 294.305 245.923 293.546 245.648C293.645 244.988 293.722 244.317 293.788 243.668C294.547 243.998 295.537 244.218 296.461 244.218C297.253 244.218 297.44 244.053 297.44 243.8C297.44 243.679 297.396 243.569 297.253 243.481C297.055 243.371 296.78 243.338 296.274 243.272C295.328 243.162 294.624 242.986 294.184 242.634C293.788 242.304 293.601 241.82 293.601 241.138ZM229.277 258.786C229.277 260.603 229.736 262.27 230.455 263.268C230.026 263.328 229.577 263.437 229.237 263.537C228.509 262.599 227.89 260.812 227.89 258.786C227.89 256.76 228.519 254.973 229.237 254.025C229.577 254.135 230.016 254.244 230.455 254.294C229.726 255.282 229.277 256.959 229.277 258.786ZM235.424 255.981H236.921C236.292 257.528 234.975 261.012 234.635 262C234.406 261.99 234.146 261.99 233.767 261.99C233.348 261.99 233.008 261.99 232.869 262C232.489 261.002 231.202 257.568 230.563 255.981H232.15C232.3 256.55 232.899 258.147 233.268 259.335C233.498 260.004 233.647 260.503 233.737 260.892H233.817C233.927 260.503 234.086 259.984 234.316 259.325C234.685 258.097 235.254 256.53 235.424 255.981ZM239.432 254.893C239.432 255.173 239.282 255.402 238.544 255.402C237.785 255.402 237.645 255.173 237.645 254.893C237.645 254.594 237.805 254.404 238.544 254.404C239.262 254.404 239.432 254.594 239.432 254.893ZM239.242 262H237.825C237.845 261.022 237.845 260.113 237.845 258.886C237.845 257.718 237.845 256.909 237.825 255.981H239.242C239.213 256.919 239.213 257.708 239.213 258.926C239.213 260.253 239.213 261.032 239.242 262ZM245.235 259.375V257.438C244.826 257.159 244.257 256.999 243.638 256.999C242.51 256.999 241.931 257.628 241.931 259.026C241.931 260.433 242.54 261.002 243.528 261.002C244.466 261.002 245.235 260.433 245.235 259.375ZM245.195 254.274H246.642C246.612 255.402 246.612 256.43 246.612 258.417C246.612 259.934 246.612 261.002 246.632 262.01H245.215V261.301C245.215 261.122 245.225 260.952 245.235 260.762L245.175 260.752C244.856 261.491 244.157 262.1 243.079 262.1C241.592 262.1 240.594 261.142 240.594 259.035C240.594 256.939 241.682 255.871 243.229 255.871C244.147 255.871 244.796 256.181 245.185 256.75L245.225 256.74C245.215 256.38 245.215 256.091 245.215 255.702C245.215 255.153 245.225 254.763 245.195 254.274ZM248.443 260.203C248.982 260.203 249.311 260.513 249.311 261.122C249.311 261.74 249.002 262.07 248.443 262.07C247.884 262.07 247.584 261.74 247.584 261.122C247.584 260.513 247.904 260.203 248.443 260.203ZM257.239 255.981H258.736C258.107 257.528 256.79 261.012 256.451 262C256.221 261.99 255.961 261.99 255.582 261.99C255.163 261.99 254.824 261.99 254.684 262C254.304 261.002 253.017 257.568 252.378 255.981H253.965C254.115 256.55 254.714 258.147 255.083 259.335C255.313 260.004 255.462 260.503 255.552 260.892H255.632C255.742 260.503 255.902 259.984 256.131 259.325C256.5 258.097 257.069 256.53 257.239 255.981ZM262.06 255.133C261.501 255.133 260.603 255.133 260.194 255.153C260.194 255.023 260.204 254.913 260.204 254.773C260.204 254.624 260.194 254.494 260.194 254.354C260.603 254.374 261.501 254.374 262.06 254.374C262.649 254.374 263.547 254.374 263.957 254.354C263.947 254.494 263.947 254.624 263.947 254.773C263.947 254.913 263.947 255.023 263.957 255.153C263.547 255.133 262.649 255.133 262.06 255.133ZM262.08 256.919C261.042 256.919 260.473 257.488 260.373 258.586C261.302 258.606 262.669 258.606 263.448 258.586C263.448 258.467 263.458 258.317 263.458 258.147C263.458 257.349 263.038 256.919 262.08 256.919ZM262.38 260.952C263.228 260.952 263.787 260.832 264.416 260.493C264.496 260.872 264.615 261.261 264.735 261.621C264.007 261.96 263.188 262.12 262.25 262.12C260.154 262.12 259.036 260.972 259.036 258.936C259.036 256.899 260.234 255.841 262.08 255.851C264.026 255.851 264.735 256.69 264.735 258.407C264.735 258.746 264.715 259.115 264.695 259.335C264.216 259.325 263.358 259.325 262.35 259.325C261.631 259.325 260.912 259.325 260.373 259.315C260.483 260.393 261.132 260.952 262.38 260.952ZM267.387 257.299L267.457 257.309C267.766 256.311 268.415 255.891 269.343 255.891C269.713 255.891 270.042 255.961 270.341 256.061C270.282 256.37 270.202 257.009 270.182 257.379C269.892 257.259 269.573 257.199 269.204 257.199C268.205 257.209 267.646 257.678 267.646 259.105C267.646 260.084 267.656 261.331 267.686 262H266.199C266.219 261.162 266.219 260.263 266.219 258.966C266.219 257.688 266.219 256.83 266.199 255.981H267.427C267.417 256.36 267.397 256.78 267.387 257.299ZM270.738 255.981L271.547 255.991C271.547 255.532 271.547 255.103 271.547 254.713C271.766 254.713 272.026 254.723 272.255 254.723C272.485 254.723 272.734 254.723 272.954 254.713C272.944 255.123 272.934 255.552 272.924 255.991C273.713 255.991 274.551 255.981 275.3 255.971C275.28 256.34 275.27 256.82 275.27 257.189C274.641 257.169 273.773 257.159 272.904 257.149C272.894 257.977 272.894 258.876 272.894 259.864C272.894 260.533 273.194 260.852 274.012 260.852C274.491 260.852 274.91 260.752 275.25 260.623C275.29 261.032 275.37 261.511 275.429 261.86C274.89 261.99 274.491 262.08 273.842 262.08C272.126 262.08 271.527 261.231 271.527 260.024C271.527 259.275 271.537 258.217 271.547 257.139H270.738V255.981ZM279.079 255.133C278.52 255.133 277.622 255.133 277.213 255.153C277.213 255.023 277.223 254.913 277.223 254.773C277.223 254.624 277.213 254.494 277.213 254.354C277.622 254.374 278.52 254.374 279.079 254.374C279.668 254.374 280.567 254.374 280.976 254.354C280.966 254.494 280.966 254.624 280.966 254.773C280.966 254.913 280.966 255.023 280.976 255.153C280.567 255.133 279.668 255.133 279.079 255.133ZM279.099 256.919C278.061 256.919 277.492 257.488 277.393 258.586C278.321 258.606 279.688 258.606 280.467 258.586C280.467 258.467 280.477 258.317 280.477 258.147C280.477 257.349 280.058 256.919 279.099 256.919ZM279.399 260.952C280.247 260.952 280.806 260.832 281.435 260.493C281.515 260.872 281.635 261.261 281.754 261.621C281.026 261.96 280.207 262.12 279.269 262.12C277.173 262.12 276.055 260.972 276.055 258.936C276.055 256.899 277.253 255.841 279.099 255.851C281.046 255.851 281.754 256.69 281.754 258.407C281.754 258.746 281.734 259.115 281.715 259.335C281.235 259.325 280.377 259.325 279.369 259.325C278.65 259.325 277.932 259.325 277.393 259.315C277.502 260.393 278.151 260.952 279.399 260.952ZM284.067 261.132C284.067 258.556 284.047 256.81 283.997 255.981H285.404C285.384 256.8 285.384 257.428 285.384 258.317C285.384 258.986 285.414 260.004 285.414 261.132C285.414 262.689 284.845 263.487 283.388 263.487C282.959 263.487 282.61 263.417 282.3 263.278C282.35 263.028 282.41 262.23 282.43 261.99C282.649 262.11 282.929 262.2 283.258 262.2C283.797 262.2 284.067 261.88 284.067 261.132ZM285.604 254.893C285.604 255.173 285.454 255.402 284.716 255.402C283.967 255.402 283.817 255.173 283.817 254.893C283.817 254.594 283.977 254.404 284.716 254.404C285.434 254.404 285.604 254.594 285.604 254.893ZM291.441 255.981H292.869C292.849 256.8 292.839 257.568 292.839 258.916C292.839 260.223 292.849 261.191 292.869 262H291.431C291.441 261.611 291.441 261.321 291.461 260.952L291.421 260.942C291.052 261.73 290.303 262.1 289.205 262.1C287.818 262.1 287.029 261.371 287.029 259.924C287.029 258.956 287.039 258.546 287.039 257.948C287.039 257.239 287.039 256.61 287.009 255.981H288.457C288.427 256.889 288.427 258.067 288.427 259.614C288.427 260.553 288.806 260.992 289.764 260.992C290.713 260.992 291.461 260.493 291.461 259.325C291.461 257.289 291.451 256.59 291.441 255.981ZM303.609 262H302.242C302.271 261.152 302.281 259.804 302.281 258.247C302.281 257.448 301.952 257.059 301.154 257.059C300.355 257.059 299.706 257.498 299.706 258.576C299.706 260.363 299.696 261.231 299.736 262H298.379C298.409 261.152 298.419 260.094 298.419 258.277C298.419 257.468 298.109 257.059 297.301 257.059C296.502 257.059 295.853 257.498 295.853 258.576C295.853 260.153 295.853 261.381 295.873 262H294.516C294.536 261.162 294.536 260.313 294.536 259.065C294.536 257.748 294.536 256.86 294.516 255.981H295.903C295.893 256.36 295.883 256.63 295.863 256.999L295.923 257.009C296.273 256.261 296.891 255.881 297.81 255.881C298.718 255.881 299.417 256.281 299.606 257.059L299.666 257.069C300.026 256.221 300.754 255.881 301.673 255.881C302.85 255.881 303.599 256.51 303.599 257.758C303.599 258.586 303.569 259.305 303.569 260.034C303.569 260.682 303.589 261.421 303.609 262ZM304.97 257.638C304.97 256.57 305.948 255.851 307.665 255.851C308.583 255.851 309.511 256.011 310.23 256.291C310.15 256.68 310.1 257.059 310.04 257.448C309.451 257.139 308.433 256.979 307.665 256.989C306.607 256.989 306.227 257.219 306.227 257.628C306.227 257.818 306.297 257.967 306.507 258.077C306.706 258.207 307.106 258.287 307.724 258.347C308.703 258.437 309.431 258.616 309.851 258.956C310.2 259.255 310.37 259.684 310.37 260.253C310.37 261.451 309.401 262.13 307.605 262.13C306.567 262.13 305.539 261.9 304.84 261.571C304.92 261.172 304.99 260.762 305.049 260.373C305.748 260.752 306.686 260.982 307.655 260.982C308.783 260.982 309.112 260.702 309.112 260.263C309.112 260.074 309.052 259.894 308.862 259.774C308.603 259.604 308.204 259.545 307.505 259.485C306.607 259.405 305.938 259.245 305.509 258.936C305.149 258.646 304.97 258.227 304.97 257.638ZM317.61 260.922C318.698 260.922 319.267 260.473 319.267 259.515C319.267 258.606 318.688 258.237 317.66 258.237C316.522 258.237 315.873 258.746 315.873 259.505C315.873 260.343 316.502 260.922 317.61 260.922ZM315.564 258.397L315.613 258.407C316.003 257.678 316.821 257.289 317.949 257.289C319.766 257.289 320.684 258.057 320.684 259.485C320.684 261.162 319.686 262.13 317.64 262.13C315.374 262.13 314.266 260.862 314.256 258.147C314.256 255.612 315.613 254.384 317.849 254.384C319.017 254.384 319.935 254.674 320.514 255.043C320.315 255.412 320.105 255.841 319.925 256.211C319.416 255.841 318.648 255.632 317.879 255.632C316.372 255.632 315.613 256.311 315.584 257.888L315.564 258.397ZM323.688 258.007C324.357 258.007 325.405 258.007 325.864 257.977C325.854 258.177 325.854 258.377 325.854 258.596C325.854 258.816 325.854 259.016 325.864 259.235C325.405 259.215 324.357 259.205 323.688 259.205C323.039 259.205 321.991 259.215 321.542 259.235C321.542 259.016 321.552 258.816 321.552 258.596C321.552 258.377 321.542 258.177 321.542 257.977C321.991 258.007 323.039 258.007 323.688 258.007ZM329.731 260.912C331.009 260.912 331.528 260.503 331.528 259.794C331.528 259.085 331.009 258.726 329.731 258.726C328.454 258.726 327.935 259.085 327.935 259.794C327.935 260.503 328.454 260.912 329.731 260.912ZM329.741 255.572C328.583 255.572 328.054 255.921 328.054 256.62C328.054 257.279 328.563 257.638 329.731 257.638C330.899 257.638 331.418 257.279 331.418 256.62C331.418 255.921 330.889 255.572 329.741 255.572ZM331.209 258.167V258.217C331.448 258.247 331.658 258.287 331.857 258.357C332.656 258.646 332.945 259.145 332.945 259.994C332.945 261.321 331.817 262.12 329.741 262.12C327.655 262.12 326.537 261.321 326.537 259.994C326.537 259.145 326.837 258.646 327.605 258.357C327.795 258.297 328.004 258.247 328.244 258.217V258.167C327.985 258.117 327.765 258.057 327.575 257.977C326.936 257.708 326.627 257.209 326.627 256.45C326.627 255.173 327.565 254.394 329.741 254.394C331.897 254.394 332.846 255.163 332.846 256.44C332.846 257.199 332.526 257.708 331.887 257.977C331.688 258.047 331.468 258.117 331.209 258.167ZM334.727 258.786C334.727 256.959 334.278 255.272 333.55 254.304C333.989 254.234 334.428 254.135 334.767 254.025C335.496 254.973 336.115 256.76 336.115 258.786C336.115 260.812 335.496 262.599 334.757 263.537C334.428 263.437 333.989 263.328 333.55 263.268C334.268 262.27 334.727 260.613 334.727 258.786Z" fill="black"/>
<path d="M42.037 243.679V243.701C42.554 243.679 43.06 243.679 43.522 243.679C44.655 243.679 45.271 243.657 45.854 243.635C45.821 244.031 45.821 244.592 45.821 244.9C45.821 245.241 45.832 245.582 45.854 246H38.572C38.594 245.604 38.594 245.252 38.594 244.933C38.594 244.504 38.594 243.987 38.583 243.756C39.144 243.338 40.431 242.073 41.531 240.962C41.894 240.61 42.257 240.324 42.598 240.082L42.576 240.016C42.081 240.049 41.564 240.049 41.003 240.049C39.749 240.049 39.177 240.06 38.605 240.071C38.616 239.719 38.627 239.202 38.627 238.894C38.627 238.564 38.627 238.135 38.605 237.75H45.832C45.832 238.124 45.821 238.465 45.821 238.806C45.821 239.169 45.821 239.752 45.832 240.06C45.271 240.478 44.259 241.589 43.17 242.711C42.719 243.162 42.378 243.437 42.037 243.679ZM50.1246 240.643C49.3986 240.643 49.0466 241.028 48.9586 242.04C49.5966 242.062 50.2896 242.051 51.0046 242.04C51.0156 241.93 51.0156 241.787 51.0156 241.622C51.0156 240.907 50.7516 240.643 50.1246 240.643ZM52.9516 243.734C53.0176 244.295 53.1606 245.12 53.2816 245.637C52.3796 245.956 51.2906 246.121 50.1466 246.121C47.5946 246.121 46.4726 244.933 46.4726 242.524C46.4726 240.038 47.7486 239.004 50.0916 239.004C52.5336 239.004 53.2596 239.84 53.2596 241.864C53.2596 242.37 53.2156 242.843 53.1936 243.096C52.5446 243.085 51.5546 243.074 50.6746 243.074C50.0256 243.074 49.4096 243.085 48.9696 243.085C49.0796 243.811 49.5196 244.13 50.5206 244.13C51.4886 244.13 52.1156 244.031 52.9516 243.734ZM64.8803 246H62.4933C62.5263 244.977 62.5263 243.679 62.5263 242.051C62.5263 241.424 62.2843 241.149 61.7673 241.149C61.2283 241.149 60.7883 241.457 60.7883 242.403C60.7883 244.339 60.7773 245.23 60.8213 246H58.4563C58.4893 244.999 58.5003 243.866 58.5003 242.04C58.5003 241.457 58.2803 241.149 57.7413 241.149C57.1913 241.149 56.7513 241.457 56.7513 242.403C56.7513 244.262 56.7513 245.296 56.7733 246H54.3643C54.3863 245.01 54.3863 244.031 54.3863 242.59C54.3863 241.116 54.3863 240.137 54.3643 239.147H56.8173C56.8063 239.565 56.7953 239.873 56.7733 240.269L56.8393 240.291C57.2353 239.433 57.8623 239.048 58.8083 239.048C59.8313 239.048 60.5023 239.532 60.7003 240.357H60.7773C61.1733 239.389 61.9653 239.048 62.8893 239.048C64.1433 239.048 64.8693 239.752 64.8693 241.017C64.8693 242.172 64.8363 242.931 64.8363 243.822C64.8363 244.603 64.8473 245.351 64.8803 246ZM65.8535 241.138C65.8535 239.829 66.9205 239.026 69.0765 239.026C70.2425 239.026 71.3755 239.191 72.1455 239.411C72.0465 240.016 71.9585 240.621 71.8925 241.226C71.2215 240.94 70.2315 240.83 69.4835 240.83C68.6365 240.83 68.4275 240.951 68.4275 241.204C68.4275 241.336 68.4825 241.424 68.6475 241.501C68.8125 241.578 69.1095 241.633 69.5605 241.688C70.5065 241.798 71.2545 241.996 71.6835 242.381C72.0685 242.711 72.2555 243.206 72.2555 243.877C72.2555 245.417 71.1775 246.143 68.9885 246.143C67.7235 246.143 66.5575 245.923 65.7985 245.648C65.8975 244.988 65.9745 244.317 66.0405 243.668C66.7995 243.998 67.7895 244.218 68.7135 244.218C69.5055 244.218 69.6925 244.053 69.6925 243.8C69.6925 243.679 69.6485 243.569 69.5055 243.481C69.3075 243.371 69.0325 243.338 68.5265 243.272C67.5805 243.162 66.8765 242.986 66.4365 242.634C66.0405 242.304 65.8535 241.82 65.8535 241.138ZM40.156 258.786C40.156 260.603 40.6152 262.27 41.3338 263.268C40.9046 263.328 40.4555 263.437 40.1161 263.537C39.3874 262.599 38.7686 260.812 38.7686 258.786C38.7686 256.76 39.3974 254.973 40.1161 254.025C40.4555 254.135 40.8946 254.244 41.3338 254.294C40.6052 255.282 40.156 256.959 40.156 258.786ZM46.3028 255.981H47.8001C47.1712 257.528 45.8537 261.012 45.5143 262C45.2847 261.99 45.0252 261.99 44.6459 261.99C44.2267 261.99 43.8873 261.99 43.7476 262C43.3683 261.002 42.0806 257.568 41.4418 255.981H43.0289C43.1786 256.55 43.7775 258.147 44.1468 259.335C44.3764 260.004 44.5261 260.503 44.616 260.892H44.6958C44.8056 260.503 44.9653 259.984 45.1949 259.325C45.5642 258.097 46.1331 256.53 46.3028 255.981ZM50.311 254.893C50.311 255.173 50.1612 255.402 49.4226 255.402C48.664 255.402 48.5243 255.173 48.5243 254.893C48.5243 254.594 48.684 254.404 49.4226 254.404C50.1413 254.404 50.311 254.594 50.311 254.893ZM50.1213 262H48.7039C48.7239 261.022 48.7239 260.113 48.7239 258.886C48.7239 257.718 48.7239 256.909 48.7039 255.981H50.1213C50.0914 256.919 50.0914 257.708 50.0914 258.926C50.0914 260.253 50.0914 261.032 50.1213 262ZM56.1138 259.375V257.438C55.7046 257.159 55.1356 256.999 54.5168 256.999C53.3888 256.999 52.8099 257.628 52.8099 259.026C52.8099 260.433 53.4188 261.002 54.407 261.002C55.3452 261.002 56.1138 260.433 56.1138 259.375ZM56.0739 254.274H57.5212C57.4912 255.402 57.4912 256.43 57.4912 258.417C57.4912 259.934 57.4912 261.002 57.5112 262.01H56.0938V261.301C56.0938 261.122 56.1038 260.952 56.1138 260.762L56.0539 260.752C55.7345 261.491 55.0358 262.1 53.9578 262.1C52.4705 262.1 51.4724 261.142 51.4724 259.035C51.4724 256.939 52.5604 255.871 54.1075 255.871C55.0258 255.871 55.6746 256.181 56.0639 256.75L56.1038 256.74C56.0938 256.38 56.0938 256.091 56.0938 255.702C56.0938 255.153 56.1038 254.763 56.0739 254.274ZM59.3214 260.203C59.8604 260.203 60.1898 260.513 60.1898 261.122C60.1898 261.74 59.8803 262.07 59.3214 262.07C58.7624 262.07 58.463 261.74 58.463 261.122C58.463 260.513 58.7824 260.203 59.3214 260.203ZM68.1179 255.981H69.6151C68.9863 257.528 67.6687 261.012 67.3294 262C67.0998 261.99 66.8403 261.99 66.461 261.99C66.0417 261.99 65.7024 261.99 65.5626 262C65.1833 261.002 63.8957 257.568 63.2569 255.981H64.844C64.9937 256.55 65.5926 258.147 65.9619 259.335C66.1915 260.004 66.3412 260.503 66.431 260.892H66.5109C66.6207 260.503 66.7804 259.984 67.01 259.325C67.3793 258.097 67.9482 256.53 68.1179 255.981ZM72.939 255.133C72.38 255.133 71.4817 255.133 71.0724 255.153C71.0724 255.023 71.0824 254.913 71.0824 254.773C71.0824 254.624 71.0724 254.494 71.0724 254.354C71.4817 254.374 72.38 254.374 72.939 254.374C73.5279 254.374 74.4262 254.374 74.8355 254.354C74.8255 254.494 74.8255 254.624 74.8255 254.773C74.8255 254.913 74.8255 255.023 74.8355 255.153C74.4262 255.133 73.5279 255.133 72.939 255.133ZM72.9589 256.919C71.9209 256.919 71.3519 257.488 71.2521 258.586C72.1804 258.606 73.5478 258.606 74.3264 258.586C74.3264 258.467 74.3364 258.317 74.3364 258.147C74.3364 257.349 73.9172 256.919 72.9589 256.919ZM73.2584 260.952C74.1068 260.952 74.6658 260.832 75.2946 260.493C75.3745 260.872 75.4942 261.261 75.614 261.621C74.8854 261.96 74.0669 262.12 73.1286 262.12C71.0325 262.12 69.9146 260.972 69.9146 258.936C69.9146 256.899 71.1124 255.841 72.9589 255.851C74.9053 255.851 75.614 256.69 75.614 258.407C75.614 258.746 75.5941 259.115 75.5741 259.335C75.095 259.325 74.2366 259.325 73.2284 259.325C72.5098 259.325 71.7911 259.325 71.2521 259.315C71.3619 260.393 72.0107 260.952 73.2584 260.952ZM78.2657 257.299L78.3356 257.309C78.645 256.311 79.2938 255.891 80.2221 255.891C80.5914 255.891 80.9208 255.961 81.2203 256.061C81.1604 256.37 81.0805 257.009 81.0606 257.379C80.7711 257.259 80.4517 257.199 80.0824 257.199C79.0842 257.209 78.5253 257.678 78.5253 259.105C78.5253 260.084 78.5352 261.331 78.5652 262H77.0779C77.0979 261.162 77.0979 260.263 77.0979 258.966C77.0979 257.688 77.0979 256.83 77.0779 255.981H78.3057C78.2957 256.36 78.2757 256.78 78.2657 257.299ZM81.617 255.981L82.4255 255.991C82.4255 255.532 82.4255 255.103 82.4255 254.713C82.6451 254.713 82.9046 254.723 83.1342 254.723C83.3637 254.723 83.6133 254.723 83.8329 254.713C83.8229 255.123 83.8129 255.552 83.8029 255.991C84.5915 255.991 85.4299 255.981 86.1785 255.971C86.1586 256.34 86.1486 256.82 86.1486 257.189C85.5197 257.169 84.6513 257.159 83.783 257.149C83.773 257.977 83.773 258.876 83.773 259.864C83.773 260.533 84.0724 260.852 84.8909 260.852C85.37 260.852 85.7892 260.752 86.1286 260.623C86.1685 261.032 86.2484 261.511 86.3083 261.86C85.7693 261.99 85.37 262.08 84.7212 262.08C83.0044 262.08 82.4055 261.231 82.4055 260.024C82.4055 259.275 82.4155 258.217 82.4255 257.139H81.617V255.981ZM89.9582 255.133C89.3993 255.133 88.5009 255.133 88.0917 255.153C88.0917 255.023 88.1017 254.913 88.1017 254.773C88.1017 254.624 88.0917 254.494 88.0917 254.354C88.5009 254.374 89.3993 254.374 89.9582 254.374C90.5471 254.374 91.4455 254.374 91.8547 254.354C91.8447 254.494 91.8447 254.624 91.8447 254.773C91.8447 254.913 91.8447 255.023 91.8547 255.153C91.4455 255.133 90.5471 255.133 89.9582 255.133ZM89.9782 256.919C88.9401 256.919 88.3712 257.488 88.2714 258.586C89.1996 258.606 90.5671 258.606 91.3457 258.586C91.3457 258.467 91.3556 258.317 91.3556 258.147C91.3556 257.349 90.9364 256.919 89.9782 256.919ZM90.2776 260.952C91.1261 260.952 91.685 260.832 92.3139 260.493C92.3937 260.872 92.5135 261.261 92.6333 261.621C91.9046 261.96 91.0861 262.12 90.1479 262.12C88.0518 262.12 86.9338 260.972 86.9338 258.936C86.9338 256.899 88.1316 255.841 89.9782 255.851C91.9246 255.851 92.6333 256.69 92.6333 258.407C92.6333 258.746 92.6133 259.115 92.5934 259.335C92.1142 259.325 91.2558 259.325 90.2477 259.325C89.529 259.325 88.8104 259.325 88.2714 259.315C88.3812 260.393 89.03 260.952 90.2776 260.952ZM94.9456 261.132C94.9456 258.556 94.9257 256.81 94.8758 255.981H96.2832C96.2632 256.8 96.2632 257.428 96.2632 258.317C96.2632 258.986 96.2931 260.004 96.2931 261.132C96.2931 262.689 95.7242 263.487 94.2669 263.487C93.8377 263.487 93.4883 263.417 93.1789 263.278C93.2288 263.028 93.2887 262.23 93.3087 261.99C93.5283 262.11 93.8077 262.2 94.1371 262.2C94.6761 262.2 94.9456 261.88 94.9456 261.132ZM96.4828 254.893C96.4828 255.173 96.3331 255.402 95.5944 255.402C94.8458 255.402 94.6961 255.173 94.6961 254.893C94.6961 254.594 94.8558 254.404 95.5944 254.404C96.3131 254.404 96.4828 254.594 96.4828 254.893ZM102.32 255.981H103.747C103.728 256.8 103.718 257.568 103.718 258.916C103.718 260.223 103.728 261.191 103.747 262H102.31C102.32 261.611 102.32 261.321 102.34 260.952L102.3 260.942C101.931 261.73 101.182 262.1 100.084 262.1C98.6968 262.1 97.9083 261.371 97.9083 259.924C97.9083 258.956 97.9183 258.546 97.9183 257.948C97.9183 257.239 97.9183 256.61 97.8883 255.981H99.3356C99.3057 256.889 99.3057 258.067 99.3057 259.614C99.3057 260.553 99.685 260.992 100.643 260.992C101.591 260.992 102.34 260.493 102.34 259.325C102.34 257.289 102.33 256.59 102.32 255.981ZM114.488 262H113.12C113.15 261.152 113.16 259.804 113.16 258.247C113.16 257.448 112.831 257.059 112.032 257.059C111.234 257.059 110.585 257.498 110.585 258.576C110.585 260.363 110.575 261.231 110.615 262H109.257C109.287 261.152 109.297 260.094 109.297 258.277C109.297 257.468 108.988 257.059 108.179 257.059C107.381 257.059 106.732 257.498 106.732 258.576C106.732 260.153 106.732 261.381 106.752 262H105.395C105.415 261.162 105.415 260.313 105.415 259.065C105.415 257.748 105.415 256.86 105.395 255.981H106.782C106.772 256.36 106.762 256.63 106.742 256.999L106.802 257.009C107.151 256.261 107.77 255.881 108.689 255.881C109.597 255.881 110.296 256.281 110.485 257.059L110.545 257.069C110.904 256.221 111.633 255.881 112.551 255.881C113.729 255.881 114.478 256.51 114.478 257.758C114.478 258.586 114.448 259.305 114.448 260.034C114.448 260.682 114.468 261.421 114.488 262ZM115.848 257.638C115.848 256.57 116.827 255.851 118.543 255.851C119.462 255.851 120.39 256.011 121.109 256.291C121.029 256.68 120.979 257.059 120.919 257.448C120.33 257.139 119.312 256.979 118.543 256.989C117.485 256.989 117.106 257.219 117.106 257.628C117.106 257.818 117.176 257.967 117.386 258.077C117.585 258.207 117.984 258.287 118.603 258.347C119.582 258.437 120.31 258.616 120.729 258.956C121.079 259.255 121.248 259.684 121.248 260.253C121.248 261.451 120.28 262.13 118.484 262.13C117.445 262.13 116.417 261.9 115.719 261.571C115.799 261.172 115.868 260.762 115.928 260.373C116.627 260.752 117.565 260.982 118.533 260.982C119.661 260.982 119.991 260.702 119.991 260.263C119.991 260.074 119.931 259.894 119.741 259.774C119.482 259.604 119.082 259.545 118.384 259.485C117.485 259.405 116.817 259.245 116.387 258.936C116.028 258.646 115.848 258.227 115.848 257.638ZM130.994 258.247V258.946C131.373 258.946 131.673 258.936 131.972 258.926C131.962 259.125 131.962 259.345 131.962 259.555C131.962 259.774 131.962 259.984 131.972 260.193L131.004 260.183C131.014 260.852 131.034 261.441 131.064 262H129.487C129.517 261.501 129.537 260.792 129.547 260.163C129.048 260.163 128.548 260.163 128.019 260.163C127.181 260.163 126.153 260.173 125.185 260.193C125.334 259.305 125.794 255.342 125.824 254.514H127.361C127.271 255.302 126.882 257.628 126.772 258.926C127.431 258.946 128.319 258.946 129.557 258.946C129.557 257.898 129.537 255.462 129.517 254.514H131.024C130.984 255.582 130.994 256.67 130.994 258.247ZM134.635 258.007C135.304 258.007 136.352 258.007 136.811 257.977C136.801 258.177 136.801 258.377 136.801 258.596C136.801 258.816 136.801 259.016 136.811 259.235C136.352 259.215 135.304 259.205 134.635 259.205C133.986 259.205 132.938 259.215 132.489 259.235C132.489 259.016 132.499 258.816 132.499 258.596C132.499 258.377 132.489 258.177 132.489 257.977C132.938 258.007 133.986 258.007 134.635 258.007ZM141.068 257.319C142.675 257.319 143.643 258.037 143.643 259.555C143.643 261.122 142.595 262.12 140.608 262.12C139.351 262.12 138.283 261.82 137.534 261.331C137.714 261.002 137.913 260.503 138.043 260.113C138.712 260.573 139.56 260.872 140.519 260.872C141.716 260.872 142.265 260.373 142.265 259.505C142.265 258.626 141.716 258.227 140.668 258.227C139.89 258.227 139.321 258.496 139.061 258.906C138.652 258.806 138.173 258.736 137.814 258.746C137.834 258.257 137.824 257.448 137.824 256.82C137.824 255.941 137.824 255.063 137.784 254.514C138.562 254.534 139.261 254.534 140.359 254.534C141.627 254.534 142.375 254.524 143.413 254.514C143.393 254.664 143.393 254.833 143.393 255.133C143.393 255.382 143.393 255.582 143.413 255.791C142.924 255.762 141.776 255.752 141.397 255.752C140.838 255.752 139.89 255.742 139.101 255.762C139.101 256.121 139.101 256.52 139.101 256.949C139.101 257.259 139.101 257.568 139.101 257.868C139.54 257.568 140.169 257.319 141.068 257.319ZM145.528 258.786C145.528 256.959 145.079 255.272 144.35 254.304C144.79 254.234 145.229 254.135 145.568 254.025C146.297 254.973 146.916 256.76 146.916 258.786C146.916 260.812 146.297 262.599 145.558 263.537C145.229 263.437 144.79 263.328 144.35 263.268C145.069 262.27 145.528 260.613 145.528 258.786Z" fill="black"/>
<path d="M485.801 242.733H486.747C486.571 241.93 486.384 241.105 486.197 240.39C486.032 239.829 485.911 239.29 485.823 238.894H485.79C485.691 239.29 485.57 239.818 485.405 240.412C485.24 241.127 485.053 241.941 484.866 242.733H485.801ZM490.443 246H487.363C487.33 245.703 487.242 245.131 487.099 244.427C486.626 244.427 486.164 244.427 485.801 244.427C485.46 244.427 484.987 244.427 484.503 244.427C484.36 245.109 484.25 245.67 484.206 246H481.39C482.061 243.932 483.392 238.894 483.667 237.75H488.078C488.386 238.905 489.728 243.899 490.443 246ZM495.346 239.147H497.975C497.953 240.126 497.953 241.006 497.953 242.557C497.953 244.009 497.953 245.043 497.975 246H495.357C495.368 245.571 495.368 245.252 495.39 244.867L495.324 244.856C494.928 245.725 494.18 246.11 493.036 246.11C491.683 246.11 490.803 245.461 490.803 243.91C490.803 242.755 490.825 242.161 490.825 241.413C490.825 240.566 490.825 239.862 490.792 239.147H493.432C493.399 240.126 493.399 241.468 493.399 243.118C493.399 243.811 493.641 244.086 494.246 244.086C494.873 244.086 495.368 243.712 495.368 242.744C495.368 240.555 495.357 239.84 495.346 239.147ZM503.581 242.084V240.951C503.284 240.753 502.932 240.643 502.525 240.643C501.843 240.643 501.546 240.94 501.546 242.04C501.546 242.931 501.843 243.217 502.437 243.217C503.207 243.217 503.581 242.81 503.581 242.084ZM503.537 239.147H506.111C506.089 239.84 506.089 240.566 506.089 241.622C506.089 242.403 506.1 243.382 506.1 244.119C506.1 246.506 505.363 247.617 502.514 247.617C500.952 247.617 499.764 247.353 499.038 247.034C499.214 246.605 499.423 245.56 499.511 245.043C500.292 245.494 501.249 245.67 502.118 245.67C503.02 245.67 503.548 245.417 503.603 244.68C503.625 244.449 503.636 244.24 503.669 243.998L503.592 243.976C503.284 244.504 502.712 244.79 501.711 244.79C499.797 244.79 499.082 243.844 499.082 241.963C499.093 239.939 499.951 239.048 501.458 239.048C502.536 239.048 503.141 239.389 503.515 239.917L503.57 239.895C503.559 239.752 503.548 239.598 503.537 239.477V239.147ZM507.126 241.138C507.126 239.829 508.193 239.026 510.349 239.026C511.515 239.026 512.648 239.191 513.418 239.411C513.319 240.016 513.231 240.621 513.165 241.226C512.494 240.94 511.504 240.83 510.756 240.83C509.909 240.83 509.7 240.951 509.7 241.204C509.7 241.336 509.755 241.424 509.92 241.501C510.085 241.578 510.382 241.633 510.833 241.688C511.779 241.798 512.527 241.996 512.956 242.381C513.341 242.711 513.528 243.206 513.528 243.877C513.528 245.417 512.45 246.143 510.261 246.143C508.996 246.143 507.83 245.923 507.071 245.648C507.17 244.988 507.247 244.317 507.313 243.668C508.072 243.998 509.062 244.218 509.986 244.218C510.778 244.218 510.965 244.053 510.965 243.8C510.965 243.679 510.921 243.569 510.778 243.481C510.58 243.371 510.305 243.338 509.799 243.272C508.853 243.162 508.149 242.986 507.709 242.634C507.313 242.304 507.126 241.82 507.126 241.138ZM514.06 239.147L514.764 239.158C514.775 238.685 514.775 238.234 514.775 237.849C515.171 237.871 515.611 237.871 516.04 237.871C516.469 237.871 516.92 237.871 517.316 237.849C517.305 238.267 517.283 238.707 517.272 239.169C518.053 239.169 518.823 239.158 519.45 239.147C519.428 239.829 519.395 240.632 519.406 241.325C518.966 241.314 518.13 241.292 517.239 241.281C517.228 241.831 517.228 242.414 517.228 243.041C517.228 243.536 517.448 243.723 518.064 243.723C518.581 243.723 519.021 243.646 519.362 243.514C519.395 244.207 519.516 245.164 519.604 245.835C518.955 246 518.416 246.088 517.602 246.088C515.369 246.088 514.72 245.087 514.72 243.569C514.72 242.942 514.731 242.117 514.742 241.248L514.071 241.237C514.071 240.61 514.082 239.73 514.06 239.147ZM520.264 241.138C520.264 239.829 521.331 239.026 523.487 239.026C524.653 239.026 525.786 239.191 526.556 239.411C526.457 240.016 526.369 240.621 526.303 241.226C525.632 240.94 524.642 240.83 523.894 240.83C523.047 240.83 522.838 240.951 522.838 241.204C522.838 241.336 522.893 241.424 523.058 241.501C523.223 241.578 523.52 241.633 523.971 241.688C524.917 241.798 525.665 241.996 526.094 242.381C526.479 242.711 526.666 243.206 526.666 243.877C526.666 245.417 525.588 246.143 523.399 246.143C522.134 246.143 520.968 245.923 520.209 245.648C520.308 244.988 520.385 244.317 520.451 243.668C521.21 243.998 522.2 244.218 523.124 244.218C523.916 244.218 524.103 244.053 524.103 243.8C524.103 243.679 524.059 243.569 523.916 243.481C523.718 243.371 523.443 243.338 522.937 243.272C521.991 243.162 521.287 242.986 520.847 242.634C520.451 242.304 520.264 241.82 520.264 241.138ZM419.203 258.786C419.203 260.603 419.663 262.27 420.381 263.268C419.952 263.328 419.503 263.437 419.163 263.537C418.435 262.599 417.816 260.812 417.816 258.786C417.816 256.76 418.445 254.973 419.163 254.025C419.503 254.135 419.942 254.244 420.381 254.294C419.653 255.282 419.203 256.959 419.203 258.786ZM425.35 255.981H426.847C426.219 257.528 424.901 261.012 424.562 262C424.332 261.99 424.073 261.99 423.693 261.99C423.274 261.99 422.935 261.99 422.795 262C422.416 261.002 421.128 257.568 420.489 255.981H422.076C422.226 256.55 422.825 258.147 423.194 259.335C423.424 260.004 423.573 260.503 423.663 260.892H423.743C423.853 260.503 424.013 259.984 424.242 259.325C424.612 258.097 425.181 256.53 425.35 255.981ZM429.358 254.893C429.358 255.173 429.209 255.402 428.47 255.402C427.711 255.402 427.572 255.173 427.572 254.893C427.572 254.594 427.731 254.404 428.47 254.404C429.189 254.404 429.358 254.594 429.358 254.893ZM429.169 262H427.751C427.771 261.022 427.771 260.113 427.771 258.886C427.771 257.718 427.771 256.909 427.751 255.981H429.169C429.139 256.919 429.139 257.708 429.139 258.926C429.139 260.253 429.139 261.032 429.169 262ZM435.161 259.375V257.438C434.752 257.159 434.183 256.999 433.564 256.999C432.436 256.999 431.857 257.628 431.857 259.026C431.857 260.433 432.466 261.002 433.454 261.002C434.393 261.002 435.161 260.433 435.161 259.375ZM435.121 254.274H436.569C436.539 255.402 436.539 256.43 436.539 258.417C436.539 259.934 436.539 261.002 436.559 262.01H435.141V261.301C435.141 261.122 435.151 260.952 435.161 260.762L435.101 260.752C434.782 261.491 434.083 262.1 433.005 262.1C431.518 262.1 430.52 261.142 430.52 259.035C430.52 256.939 431.608 255.871 433.155 255.871C434.073 255.871 434.722 256.181 435.111 256.75L435.151 256.74C435.141 256.38 435.141 256.091 435.141 255.702C435.141 255.153 435.151 254.763 435.121 254.274ZM438.369 260.203C438.908 260.203 439.237 260.513 439.237 261.122C439.237 261.74 438.928 262.07 438.369 262.07C437.81 262.07 437.51 261.74 437.51 261.122C437.51 260.513 437.83 260.203 438.369 260.203ZM443.744 255.981H445.241C444.612 257.528 443.295 261.012 442.955 262C442.726 261.99 442.466 261.99 442.087 261.99C441.668 261.99 441.328 261.99 441.189 262C440.809 261.002 439.522 257.568 438.883 255.981H440.47C440.62 256.55 441.219 258.147 441.588 259.335C441.817 260.004 441.967 260.503 442.057 260.892H442.137C442.247 260.503 442.406 259.984 442.636 259.325C443.005 258.097 443.574 256.53 443.744 255.981ZM448.565 255.133C448.006 255.133 447.108 255.133 446.698 255.153C446.698 255.023 446.708 254.913 446.708 254.773C446.708 254.624 446.698 254.494 446.698 254.354C447.108 254.374 448.006 254.374 448.565 254.374C449.154 254.374 450.052 254.374 450.461 254.354C450.451 254.494 450.451 254.624 450.451 254.773C450.451 254.913 450.451 255.023 450.461 255.153C450.052 255.133 449.154 255.133 448.565 255.133ZM448.585 256.919C447.547 256.919 446.978 257.488 446.878 258.586C447.806 258.606 449.174 258.606 449.952 258.586C449.952 258.467 449.962 258.317 449.962 258.147C449.962 257.349 449.543 256.919 448.585 256.919ZM448.884 260.952C449.733 260.952 450.292 260.832 450.921 260.493C451 260.872 451.12 261.261 451.24 261.621C450.511 261.96 449.693 262.12 448.755 262.12C446.658 262.12 445.541 260.972 445.541 258.936C445.541 256.899 446.738 255.841 448.585 255.851C450.531 255.851 451.24 256.69 451.24 258.407C451.24 258.746 451.22 259.115 451.2 259.335C450.721 259.325 449.863 259.325 448.854 259.325C448.136 259.325 447.417 259.325 446.878 259.315C446.988 260.393 447.637 260.952 448.884 260.952ZM453.892 257.299L453.962 257.309C454.271 256.311 454.92 255.891 455.848 255.891C456.217 255.891 456.547 255.961 456.846 256.061C456.786 256.37 456.706 257.009 456.687 257.379C456.397 257.259 456.078 257.199 455.708 257.199C454.71 257.209 454.151 257.678 454.151 259.105C454.151 260.084 454.161 261.331 454.191 262H452.704C452.724 261.162 452.724 260.263 452.724 258.966C452.724 257.688 452.724 256.83 452.704 255.981H453.932C453.922 256.36 453.902 256.78 453.892 257.299ZM457.243 255.981L458.051 255.991C458.051 255.532 458.051 255.103 458.051 254.713C458.271 254.713 458.531 254.723 458.76 254.723C458.99 254.723 459.239 254.723 459.459 254.713C459.449 255.123 459.439 255.552 459.429 255.991C460.217 255.991 461.056 255.981 461.804 255.971C461.785 256.34 461.775 256.82 461.775 257.189C461.146 257.169 460.277 257.159 459.409 257.149C459.399 257.977 459.399 258.876 459.399 259.864C459.399 260.533 459.698 260.852 460.517 260.852C460.996 260.852 461.415 260.752 461.755 260.623C461.794 261.032 461.874 261.511 461.934 261.86C461.395 261.99 460.996 262.08 460.347 262.08C458.63 262.08 458.031 261.231 458.031 260.024C458.031 259.275 458.041 258.217 458.051 257.139H457.243V255.981ZM465.584 255.133C465.025 255.133 464.127 255.133 463.718 255.153C463.718 255.023 463.728 254.913 463.728 254.773C463.728 254.624 463.718 254.494 463.718 254.354C464.127 254.374 465.025 254.374 465.584 254.374C466.173 254.374 467.071 254.374 467.481 254.354C467.471 254.494 467.471 254.624 467.471 254.773C467.471 254.913 467.471 255.023 467.481 255.153C467.071 255.133 466.173 255.133 465.584 255.133ZM465.604 256.919C464.566 256.919 463.997 257.488 463.897 258.586C464.826 258.606 466.193 258.606 466.972 258.586C466.972 258.467 466.982 258.317 466.982 258.147C466.982 257.349 466.562 256.919 465.604 256.919ZM465.904 260.952C466.752 260.952 467.311 260.832 467.94 260.493C468.02 260.872 468.139 261.261 468.259 261.621C467.531 261.96 466.712 262.12 465.774 262.12C463.678 262.12 462.56 260.972 462.56 258.936C462.56 256.899 463.758 255.841 465.604 255.851C467.551 255.851 468.259 256.69 468.259 258.407C468.259 258.746 468.239 259.115 468.219 259.335C467.74 259.325 466.882 259.325 465.874 259.325C465.155 259.325 464.436 259.325 463.897 259.315C464.007 260.393 464.656 260.952 465.904 260.952ZM470.572 261.132C470.572 258.556 470.552 256.81 470.502 255.981H471.909C471.889 256.8 471.889 257.428 471.889 258.317C471.889 258.986 471.919 260.004 471.919 261.132C471.919 262.689 471.35 263.487 469.893 263.487C469.464 263.487 469.114 263.417 468.805 263.278C468.855 263.028 468.915 262.23 468.935 261.99C469.154 262.11 469.434 262.2 469.763 262.2C470.302 262.2 470.572 261.88 470.572 261.132ZM472.109 254.893C472.109 255.173 471.959 255.402 471.22 255.402C470.472 255.402 470.322 255.173 470.322 254.893C470.322 254.594 470.482 254.404 471.22 254.404C471.939 254.404 472.109 254.594 472.109 254.893ZM477.946 255.981H479.373C479.353 256.8 479.343 257.568 479.343 258.916C479.343 260.223 479.353 261.191 479.373 262H477.936C477.946 261.611 477.946 261.321 477.966 260.952L477.926 260.942C477.557 261.73 476.808 262.1 475.71 262.1C474.323 262.1 473.534 261.371 473.534 259.924C473.534 258.956 473.544 258.546 473.544 257.948C473.544 257.239 473.544 256.61 473.514 255.981H474.962C474.932 256.889 474.932 258.067 474.932 259.614C474.932 260.553 475.311 260.992 476.269 260.992C477.217 260.992 477.966 260.493 477.966 259.325C477.966 257.289 477.956 256.59 477.946 255.981ZM490.114 262H488.746C488.776 261.152 488.786 259.804 488.786 258.247C488.786 257.448 488.457 257.059 487.658 257.059C486.86 257.059 486.211 257.498 486.211 258.576C486.211 260.363 486.201 261.231 486.241 262H484.883C484.913 261.152 484.923 260.094 484.923 258.277C484.923 257.468 484.614 257.059 483.805 257.059C483.007 257.059 482.358 257.498 482.358 258.576C482.358 260.153 482.358 261.381 482.378 262H481.021C481.041 261.162 481.041 260.313 481.041 259.065C481.041 257.748 481.041 256.86 481.021 255.981H482.408C482.398 256.36 482.388 256.63 482.368 256.999L482.428 257.009C482.777 256.261 483.396 255.881 484.315 255.881C485.223 255.881 485.922 256.281 486.111 257.059L486.171 257.069C486.53 256.221 487.259 255.881 488.177 255.881C489.355 255.881 490.104 256.51 490.104 257.758C490.104 258.586 490.074 259.305 490.074 260.034C490.074 260.682 490.094 261.421 490.114 262ZM491.474 257.638C491.474 256.57 492.453 255.851 494.169 255.851C495.088 255.851 496.016 256.011 496.735 256.291C496.655 256.68 496.605 257.059 496.545 257.448C495.956 257.139 494.938 256.979 494.169 256.989C493.111 256.989 492.732 257.219 492.732 257.628C492.732 257.818 492.802 257.967 493.012 258.077C493.211 258.207 493.61 258.287 494.229 258.347C495.207 258.437 495.936 258.616 496.355 258.956C496.705 259.255 496.874 259.684 496.874 260.253C496.874 261.451 495.906 262.13 494.109 262.13C493.071 262.13 492.043 261.9 491.345 261.571C491.424 261.172 491.494 260.762 491.554 260.373C492.253 260.752 493.191 260.982 494.159 260.982C495.287 260.982 495.617 260.702 495.617 260.263C495.617 260.074 495.557 259.894 495.367 259.774C495.108 259.604 494.708 259.545 494.01 259.485C493.111 259.405 492.443 259.245 492.013 258.936C491.654 258.646 491.474 258.227 491.474 257.638ZM503.925 260.912C505.203 260.912 505.722 260.503 505.722 259.794C505.722 259.085 505.203 258.726 503.925 258.726C502.647 258.726 502.128 259.085 502.128 259.794C502.128 260.503 502.647 260.912 503.925 260.912ZM503.935 255.572C502.777 255.572 502.248 255.921 502.248 256.62C502.248 257.279 502.757 257.638 503.925 257.638C505.093 257.638 505.612 257.279 505.612 256.62C505.612 255.921 505.083 255.572 503.935 255.572ZM505.402 258.167V258.217C505.642 258.247 505.851 258.287 506.051 258.357C506.85 258.646 507.139 259.145 507.139 259.994C507.139 261.321 506.011 262.12 503.935 262.12C501.849 262.12 500.731 261.321 500.731 259.994C500.731 259.145 501.03 258.646 501.799 258.357C501.989 258.297 502.198 258.247 502.438 258.217V258.167C502.178 258.117 501.959 258.057 501.769 257.977C501.13 257.708 500.821 257.209 500.821 256.45C500.821 255.173 501.759 254.394 503.935 254.394C506.091 254.394 507.039 255.163 507.039 256.44C507.039 257.199 506.72 257.708 506.081 257.977C505.881 258.047 505.662 258.117 505.402 258.167ZM509.822 258.007C510.491 258.007 511.539 258.007 511.998 257.977C511.988 258.177 511.988 258.377 511.988 258.596C511.988 258.816 511.988 259.016 511.998 259.235C511.539 259.215 510.491 259.205 509.822 259.205C509.173 259.205 508.125 259.215 507.676 259.235C507.676 259.016 507.686 258.816 507.686 258.596C507.686 258.377 507.676 258.177 507.676 257.977C508.125 258.007 509.173 258.007 509.822 258.007ZM513.181 262.01C513.211 260.962 513.221 259.854 513.221 258.257C513.221 256.73 513.171 255.881 513.141 255.193C513.46 255.033 513.79 254.773 514.009 254.514C514.139 254.524 514.269 254.524 514.388 254.524C514.538 254.524 514.648 254.524 514.738 254.514C514.708 255.342 514.698 256.65 514.698 258.257C514.698 259.844 514.708 260.952 514.738 262C514.418 261.98 514.199 261.98 513.989 261.98C513.76 261.98 513.51 261.99 513.181 262.01ZM523 258.167C523 260.762 521.693 262.13 519.547 262.13C517.391 262.13 516.133 260.762 516.133 258.167C516.133 255.582 517.49 254.384 519.557 254.384C521.613 254.384 523 255.582 523 258.167ZM519.557 255.692C518.399 255.692 517.63 256.36 517.63 258.217C517.63 260.113 518.389 260.792 519.557 260.792C520.734 260.792 521.483 260.104 521.483 258.217C521.483 256.37 520.724 255.692 519.557 255.692ZM524.849 258.786C524.849 256.959 524.399 255.272 523.671 254.304C524.11 254.234 524.549 254.135 524.889 254.025C525.617 254.973 526.236 256.76 526.236 258.786C526.236 260.812 525.617 262.599 524.879 263.537C524.549 263.437 524.11 263.328 523.671 263.268C524.389 262.27 524.849 260.613 524.849 258.786Z" fill="black"/>
<path d="M37 193.5C37 183.283 45.2827 175 55.5 175H200V212H55.5C45.2827 212 37 203.717 37 193.5Z" fill="#CB3E3E"/>
<rect x="201" y="175" width="162" height="37" fill="#F4E140"/>
<path d="M364 175H508.5C518.717 175 527 183.283 527 193.5C527 203.717 518.717 212 508.5 212H364V175Z" fill="#3FCC6F"/>
<g filter="url(#filter1_d_1190_5110)">
<rect x="242" y="126" width="74.8462" height="30" rx="14.2812" fill="white" shape-rendering="crispEdges"/>
<path d="M254.361 134.385H262.946C262.931 134.785 262.931 135.401 262.931 135.959C262.931 136.488 262.931 137.16 262.946 137.59C262.102 137.575 261.257 137.561 260.485 137.561C260.485 141.009 260.499 144.357 260.542 145.13C260.041 145.087 259.226 145.087 258.653 145.087C258.081 145.087 257.294 145.087 256.779 145.13C256.822 144.357 256.836 141.023 256.836 137.561C256.064 137.561 255.22 137.575 254.361 137.59C254.375 137.16 254.375 136.488 254.375 135.959C254.375 135.401 254.375 134.785 254.361 134.385ZM269.138 141.438V141.295C268.752 141.224 268.365 141.209 267.95 141.209C267.135 141.209 266.792 141.467 266.792 142.168C266.792 142.826 267.035 143.098 267.707 143.098C268.594 143.098 269.138 142.569 269.138 141.438ZM269.152 140.151V139.75C269.152 139.035 268.809 138.691 267.722 138.691C266.691 138.691 265.304 138.977 264.316 139.464C264.216 138.706 263.987 137.332 263.816 136.703C265.103 136.331 266.534 136.016 267.993 136.016C271.284 136.016 272.486 137.261 272.486 139.349C272.486 140.566 272.443 141.41 272.443 142.526C272.443 143.499 272.515 144.729 272.658 145.115H269.911C269.31 145.115 269.195 145.058 269.195 144.357C269.195 144.157 269.21 143.899 269.224 143.627H269.152C268.78 144.743 267.793 145.244 266.305 145.244C264.545 145.244 263.63 144.629 263.63 142.626C263.63 140.78 264.874 139.993 267.536 139.993C268.208 139.993 268.737 140.051 269.152 140.151ZM279.755 140.022V138.548C279.369 138.291 278.911 138.148 278.382 138.148C277.495 138.148 277.109 138.534 277.109 139.965C277.109 141.124 277.495 141.496 278.267 141.496C279.269 141.496 279.755 140.966 279.755 140.022ZM279.698 136.202H283.046C283.018 137.103 283.018 138.047 283.018 139.421C283.018 140.437 283.032 141.71 283.032 142.669C283.032 145.774 282.073 147.219 278.368 147.219C276.336 147.219 274.791 146.875 273.846 146.46C274.075 145.902 274.347 144.543 274.462 143.871C275.477 144.457 276.722 144.686 277.853 144.686C279.026 144.686 279.713 144.357 279.784 143.399C279.813 143.098 279.827 142.826 279.87 142.511L279.77 142.483C279.369 143.17 278.625 143.542 277.323 143.542C274.834 143.542 273.904 142.311 273.904 139.865C273.918 137.232 275.034 136.073 276.994 136.073C278.396 136.073 279.183 136.517 279.67 137.203L279.741 137.175C279.727 136.989 279.713 136.788 279.698 136.631V136.202ZM289.775 141.438V141.295C289.389 141.224 289.003 141.209 288.588 141.209C287.772 141.209 287.429 141.467 287.429 142.168C287.429 142.826 287.672 143.098 288.344 143.098C289.231 143.098 289.775 142.569 289.775 141.438ZM289.789 140.151V139.75C289.789 139.035 289.446 138.691 288.359 138.691C287.329 138.691 285.941 138.977 284.953 139.464C284.853 138.706 284.624 137.332 284.453 136.703C285.74 136.331 287.171 136.016 288.631 136.016C291.921 136.016 293.123 137.261 293.123 139.349C293.123 140.566 293.08 141.41 293.08 142.526C293.08 143.499 293.152 144.729 293.295 145.115H290.548C289.947 145.115 289.832 145.058 289.832 144.357C289.832 144.157 289.847 143.899 289.861 143.627H289.789C289.417 144.743 288.43 145.244 286.942 145.244C285.182 145.244 284.267 144.629 284.267 142.626C284.267 140.78 285.511 139.993 288.173 139.993C288.845 139.993 289.375 140.051 289.789 140.151ZM300.55 140.981V138.72C300.178 138.548 299.72 138.448 299.176 138.448C298.161 138.448 297.646 138.963 297.646 140.637C297.646 142.225 298.161 142.755 299.005 142.755C299.892 142.755 300.55 142.211 300.55 140.981ZM300.478 134.041H303.912C303.869 135.601 303.884 137.16 303.884 139.793C303.884 142.068 303.869 143.599 303.912 145.13H300.493C300.493 144.815 300.507 144.515 300.507 144.171C300.507 143.957 300.507 143.728 300.521 143.499L300.421 143.484C300.049 144.4 299.248 145.244 297.646 145.244C295.614 145.244 294.355 143.971 294.355 140.68C294.355 137.361 295.871 136.059 297.832 136.059C299.076 136.059 299.963 136.474 300.478 137.361L300.521 137.346C300.493 136.846 300.493 136.431 300.493 135.887C300.493 135.2 300.507 134.628 300.478 134.041Z" fill="#666666"/>
</g>
<path d="M281.46 178.082C280.667 178.965 279.283 178.965 278.49 178.082L270.864 169.591C269.71 168.306 270.622 166.261 272.349 166.261L287.601 166.261C289.328 166.261 290.24 168.306 289.086 169.591L281.46 178.082Z" fill="#666666"/>
<g filter="url(#filter2_d_1190_5110)">
<rect x="367" y="126" width="156.846" height="30" rx="14.2812" fill="white" shape-rendering="crispEdges"/>
<path d="M384.682 140.122C386.056 140.122 386.513 139.721 386.513 138.491C386.513 137.261 385.998 136.903 384.754 136.903C384.496 136.903 383.938 136.903 383.495 136.917C383.495 138.033 383.495 139.106 383.509 140.108C383.795 140.108 384.21 140.122 384.682 140.122ZM380.018 134.385H385.569C388.331 134.385 389.861 135.329 389.861 138.419C389.861 141.367 388.545 142.64 385.269 142.64C384.725 142.64 384.196 142.626 383.537 142.612C383.566 143.585 383.595 144.429 383.652 145.115H380.018C380.061 143.57 380.075 142.039 380.075 139.75C380.075 137.475 380.061 135.873 380.018 134.385ZM395.319 135.057C394.46 135.057 393.058 135.057 392.428 135.086C392.443 134.843 392.457 134.628 392.457 134.385C392.457 134.084 392.443 133.841 392.428 133.569C393.058 133.612 394.46 133.612 395.319 133.612C396.249 133.612 397.636 133.612 398.266 133.569C398.252 133.841 398.237 134.084 398.237 134.385C398.237 134.628 398.252 134.843 398.266 135.086C397.636 135.057 396.249 135.057 395.319 135.057ZM395.362 138.148C394.417 138.148 393.959 138.648 393.845 139.965C394.675 139.993 395.576 139.979 396.506 139.965C396.52 139.822 396.52 139.636 396.52 139.421C396.52 138.491 396.177 138.148 395.362 138.148ZM399.039 142.168C399.124 142.898 399.31 143.971 399.468 144.643C398.295 145.058 396.878 145.273 395.39 145.273C392.071 145.273 390.611 143.728 390.611 140.594C390.611 137.361 392.271 136.016 395.319 136.016C398.495 136.016 399.439 137.103 399.439 139.736C399.439 140.394 399.382 141.009 399.353 141.338C398.509 141.324 397.222 141.31 396.077 141.31C395.233 141.31 394.432 141.324 393.859 141.324C394.002 142.268 394.575 142.683 395.877 142.683C397.136 142.683 397.951 142.554 399.039 142.168ZM405.955 142.225C406.828 142.225 407.586 142.082 408.316 141.796C408.431 142.626 408.574 143.656 408.76 144.715C407.901 145.03 406.785 145.287 405.397 145.287C402.078 145.287 400.476 143.785 400.476 140.523C400.476 137.361 402.364 136.03 405.426 136.03C406.671 136.03 407.758 136.173 408.674 136.431C408.531 137.289 408.431 138.319 408.316 139.249C407.486 138.977 406.642 138.849 405.912 138.849C404.568 138.849 403.752 139.364 403.752 140.48C403.752 141.581 404.525 142.225 405.955 142.225ZM417.495 142.054L417.51 142.097C418.282 142.082 419.055 142.082 419.556 142.082C420.457 142.082 421.358 142.054 422.059 141.996C422.059 142.497 422.031 143.098 422.031 143.699C422.031 144.243 422.031 144.758 422.059 145.115H413.461C413.489 144.758 413.518 144.114 413.518 143.456C413.518 142.841 413.518 142.297 413.489 141.911C417.08 140.237 418.339 139.535 418.339 138.477C418.339 137.79 417.882 137.475 417.009 137.475C415.993 137.475 414.906 137.819 414.162 138.276C413.918 137.504 413.632 135.93 413.317 135.129C414.262 134.685 415.65 134.213 417.696 134.213C420.686 134.213 422.145 135.315 422.145 137.475C422.145 138.849 421.687 139.807 419.899 140.995C419.155 141.467 418.311 141.81 417.495 142.054ZM440.934 145.115H437.829C437.872 143.785 437.872 142.097 437.872 139.979C437.872 139.163 437.558 138.806 436.885 138.806C436.184 138.806 435.612 139.206 435.612 140.437C435.612 142.955 435.597 144.114 435.655 145.115H432.578C432.621 143.813 432.636 142.34 432.636 139.965C432.636 139.206 432.35 138.806 431.648 138.806C430.933 138.806 430.361 139.206 430.361 140.437C430.361 142.855 430.361 144.2 430.389 145.115H427.256C427.285 143.828 427.285 142.554 427.285 140.68C427.285 138.763 427.285 137.489 427.256 136.202H430.447C430.432 136.745 430.418 137.146 430.389 137.661L430.475 137.69C430.99 136.574 431.806 136.073 433.036 136.073C434.367 136.073 435.24 136.703 435.497 137.776H435.597C436.112 136.517 437.143 136.073 438.344 136.073C439.976 136.073 440.92 136.989 440.92 138.634C440.92 140.136 440.877 141.124 440.877 142.283C440.877 143.298 440.891 144.271 440.934 145.115ZM446.793 135.057C445.934 135.057 444.532 135.057 443.903 135.086C443.917 134.843 443.931 134.628 443.931 134.385C443.931 134.084 443.917 133.841 443.903 133.569C444.532 133.612 445.934 133.612 446.793 133.612C447.723 133.612 449.111 133.612 449.74 133.569C449.726 133.841 449.712 134.084 449.712 134.385C449.712 134.628 449.726 134.843 449.74 135.086C449.111 135.057 447.723 135.057 446.793 135.057ZM446.836 138.148C445.891 138.148 445.434 138.648 445.319 139.965C446.149 139.993 447.05 139.979 447.98 139.965C447.995 139.822 447.995 139.636 447.995 139.421C447.995 138.491 447.651 138.148 446.836 138.148ZM450.513 142.168C450.599 142.898 450.785 143.971 450.942 144.643C449.769 145.058 448.352 145.273 446.864 145.273C443.545 145.273 442.086 143.728 442.086 140.594C442.086 137.361 443.745 136.016 446.793 136.016C449.969 136.016 450.913 137.103 450.913 139.736C450.913 140.394 450.856 141.009 450.828 141.338C449.983 141.324 448.696 141.31 447.551 141.31C446.707 141.31 445.906 141.324 445.333 141.324C445.476 142.268 446.049 142.683 447.351 142.683C448.61 142.683 449.425 142.554 450.513 142.168ZM461.693 145.115H458.259C458.288 143.871 458.302 142.182 458.302 140.093C458.302 139.163 458.002 138.791 457.186 138.791C456.371 138.791 455.727 139.249 455.727 140.537C455.727 143.298 455.741 144.228 455.756 145.115H452.35C452.379 143.842 452.393 142.697 452.393 140.68C452.393 138.777 452.379 137.432 452.35 136.202H455.756C455.741 136.76 455.741 137.175 455.713 137.675L455.798 137.704C456.328 136.559 457.329 136.073 458.76 136.073C460.606 136.073 461.665 136.903 461.665 139.035C461.665 140.465 461.636 141.195 461.636 142.125C461.636 143.241 461.65 144.171 461.693 145.115ZM467.585 138.148C466.64 138.148 466.183 138.648 466.068 139.965C466.898 139.993 467.799 139.979 468.729 139.965C468.744 139.822 468.744 139.636 468.744 139.421C468.744 138.491 468.4 138.148 467.585 138.148ZM471.262 142.168C471.348 142.898 471.534 143.971 471.691 144.643C470.518 145.058 469.101 145.273 467.613 145.273C464.294 145.273 462.835 143.728 462.835 140.594C462.835 137.361 464.494 136.016 467.542 136.016C470.718 136.016 471.662 137.103 471.662 139.736C471.662 140.394 471.605 141.009 471.577 141.338C470.732 141.324 469.445 141.31 468.3 141.31C467.456 141.31 466.655 141.324 466.082 141.324C466.225 142.268 466.798 142.683 468.1 142.683C469.359 142.683 470.174 142.554 471.262 142.168ZM477.477 135.558H476.547C475.617 134.699 474.258 133.34 473.9 133.054C474.029 132.868 474.201 132.596 474.301 132.453C474.673 132.596 475.689 133.111 477.005 133.727C478.307 133.126 479.337 132.611 479.724 132.453C479.81 132.611 479.953 132.868 480.081 133.054C479.738 133.34 478.393 134.699 477.477 135.558ZM480.41 140.408C480.911 140.837 481.154 141.481 481.154 142.354C481.154 144.357 479.752 145.301 476.905 145.301C475.26 145.301 473.743 145.015 472.756 144.658C472.885 143.799 472.985 142.926 473.071 142.082C474.058 142.511 475.346 142.798 476.547 142.798C477.578 142.798 477.821 142.583 477.821 142.254C477.821 142.097 477.764 141.953 477.578 141.839C477.32 141.696 476.962 141.653 476.304 141.567C475.074 141.424 474.158 141.195 473.586 140.737C473.071 140.308 472.827 139.679 472.827 138.791C472.827 137.089 474.215 136.044 477.02 136.044C478.536 136.044 480.01 136.259 481.011 136.545C480.883 137.332 480.768 138.119 480.682 138.906C479.81 138.534 478.522 138.391 477.549 138.391C476.447 138.391 476.175 138.548 476.175 138.877C476.175 139.049 476.247 139.163 476.462 139.264C476.676 139.364 477.062 139.435 477.649 139.507C478.88 139.65 479.852 139.907 480.41 140.408ZM486.068 134.785C486.068 135.215 485.824 135.629 484.136 135.629C482.419 135.629 482.176 135.215 482.176 134.785C482.176 134.299 482.462 133.998 484.136 133.998C485.796 133.998 486.068 134.299 486.068 134.785ZM485.824 145.115H482.419C482.462 143.742 482.462 142.225 482.462 140.494C482.462 138.863 482.448 137.561 482.419 136.202H485.824C485.781 137.575 485.781 138.849 485.781 140.68C485.781 142.626 485.781 143.785 485.824 145.115ZM491.827 138.148C490.882 138.148 490.425 138.648 490.31 139.965C491.14 139.993 492.041 139.979 492.971 139.965C492.986 139.822 492.986 139.636 492.986 139.421C492.986 138.491 492.642 138.148 491.827 138.148ZM495.504 142.168C495.59 142.898 495.776 143.971 495.933 144.643C494.76 145.058 493.343 145.273 491.855 145.273C488.536 145.273 487.077 143.728 487.077 140.594C487.077 137.361 488.736 136.016 491.784 136.016C494.96 136.016 495.904 137.103 495.904 139.736C495.904 140.394 495.847 141.009 495.819 141.338C494.974 141.324 493.687 141.31 492.542 141.31C491.698 141.31 490.897 141.324 490.324 141.324C490.467 142.268 491.04 142.683 492.342 142.683C493.601 142.683 494.416 142.554 495.504 142.168ZM511.019 145.115H507.915C507.958 143.785 507.958 142.097 507.958 139.979C507.958 139.163 507.643 138.806 506.97 138.806C506.269 138.806 505.697 139.206 505.697 140.437C505.697 142.955 505.683 144.114 505.74 145.115H502.664C502.707 143.813 502.721 142.34 502.721 139.965C502.721 139.206 502.435 138.806 501.734 138.806C501.018 138.806 500.446 139.206 500.446 140.437C500.446 142.855 500.446 144.2 500.475 145.115H497.341C497.37 143.828 497.37 142.554 497.37 140.68C497.37 138.763 497.37 137.489 497.341 136.202H500.532C500.518 136.745 500.503 137.146 500.475 137.661L500.561 137.69C501.076 136.574 501.891 136.073 503.122 136.073C504.452 136.073 505.325 136.703 505.583 137.776H505.683C506.198 136.517 507.228 136.073 508.43 136.073C510.061 136.073 511.005 136.989 511.005 138.634C511.005 140.136 510.962 141.124 510.962 142.283C510.962 143.298 510.977 144.271 511.019 145.115Z" fill="black"/>
</g>
<path d="M447.46 178.082C446.667 178.965 445.283 178.965 444.49 178.082L436.864 169.591C435.71 168.306 436.622 166.261 438.349 166.261L453.601 166.261C455.328 166.261 456.24 168.306 455.086 169.591L447.46 178.082Z" fill="black"/>
<defs>
<filter id="filter0_d_1190_5110" x="0.64695" y="0.323475" width="558.706" height="348.706" filterUnits="userSpaceOnUse" color-interpolation-filters="sRGB">
<feFlood flood-opacity="0" result="BackgroundImageFix"/>
<feColorMatrix in="SourceAlpha" type="matrix" values="0 0 0 0 0 0 0 0 0 0 0 0 0 0 0 0 0 0 127 0" result="hardAlpha"/>
<feOffset dy="4.67653"/>
<feGaussianBlur stdDeviation="4.67653"/>
<feColorMatrix type="matrix" values="0 0 0 0 0.160784 0 0 0 0 0.160784 0 0 0 0 0.164706 0 0 0 0.07 0"/>
<feBlend mode="normal" in2="BackgroundImageFix" result="effect1_dropShadow_1190_5110"/>
<feBlend mode="normal" in="SourceGraphic" in2="effect1_dropShadow_1190_5110" result="shape"/>
</filter>
<filter id="filter1_d_1190_5110" x="203.917" y="106.958" width="151.014" height="106.167" filterUnits="userSpaceOnUse" color-interpolation-filters="sRGB">
<feFlood flood-opacity="0" result="BackgroundImageFix"/>
<feColorMatrix in="SourceAlpha" type="matrix" values="0 0 0 0 0 0 0 0 0 0 0 0 0 0 0 0 0 0 127 0" result="hardAlpha"/>
<feOffset dy="19.0417"/>
<feGaussianBlur stdDeviation="19.0417"/>
<feComposite in2="hardAlpha" operator="out"/>
<feColorMatrix type="matrix" values="0 0 0 0 0.153783 0 0 0 0 0.202141 0 0 0 0 0.312457 0 0 0 0.12 0"/>
<feBlend mode="normal" in2="BackgroundImageFix" result="effect1_dropShadow_1190_5110"/>
<feBlend mode="normal" in="SourceGraphic" in2="effect1_dropShadow_1190_5110" result="shape"/>
</filter>
<filter id="filter2_d_1190_5110" x="328.917" y="106.958" width="233.014" height="106.167" filterUnits="userSpaceOnUse" color-interpolation-filters="sRGB">
<feFlood flood-opacity="0" result="BackgroundImageFix"/>
<feColorMatrix in="SourceAlpha" type="matrix" values="0 0 0 0 0 0 0 0 0 0 0 0 0 0 0 0 0 0 127 0" result="hardAlpha"/>
<feOffset dy="19.0417"/>
<feGaussianBlur stdDeviation="19.0417"/>
<feComposite in2="hardAlpha" operator="out"/>
<feColorMatrix type="matrix" values="0 0 0 0 0.153783 0 0 0 0 0.202141 0 0 0 0 0.312457 0 0 0 0.12 0"/>
<feBlend mode="normal" in2="BackgroundImageFix" result="effect1_dropShadow_1190_5110"/>
<feBlend mode="normal" in="SourceGraphic" in2="effect1_dropShadow_1190_5110" result="shape"/>
</filter>
</defs>
</svg>
