<?xml version="1.0" standalone="no"?>
<!DOCTYPE svg PUBLIC "-//W3C//DTD SVG 20010904//EN"
 "http://www.w3.org/TR/2001/REC-SVG-20010904/DTD/svg10.dtd">
<svg version="1.0" xmlns="http://www.w3.org/2000/svg"
 width="700.000000pt" height="700.000000pt" viewBox="0 0 700.000000 700.000000"
 preserveAspectRatio="xMidYMid meet">
<metadata>
Created by potrace 1.14, written by Peter Selinger 2001-2017
</metadata>
<g transform="translate(0.000000,700.000000) scale(0.100000,-0.100000)"
fill="#000000" stroke="none">
<path d="M3279 6626 c-2 -2 -40 -7 -84 -10 -44 -4 -91 -8 -105 -11 -33 -5
-100 -16 -125 -19 -109 -17 -350 -77 -471 -119 -226 -79 -354 -137 -579 -261
-18 -10 -107 -65 -147 -91 -241 -157 -514 -400 -688 -614 -19 -24 -40 -48 -46
-55 -27 -28 -156 -211 -214 -301 -60 -94 -175 -312 -212 -400 -51 -122 -69
-168 -96 -246 -31 -88 -87 -288 -97 -348 -3 -19 -8 -37 -10 -40 -2 -4 -6 -26
-10 -51 -4 -25 -8 -47 -10 -50 -2 -3 -6 -34 -10 -70 -4 -36 -9 -73 -10 -82
-19 -95 -26 -489 -13 -653 6 -71 29 -245 43 -315 27 -141 47 -219 91 -365 121
-395 353 -810 630 -1126 92 -105 301 -305 404 -388 227 -182 530 -361 785
-464 297 -119 572 -186 920 -223 89 -9 409 -11 500 -3 120 11 197 19 225 24
14 3 41 7 60 9 19 2 91 16 160 31 415 89 816 268 1181 527 52 37 106 78 120
90 15 13 51 43 80 67 137 114 344 337 502 541 67 86 201 308 275 455 127 251
249 617 278 835 3 25 8 47 9 50 2 3 7 33 10 65 4 33 9 69 11 80 25 119 24 602
-1 770 -34 222 -38 242 -75 392 -133 534 -428 1049 -826 1447 -204 203 -371
331 -679 519 -59 36 -312 156 -400 190 -176 68 -407 135 -560 162 -22 4 -51 9
-65 12 -33 6 -53 9 -125 18 -33 3 -71 9 -85 12 -29 6 -535 14 -541 9z"/>
</g>
</svg>
